<svg width="38" height="38" viewBox="0 0 38 38" fill="none" xmlns="http://www.w3.org/2000/svg">
<path d="M19 22.6364L15.3636 19L19 15.3637L22.6364 19L19 22.6364ZM15.1364 11.9546L10.5909 7.40912L16.4091 1.59094C16.7727 1.2273 17.1818 0.954576 17.6364 0.772758C18.0909 0.59094 18.5455 0.500031 19 0.500031C19.4545 0.500031 19.9091 0.59094 20.3636 0.772758C20.8182 0.954576 21.2273 1.2273 21.5909 1.59094L27.4091 7.40912L22.8636 11.9546L19 8.09094L15.1364 11.9546ZM7.40909 27.4091L1.59091 21.5909C1.22727 21.2273 0.954545 20.8182 0.772727 20.3637C0.590909 19.9091 0.5 19.4546 0.5 19C0.5 18.5455 0.590909 18.0909 0.772727 17.6364C0.954545 17.1819 1.22727 16.7728 1.59091 16.4091L7.40909 10.5909L11.9545 15.1364L8.09091 19L11.9545 22.8637L7.40909 27.4091ZM30.5909 27.4091L26.0455 22.8637L29.9091 19L26.0455 15.1364L30.5909 10.5909L36.4091 16.4091C36.7727 16.7728 37.0455 17.1819 37.2273 17.6364C37.4091 18.0909 37.5 18.5455 37.5 19C37.5 19.4546 37.4091 19.9091 37.2273 20.3637C37.0455 20.8182 36.7727 21.2273 36.4091 21.5909L30.5909 27.4091ZM16.4091 36.4091L10.5909 30.5909L15.1364 26.0455L19 29.9091L22.8636 26.0455L27.4091 30.5909L21.5909 36.4091C21.2273 36.7728 20.8182 37.0455 20.3636 37.2273C19.9091 37.4091 19.4545 37.5 19 37.5C18.5455 37.5 18.0909 37.4091 17.6364 37.2273C17.1818 37.0455 16.7727 36.7728 16.4091 36.4091Z" fill="#00FFFF"/>
</svg>
