<svg width="40" height="40" viewBox="0 0 40 40" fill="none" xmlns="http://www.w3.org/2000/svg">
<g clip-path="url(#clip0_86_12)">
<path d="M20 40C14.4074 40 9.6763 39.1393 5.80667 37.4178C1.93704 35.6963 0.00148148 33.5941 0 31.1111V8.88889C0 6.44444 1.95407 4.35185 5.86222 2.61111C9.77037 0.870371 14.483 0 20 0C25.517 0 30.2304 0.870371 34.14 2.61111C38.0496 4.35185 40.003 6.44444 40 8.88889V31.1111C40 33.5926 38.0644 35.6948 34.1933 37.4178C30.3222 39.1407 25.5911 40.0015 20 40ZM20 13.3889C23.2963 13.3889 26.6111 12.9163 29.9444 11.9711C33.2778 11.0259 35.1481 10.017 35.5556 8.94444C35.1481 7.87037 33.2874 6.85185 29.9733 5.88889C26.6593 4.92593 23.3348 4.44444 20 4.44444C16.6296 4.44444 13.3244 4.91704 10.0844 5.86222C6.84444 6.80741 4.96444 7.83482 4.44444 8.94444C4.96296 10.0556 6.84296 11.0741 10.0844 12C13.3259 12.9259 16.6311 13.3889 20 13.3889ZM20 24.4444C21.5556 24.4444 23.0556 24.3704 24.5 24.2222C25.9444 24.0741 27.3244 23.8607 28.64 23.5822C29.9556 23.3037 31.1963 22.9615 32.3622 22.5556C33.5281 22.1496 34.5926 21.6867 35.5556 21.1667V14.5C34.5926 15.0185 33.5281 15.4815 32.3622 15.8889C31.1963 16.2963 29.9556 16.6393 28.64 16.9178C27.3244 17.1963 25.9444 17.4089 24.5 17.5556C23.0556 17.7022 21.5556 17.7763 20 17.7778C18.4444 17.7793 16.9259 17.7052 15.4444 17.5556C13.963 17.4059 12.5644 17.1926 11.2489 16.9156C9.93333 16.6385 8.70222 16.2963 7.55556 15.8889C6.40889 15.4815 5.37185 15.0185 4.44444 14.5V21.1667C5.37037 21.6852 6.40741 22.1481 7.55556 22.5556C8.7037 22.963 9.93555 23.3059 11.2511 23.5844C12.5667 23.863 13.9644 24.0756 15.4444 24.2222C16.9244 24.3689 18.443 24.443 20 24.4444ZM20 35.5556C21.7037 35.5556 23.4356 35.4259 25.1956 35.1667C26.9556 34.9074 28.5756 34.5652 30.0556 34.14C31.5356 33.7148 32.7763 33.2333 33.7778 32.6956C34.7793 32.1578 35.3718 31.6111 35.5556 31.0556V25.6111C34.5926 26.1296 33.5281 26.5926 32.3622 27C31.1963 27.4074 29.9556 27.7504 28.64 28.0289C27.3244 28.3074 25.9444 28.52 24.5 28.6667C23.0556 28.8133 21.5556 28.8874 20 28.8889C18.4444 28.8904 16.9259 28.8163 15.4444 28.6667C13.963 28.517 12.5644 28.3037 11.2489 28.0267C9.93333 27.7496 8.70222 27.4074 7.55556 27C6.40889 26.5926 5.37185 26.1296 4.44444 25.6111V31.1111C4.62963 31.6667 5.21333 32.2037 6.19556 32.7222C7.17778 33.2407 8.40889 33.7133 9.88889 34.14C11.3689 34.5667 12.9985 34.9089 14.7778 35.1667C16.557 35.4244 18.2978 35.5541 20 35.5556Z" fill="#00FFFF"/>
</g>
<defs>
<clipPath id="clip0_86_12">
<rect width="40" height="40" fill="white"/>
</clipPath>
</defs>
</svg>
