<svg width="40" height="40" viewBox="0 0 40 40" fill="none" xmlns="http://www.w3.org/2000/svg">
<path fill-rule="evenodd" clip-rule="evenodd" d="M25.8171 0.52319C25.983 0.689015 26.1146 0.885892 26.2044 1.10258C26.2941 1.31926 26.3403 1.5515 26.3403 1.78605C26.3403 2.02059 26.2941 2.25284 26.2044 2.46952C26.1146 2.6862 25.983 2.88308 25.8171 3.0489L20.6514 8.21462L25.8171 13.3803C25.983 13.5462 26.1145 13.7431 26.2043 13.9597C26.294 14.1764 26.3402 14.4087 26.3402 14.6432C26.3402 14.8777 26.294 15.11 26.2043 15.3266C26.1145 15.5433 25.983 15.7402 25.8171 15.906C25.6513 16.0719 25.4544 16.2034 25.2377 16.2932C25.0211 16.3829 24.7888 16.4291 24.5543 16.4291C24.3198 16.4291 24.0875 16.3829 23.8708 16.2932C23.6542 16.2034 23.4573 16.0719 23.2914 15.906L16.8629 9.47748C16.697 9.31165 16.5654 9.11477 16.4756 8.89809C16.3859 8.68141 16.3397 8.44916 16.3397 8.21462C16.3397 7.98008 16.3859 7.74783 16.4756 7.53115C16.5654 7.31446 16.697 7.11759 16.8629 6.95176L23.2914 0.52319C23.4573 0.357321 23.6541 0.225744 23.8708 0.135974C24.0875 0.0462045 24.3197 0 24.5543 0C24.7888 0 25.0211 0.0462045 25.2378 0.135974C25.4544 0.225744 25.6513 0.357321 25.8171 0.52319ZM30.5229 0.52319C30.6887 0.357321 30.8856 0.225744 31.1022 0.135974C31.3189 0.0462045 31.5512 0 31.7857 0C32.0203 0 32.2525 0.0462045 32.4692 0.135974C32.6859 0.225744 32.8828 0.357321 33.0486 0.52319L39.4771 6.95176C39.643 7.11759 39.7746 7.31446 39.8644 7.53115C39.9541 7.74783 40.0003 7.98008 40.0003 8.21462C40.0003 8.44916 39.9541 8.68141 39.8644 8.89809C39.7746 9.11477 39.643 9.31165 39.4771 9.47748L33.0486 15.906C32.8827 16.0719 32.6859 16.2034 32.4692 16.2932C32.2525 16.3829 32.0203 16.4291 31.7857 16.4291C31.5512 16.4291 31.3189 16.3829 31.1023 16.2932C30.8856 16.2034 30.6887 16.0719 30.5229 15.906C30.357 15.7402 30.2255 15.5433 30.1357 15.3266C30.046 15.11 29.9998 14.8777 29.9998 14.6432C29.9998 14.4087 30.046 14.1764 30.1357 13.9597C30.2255 13.7431 30.357 13.5462 30.5229 13.3803L35.6886 8.21462L30.5229 3.0489C30.357 2.88308 30.2254 2.6862 30.1356 2.46952C30.0459 2.25284 29.9997 2.02059 29.9997 1.78605C29.9997 1.5515 30.0459 1.31926 30.1356 1.10258C30.2254 0.885892 30.357 0.689015 30.5229 0.52319ZM36.7857 32.8575H25.1114L26.54 36.4289H28.5714C29.045 36.4289 29.4992 36.617 29.8341 36.9519C30.169 37.2868 30.3571 37.741 30.3571 38.2146C30.3571 38.6882 30.169 39.1424 29.8341 39.4773C29.4992 39.8122 29.045 40.0003 28.5714 40.0003H11.4286C10.955 40.0003 10.5008 39.8122 10.1659 39.4773C9.831 39.1424 9.64286 38.6882 9.64286 38.2146C9.64286 37.741 9.831 37.2868 10.1659 36.9519C10.5008 36.617 10.955 36.4289 11.4286 36.4289H13.46L14.8886 32.8575H3.21429C2.3618 32.8575 1.54424 32.5188 0.941443 31.916C0.338647 31.3132 0 30.4957 0 29.6432L0 8.21462C0 6.44033 1.44 5.00033 3.21429 5.00033H11.4286C11.9022 5.00033 12.3564 5.18847 12.6913 5.52336C13.0261 5.85824 13.2143 6.31245 13.2143 6.78605C13.2143 7.25965 13.0261 7.71385 12.6913 8.04874C12.3564 8.38363 11.9022 8.57176 11.4286 8.57176H3.57143V29.2861H36.4286V20.0003C36.4286 19.5267 36.6167 19.0725 36.9516 18.7376C37.2865 18.4028 37.7407 18.2146 38.2143 18.2146C38.6879 18.2146 39.1421 18.4028 39.477 18.7376C39.8119 19.0725 40 19.5267 40 20.0003V29.6432C40 31.4175 38.56 32.8575 36.7857 32.8575Z" fill="#00FFFF"/>
</svg>
