<svg width="33" height="40" viewBox="0 0 33 40" fill="none" xmlns="http://www.w3.org/2000/svg">
<path d="M12.7273 9.09091C13.2424 9.09091 13.6745 8.91636 14.0236 8.56727C14.3727 8.21818 14.5467 7.78667 14.5455 7.27273C14.5442 6.75879 14.3697 6.32727 14.0218 5.97818C13.6739 5.62909 13.2424 5.45455 12.7273 5.45455C12.2121 5.45455 11.7806 5.62909 11.4327 5.97818C11.0848 6.32727 10.9103 6.75879 10.9091 7.27273C10.9079 7.78667 11.0824 8.21879 11.4327 8.56909C11.783 8.91939 12.2145 9.09333 12.7273 9.09091ZM3.63636 40C2.63636 40 1.78061 39.6442 1.06909 38.9327C0.357575 38.2212 0.00121212 37.3648 0 36.3636V3.63636C0 2.63636 0.356363 1.78061 1.06909 1.06909C1.78182 0.357576 2.63758 0.00121212 3.63636 0H21.8182C22.8182 0 23.6745 0.356364 24.3873 1.06909C25.1 1.78182 25.4558 2.63758 25.4545 3.63636V9.27273C26 9.48485 26.4394 9.81818 26.7727 10.2727C27.1061 10.7273 27.2727 11.2424 27.2727 11.8182V15.4545C27.2727 16.0303 27.1061 16.5455 26.7727 17C26.4394 17.4545 26 17.7879 25.4545 18V21.8182H21.8182V3.63636H3.63636V36.3636H7.27273V40H3.63636ZM17.4545 39.2727L10.9091 32.7273L17.4545 26.1818L20 28.7727L16.0455 32.7273L20 36.6818L17.4545 39.2727ZM26.1818 39.2727L23.6364 36.6818L27.5909 32.7273L23.6364 28.7727L26.1818 26.1818L32.7273 32.7273L26.1818 39.2727Z" fill="#00FFFF"/>
</svg>
