<svg width="22" height="39" viewBox="0 0 22 39" fill="none" xmlns="http://www.w3.org/2000/svg">
<path d="M7.6149 27.7098H14.2816L17.7166 16.7164C18.1995 15.1721 18.3004 13.5335 18.0107 11.9416C17.721 10.3496 17.0493 8.85168 16.0532 7.57644L11.7366 2.05144C11.643 1.93161 11.5234 1.83468 11.3868 1.76801C11.2502 1.70134 11.1002 1.66669 10.9482 1.66669C10.7962 1.66669 10.6462 1.70134 10.5096 1.76801C10.373 1.83468 10.2534 1.93161 10.1599 2.05144L5.84323 7.57644C4.84718 8.85168 4.17547 10.3496 3.88575 11.9416C3.59604 13.5335 3.69697 15.1721 4.1799 16.7164L7.6149 27.7098ZM7.6149 27.7098L2.6149 31.0431C2.6149 31.0431 -0.718437 24.3764 5.1149 20.2098M7.6149 32.7098C7.6149 36.0431 10.9482 37.7098 10.9482 37.7098C10.9482 37.7098 14.2816 36.0431 14.2816 32.7098M17.4999 20.2098C23.3332 24.3764 19.9999 31.0431 19.9999 31.0431L14.9999 27.7098" stroke="#00FFFF" stroke-width="1.5" stroke-linecap="round" stroke-linejoin="round"/>
<path d="M10.9483 17.7098C10.0643 17.7098 9.21642 17.3586 8.5913 16.7334C7.96618 16.1083 7.61499 15.2605 7.61499 14.3764C7.61499 13.4924 7.96618 12.6445 8.5913 12.0194C9.21642 11.3943 10.0643 11.0431 10.9483 11.0431C11.8324 11.0431 12.6802 11.3943 13.3053 12.0194C13.9305 12.6445 14.2817 13.4924 14.2817 14.3764C14.2817 15.2605 13.9305 16.1083 13.3053 16.7334C12.6802 17.3586 11.8324 17.7098 10.9483 17.7098Z" stroke="#00FFFF" stroke-width="1.5" stroke-linecap="round" stroke-linejoin="round"/>
</svg>
