<svg width="57" height="50" viewBox="0 0 57 50" fill="none" xmlns="http://www.w3.org/2000/svg">
<path d="M2.59259 -0.000339859C2.33347 -0.00369057 2.07675 0.0497287 1.84047 0.156166C1.60419 0.262604 1.39408 0.419479 1.22489 0.615774C1.0557 0.812069 0.931532 1.04302 0.861113 1.29242C0.790694 1.54182 0.775728 1.8036 0.817266 2.0594L8.35385 47.8111C8.44772 48.371 8.73588 48.8799 9.16771 49.2485C9.59954 49.617 10.1474 49.8216 10.7151 49.8263H46.8709C47.2965 49.8318 47.7098 49.6842 48.0356 49.4105C48.3615 49.1367 48.5781 48.755 48.6461 48.3349L56.1829 2.06827C56.2243 1.81249 56.2093 1.55073 56.1388 1.30138C56.0684 1.05202 55.9442 0.821107 55.775 0.624859C55.6058 0.42861 55.3956 0.27178 55.1594 0.165382C54.9231 0.0589834 54.6664 0.00559572 54.4073 0.0089675L2.59259 -0.000339859ZM34.3277 33.0663H22.7876L19.6629 16.7417H37.124L34.3277 33.0663Z" fill="#2684FF"/>
<path d="M53.7403 16.7191H37.0918L34.2976 33.0308H22.7669L9.15173 49.1916C9.58323 49.5648 10.1334 49.7723 10.7039 49.7769H46.8398C47.265 49.7824 47.6781 49.635 48.0037 49.3615C48.3293 49.088 48.5458 48.7066 48.6139 48.2869L53.7403 16.7191Z" fill="url(#paint0_linear_68_1599)"/>
<defs>
<linearGradient id="paint0_linear_68_1599" x1="4852.94" y1="473.514" x2="2929.77" y2="3204.19" gradientUnits="userSpaceOnUse">
<stop offset="0.18" stop-color="#0052CC"/>
<stop offset="1" stop-color="#2684FF"/>
</linearGradient>
</defs>
</svg>
