<svg width="64" height="50" viewBox="0 0 64 50" fill="none" xmlns="http://www.w3.org/2000/svg">
<g clip-path="url(#clip0_68_1611)">
<path d="M62.6562 19.5311C62.4688 19.4061 60.9062 18.1874 57.5312 18.1874C56.6562 18.1874 55.7812 18.2811 54.9062 18.4374C54.25 14.0624 50.5938 11.8436 50.4375 11.7499L49.5312 11.2186L48.9688 12.0624C48.2188 13.1874 47.625 14.4686 47.375 15.7811C46.75 18.2811 47.125 20.6561 48.4062 22.6874C46.875 23.5624 44.375 23.7811 43.8438 23.7811H2.6875C1.625 23.7811 0.75 24.6561 0.75 25.7499C0.75 29.3436 1.3125 32.9374 2.5625 36.3124C3.96875 40.0311 6.09375 42.7811 8.8125 44.4686C11.875 46.3436 16.9062 47.4061 22.625 47.4061C25.0938 47.4061 27.6562 47.1874 30.1875 46.7186C33.6875 46.0936 37.0625 44.8749 40.1562 43.0936C42.7185 41.6285 45.0118 39.7367 46.9375 37.4999C50.2188 33.8436 52.1562 29.6874 53.5625 26.0936H54.1562C57.7188 26.0936 59.9375 24.6561 61.1562 23.4374C61.9688 22.6874 62.5625 21.7811 63 20.7186L63.25 19.9686L62.6562 19.5311ZM6.53125 22.6249H12.0312C12.2812 22.6249 12.5312 22.4061 12.5312 22.1249V17.1874C12.5312 16.9374 12.3125 16.6874 12.0312 16.6874H6.53125C6.25 16.6874 6.03125 16.9061 6.03125 17.1874V22.1249C6.0625 22.4061 6.25 22.6249 6.53125 22.6249ZM14.125 22.6249H19.625C19.875 22.6249 20.125 22.4061 20.125 22.1249V17.1874C20.125 16.9374 19.9062 16.6874 19.625 16.6874H14.125C13.8438 16.6874 13.625 16.9061 13.625 17.1874V22.1249C13.6562 22.4061 13.8438 22.6249 14.125 22.6249ZM21.8438 22.6249H27.3125C27.625 22.6249 27.8438 22.4061 27.8438 22.1249V17.1874C27.8438 16.9374 27.6562 16.6874 27.3125 16.6874H21.8438C21.5938 16.6874 21.375 16.9061 21.375 17.1874V22.1249C21.375 22.4061 21.5625 22.6249 21.8438 22.6249ZM29.4687 22.6249H35C35.25 22.6249 35.4688 22.4061 35.4688 22.1249V17.1874C35.4688 16.9374 35.2812 16.6874 35 16.6874H29.4687C29.2187 16.6874 29 16.9061 29 17.1874V22.1249C29 22.4061 29.2187 22.6249 29.4687 22.6249ZM14.125 15.6249H19.625C19.875 15.6249 20.125 15.3436 20.125 15.0624V10.1561C20.125 9.87488 19.9062 9.65613 19.625 9.65613H14.125C13.8438 9.65613 13.625 9.84363 13.625 10.1561V15.0624C13.6562 15.3436 13.8438 15.6249 14.125 15.6249ZM21.8438 15.6249H27.3125C27.625 15.6249 27.8438 15.3436 27.8438 15.0624V10.1561C27.8438 9.87488 27.6562 9.65613 27.3125 9.65613H21.8438C21.5938 9.65613 21.375 9.84363 21.375 10.1561V15.0624C21.375 15.3436 21.5625 15.6249 21.8438 15.6249ZM29.4687 15.6249H35C35.25 15.6249 35.4688 15.3436 35.4688 15.0624V10.1561C35.4688 9.87488 35.25 9.65613 35 9.65613H29.4687C29.2187 9.65613 29 9.84363 29 10.1561V15.0624C29 15.3436 29.2187 15.6249 29.4687 15.6249ZM29.4687 8.49988H35C35.25 8.49988 35.4688 8.28113 35.4688 7.99988V3.12488C35.4688 2.81238 35.25 2.59363 35 2.59363H29.4687C29.2187 2.59363 29 2.78113 29 3.12488V7.99988C29 8.24988 29.2187 8.49988 29.4687 8.49988ZM37.1562 22.6249H42.6562C42.9375 22.6249 43.1562 22.4061 43.1562 22.1249V17.1874C43.1562 16.9374 42.9375 16.6874 42.6562 16.6874H37.1562C36.9062 16.6874 36.6875 16.9061 36.6875 17.1874V22.1249C36.6875 22.4061 36.9062 22.6249 37.1562 22.6249Z" fill="#0288D1"/>
</g>
<defs>
<clipPath id="clip0_68_1611">
<rect width="62.5" height="50" fill="white" transform="translate(0.75)"/>
</clipPath>
</defs>
</svg>
