<svg width="320" height="320" version="1.1" xmlns="http://www.w3.org/2000/svg" desc="Created with imagetracer.js version 1.2.6" ><path fill="rgb(0,0,0)" stroke="rgb(0,0,0)" stroke-width="1" opacity="0" d="M 0 0 L 320 0 L 320 320 L 0 320 L 0 0 Z M 182 16 L 109 58 L 38 199 L 37 205 L 55 215 L 59 215 L 65 212 L 132 172 L 146 203 L 181 288 L 206 304 Q 212 305 215 302 L 278 265 L 283 261 L 279 245 L 259 186 L 241 185 L 225 177 Q 211 167 207 149 Q 205 125 216 114 L 230 101 L 230 96 L 208 30 L 198 22 L 186 16 L 182 16 Z M 246 112 L 232 119 Q 225 125 223 135 L 223 147 L 228 159 Q 233 167 244 170 L 259 170 L 272 163 Q 279 157 281 146 L 281 138 L 276 125 Q 271 117 262 113 L 246 112 Z " /><path fill="rgb(203,203,210)" stroke="rgb(203,203,210)" stroke-width="1" opacity="0.9882352941176471" d="M 182.5 23 L 186 23.5 L 182.5 24 L 182.5 23 Z " /><path fill="rgb(203,203,210)" stroke="rgb(203,203,210)" stroke-width="1" opacity="0.9882352941176471" d="M 180.5 24 L 179.5 26 L 180.5 24 Z " /><path fill="rgb(203,203,210)" stroke="rgb(203,203,210)" stroke-width="1" opacity="0.9882352941176471" d="M 187.5 24 L 188.5 26 L 187.5 24 Z " /><path fill="rgb(203,203,210)" stroke="rgb(203,203,210)" stroke-width="1" opacity="0.9882352941176471" d="M 175.5 27 L 174.5 29 L 175.5 27 Z " /><path fill="rgb(203,203,210)" stroke="rgb(203,203,210)" stroke-width="1" opacity="0.9882352941176471" d="M 196.5 29 L 197.5 31 L 196.5 29 Z " /><path fill="rgb(203,203,210)" stroke="rgb(203,203,210)" stroke-width="1" opacity="0.9882352941176471" d="M 168.5 31 L 167.5 33 L 168.5 31 Z " /><path fill="rgb(203,203,210)" stroke="rgb(203,203,210)" stroke-width="1" opacity="0.9882352941176471" d="M 195.5 31 L 194.5 33 L 195.5 31 Z " /><path fill="rgb(203,203,210)" stroke="rgb(203,203,210)" stroke-width="1" opacity="0.9882352941176471" d="M 192.5 33 L 191.5 35 L 192.5 33 Z " /><path fill="rgb(203,203,210)" stroke="rgb(203,203,210)" stroke-width="1" opacity="0.9882352941176471" d="M 161.5 35 L 160.5 37 L 161.5 35 Z " /><path fill="rgb(203,203,210)" stroke="rgb(203,203,210)" stroke-width="1" opacity="0.9882352941176471" d="M 189.5 35 L 188.5 37 L 189.5 35 Z " /><path fill="rgb(203,203,210)" stroke="rgb(203,203,210)" stroke-width="1" opacity="0.9882352941176471" d="M 184.5 38 L 183.5 40 L 184.5 38 Z " /><path fill="rgb(203,203,210)" stroke="rgb(203,203,210)" stroke-width="1" opacity="0.9882352941176471" d="M 154.5 39 L 153.5 41 L 151.5 42 L 152.5 40 L 154.5 39 Z " /><path fill="rgb(203,203,210)" stroke="rgb(203,203,210)" stroke-width="1" opacity="0.9882352941176471" d="M 179.5 41 L 178.5 43 L 176.5 44 L 177.5 42 L 179.5 41 Z " /><path fill="rgb(203,203,210)" stroke="rgb(203,203,210)" stroke-width="1" opacity="0.9882352941176471" d="M 147.5 43 L 146.5 45 L 144.5 46 L 145.5 44 L 147.5 43 Z " /><path fill="rgb(203,203,210)" stroke="rgb(203,203,210)" stroke-width="1" opacity="0.9882352941176471" d="M 172.5 45 L 171.5 47 L 172.5 45 Z " /><path fill="rgb(203,203,210)" stroke="rgb(203,203,210)" stroke-width="1" opacity="0.9882352941176471" d="M 140.5 47 L 139.5 49 L 140.5 47 Z " /><path fill="rgb(203,203,210)" stroke="rgb(203,203,210)" stroke-width="1" opacity="0.9882352941176471" d="M 165.5 49 L 164.5 51 L 165.5 49 Z " /><path fill="rgb(203,203,210)" stroke="rgb(203,203,210)" stroke-width="1" opacity="0.9882352941176471" d="M 133.5 51 L 132.5 53 L 133.5 51 Z " /><path fill="rgb(203,203,210)" stroke="rgb(203,203,210)" stroke-width="1" opacity="0.9882352941176471" d="M 158.5 53 L 157.5 55 L 155.5 56 L 156.5 54 L 158.5 53 Z " /><path fill="rgb(203,203,210)" stroke="rgb(203,203,210)" stroke-width="1" opacity="0.9882352941176471" d="M 128.5 54 L 127.5 56 L 128.5 54 Z " /><path fill="rgb(203,203,210)" stroke="rgb(203,203,210)" stroke-width="1" opacity="0.9882352941176471" d="M 123.5 57 L 122.5 59 L 123.5 57 Z " /><path fill="rgb(203,203,210)" stroke="rgb(203,203,210)" stroke-width="1" opacity="0.9882352941176471" d="M 151.5 57 L 150.5 59 L 148.5 60 L 149.5 58 L 151.5 57 Z " /><path fill="rgb(203,203,210)" stroke="rgb(203,203,210)" stroke-width="1" opacity="0.9882352941176471" d="M 120.5 59 L 120.5 61 L 123 62.5 L 121.5 62 L 119 60.5 L 120.5 59 Z " /><path fill="rgb(203,203,210)" stroke="rgb(203,203,210)" stroke-width="1" opacity="0.9882352941176471" d="M 142.5 62 L 141.5 64 L 139.5 65 L 140.5 63 L 142.5 62 Z " /><path fill="rgb(203,203,210)" stroke="rgb(203,203,210)" stroke-width="1" opacity="0.9882352941176471" d="M 126.5 64 L 130 66.5 L 128.5 66 L 126.5 64 Z " /><path fill="rgb(203,203,210)" stroke="rgb(203,203,210)" stroke-width="1" opacity="0.9882352941176471" d="M 113.5 65 L 112.5 67 L 113.5 65 Z " /><path fill="rgb(203,203,210)" stroke="rgb(203,203,210)" stroke-width="1" opacity="0.9882352941176471" d="M 137.5 65 L 136.5 67 L 137.5 65 Z " /><path fill="rgb(203,203,210)" stroke="rgb(203,203,210)" stroke-width="1" opacity="0.9882352941176471" d="M 115.5 66 L 120 68.5 L 118.5 68 Q 114.7 67.8 115.5 66 Z " /><path fill="rgb(203,203,210)" stroke="rgb(203,203,210)" stroke-width="1" opacity="0.9882352941176471" d="M 110.5 70 L 110 71.5 L 89.5 112 L 90 110.5 L 110.5 70 Z " /><path fill="rgb(203,203,210)" stroke="rgb(203,203,210)" stroke-width="1" opacity="0.9882352941176471" d="M 123.5 70 L 124.5 72 L 123.5 70 Z " /><path fill="rgb(203,203,210)" stroke="rgb(203,203,210)" stroke-width="1" opacity="0.9882352941176471" d="M 128.5 73 L 131 76.5 L 130 76.5 L 128.5 73 Z " /><path fill="rgb(203,203,210)" stroke="rgb(203,203,210)" stroke-width="1" opacity="0.9882352941176471" d="M 248.5 118 L 255 118.5 L 248.5 119 L 248.5 118 Z " /><path fill="rgb(203,203,210)" stroke="rgb(203,203,210)" stroke-width="1" opacity="0.9882352941176471" d="M 260.5 120 L 265 122.5 L 263.5 122 Q 259.8 121.8 260.5 120 Z " /><path fill="rgb(203,203,210)" stroke="rgb(203,203,210)" stroke-width="1" opacity="0.9882352941176471" d="M 238.5 122 L 237.5 124 L 238.5 122 Z " /><path fill="rgb(203,203,210)" stroke="rgb(203,203,210)" stroke-width="1" opacity="0.9882352941176471" d="M 116.5 126 L 113.5 130 L 116.5 126 Z " /><path fill="rgb(203,203,210)" stroke="rgb(203,203,210)" stroke-width="1" opacity="0.9882352941176471" d="M 268.5 126 L 270 129.5 L 269 129.5 L 268.5 126 Z " /><path fill="rgb(203,203,210)" stroke="rgb(203,203,210)" stroke-width="1" opacity="0.9882352941176471" d="M 120.5 127 L 123 131.5 L 122 131.5 L 120.5 127 Z " /><path fill="rgb(203,203,210)" stroke="rgb(203,203,210)" stroke-width="1" opacity="0.9882352941176471" d="M 233.5 127 L 232.5 129 L 233.5 127 Z " /><path fill="rgb(203,203,210)" stroke="rgb(203,203,210)" stroke-width="1" opacity="0.9882352941176471" d="M 111.5 132 L 110.5 134 L 111.5 132 Z " /><path fill="rgb(203,203,210)" stroke="rgb(203,203,210)" stroke-width="1" opacity="0.9882352941176471" d="M 109.5 135 L 107.5 138 L 109.5 135 Z " /><path fill="rgb(203,203,210)" stroke="rgb(203,203,210)" stroke-width="1" opacity="0.9882352941176471" d="M 229.5 135 L 230 144.5 L 229 144.5 L 229.5 135 Z " /><path fill="rgb(203,203,210)" stroke="rgb(203,203,210)" stroke-width="1" opacity="0.9882352941176471" d="M 125.5 137 L 127 140.5 L 126 140.5 L 125.5 137 Z " /><path fill="rgb(203,203,210)" stroke="rgb(203,203,210)" stroke-width="1" opacity="0.9882352941176471" d="M 106.5 139 L 104.5 142 L 106.5 139 Z " /><path fill="rgb(203,203,210)" stroke="rgb(203,203,210)" stroke-width="1" opacity="0.9882352941176471" d="M 266.5 139 L 265.5 141 L 266.5 139 Z " /><path fill="rgb(203,203,210)" stroke="rgb(203,203,210)" stroke-width="1" opacity="0.9882352941176471" d="M 264.5 142 L 257.5 150 L 264.5 142 Z " /><path fill="rgb(203,203,210)" stroke="rgb(203,203,210)" stroke-width="1" opacity="0.9882352941176471" d="M 103.5 143 L 101.5 146 L 103.5 143 Z " /><path fill="rgb(203,203,210)" stroke="rgb(203,203,210)" stroke-width="1" opacity="0.9882352941176471" d="M 100.5 147 L 98.5 150 L 100.5 147 Z " /><path fill="rgb(203,203,210)" stroke="rgb(203,203,210)" stroke-width="1" opacity="0.9882352941176471" d="M 231.5 150 L 233 152.5 L 231 151.5 L 231.5 150 Z " /><path fill="rgb(203,203,210)" stroke="rgb(203,203,210)" stroke-width="1" opacity="0.9882352941176471" d="M 255.5 150 L 254.5 152 L 255.5 150 Z " /><path fill="rgb(203,203,210)" stroke="rgb(203,203,210)" stroke-width="1" opacity="0.9882352941176471" d="M 97.5 151 L 95.5 154 L 97.5 151 Z " /><path fill="rgb(203,203,210)" stroke="rgb(203,203,210)" stroke-width="1" opacity="0.9882352941176471" d="M 131.5 151 L 133 154.5 L 132 154.5 L 131.5 151 Z " /><path fill="rgb(203,203,210)" stroke="rgb(203,203,210)" stroke-width="1" opacity="0.9882352941176471" d="M 233.5 154 L 234.5 156 L 233.5 154 Z " /><path fill="rgb(203,203,210)" stroke="rgb(203,203,210)" stroke-width="1" opacity="0.9882352941176471" d="M 94.5 155 L 92.5 158 L 94.5 155 Z " /><path fill="rgb(203,203,210)" stroke="rgb(203,203,210)" stroke-width="1" opacity="0.9882352941176471" d="M 243.5 155 L 246 155.5 L 243.5 156 L 243.5 155 Z " /><path fill="rgb(203,203,210)" stroke="rgb(203,203,210)" stroke-width="1" opacity="0.9882352941176471" d="M 236.5 156 L 242 156.5 L 236.5 157 L 236.5 156 Z " /><path fill="rgb(203,203,210)" stroke="rgb(203,203,210)" stroke-width="1" opacity="0.9882352941176471" d="M 134.5 158 L 136 161.5 L 135 161.5 L 134.5 158 Z " /><path fill="rgb(203,203,210)" stroke="rgb(203,203,210)" stroke-width="1" opacity="0.9882352941176471" d="M 91.5 159 L 89.5 162 L 91.5 159 Z " /><path fill="rgb(203,203,210)" stroke="rgb(203,203,210)" stroke-width="1" opacity="0.9882352941176471" d="M 88.5 163 L 86.5 166 L 88.5 163 Z " /><path fill="rgb(203,203,210)" stroke="rgb(203,203,210)" stroke-width="1" opacity="0.9882352941176471" d="M 85.5 167 L 83.5 170 L 85.5 167 Z " /><path fill="rgb(203,203,210)" stroke="rgb(203,203,210)" stroke-width="1" opacity="0.9882352941176471" d="M 139.5 170 L 141 173.5 L 140 173.5 L 139.5 170 Z " /><path fill="rgb(203,203,210)" stroke="rgb(203,203,210)" stroke-width="1" opacity="0.9882352941176471" d="M 82.5 171 L 81.5 173 L 82.5 171 Z " /><path fill="rgb(203,203,210)" stroke="rgb(203,203,210)" stroke-width="1" opacity="0.9882352941176471" d="M 80.5 174 L 78.5 177 L 80.5 174 Z " /><path fill="rgb(203,203,210)" stroke="rgb(203,203,210)" stroke-width="1" opacity="0.9882352941176471" d="M 77.5 178 L 75.5 181 L 77.5 178 Z " /><path fill="rgb(203,203,210)" stroke="rgb(203,203,210)" stroke-width="1" opacity="0.9882352941176471" d="M 74.5 182 L 72.5 185 L 74.5 182 Z " /><path fill="rgb(203,203,210)" stroke="rgb(203,203,210)" stroke-width="1" opacity="0.9882352941176471" d="M 144.5 182 L 146 185.5 L 145 185.5 L 144.5 182 Z " /><path fill="rgb(203,203,210)" stroke="rgb(203,203,210)" stroke-width="1" opacity="0.9882352941176471" d="M 71.5 186 L 69.5 189 L 71.5 186 Z " /><path fill="rgb(203,203,210)" stroke="rgb(203,203,210)" stroke-width="1" opacity="0.9882352941176471" d="M 51.5 187 L 51 188.5 L 44.5 201 L 45 199.5 L 51.5 187 Z " /><path fill="rgb(203,203,210)" stroke="rgb(203,203,210)" stroke-width="1" opacity="0.9882352941176471" d="M 68.5 190 L 66.5 193 L 68.5 190 Z " /><path fill="rgb(203,203,210)" stroke="rgb(203,203,210)" stroke-width="1" opacity="0.9882352941176471" d="M 65.5 194 L 64.5 196 L 65.5 194 Z " /><path fill="rgb(203,203,210)" stroke="rgb(203,203,210)" stroke-width="1" opacity="0.9882352941176471" d="M 63.5 197 L 61.5 200 L 63.5 197 Z " /><path fill="rgb(203,203,210)" stroke="rgb(203,203,210)" stroke-width="1" opacity="0.9882352941176471" d="M 60.5 201 L 59.5 203 L 60.5 201 Z " /><path fill="rgb(203,203,210)" stroke="rgb(203,203,210)" stroke-width="1" opacity="0.9882352941176471" d="M 46.5 202 L 47.5 204 L 46.5 202 Z " /><path fill="rgb(203,203,210)" stroke="rgb(203,203,210)" stroke-width="1" opacity="0.9882352941176471" d="M 58.5 204 L 57.5 206 L 58.5 204 Z " /><path fill="rgb(203,203,210)" stroke="rgb(203,203,210)" stroke-width="1" opacity="0.9882352941176471" d="M 153.5 204 L 155 207.5 L 154 207.5 L 153.5 204 Z " /><path fill="rgb(203,203,210)" stroke="rgb(203,203,210)" stroke-width="1" opacity="0.9882352941176471" d="M 158.5 216 L 160 219.5 L 159 219.5 L 158.5 216 Z " /><path fill="rgb(203,203,210)" stroke="rgb(203,203,210)" stroke-width="1" opacity="0.9882352941176471" d="M 163.5 228 L 165 231.5 L 164 231.5 L 163.5 228 Z " /><path fill="rgb(203,203,210)" stroke="rgb(203,203,210)" stroke-width="1" opacity="0.9882352941176471" d="M 166.5 235 L 168 238.5 L 167 238.5 L 166.5 235 Z " /><path fill="rgb(203,203,210)" stroke="rgb(203,203,210)" stroke-width="1" opacity="0.9882352941176471" d="M 171.5 247 L 173 250.5 L 172 250.5 L 171.5 247 Z " /><path fill="rgb(203,203,210)" stroke="rgb(203,203,210)" stroke-width="1" opacity="0.9882352941176471" d="M 176.5 259 L 178 262.5 L 177 262.5 L 176.5 259 Z " /><path fill="rgb(203,203,210)" stroke="rgb(203,203,210)" stroke-width="1" opacity="0.9882352941176471" d="M 181.5 271 L 183 274.5 L 182 274.5 L 181.5 271 Z " /><path fill="rgb(203,203,210)" stroke="rgb(203,203,210)" stroke-width="1" opacity="0.9882352941176471" d="M 186.5 283 L 187.5 285 L 186.5 283 Z " /><path fill="rgb(203,203,210)" stroke="rgb(203,203,210)" stroke-width="1" opacity="0.9882352941176471" d="M 189.5 285 L 193 287.5 L 191.5 287 L 189.5 285 Z " /><path fill="rgb(203,203,210)" stroke="rgb(203,203,210)" stroke-width="1" opacity="0.9882352941176471" d="M 194.5 288 L 195.5 290 L 194.5 288 Z " /><path fill="rgb(203,203,210)" stroke="rgb(203,203,210)" stroke-width="1" opacity="0.9882352941176471" d="M 200.5 289 L 201 290.5 L 200.5 293 L 197 290.5 L 198.5 291 Q 201 291.7 200.5 289 Z " /><path fill="rgb(22,22,50)" stroke="rgb(22,22,50)" stroke-width="1" opacity="0.8823529411764706" d="M 179.5 24 L 178.5 26 L 179.5 24 Z " /><path fill="rgb(22,22,50)" stroke="rgb(22,22,50)" stroke-width="1" opacity="0.8823529411764706" d="M 188.5 24 L 192 26.5 L 190.5 26 L 188.5 24 Z " /><path fill="rgb(22,22,50)" stroke="rgb(22,22,50)" stroke-width="1" opacity="0.8823529411764706" d="M 174.5 27 L 173.5 29 L 171.5 30 L 172.5 28 L 174.5 27 Z " /><path fill="rgb(22,22,50)" stroke="rgb(22,22,50)" stroke-width="1" opacity="0.8823529411764706" d="M 167.5 31 L 166.5 33 L 164.5 34 L 165.5 32 L 167.5 31 Z " /><path fill="rgb(22,22,50)" stroke="rgb(22,22,50)" stroke-width="1" opacity="0.8823529411764706" d="M 196.5 31 L 195.5 33 L 196.5 31 Z " /><path fill="rgb(22,22,50)" stroke="rgb(22,22,50)" stroke-width="1" opacity="0.8823529411764706" d="M 193.5 33 L 192.5 35 L 193.5 33 Z " /><path fill="rgb(22,22,50)" stroke="rgb(22,22,50)" stroke-width="1" opacity="0.8823529411764706" d="M 160.5 35 L 159.5 37 L 157.5 38 L 158.5 36 L 160.5 35 Z " /><path fill="rgb(22,22,50)" stroke="rgb(22,22,50)" stroke-width="1" opacity="0.8823529411764706" d="M 190.5 35 L 189.5 37 L 190.5 35 Z " /><path fill="rgb(22,22,50)" stroke="rgb(22,22,50)" stroke-width="1" opacity="0.8823529411764706" d="M 185.5 38 L 184.5 40 L 185.5 38 Z " /><path fill="rgb(22,22,50)" stroke="rgb(22,22,50)" stroke-width="1" opacity="0.8823529411764706" d="M 151.5 40 L 150.5 42 L 151.5 40 Z " /><path fill="rgb(22,22,50)" stroke="rgb(22,22,50)" stroke-width="1" opacity="0.8823529411764706" d="M 180.5 41 L 179.5 43 L 180.5 41 Z " /><path fill="rgb(22,22,50)" stroke="rgb(22,22,50)" stroke-width="1" opacity="0.8823529411764706" d="M 144.5 44 L 143.5 46 L 144.5 44 Z " /><path fill="rgb(22,22,50)" stroke="rgb(22,22,50)" stroke-width="1" opacity="0.8823529411764706" d="M 173.5 45 L 172.5 47 L 173.5 45 Z " /><path fill="rgb(22,22,50)" stroke="rgb(22,22,50)" stroke-width="1" opacity="0.8823529411764706" d="M 139.5 47 L 138.5 49 L 136.5 50 L 137.5 48 L 139.5 47 Z " /><path fill="rgb(22,22,50)" stroke="rgb(22,22,50)" stroke-width="1" opacity="0.8823529411764706" d="M 168.5 48 L 167.5 50 L 165.5 51 L 166.5 49 L 168.5 48 Z " /><path fill="rgb(22,22,50)" stroke="rgb(22,22,50)" stroke-width="1" opacity="0.8823529411764706" d="M 132.5 51 L 131.5 53 L 132.5 51 Z " /><path fill="rgb(22,22,50)" stroke="rgb(22,22,50)" stroke-width="1" opacity="0.8823529411764706" d="M 161.5 52 L 160.5 54 L 158.5 55 L 159.5 53 L 161.5 52 Z " /><path fill="rgb(22,22,50)" stroke="rgb(22,22,50)" stroke-width="1" opacity="0.8823529411764706" d="M 127.5 54 L 126.5 56 L 124.5 57 L 125.5 55 L 127.5 54 Z " /><path fill="rgb(22,22,50)" stroke="rgb(22,22,50)" stroke-width="1" opacity="0.8823529411764706" d="M 122.5 57 L 121.5 59 L 122.5 57 Z " /><path fill="rgb(22,22,50)" stroke="rgb(22,22,50)" stroke-width="1" opacity="0.8823529411764706" d="M 152.5 57 L 151.5 59 L 152.5 57 Z " /><path fill="rgb(22,22,50)" stroke="rgb(22,22,50)" stroke-width="1" opacity="0.8823529411764706" d="M 145.5 61 L 144.5 63 L 142.5 64 L 143.5 62 L 145.5 61 Z " /><path fill="rgb(22,22,50)" stroke="rgb(22,22,50)" stroke-width="1" opacity="0.8823529411764706" d="M 123.5 63 L 127 65.5 L 125.5 65 L 123.5 63 Z " /><path fill="rgb(22,22,50)" stroke="rgb(22,22,50)" stroke-width="1" opacity="0.8823529411764706" d="M 112.5 65 L 112 66.5 L 109.5 71 L 110 69.5 L 112.5 65 Z " /><path fill="rgb(22,22,50)" stroke="rgb(22,22,50)" stroke-width="1" opacity="0.8823529411764706" d="M 138.5 65 L 137.5 67 L 138.5 65 Z " /><path fill="rgb(22,22,50)" stroke="rgb(22,22,50)" stroke-width="1" opacity="0.8823529411764706" d="M 119.5 67 L 120.5 69 L 119.5 67 Z " /><path fill="rgb(22,22,50)" stroke="rgb(22,22,50)" stroke-width="1" opacity="0.8823529411764706" d="M 124.5 70 L 128 72.5 L 126.5 72 L 124.5 70 Z " /><path fill="rgb(22,22,50)" stroke="rgb(22,22,50)" stroke-width="1" opacity="0.8823529411764706" d="M 129.5 73 L 130.5 75 L 129.5 73 Z " /><path fill="rgb(22,22,50)" stroke="rgb(22,22,50)" stroke-width="1" opacity="0.8823529411764706" d="M 255.5 118 L 258 118.5 L 255.5 119 L 255.5 118 Z " /><path fill="rgb(22,22,50)" stroke="rgb(22,22,50)" stroke-width="1" opacity="0.8823529411764706" d="M 240.5 120 L 242 120.5 L 239.5 122 L 240.5 120 Z " /><path fill="rgb(22,22,50)" stroke="rgb(22,22,50)" stroke-width="1" opacity="0.8823529411764706" d="M 264.5 121 L 266.5 124 L 264.5 121 Z " /><path fill="rgb(22,22,50)" stroke="rgb(22,22,50)" stroke-width="1" opacity="0.8823529411764706" d="M 237.5 122 L 232.5 128 L 237.5 122 Z " /><path fill="rgb(22,22,50)" stroke="rgb(22,22,50)" stroke-width="1" opacity="0.8823529411764706" d="M 268.5 125 L 269.5 127 L 268.5 125 Z " /><path fill="rgb(22,22,50)" stroke="rgb(22,22,50)" stroke-width="1" opacity="0.8823529411764706" d="M 117.5 126 L 112.5 132 L 117.5 126 Z " /><path fill="rgb(22,22,50)" stroke="rgb(22,22,50)" stroke-width="1" opacity="0.8823529411764706" d="M 270.5 129 L 271 131.5 L 270 131.5 L 270.5 129 Z " /><path fill="rgb(22,22,50)" stroke="rgb(22,22,50)" stroke-width="1" opacity="0.8823529411764706" d="M 111.5 133 L 110.5 135 L 111.5 133 Z " /><path fill="rgb(22,22,50)" stroke="rgb(22,22,50)" stroke-width="1" opacity="0.8823529411764706" d="M 108.5 137 L 107.5 139 L 108.5 137 Z " /><path fill="rgb(22,22,50)" stroke="rgb(22,22,50)" stroke-width="1" opacity="0.8823529411764706" d="M 228.5 138 L 229 141.5 L 228 141.5 L 228.5 138 Z " /><path fill="rgb(22,22,50)" stroke="rgb(22,22,50)" stroke-width="1" opacity="0.8823529411764706" d="M 106.5 140 L 104.5 143 L 106.5 140 Z " /><path fill="rgb(22,22,50)" stroke="rgb(22,22,50)" stroke-width="1" opacity="0.8823529411764706" d="M 266.5 140 L 265.5 142 L 266.5 140 Z " /><path fill="rgb(22,22,50)" stroke="rgb(22,22,50)" stroke-width="1" opacity="0.8823529411764706" d="M 264.5 143 L 259.5 149 L 264.5 143 Z " /><path fill="rgb(22,22,50)" stroke="rgb(22,22,50)" stroke-width="1" opacity="0.8823529411764706" d="M 103.5 144 L 101.5 147 L 103.5 144 Z " /><path fill="rgb(22,22,50)" stroke="rgb(22,22,50)" stroke-width="1" opacity="0.8823529411764706" d="M 229.5 145 L 230 147.5 L 229 147.5 L 229.5 145 Z " /><path fill="rgb(22,22,50)" stroke="rgb(22,22,50)" stroke-width="1" opacity="0.8823529411764706" d="M 100.5 148 L 98.5 151 L 100.5 148 Z " /><path fill="rgb(22,22,50)" stroke="rgb(22,22,50)" stroke-width="1" opacity="0.8823529411764706" d="M 256.5 150 L 255.5 152 L 256.5 150 Z " /><path fill="rgb(22,22,50)" stroke="rgb(22,22,50)" stroke-width="1" opacity="0.8823529411764706" d="M 97.5 152 L 95.5 155 L 97.5 152 Z " /><path fill="rgb(22,22,50)" stroke="rgb(22,22,50)" stroke-width="1" opacity="0.8823529411764706" d="M 231.5 152 L 232.5 154 L 231.5 152 Z " /><path fill="rgb(22,22,50)" stroke="rgb(22,22,50)" stroke-width="1" opacity="0.8823529411764706" d="M 94.5 156 L 92.5 159 L 94.5 156 Z " /><path fill="rgb(22,22,50)" stroke="rgb(22,22,50)" stroke-width="1" opacity="0.8823529411764706" d="M 91.5 160 L 89.5 163 L 91.5 160 Z " /><path fill="rgb(22,22,50)" stroke="rgb(22,22,50)" stroke-width="1" opacity="0.8823529411764706" d="M 88.5 164 L 86.5 167 L 88.5 164 Z " /><path fill="rgb(22,22,50)" stroke="rgb(22,22,50)" stroke-width="1" opacity="0.8823529411764706" d="M 61.5 166 L 61 167.5 L 50.5 188 L 51 186.5 L 61.5 166 Z " /><path fill="rgb(22,22,50)" stroke="rgb(22,22,50)" stroke-width="1" opacity="0.8823529411764706" d="M 85.5 168 L 83.5 171 L 85.5 168 Z " /><path fill="rgb(22,22,50)" stroke="rgb(22,22,50)" stroke-width="1" opacity="0.8823529411764706" d="M 82.5 172 L 81.5 174 L 82.5 172 Z " /><path fill="rgb(22,22,50)" stroke="rgb(22,22,50)" stroke-width="1" opacity="0.8823529411764706" d="M 79.5 176 L 78.5 178 L 79.5 176 Z " /><path fill="rgb(22,22,50)" stroke="rgb(22,22,50)" stroke-width="1" opacity="0.8823529411764706" d="M 76.5 180 L 75.5 182 L 76.5 180 Z " /><path fill="rgb(22,22,50)" stroke="rgb(22,22,50)" stroke-width="1" opacity="0.8823529411764706" d="M 73.5 184 L 72.5 186 L 73.5 184 Z " /><path fill="rgb(22,22,50)" stroke="rgb(22,22,50)" stroke-width="1" opacity="0.8823529411764706" d="M 71.5 187 L 69.5 190 L 71.5 187 Z " /><path fill="rgb(22,22,50)" stroke="rgb(22,22,50)" stroke-width="1" opacity="0.8823529411764706" d="M 68.5 191 L 66.5 194 L 68.5 191 Z " /><path fill="rgb(22,22,50)" stroke="rgb(22,22,50)" stroke-width="1" opacity="0.8823529411764706" d="M 65.5 195 L 64.5 197 L 65.5 195 Z " /><path fill="rgb(22,22,50)" stroke="rgb(22,22,50)" stroke-width="1" opacity="0.8823529411764706" d="M 62.5 199 L 61.5 201 L 62.5 199 Z " /><path fill="rgb(22,22,50)" stroke="rgb(22,22,50)" stroke-width="1" opacity="0.8823529411764706" d="M 44.5 201 L 46.5 204 L 44.5 201 Z " /><path fill="rgb(22,22,50)" stroke="rgb(22,22,50)" stroke-width="1" opacity="0.8823529411764706" d="M 60.5 202 L 59.5 204 L 60.5 202 Z " /><path fill="rgb(22,22,50)" stroke="rgb(22,22,50)" stroke-width="1" opacity="0.8823529411764706" d="M 58.5 205 L 57.5 207 L 58.5 205 Z " /><path fill="rgb(22,22,50)" stroke="rgb(22,22,50)" stroke-width="1" opacity="0.8823529411764706" d="M 188.5 285 L 189.5 287 L 188.5 285 Z " /><path fill="rgb(22,22,50)" stroke="rgb(22,22,50)" stroke-width="1" opacity="0.8823529411764706" d="M 193.5 288 L 194.5 290 L 193.5 288 Z " /><path fill="rgb(22,22,50)" stroke="rgb(22,22,50)" stroke-width="1" opacity="0.8823529411764706" d="M 196.5 290 L 197.5 292 L 196.5 290 Z " /><path fill="rgb(22,22,50)" stroke="rgb(22,22,50)" stroke-width="1" opacity="0.8823529411764706" d="M 201.5 290 L 202 292.5 L 201 292.5 L 201.5 290 Z " /><path fill="rgb(254,254,254)" stroke="rgb(254,254,254)" stroke-width="1" opacity="0.996078431372549" d="M 176.5 27 L 175.5 29 L 176.5 27 Z " /><path fill="rgb(254,254,254)" stroke="rgb(254,254,254)" stroke-width="1" opacity="0.996078431372549" d="M 195.5 29 L 196.5 31 L 195.5 29 Z " /><path fill="rgb(254,254,254)" stroke="rgb(254,254,254)" stroke-width="1" opacity="0.996078431372549" d="M 169.5 31 L 168.5 33 L 169.5 31 Z " /><path fill="rgb(254,254,254)" stroke="rgb(254,254,254)" stroke-width="1" opacity="0.996078431372549" d="M 162.5 35 L 161.5 37 L 162.5 35 Z " /><path fill="rgb(254,254,254)" stroke="rgb(254,254,254)" stroke-width="1" opacity="0.996078431372549" d="M 188.5 35 L 187.5 37 L 188.5 35 Z " /><path fill="rgb(254,254,254)" stroke="rgb(254,254,254)" stroke-width="1" opacity="0.996078431372549" d="M 183.5 38 L 182.5 40 L 183.5 38 Z " /><path fill="rgb(254,254,254)" stroke="rgb(254,254,254)" stroke-width="1" opacity="0.996078431372549" d="M 155.5 39 L 154.5 41 L 155.5 39 Z " /><path fill="rgb(254,254,254)" stroke="rgb(254,254,254)" stroke-width="1" opacity="0.996078431372549" d="M 171.5 45 L 170.5 47 L 171.5 45 Z " /><path fill="rgb(254,254,254)" stroke="rgb(254,254,254)" stroke-width="1" opacity="0.996078431372549" d="M 141.5 47 L 140.5 49 L 141.5 47 Z " /><path fill="rgb(254,254,254)" stroke="rgb(254,254,254)" stroke-width="1" opacity="0.996078431372549" d="M 164.5 49 L 163.5 51 L 164.5 49 Z " /><path fill="rgb(254,254,254)" stroke="rgb(254,254,254)" stroke-width="1" opacity="0.996078431372549" d="M 134.5 51 L 133.5 53 L 134.5 51 Z " /><path fill="rgb(254,254,254)" stroke="rgb(254,254,254)" stroke-width="1" opacity="0.996078431372549" d="M 129.5 54 L 128.5 56 L 129.5 54 Z " /><path fill="rgb(254,254,254)" stroke="rgb(254,254,254)" stroke-width="1" opacity="0.996078431372549" d="M 124.5 57 L 123.5 59 L 124.5 57 Z " /><path fill="rgb(254,254,254)" stroke="rgb(254,254,254)" stroke-width="1" opacity="0.996078431372549" d="M 148.5 58 L 147.5 60 L 148.5 58 Z " /><path fill="rgb(254,254,254)" stroke="rgb(254,254,254)" stroke-width="1" opacity="0.996078431372549" d="M 121.5 59 L 120.5 61 L 121.5 59 Z " /><path fill="rgb(254,254,254)" stroke="rgb(254,254,254)" stroke-width="1" opacity="0.996078431372549" d="M 136.5 65 L 135.5 67 L 136.5 65 Z " /><path fill="rgb(254,254,254)" stroke="rgb(254,254,254)" stroke-width="1" opacity="0.996078431372549" d="M 122.5 70 L 123.5 72 L 122.5 70 Z " /><path fill="rgb(254,254,254)" stroke="rgb(254,254,254)" stroke-width="1" opacity="0.996078431372549" d="M 265.5 123 L 267.5 126 L 265.5 123 Z " /><path fill="rgb(254,254,254)" stroke="rgb(254,254,254)" stroke-width="1" opacity="0.996078431372549" d="M 236.5 124 L 234.5 127 L 236.5 124 Z " /><path fill="rgb(254,254,254)" stroke="rgb(254,254,254)" stroke-width="1" opacity="0.996078431372549" d="M 112.5 130 L 111.5 132 L 112.5 130 Z " /><path fill="rgb(254,254,254)" stroke="rgb(254,254,254)" stroke-width="1" opacity="0.996078431372549" d="M 109.5 134 L 108.5 136 L 109.5 134 Z " /><path fill="rgb(254,254,254)" stroke="rgb(254,254,254)" stroke-width="1" opacity="0.996078431372549" d="M 106.5 138 L 105.5 140 L 106.5 138 Z " /><path fill="rgb(254,254,254)" stroke="rgb(254,254,254)" stroke-width="1" opacity="0.996078431372549" d="M 264.5 141 L 263.5 143 L 264.5 141 Z " /><path fill="rgb(254,254,254)" stroke="rgb(254,254,254)" stroke-width="1" opacity="0.996078431372549" d="M 103.5 142 L 102.5 144 L 103.5 142 Z " /><path fill="rgb(254,254,254)" stroke="rgb(254,254,254)" stroke-width="1" opacity="0.996078431372549" d="M 100.5 146 L 99.5 148 L 100.5 146 Z " /><path fill="rgb(254,254,254)" stroke="rgb(254,254,254)" stroke-width="1" opacity="0.996078431372549" d="M 257.5 148 L 256.5 150 L 257.5 148 Z " /><path fill="rgb(254,254,254)" stroke="rgb(254,254,254)" stroke-width="1" opacity="0.996078431372549" d="M 97.5 150 L 96.5 152 L 97.5 150 Z " /><path fill="rgb(254,254,254)" stroke="rgb(254,254,254)" stroke-width="1" opacity="0.996078431372549" d="M 254.5 150 L 253.5 152 L 254.5 150 Z " /><path fill="rgb(254,254,254)" stroke="rgb(254,254,254)" stroke-width="1" opacity="0.996078431372549" d="M 233.5 153 L 235.5 156 L 233.5 153 Z " /><path fill="rgb(254,254,254)" stroke="rgb(254,254,254)" stroke-width="1" opacity="0.996078431372549" d="M 94.5 154 L 93.5 156 L 94.5 154 Z " /><path fill="rgb(254,254,254)" stroke="rgb(254,254,254)" stroke-width="1" opacity="0.996078431372549" d="M 91.5 158 L 90.5 160 L 91.5 158 Z " /><path fill="rgb(254,254,254)" stroke="rgb(254,254,254)" stroke-width="1" opacity="0.996078431372549" d="M 88.5 162 L 87.5 164 L 88.5 162 Z " /><path fill="rgb(254,254,254)" stroke="rgb(254,254,254)" stroke-width="1" opacity="0.996078431372549" d="M 80.5 173 L 79.5 175 L 80.5 173 Z " /><path fill="rgb(254,254,254)" stroke="rgb(254,254,254)" stroke-width="1" opacity="0.996078431372549" d="M 77.5 177 L 76.5 179 L 77.5 177 Z " /><path fill="rgb(254,254,254)" stroke="rgb(254,254,254)" stroke-width="1" opacity="0.996078431372549" d="M 74.5 181 L 73.5 183 L 74.5 181 Z " /><path fill="rgb(254,254,254)" stroke="rgb(254,254,254)" stroke-width="1" opacity="0.996078431372549" d="M 71.5 185 L 70.5 187 L 71.5 185 Z " /><path fill="rgb(254,254,254)" stroke="rgb(254,254,254)" stroke-width="1" opacity="0.996078431372549" d="M 68.5 189 L 67.5 191 L 68.5 189 Z " /><path fill="rgb(254,254,254)" stroke="rgb(254,254,254)" stroke-width="1" opacity="0.996078431372549" d="M 63.5 196 L 62.5 198 L 63.5 196 Z " /><path fill="rgb(254,254,254)" stroke="rgb(254,254,254)" stroke-width="1" opacity="0.996078431372549" d="M 47.5 202 L 48.5 204 L 47.5 202 Z " /><path fill="rgb(254,254,254)" stroke="rgb(254,254,254)" stroke-width="1" opacity="0.996078431372549" d="M 58.5 203 L 57.5 205 L 58.5 203 Z " /><path fill="rgb(254,254,254)" stroke="rgb(254,254,254)" stroke-width="1" opacity="0.996078431372549" d="M 195.5 288 L 196.5 290 L 195.5 288 Z " /><path fill="rgb(0,0,31)" stroke="rgb(0,0,31)" stroke-width="1" opacity="0.996078431372549" d="M 181.5 16 L 185.5 16 L 197.5 22 L 208 29.5 L 230 95.5 L 230 100.5 L 216 113.5 Q 205.3 124.8 207 148.5 Q 211.2 167.3 224.5 177 L 240.5 185 L 259 186 L 279 244.5 L 283 260.5 L 277.5 265 L 214.5 302 Q 211.8 304.8 205.5 304 L 181 287.5 L 146 202.5 L 131.5 172 L 64.5 212 L 58.5 215 L 54.5 215 L 37 204.5 L 38 198.5 L 109 58 L 181.5 16 Z M 183 17 L 112 58 L 109 61 L 64 152 L 45 187 L 38 204 L 55 214 L 58 214 L 66 210 Q 97 189 133 171 L 149 207 L 182 287 L 207 303 L 210 303 L 216 300 L 279 263 L 282 260 L 266 209 L 258 187 L 240 186 L 223 177 Q 210 168 206 150 Q 204 137 207 129 Q 210 118 217 111 Q 222 104 229 101 L 229 97 L 207 31 Q 198 21 183 17 Z " /><path fill="rgb(0,0,31)" stroke="rgb(0,0,31)" stroke-width="1" opacity="0.996078431372549" d="M 182.5 21 L 185.5 21 L 200 29.5 L 196.5 34 L 136.5 69 L 131.5 70 L 120.5 64 L 117 60.5 Q 116.3 58.3 118.5 59 L 126.5 53 L 182.5 21 Z M 182 23 L 121 59 Q 118 58 119 61 L 133 69 L 196 33 L 198 29 L 187 23 L 182 23 Z " /><path fill="rgb(0,0,31)" stroke="rgb(0,0,31)" stroke-width="1" opacity="0.996078431372549" d="M 112.5 63 L 131 72 L 134 78.5 L 134 81.5 L 170 187.5 L 170 190.5 L 204 293.5 L 200.5 295 L 184 283.5 L 119 128 L 116 129.5 L 56.5 210 Q 47.6 207.4 42 201.5 L 109 67.5 L 112.5 63 Z M 113 65 L 60 168 L 44 202 Q 48 207 57 208 L 112 133 L 119 126 L 131 152 L 186 285 L 198 292 L 202 293 L 187 244 L 131 75 L 120 67 L 113 65 Z " /><path fill="rgb(0,0,31)" stroke="rgb(0,0,31)" stroke-width="1" opacity="0.996078431372549" d="M 245.5 112 L 261.5 113 Q 270.5 117 276 124.5 L 281 137.5 L 281 145.5 Q 278.7 156.7 271.5 163 L 258.5 170 L 243.5 170 Q 233 167 228 158.5 L 223 146.5 L 223 134.5 Q 225.3 124.8 231.5 119 L 245.5 112 Z M 248 113 L 243 114 L 234 119 Q 226 124 224 136 Q 223 153 231 161 Q 236 166 245 169 L 258 169 L 270 163 Q 278 156 280 144 Q 280 129 272 122 L 261 114 L 248 113 Z " /><path fill="rgb(0,0,31)" stroke="rgb(0,0,31)" stroke-width="1" opacity="0.996078431372549" d="M 249.5 116 Q 264 116 270 124.5 Q 273 126.5 272 132.5 Q 268.9 142.9 261.5 149 L 248.5 157 L 236.5 159 L 231 154.5 L 227 144.5 L 227 135.5 Q 229.1 126.6 235.5 122 L 244.5 117 L 249.5 116 Z M 247 118 L 238 122 Q 230 127 228 139 L 230 151 L 236 157 L 248 156 L 260 149 Q 268 143 271 132 L 270 127 Q 264 116 247 118 Z " /><path fill="rgb(255,255,255)" stroke="rgb(255,255,255)" stroke-width="1" opacity="1" d="M 182.5 24 L 185.5 24 L 196 30.5 L 134.5 67 L 131.5 67 L 121 60.5 L 182.5 24 Z " /><path fill="rgb(255,255,255)" stroke="rgb(255,255,255)" stroke-width="1" opacity="1" d="M 113.5 66 L 129 74 L 200 290.5 L 198.5 290 L 187 284 L 133 152.5 L 119.5 125 L 117.5 125 L 111 131.5 L 55.5 207 L 45 200.5 L 113.5 66 Z " /><path fill="rgb(255,255,255)" stroke="rgb(255,255,255)" stroke-width="1" opacity="1" d="M 248.5 119 L 253.5 120 L 255.5 120 Q 264.9 121.1 269 127.5 L 269 132.5 L 266 139.5 L 258.5 148 L 245.5 155 L 236.5 156 Q 228.1 150.9 230 135.5 Q 232.2 127.2 238.5 123 L 248.5 119 Z " /><path fill="rgb(0,0,32)" stroke="rgb(0,0,32)" stroke-width="1" opacity="1" d="M 182.5 17 Q 197.5 21 207 30.5 L 229 96.5 L 229 101 Q 221.8 103.9 217 110.5 Q 210.1 117.6 207 128.5 Q 204.3 136.8 206 149.5 Q 209.9 167.6 222.5 177 L 239.5 186 L 258 187 L 266 208.5 L 282 259.5 L 278.5 263 L 215.5 300 L 209.5 303 L 206.5 303 L 182 286.5 L 149 206.5 L 132.5 171 Q 97.5 189 65.5 210 L 57.5 214 L 54.5 214 L 38 203.5 L 45 186.5 L 64 151.5 L 109 60.5 L 111.5 58 L 182.5 17 Z M 183 21 L 127 53 L 119 59 Q 116 58 117 61 L 121 64 L 132 70 L 137 69 L 197 34 L 200 30 L 186 21 L 183 21 Z M 113 63 L 109 68 L 42 202 Q 48 207 57 210 L 116 130 L 119 128 L 184 284 L 201 295 L 204 294 L 170 191 L 170 188 L 134 82 L 134 79 L 131 72 L 113 63 Z " /><path fill="rgb(0,0,32)" stroke="rgb(0,0,32)" stroke-width="1" opacity="1" d="M 247.5 113 L 260.5 114 L 272 121.5 Q 279.7 128.8 280 143.5 Q 278 156.5 269.5 163 L 257.5 169 L 244.5 169 Q 236 166.5 231 160.5 Q 222.9 152.6 224 135.5 Q 226 124.5 233.5 119 L 242.5 114 L 247.5 113 Z M 250 116 L 245 117 L 236 122 Q 229 127 227 136 L 227 145 L 231 155 L 237 159 L 249 157 L 262 149 Q 269 143 272 133 Q 273 127 270 125 Q 264 116 250 116 Z " /></svg>