<svg width="320" height="320" version="1.1" xmlns="http://www.w3.org/2000/svg" desc="Created with imagetracer.js version 1.2.6" ><path fill="rgb(0,0,0)" stroke="rgb(0,0,0)" stroke-width="1" opacity="0" d="M 0 0 L 320 0 L 320 320 L 0 320 L 0 0 Z M 220 67 L 197 79 L 185 83 L 173 84 L 172 85 L 170 84 L 157 84 L 156 83 Q 108 81 85 102 Q 71 116 61 134 L 54 141 L 16 168 L 17 170 L 40 162 L 41 163 L 20 189 L 23 195 L 37 205 Q 45 207 49 203 L 59 208 L 67 209 L 61 200 Q 57 198 61 196 L 72 199 Q 73 193 71 190 L 81 193 Q 82 187 80 184 L 84 183 L 94 143 L 135 115 L 137 114 Q 134 125 128 133 Q 120 145 104 149 Q 98 153 95 161 L 93 171 L 93 179 L 97 178 Q 110 178 117 185 Q 123 191 126 202 L 126 210 L 118 219 L 109 219 L 109 226 L 100 226 L 100 233 L 99 234 Q 88 233 82 228 L 82 233 L 86 243 Q 94 249 107 252 L 118 252 L 128 247 Q 152 228 182 214 L 256 195 L 265 171 L 266 169 L 213 183 L 210 183 L 210 161 L 276 144 L 285 121 L 285 118 L 212 138 L 210 138 L 210 116 L 295 94 L 304 72 L 304 68 L 218 91 L 215 91 Q 220 86 221 78 L 221 68 L 220 67 Z " /><path fill="rgb(0,0,0)" stroke="rgb(0,0,0)" stroke-width="1" opacity="0.3843137254901961" d="M 220.5 75 L 221 77.5 L 220 77.5 L 220.5 75 Z " /><path fill="rgb(0,0,0)" stroke="rgb(0,0,0)" stroke-width="1" opacity="0.3843137254901961" d="M 130.5 83 L 133 83.5 L 130.5 84 L 130.5 83 Z " /><path fill="rgb(0,0,0)" stroke="rgb(0,0,0)" stroke-width="1" opacity="0.3843137254901961" d="M 151.5 83 L 156 83.5 L 151.5 84 L 151.5 83 Z " /><path fill="rgb(0,0,0)" stroke="rgb(0,0,0)" stroke-width="1" opacity="0.3843137254901961" d="M 162.5 84 L 170 84.5 L 162.5 85 L 162.5 84 Z " /><path fill="rgb(0,0,0)" stroke="rgb(0,0,0)" stroke-width="1" opacity="0.3843137254901961" d="M 172.5 84 L 177 84.5 L 172.5 85 L 172.5 84 Z " /><path fill="rgb(0,0,0)" stroke="rgb(0,0,0)" stroke-width="1" opacity="0.3843137254901961" d="M 295.5 91 L 296 92.5 L 294 93.5 L 295.5 91 Z " /><path fill="rgb(0,0,0)" stroke="rgb(0,0,0)" stroke-width="1" opacity="0.3843137254901961" d="M 89.5 98 L 88.5 100 L 89.5 98 Z " /><path fill="rgb(0,0,0)" stroke="rgb(0,0,0)" stroke-width="1" opacity="0.3843137254901961" d="M 84.5 102 L 78.5 109 L 84.5 102 Z " /><path fill="rgb(0,0,0)" stroke="rgb(0,0,0)" stroke-width="1" opacity="0.3843137254901961" d="M 75.5 112 L 74.5 114 L 75.5 112 Z " /><path fill="rgb(0,0,0)" stroke="rgb(0,0,0)" stroke-width="1" opacity="0.3843137254901961" d="M 72.5 116 L 71.5 118 L 72.5 116 Z " /><path fill="rgb(0,0,0)" stroke="rgb(0,0,0)" stroke-width="1" opacity="0.3843137254901961" d="M 131.5 116 L 130.5 118 L 131.5 116 Z " /><path fill="rgb(0,0,0)" stroke="rgb(0,0,0)" stroke-width="1" opacity="0.3843137254901961" d="M 209.5 116 L 210 137.5 L 209 137.5 L 209.5 116 Z " /><path fill="rgb(0,0,0)" stroke="rgb(0,0,0)" stroke-width="1" opacity="0.3843137254901961" d="M 128.5 118 L 127.5 120 L 128.5 118 Z " /><path fill="rgb(0,0,0)" stroke="rgb(0,0,0)" stroke-width="1" opacity="0.3843137254901961" d="M 125.5 120 L 124.5 122 L 125.5 120 Z " /><path fill="rgb(0,0,0)" stroke="rgb(0,0,0)" stroke-width="1" opacity="0.3843137254901961" d="M 112.5 129 L 111.5 131 L 112.5 129 Z " /><path fill="rgb(0,0,0)" stroke="rgb(0,0,0)" stroke-width="1" opacity="0.3843137254901961" d="M 129.5 130 L 128.5 132 L 129.5 130 Z " /><path fill="rgb(0,0,0)" stroke="rgb(0,0,0)" stroke-width="1" opacity="0.3843137254901961" d="M 62.5 131 L 61.5 133 L 62.5 131 Z " /><path fill="rgb(0,0,0)" stroke="rgb(0,0,0)" stroke-width="1" opacity="0.3843137254901961" d="M 109.5 131 L 108.5 133 L 109.5 131 Z " /><path fill="rgb(0,0,0)" stroke="rgb(0,0,0)" stroke-width="1" opacity="0.3843137254901961" d="M 106.5 133 L 105.5 135 L 106.5 133 Z " /><path fill="rgb(0,0,0)" stroke="rgb(0,0,0)" stroke-width="1" opacity="0.3843137254901961" d="M 126.5 134 L 119.5 142 L 126.5 134 Z " /><path fill="rgb(0,0,0)" stroke="rgb(0,0,0)" stroke-width="1" opacity="0.3843137254901961" d="M 59.5 135 L 55.5 140 L 59.5 135 Z " /><path fill="rgb(0,0,0)" stroke="rgb(0,0,0)" stroke-width="1" opacity="0.3843137254901961" d="M 103.5 135 L 102.5 137 L 103.5 135 Z " /><path fill="rgb(0,0,0)" stroke="rgb(0,0,0)" stroke-width="1" opacity="0.3843137254901961" d="M 52.5 141 L 51.5 143 L 52.5 141 Z " /><path fill="rgb(0,0,0)" stroke="rgb(0,0,0)" stroke-width="1" opacity="0.3843137254901961" d="M 116.5 143 L 115.5 145 L 116.5 143 Z " /><path fill="rgb(0,0,0)" stroke="rgb(0,0,0)" stroke-width="1" opacity="0.3843137254901961" d="M 48.5 144 L 47.5 146 L 48.5 144 Z " /><path fill="rgb(0,0,0)" stroke="rgb(0,0,0)" stroke-width="1" opacity="0.3843137254901961" d="M 44.5 147 L 43.5 149 L 44.5 147 Z " /><path fill="rgb(0,0,0)" stroke="rgb(0,0,0)" stroke-width="1" opacity="0.3843137254901961" d="M 40.5 150 L 39.5 152 L 40.5 150 Z " /><path fill="rgb(0,0,0)" stroke="rgb(0,0,0)" stroke-width="1" opacity="0.3843137254901961" d="M 36.5 153 L 35.5 155 L 36.5 153 Z " /><path fill="rgb(0,0,0)" stroke="rgb(0,0,0)" stroke-width="1" opacity="0.3843137254901961" d="M 99.5 153 L 98.5 155 L 99.5 153 Z " /><path fill="rgb(0,0,0)" stroke="rgb(0,0,0)" stroke-width="1" opacity="0.3843137254901961" d="M 32.5 156 L 31.5 158 L 32.5 156 Z " /><path fill="rgb(0,0,0)" stroke="rgb(0,0,0)" stroke-width="1" opacity="0.3843137254901961" d="M 28.5 159 L 27.5 161 L 28.5 159 Z " /><path fill="rgb(0,0,0)" stroke="rgb(0,0,0)" stroke-width="1" opacity="0.3843137254901961" d="M 41.5 161 L 42 162.5 L 38 165.5 L 41.5 161 Z " /><path fill="rgb(0,0,0)" stroke="rgb(0,0,0)" stroke-width="1" opacity="0.3843137254901961" d="M 24.5 162 L 23.5 164 L 24.5 162 Z " /><path fill="rgb(0,0,0)" stroke="rgb(0,0,0)" stroke-width="1" opacity="0.3843137254901961" d="M 209.5 162 L 210 182.5 L 211 183.5 L 209 182.5 L 209.5 162 Z " /><path fill="rgb(0,0,0)" stroke="rgb(0,0,0)" stroke-width="1" opacity="0.3843137254901961" d="M 20.5 165 L 19.5 167 L 20.5 165 Z " /><path fill="rgb(0,0,0)" stroke="rgb(0,0,0)" stroke-width="1" opacity="0.3843137254901961" d="M 35.5 169 L 33.5 172 L 35.5 169 Z " /><path fill="rgb(0,0,0)" stroke="rgb(0,0,0)" stroke-width="1" opacity="0.3843137254901961" d="M 93.5 170 L 94 172.5 L 93 172.5 L 93.5 170 Z " /><path fill="rgb(0,0,0)" stroke="rgb(0,0,0)" stroke-width="1" opacity="0.3843137254901961" d="M 30.5 175 L 29.5 177 L 30.5 175 Z " /><path fill="rgb(0,0,0)" stroke="rgb(0,0,0)" stroke-width="1" opacity="0.3843137254901961" d="M 93.5 178 L 96 178.5 L 93.5 179 L 93.5 178 Z " /><path fill="rgb(0,0,0)" stroke="rgb(0,0,0)" stroke-width="1" opacity="0.3843137254901961" d="M 27.5 179 L 25.5 182 L 27.5 179 Z " /><path fill="rgb(0,0,0)" stroke="rgb(0,0,0)" stroke-width="1" opacity="0.3843137254901961" d="M 113.5 182 L 115.5 185 L 113.5 182 Z " /><path fill="rgb(0,0,0)" stroke="rgb(0,0,0)" stroke-width="1" opacity="0.3843137254901961" d="M 23.5 184 L 22.5 186 L 23.5 184 Z " /><path fill="rgb(0,0,0)" stroke="rgb(0,0,0)" stroke-width="1" opacity="0.3843137254901961" d="M 80.5 186 L 81 189.5 L 80 189.5 L 80.5 186 Z " /><path fill="rgb(0,0,0)" stroke="rgb(0,0,0)" stroke-width="1" opacity="0.3843137254901961" d="M 118.5 187 L 120.5 190 L 118.5 187 Z " /><path fill="rgb(0,0,0)" stroke="rgb(0,0,0)" stroke-width="1" opacity="0.3843137254901961" d="M 121.5 191 L 122.5 193 L 121.5 191 Z " /><path fill="rgb(0,0,0)" stroke="rgb(0,0,0)" stroke-width="1" opacity="0.3843137254901961" d="M 71.5 192 L 72 195.5 L 71 195.5 L 71.5 192 Z " /><path fill="rgb(0,0,0)" stroke="rgb(0,0,0)" stroke-width="1" opacity="0.3843137254901961" d="M 256.5 193 L 255.5 195 L 256.5 193 Z " /><path fill="rgb(0,0,0)" stroke="rgb(0,0,0)" stroke-width="1" opacity="0.3843137254901961" d="M 23.5 194 L 28.5 200 L 23.5 194 Z " /><path fill="rgb(0,0,0)" stroke="rgb(0,0,0)" stroke-width="1" opacity="0.3843137254901961" d="M 31.5 201 L 32.5 203 L 31.5 201 Z " /><path fill="rgb(0,0,0)" stroke="rgb(0,0,0)" stroke-width="1" opacity="0.3843137254901961" d="M 62.5 202 L 63.5 204 L 62.5 202 Z " /><path fill="rgb(0,0,0)" stroke="rgb(0,0,0)" stroke-width="1" opacity="0.3843137254901961" d="M 126.5 204 L 127 207.5 L 126 207.5 L 126.5 204 Z " /><path fill="rgb(0,0,0)" stroke="rgb(0,0,0)" stroke-width="1" opacity="0.3843137254901961" d="M 65.5 206 L 66.5 208 L 65.5 206 Z " /><path fill="rgb(0,0,0)" stroke="rgb(0,0,0)" stroke-width="1" opacity="0.3843137254901961" d="M 124.5 212 L 119.5 218 L 124.5 212 Z " /><path fill="rgb(0,0,0)" stroke="rgb(0,0,0)" stroke-width="1" opacity="0.3843137254901961" d="M 109.5 219 L 117 219.5 L 109.5 220 L 109.5 219 Z " /><path fill="rgb(0,0,0)" stroke="rgb(0,0,0)" stroke-width="1" opacity="0.3843137254901961" d="M 168.5 220 L 167.5 222 L 168.5 220 Z " /><path fill="rgb(0,0,0)" stroke="rgb(0,0,0)" stroke-width="1" opacity="0.3843137254901961" d="M 161.5 224 L 160.5 226 L 161.5 224 Z " /><path fill="rgb(0,0,0)" stroke="rgb(0,0,0)" stroke-width="1" opacity="0.3843137254901961" d="M 100 226 L 108 226.5 L 101 227 L 100.5 232 L 100 226 Z " /><path fill="rgb(0,0,0)" stroke="rgb(0,0,0)" stroke-width="1" opacity="0.3843137254901961" d="M 153.5 229 L 152.5 231 L 153.5 229 Z " /><path fill="rgb(0,0,0)" stroke="rgb(0,0,0)" stroke-width="1" opacity="0.3843137254901961" d="M 145.5 234 L 144.5 236 L 145.5 234 Z " /><path fill="rgb(0,0,0)" stroke="rgb(0,0,0)" stroke-width="1" opacity="0.3843137254901961" d="M 142.5 236 L 141.5 238 L 142.5 236 Z " /><path fill="rgb(0,0,0)" stroke="rgb(0,0,0)" stroke-width="1" opacity="0.3843137254901961" d="M 139.5 238 L 138.5 240 L 139.5 238 Z " /><path fill="rgb(0,0,0)" stroke="rgb(0,0,0)" stroke-width="1" opacity="0.3843137254901961" d="M 128.5 245 L 127.5 247 L 128.5 245 Z " /><path fill="rgb(0,0,0)" stroke="rgb(0,0,0)" stroke-width="1" opacity="0.9411764705882353" d="M 136.5 83 L 147 83.5 L 136.5 84 L 136.5 83 Z " /><path fill="rgb(0,0,0)" stroke="rgb(0,0,0)" stroke-width="1" opacity="0.9411764705882353" d="M 155.5 84 L 158 84.5 L 155.5 85 L 155.5 84 Z " /><path fill="rgb(0,0,0)" stroke="rgb(0,0,0)" stroke-width="1" opacity="0.9411764705882353" d="M 166.5 85 L 174 85.5 L 166.5 86 L 166.5 85 Z " /><path fill="rgb(0,0,0)" stroke="rgb(0,0,0)" stroke-width="1" opacity="0.9411764705882353" d="M 213.5 91 L 214.5 93 L 213.5 91 Z " /><path fill="rgb(0,0,0)" stroke="rgb(0,0,0)" stroke-width="1" opacity="0.9411764705882353" d="M 84.5 103 L 79.5 109 L 84.5 103 Z " /><path fill="rgb(0,0,0)" stroke="rgb(0,0,0)" stroke-width="1" opacity="0.9411764705882353" d="M 75.5 113 L 74.5 115 L 75.5 113 Z " /><path fill="rgb(0,0,0)" stroke="rgb(0,0,0)" stroke-width="1" opacity="0.9411764705882353" d="M 134.5 113 L 133.5 115 L 134.5 113 Z " /><path fill="rgb(0,0,0)" stroke="rgb(0,0,0)" stroke-width="1" opacity="0.9411764705882353" d="M 70.5 120 L 69.5 122 L 70.5 120 Z " /><path fill="rgb(0,0,0)" stroke="rgb(0,0,0)" stroke-width="1" opacity="0.9411764705882353" d="M 68.5 123 L 67.5 125 L 68.5 123 Z " /><path fill="rgb(0,0,0)" stroke="rgb(0,0,0)" stroke-width="1" opacity="0.9411764705882353" d="M 118.5 124 L 117.5 126 L 118.5 124 Z " /><path fill="rgb(0,0,0)" stroke="rgb(0,0,0)" stroke-width="1" opacity="0.9411764705882353" d="M 115.5 126 L 114.5 128 L 115.5 126 Z " /><path fill="rgb(0,0,0)" stroke="rgb(0,0,0)" stroke-width="1" opacity="0.9411764705882353" d="M 127.5 134 L 125.5 137 L 127.5 134 Z " /><path fill="rgb(0,0,0)" stroke="rgb(0,0,0)" stroke-width="1" opacity="0.9411764705882353" d="M 60.5 135 L 55.5 141 L 60.5 135 Z " /><path fill="rgb(0,0,0)" stroke="rgb(0,0,0)" stroke-width="1" opacity="0.9411764705882353" d="M 96.5 139 L 95.5 141 L 96.5 139 Z " /><path fill="rgb(0,0,0)" stroke="rgb(0,0,0)" stroke-width="1" opacity="0.9411764705882353" d="M 121.5 140 L 119.5 143 L 121.5 140 Z " /><path fill="rgb(0,0,0)" stroke="rgb(0,0,0)" stroke-width="1" opacity="0.9411764705882353" d="M 45.5 147 L 44.5 149 L 45.5 147 Z " /><path fill="rgb(0,0,0)" stroke="rgb(0,0,0)" stroke-width="1" opacity="0.9411764705882353" d="M 41.5 150 L 40.5 152 L 41.5 150 Z " /><path fill="rgb(0,0,0)" stroke="rgb(0,0,0)" stroke-width="1" opacity="0.9411764705882353" d="M 37.5 153 L 36.5 155 L 37.5 153 Z " /><path fill="rgb(0,0,0)" stroke="rgb(0,0,0)" stroke-width="1" opacity="0.9411764705882353" d="M 33.5 156 L 32.5 158 L 33.5 156 Z " /><path fill="rgb(0,0,0)" stroke="rgb(0,0,0)" stroke-width="1" opacity="0.9411764705882353" d="M 29.5 159 L 28.5 161 L 29.5 159 Z " /><path fill="rgb(0,0,0)" stroke="rgb(0,0,0)" stroke-width="1" opacity="0.9411764705882353" d="M 42.5 160 Q 44.8 159.3 44 161.5 L 39 165.5 Q 44.4 162.8 42.5 160 Z " /><path fill="rgb(0,0,0)" stroke="rgb(0,0,0)" stroke-width="1" opacity="0.9411764705882353" d="M 25.5 162 L 24.5 164 L 25.5 162 Z " /><path fill="rgb(0,0,0)" stroke="rgb(0,0,0)" stroke-width="1" opacity="0.9411764705882353" d="M 21.5 165 L 21 166.5 L 20.5 168 L 20 166.5 L 21.5 165 Z " /><path fill="rgb(0,0,0)" stroke="rgb(0,0,0)" stroke-width="1" opacity="0.9411764705882353" d="M 35.5 170 L 34.5 172 L 35.5 170 Z " /><path fill="rgb(0,0,0)" stroke="rgb(0,0,0)" stroke-width="1" opacity="0.9411764705882353" d="M 31.5 175 L 29.5 178 L 31.5 175 Z " /><path fill="rgb(0,0,0)" stroke="rgb(0,0,0)" stroke-width="1" opacity="0.9411764705882353" d="M 27.5 180 L 26.5 182 L 27.5 180 Z " /><path fill="rgb(0,0,0)" stroke="rgb(0,0,0)" stroke-width="1" opacity="0.9411764705882353" d="M 114.5 182 L 115.5 184 L 114.5 182 Z " /><path fill="rgb(0,0,0)" stroke="rgb(0,0,0)" stroke-width="1" opacity="0.9411764705882353" d="M 119.5 187 L 120.5 189 L 119.5 187 Z " /><path fill="rgb(0,0,0)" stroke="rgb(0,0,0)" stroke-width="1" opacity="0.9411764705882353" d="M 21.5 188 L 21.5 191 Q 18.5 189.5 21.5 188 Z " /><path fill="rgb(0,0,0)" stroke="rgb(0,0,0)" stroke-width="1" opacity="0.9411764705882353" d="M 23.5 193 L 28.5 199 L 23.5 193 Z " /><path fill="rgb(0,0,0)" stroke="rgb(0,0,0)" stroke-width="1" opacity="0.9411764705882353" d="M 59.5 199 L 60.5 201 L 59.5 199 Z " /><path fill="rgb(0,0,0)" stroke="rgb(0,0,0)" stroke-width="1" opacity="0.9411764705882353" d="M 39.5 204 L 43 204.5 L 39.5 205 L 39.5 204 Z " /><path fill="rgb(0,0,0)" stroke="rgb(0,0,0)" stroke-width="1" opacity="0.9411764705882353" d="M 125.5 212 L 120.5 218 L 125.5 212 Z " /><path fill="rgb(0,0,0)" stroke="rgb(0,0,0)" stroke-width="1" opacity="0.9411764705882353" d="M 158.5 225 L 157.5 227 L 158.5 225 Z " /><path fill="rgb(0,0,0)" stroke="rgb(0,0,0)" stroke-width="1" opacity="0.9411764705882353" d="M 150.5 230 L 149.5 232 L 150.5 230 Z " /><path fill="rgb(0,0,0)" stroke="rgb(0,0,0)" stroke-width="1" opacity="0.9411764705882353" d="M 95.5 234 L 99 234.5 L 95.5 235 L 95.5 234 Z " /><path fill="rgb(0,0,0)" stroke="rgb(0,0,0)" stroke-width="1" opacity="0.9411764705882353" d="M 133.5 241 L 132.5 243 L 133.5 241 Z " /><path fill="rgb(0,0,0)" stroke="rgb(0,0,0)" stroke-width="1" opacity="0.9411764705882353" d="M 110.5 251 L 115 251.5 L 110.5 252 L 110.5 251 Z " /><path fill="rgb(0,0,0)" stroke="rgb(0,0,0)" stroke-width="1" opacity="1" d="M 219.5 68 L 220 76.5 Q 218.3 85.8 213 91.5 Q 214.3 94.3 215.5 92 L 302.5 69 L 303 70.5 L 296 89.5 L 293.5 93 L 209 115 L 209 138.5 L 211.5 139 L 283.5 120 L 283 121.5 L 277 138.5 L 273.5 144 L 209 160 L 209 183.5 Q 209 184.5 213.5 184 L 263.5 170 L 264 172.5 L 254.5 194 L 181.5 213 L 158.5 225 L 123.5 248 Q 118.4 252.3 107.5 251 Q 95 248.5 87 241.5 L 83 230 L 91.5 234 L 98.5 235 Q 102.5 233.3 101 227 L 110 227 L 110 220 L 117.5 220 L 126 212.5 Q 128.7 208.7 127 200.5 Q 123.3 188.7 114.5 182 L 103.5 177 L 95.5 177 L 94 177.5 L 95 164.5 Q 96.9 155.9 102.5 151 Q 119.4 146.9 128 134.5 L 139 112.5 L 136.5 112 L 93 142.5 L 83 182 L 79 183 L 80 191.5 L 78.5 191 L 70 189 L 71 197.5 L 69.5 197 L 64.5 195 L 60.5 195 L 58 196 L 65 208 Q 55.5 206.7 48.5 202 Q 45.6 205.6 37.5 204 Q 27.4 200.1 22 191.5 L 21 189.5 L 44 160 L 21.5 167 L 23.5 164 L 55.5 141 L 61 135.5 Q 71.4 114.4 88.5 100 Q 101.7 90.2 120.5 86 L 130.5 84 L 154.5 84 L 155.5 85 L 173.5 86 L 194.5 81 L 219.5 68 Z " /><path fill="rgb(0,0,0)" stroke="rgb(0,0,0)" stroke-width="1" opacity="0.7098039215686275" d="M 219.5 67 L 218.5 69 L 219.5 67 Z " /><path fill="rgb(0,0,0)" stroke="rgb(0,0,0)" stroke-width="1" opacity="0.7098039215686275" d="M 220.5 69 L 221 74.5 L 220 74.5 L 220.5 69 Z " /><path fill="rgb(0,0,0)" stroke="rgb(0,0,0)" stroke-width="1" opacity="0.7098039215686275" d="M 133.5 83 L 136 83.5 L 133.5 84 L 133.5 83 Z " /><path fill="rgb(0,0,0)" stroke="rgb(0,0,0)" stroke-width="1" opacity="0.7098039215686275" d="M 147.5 83 L 151 83.5 L 147.5 84 L 147.5 83 Z " /><path fill="rgb(0,0,0)" stroke="rgb(0,0,0)" stroke-width="1" opacity="0.7098039215686275" d="M 158.5 84 L 162 84.5 L 158.5 85 L 158.5 84 Z " /><path fill="rgb(0,0,0)" stroke="rgb(0,0,0)" stroke-width="1" opacity="0.7098039215686275" d="M 94.5 95 L 93.5 97 L 94.5 95 Z " /><path fill="rgb(0,0,0)" stroke="rgb(0,0,0)" stroke-width="1" opacity="0.7098039215686275" d="M 91.5 97 L 90.5 99 L 91.5 97 Z " /><path fill="rgb(0,0,0)" stroke="rgb(0,0,0)" stroke-width="1" opacity="0.7098039215686275" d="M 87.5 100 L 85.5 103 L 87.5 100 Z " /><path fill="rgb(0,0,0)" stroke="rgb(0,0,0)" stroke-width="1" opacity="0.7098039215686275" d="M 78.5 109 L 76.5 112 L 78.5 109 Z " /><path fill="rgb(0,0,0)" stroke="rgb(0,0,0)" stroke-width="1" opacity="0.7098039215686275" d="M 71.5 118 L 70.5 120 L 71.5 118 Z " /><path fill="rgb(0,0,0)" stroke="rgb(0,0,0)" stroke-width="1" opacity="0.7098039215686275" d="M 123.5 121 L 122.5 123 L 123.5 121 Z " /><path fill="rgb(0,0,0)" stroke="rgb(0,0,0)" stroke-width="1" opacity="0.7098039215686275" d="M 120.5 123 L 119.5 125 L 120.5 123 Z " /><path fill="rgb(0,0,0)" stroke="rgb(0,0,0)" stroke-width="1" opacity="0.7098039215686275" d="M 65.5 127 L 64.5 129 L 65.5 127 Z " /><path fill="rgb(0,0,0)" stroke="rgb(0,0,0)" stroke-width="1" opacity="0.7098039215686275" d="M 128.5 132 L 127.5 134 L 128.5 132 Z " /><path fill="rgb(0,0,0)" stroke="rgb(0,0,0)" stroke-width="1" opacity="0.7098039215686275" d="M 61.5 133 L 60.5 135 L 61.5 133 Z " /><path fill="rgb(0,0,0)" stroke="rgb(0,0,0)" stroke-width="1" opacity="0.7098039215686275" d="M 101.5 136 L 100.5 138 L 101.5 136 Z " /><path fill="rgb(0,0,0)" stroke="rgb(0,0,0)" stroke-width="1" opacity="0.7098039215686275" d="M 124.5 137 L 122.5 140 L 124.5 137 Z " /><path fill="rgb(0,0,0)" stroke="rgb(0,0,0)" stroke-width="1" opacity="0.7098039215686275" d="M 98.5 138 L 97.5 140 L 98.5 138 Z " /><path fill="rgb(0,0,0)" stroke="rgb(0,0,0)" stroke-width="1" opacity="0.7098039215686275" d="M 54.5 140 L 53.5 142 L 54.5 140 Z " /><path fill="rgb(0,0,0)" stroke="rgb(0,0,0)" stroke-width="1" opacity="0.7098039215686275" d="M 118.5 142 L 117.5 144 L 118.5 142 Z " /><path fill="rgb(0,0,0)" stroke="rgb(0,0,0)" stroke-width="1" opacity="0.7098039215686275" d="M 50.5 143 L 49.5 145 L 50.5 143 Z " /><path fill="rgb(0,0,0)" stroke="rgb(0,0,0)" stroke-width="1" opacity="0.7098039215686275" d="M 102.5 150 L 100.5 153 L 102.5 150 Z " /><path fill="rgb(0,0,0)" stroke="rgb(0,0,0)" stroke-width="1" opacity="0.7098039215686275" d="M 98.5 155 L 97.5 157 L 98.5 155 Z " /><path fill="rgb(0,0,0)" stroke="rgb(0,0,0)" stroke-width="1" opacity="0.7098039215686275" d="M 38.5 166 L 36.5 169 L 38.5 166 Z " /><path fill="rgb(0,0,0)" stroke="rgb(0,0,0)" stroke-width="1" opacity="0.7098039215686275" d="M 18.5 167 L 19 169 L 17 168.5 L 18.5 167 Z " /><path fill="rgb(0,0,0)" stroke="rgb(0,0,0)" stroke-width="1" opacity="0.7098039215686275" d="M 33.5 172 L 31.5 175 L 33.5 172 Z " /><path fill="rgb(0,0,0)" stroke="rgb(0,0,0)" stroke-width="1" opacity="0.7098039215686275" d="M 93.5 173 L 94 176.5 L 93 176.5 L 93.5 173 Z " /><path fill="rgb(0,0,0)" stroke="rgb(0,0,0)" stroke-width="1" opacity="0.7098039215686275" d="M 97.5 177 L 102 177.5 L 97.5 178 L 97.5 177 Z " /><path fill="rgb(0,0,0)" stroke="rgb(0,0,0)" stroke-width="1" opacity="0.7098039215686275" d="M 83.5 181 L 82.5 183 L 83.5 181 Z " /><path fill="rgb(0,0,0)" stroke="rgb(0,0,0)" stroke-width="1" opacity="0.7098039215686275" d="M 25.5 182 L 24.5 184 L 25.5 182 Z " /><path fill="rgb(0,0,0)" stroke="rgb(0,0,0)" stroke-width="1" opacity="0.7098039215686275" d="M 80.5 183 L 79.5 185 L 80.5 183 Z " /><path fill="rgb(0,0,0)" stroke="rgb(0,0,0)" stroke-width="1" opacity="0.7098039215686275" d="M 116.5 184 L 118.5 187 L 116.5 184 Z " /><path fill="rgb(0,0,0)" stroke="rgb(0,0,0)" stroke-width="1" opacity="0.7098039215686275" d="M 22.5 186 L 21.5 188 L 22.5 186 Z " /><path fill="rgb(0,0,0)" stroke="rgb(0,0,0)" stroke-width="1" opacity="0.7098039215686275" d="M 21.5 191 L 22.5 193 L 21.5 191 Z " /><path fill="rgb(0,0,0)" stroke="rgb(0,0,0)" stroke-width="1" opacity="0.7098039215686275" d="M 29.5 199 L 30.5 201 L 29.5 199 Z " /><path fill="rgb(0,0,0)" stroke="rgb(0,0,0)" stroke-width="1" opacity="0.7098039215686275" d="M 63.5 204 L 64.5 206 L 63.5 204 Z " /><path fill="rgb(0,0,0)" stroke="rgb(0,0,0)" stroke-width="1" opacity="0.7098039215686275" d="M 118.5 218 L 117.5 220 L 118.5 218 Z " /><path fill="rgb(0,0,0)" stroke="rgb(0,0,0)" stroke-width="1" opacity="0.7098039215686275" d="M 109.5 220 L 110 225.5 L 108 226.5 L 109.5 220 Z " /><path fill="rgb(0,0,0)" stroke="rgb(0,0,0)" stroke-width="1" opacity="0.7098039215686275" d="M 82.5 228 L 83 230.5 L 82 230.5 L 82.5 228 Z " /><path fill="rgb(0,0,0)" stroke="rgb(0,0,0)" stroke-width="1" opacity="0.7098039215686275" d="M 100.5 232 L 99.5 234 L 100.5 232 Z " /></svg>