<svg width="50" height="50" viewBox="0 0 50 50" fill="none" xmlns="http://www.w3.org/2000/svg">
<path d="M20.5809 4.41854L18.4059 6.59354L21.3903 9.57791L24.5153 12.7029C25.227 12.3508 26.0169 12.1862 26.81 12.2247C27.6032 12.2631 28.3734 12.5034 29.0477 12.9227C29.722 13.342 30.2782 13.9265 30.6635 14.6208C31.0489 15.3152 31.2506 16.0963 31.2496 16.8904C31.2328 17.599 31.0678 18.2963 30.7653 18.9373L33.984 22.0623C34.8281 21.5746 35.816 21.3967 36.7772 21.5593C37.7385 21.7219 38.6129 22.2147 39.2496 22.9529C39.6946 23.3796 40.0465 23.8938 40.2831 24.463C40.5197 25.0323 40.636 25.6443 40.6246 26.2607C40.6256 27.4916 40.1457 28.6741 39.2871 29.556C38.8552 30.0072 38.3346 30.3642 37.7581 30.6045C37.1816 30.8449 36.5617 30.9635 35.9371 30.9529C35.3194 30.9626 34.706 30.8472 34.1341 30.6136C33.5621 30.38 33.0433 30.033 32.609 29.5935C31.8732 28.9514 31.3835 28.0734 31.2238 27.1099C31.0642 26.1464 31.2446 25.1574 31.734 24.3123L28.609 21.0935C28.4511 21.1649 28.2894 21.2275 28.1246 21.281V31.2498C29.0318 31.5729 29.8174 32.1676 30.3746 32.9529C30.9434 33.7335 31.2498 34.6745 31.2496 35.6404C31.2619 36.2592 31.1464 36.8738 30.9104 37.4459C30.6743 38.0181 30.3228 38.5353 29.8778 38.9654C29.0269 39.8153 27.8802 40.303 26.6778 40.3264C25.8089 40.3535 24.9498 40.137 24.1976 39.7013C23.4454 39.2655 22.8301 38.628 22.4214 37.8608C22.0127 37.0936 21.8268 36.2274 21.8848 35.36C21.9428 34.4927 22.2424 33.6589 22.7496 32.9529C23.3069 32.1676 24.0925 31.5729 24.9996 31.2498V21.281C24.0905 20.9616 23.3039 20.3661 22.7496 19.5779C22.1789 18.7983 21.8723 17.8566 21.8746 16.8904C21.8733 16.1796 22.0392 15.4784 22.359 14.8435L16.2653 8.74979L4.42308 20.581C3.84234 21.1613 3.38162 21.8504 3.06724 22.6088C2.75285 23.3672 2.59097 24.1801 2.59082 25.001C2.59068 25.822 2.75228 26.635 3.06639 27.3935C3.38051 28.152 3.84099 28.8412 4.42152 29.4217L20.5809 45.581C21.7529 46.7527 23.3424 47.411 24.9996 47.411C26.6569 47.411 28.2463 46.7527 29.4184 45.581L45.5809 29.4185C46.7526 28.2465 47.4108 26.6571 47.4108 24.9998C47.4108 23.3425 46.7526 21.7531 45.5809 20.581L29.4184 4.41854C28.2463 3.24684 26.6569 2.58862 24.9996 2.58862C23.3424 2.58862 21.7529 3.24684 20.5809 4.41854Z" fill="#E64A19"/>
</svg>
