<svg width="288" height="288" version="1.1" xmlns="http://www.w3.org/2000/svg" desc="Created with imagetracer.js version 1.2.6" ><path fill="rgb(27,31,36)" stroke="rgb(27,31,36)" stroke-width="1" opacity="1" d="M 131.5 11 L 164.5 12 L 193.5 20 Q 223.9 32.6 244 55.5 Q 258.9 72.1 268 94.5 L 276 123.5 L 277 147.5 L 276 147.5 L 270.5 141 L 263.5 138 L 230 138 L 227 118.5 L 216 100.5 L 218 95.5 L 219 82.5 L 217 71.5 L 213.5 65 L 208.5 65 L 197.5 68 L 178.5 79 L 175.5 79 L 170.5 77 L 158.5 76 L 157.5 75 L 131.5 75 L 110.5 79 L 93.5 69 Q 86.2 65.3 75.5 65 Q 68.3 74.3 70 92.5 L 72 102.5 L 68 106.5 L 61 120.5 L 59 129.5 L 59 146.5 L 60 147.5 L 61 159.5 L 64 168.5 Q 69.5 182 80.5 190 L 92.5 197 L 104.5 201 L 119 203.5 Q 112.2 210 111 221 L 100.5 224 L 92.5 224 Q 81.5 222 76 214.5 Q 71.8 205.8 64.5 200 Q 59.8 194.2 47.5 196 L 46 199.5 L 47 202 Q 54.2 204.9 59 211.5 L 67 227.5 L 73.5 235 Q 83.5 243.5 104.5 241 L 111 240 L 111 265.5 L 107.5 270 Q 99.1 270.9 94.5 268 L 74.5 258 Q 57.1 247.4 44 232.5 Q 24.2 210.8 15 178.5 L 11 156.5 L 11 132.5 L 15 109.5 Q 19.6 93.1 27 79.5 Q 38.5 59 55.5 44 Q 69.5 31.5 87.5 23 L 109.5 15 L 131.5 11 Z " /><path fill="rgb(27,31,36)" stroke="rgb(27,31,36)" stroke-width="1" opacity="1" d="M 219.5 149 L 261.5 149 L 267 153.5 L 267 197.5 L 264.5 201 L 262.5 202 L 249 202 L 249 228.5 L 248 232.5 Q 244.9 242.4 237.5 248 Q 229 255.2 213 254 L 213 266.5 L 208.5 272 L 164.5 272 L 161 269.5 L 160 267.5 L 160 223.5 L 161 221 L 165.5 219 L 207.5 219 L 212 222.5 L 213 224.5 L 213 237 Q 225.8 239.1 230 231.5 L 232 227.5 L 232 202 L 218.5 202 L 215 198.5 L 214 196.5 L 214 155.5 L 217.5 150 L 219.5 149 Z M 231 166 L 231 185 L 233 186 L 250 186 L 251 185 L 251 168 L 250 166 L 231 166 Z M 177 236 L 177 255 L 196 255 L 196 236 L 177 236 Z " /><path fill="rgb(0,0,0)" stroke="rgb(0,0,0)" stroke-width="1" opacity="0" d="M 0 0 L 127 0.5 L 99.5 6 L 72.5 18 Q 51.4 29.9 36 47.5 Q 20.8 64.3 11 86.5 L 4 106.5 L 0.5 127 L 0 0 Z " /><path fill="rgb(0,0,0)" stroke="rgb(0,0,0)" stroke-width="1" opacity="0" d="M 161.5 0 L 288 0 L 288 126.5 L 287 126.5 L 287 120.5 L 282 99.5 L 270 72.5 Q 258.1 51.4 240.5 36 Q 223.7 20.8 201.5 11 L 181.5 4 L 167.5 1 L 161.5 1 L 161.5 0 Z " /><path fill="rgb(0,0,0)" stroke="rgb(0,0,0)" stroke-width="1" opacity="0" d="M 0.5 161 L 6 188.5 L 18 215.5 Q 29.9 236.6 47.5 252 Q 64.3 267.2 86.5 277 L 106.5 284 L 127 287.5 L 0 288 L 0.5 161 Z " /><path fill="rgb(0,0,0)" stroke="rgb(0,0,0)" stroke-width="1" opacity="0" d="M 287.5 161 L 288 288 L 161 287.5 L 178.5 284 L 207.5 284 Q 215.3 282.3 220 277.5 Q 224.8 273.2 224 265 Q 243.8 262.5 253 248.5 Q 258.7 241.7 260 230.5 Q 271.6 215.6 279 196.5 L 285 177.5 L 287.5 161 Z " /><path fill="rgb(215,216,216)" stroke="rgb(215,216,216)" stroke-width="1" opacity="1" d="M 135.5 10 L 153 10.5 L 135.5 11 L 135.5 10 Z " /><path fill="rgb(215,216,216)" stroke="rgb(215,216,216)" stroke-width="1" opacity="1" d="M 125.5 11 L 128 11.5 L 125.5 12 L 125.5 11 Z " /><path fill="rgb(215,216,216)" stroke="rgb(215,216,216)" stroke-width="1" opacity="1" d="M 216.5 31 L 217.5 33 L 216.5 31 Z " /><path fill="rgb(215,216,216)" stroke="rgb(215,216,216)" stroke-width="1" opacity="1" d="M 219.5 33 L 220.5 35 L 219.5 33 Z " /><path fill="rgb(215,216,216)" stroke="rgb(215,216,216)" stroke-width="1" opacity="1" d="M 64.5 36 L 63.5 38 L 64.5 36 Z " /><path fill="rgb(215,216,216)" stroke="rgb(215,216,216)" stroke-width="1" opacity="1" d="M 223.5 36 L 224.5 38 L 223.5 36 Z " /><path fill="rgb(215,216,216)" stroke="rgb(215,216,216)" stroke-width="1" opacity="1" d="M 60.5 39 L 59.5 41 L 60.5 39 Z " /><path fill="rgb(215,216,216)" stroke="rgb(215,216,216)" stroke-width="1" opacity="1" d="M 227.5 39 L 228.5 41 L 227.5 39 Z " /><path fill="rgb(215,216,216)" stroke="rgb(215,216,216)" stroke-width="1" opacity="1" d="M 233.5 44 L 242.5 54 L 233.5 44 Z " /><path fill="rgb(215,216,216)" stroke="rgb(215,216,216)" stroke-width="1" opacity="1" d="M 53.5 45 L 44.5 55 L 53.5 45 Z " /><path fill="rgb(215,216,216)" stroke="rgb(215,216,216)" stroke-width="1" opacity="1" d="M 40.5 59 L 39.5 61 L 40.5 59 Z " /><path fill="rgb(215,216,216)" stroke="rgb(215,216,216)" stroke-width="1" opacity="1" d="M 247.5 59 L 248.5 61 L 247.5 59 Z " /><path fill="rgb(215,216,216)" stroke="rgb(215,216,216)" stroke-width="1" opacity="1" d="M 250.5 63 L 251.5 65 L 250.5 63 Z " /><path fill="rgb(215,216,216)" stroke="rgb(215,216,216)" stroke-width="1" opacity="1" d="M 34.5 67 L 33.5 69 L 34.5 67 Z " /><path fill="rgb(215,216,216)" stroke="rgb(215,216,216)" stroke-width="1" opacity="1" d="M 32.5 70 L 31.5 72 L 32.5 70 Z " /><path fill="rgb(215,216,216)" stroke="rgb(215,216,216)" stroke-width="1" opacity="1" d="M 104.5 75 L 105.5 77 L 104.5 75 Z " /><path fill="rgb(215,216,216)" stroke="rgb(215,216,216)" stroke-width="1" opacity="1" d="M 135.5 75 L 154 75.5 L 135.5 76 L 135.5 75 Z " /><path fill="rgb(215,216,216)" stroke="rgb(215,216,216)" stroke-width="1" opacity="1" d="M 70.5 83 L 71 88.5 L 70 88.5 L 70.5 83 Z " /><path fill="rgb(215,216,216)" stroke="rgb(215,216,216)" stroke-width="1" opacity="1" d="M 216.5 102 L 217.5 104 L 216.5 102 Z " /><path fill="rgb(215,216,216)" stroke="rgb(215,216,216)" stroke-width="1" opacity="1" d="M 71.5 103 L 70.5 105 L 71.5 103 Z " /><path fill="rgb(215,216,216)" stroke="rgb(215,216,216)" stroke-width="1" opacity="1" d="M 68.5 107 L 67.5 109 L 68.5 107 Z " /><path fill="rgb(215,216,216)" stroke="rgb(215,216,216)" stroke-width="1" opacity="1" d="M 276.5 125 L 277 127.5 L 276 127.5 L 276.5 125 Z " /><path fill="rgb(215,216,216)" stroke="rgb(215,216,216)" stroke-width="1" opacity="1" d="M 59.5 133 L 60 142.5 L 59 142.5 L 59.5 133 Z " /><path fill="rgb(215,216,216)" stroke="rgb(215,216,216)" stroke-width="1" opacity="1" d="M 10.5 135 L 11 152.5 L 10 152.5 L 10.5 135 Z " /><path fill="rgb(215,216,216)" stroke="rgb(215,216,216)" stroke-width="1" opacity="1" d="M 277.5 135 L 278 149.5 L 277 149.5 L 277.5 135 Z " /><path fill="rgb(215,216,216)" stroke="rgb(215,216,216)" stroke-width="1" opacity="1" d="M 229.5 138 L 262 138.5 L 229.5 139 L 229.5 138 Z " /><path fill="rgb(215,216,216)" stroke="rgb(215,216,216)" stroke-width="1" opacity="1" d="M 271.5 142 L 273.5 145 L 271.5 142 Z " /><path fill="rgb(215,216,216)" stroke="rgb(215,216,216)" stroke-width="1" opacity="1" d="M 221.5 148 L 261 148.5 L 221.5 149 L 221.5 148 Z " /><path fill="rgb(215,216,216)" stroke="rgb(215,216,216)" stroke-width="1" opacity="1" d="M 60.5 150 L 61 152.5 L 60 152.5 L 60.5 150 Z " /><path fill="rgb(215,216,216)" stroke="rgb(215,216,216)" stroke-width="1" opacity="1" d="M 216.5 150 L 215.5 152 L 216.5 150 Z " /><path fill="rgb(215,216,216)" stroke="rgb(215,216,216)" stroke-width="1" opacity="1" d="M 213.5 157 L 214 194.5 L 213 194.5 L 213.5 157 Z " /><path fill="rgb(215,216,216)" stroke="rgb(215,216,216)" stroke-width="1" opacity="1" d="M 11.5 160 L 12 162.5 L 11 162.5 L 11.5 160 Z " /><path fill="rgb(215,216,216)" stroke="rgb(215,216,216)" stroke-width="1" opacity="1" d="M 232.5 166 L 250 166.5 L 232 167 L 231.5 185 L 231 167.5 L 232.5 166 Z " /><path fill="rgb(215,216,216)" stroke="rgb(215,216,216)" stroke-width="1" opacity="1" d="M 72.5 181 L 78.5 188 L 72.5 181 Z " /><path fill="rgb(215,216,216)" stroke="rgb(215,216,216)" stroke-width="1" opacity="1" d="M 266.5 199 L 264.5 202 L 266.5 199 Z " /><path fill="rgb(215,216,216)" stroke="rgb(215,216,216)" stroke-width="1" opacity="1" d="M 49.5 202 L 50.5 204 L 49.5 202 Z " /><path fill="rgb(215,216,216)" stroke="rgb(215,216,216)" stroke-width="1" opacity="1" d="M 66.5 202 L 68.5 205 L 66.5 202 Z " /><path fill="rgb(215,216,216)" stroke="rgb(215,216,216)" stroke-width="1" opacity="1" d="M 118.5 202 Q 120.8 201.3 120 203.5 L 118 204.5 L 118.5 202 Z " /><path fill="rgb(215,216,216)" stroke="rgb(215,216,216)" stroke-width="1" opacity="1" d="M 249.5 203 L 250 226.5 L 249 226.5 L 249.5 203 Z " /><path fill="rgb(215,216,216)" stroke="rgb(215,216,216)" stroke-width="1" opacity="1" d="M 52.5 204 L 53.5 206 L 52.5 204 Z " /><path fill="rgb(215,216,216)" stroke="rgb(215,216,216)" stroke-width="1" opacity="1" d="M 75.5 214 L 79.5 219 L 75.5 214 Z " /><path fill="rgb(215,216,216)" stroke="rgb(215,216,216)" stroke-width="1" opacity="1" d="M 166.5 218 L 207 218.5 L 166.5 219 L 166.5 218 Z " /><path fill="rgb(215,216,216)" stroke="rgb(215,216,216)" stroke-width="1" opacity="1" d="M 94.5 224 L 99 224.5 L 94.5 225 L 94.5 224 Z " /><path fill="rgb(215,216,216)" stroke="rgb(215,216,216)" stroke-width="1" opacity="1" d="M 213.5 225 L 214 236 L 221 236.5 L 214.5 237 L 213 235.5 L 213.5 225 Z " /><path fill="rgb(215,216,216)" stroke="rgb(215,216,216)" stroke-width="1" opacity="1" d="M 39.5 227 L 40.5 229 L 39.5 227 Z " /><path fill="rgb(215,216,216)" stroke="rgb(215,216,216)" stroke-width="1" opacity="1" d="M 228.5 232 L 227.5 234 L 228.5 232 Z " /><path fill="rgb(215,216,216)" stroke="rgb(215,216,216)" stroke-width="1" opacity="1" d="M 45.5 234 L 53.5 243 L 45.5 234 Z " /><path fill="rgb(215,216,216)" stroke="rgb(215,216,216)" stroke-width="1" opacity="1" d="M 177.5 236 L 196 236 L 196 254.5 L 195 254.5 L 195 237 L 177.5 237 L 177.5 236 Z " /><path fill="rgb(215,216,216)" stroke="rgb(215,216,216)" stroke-width="1" opacity="1" d="M 91.5 240 L 102 240.5 L 91.5 241 L 91.5 240 Z " /><path fill="rgb(215,216,216)" stroke="rgb(215,216,216)" stroke-width="1" opacity="1" d="M 243.5 242 L 237.5 249 L 243.5 242 Z " /><path fill="rgb(215,216,216)" stroke="rgb(215,216,216)" stroke-width="1" opacity="1" d="M 59.5 247 L 60.5 249 L 59.5 247 Z " /><path fill="rgb(215,216,216)" stroke="rgb(215,216,216)" stroke-width="1" opacity="1" d="M 63.5 250 L 64.5 252 L 63.5 250 Z " /><path fill="rgb(215,216,216)" stroke="rgb(215,216,216)" stroke-width="1" opacity="1" d="M 67.5 253 L 68.5 255 L 67.5 253 Z " /><path fill="rgb(215,216,216)" stroke="rgb(215,216,216)" stroke-width="1" opacity="1" d="M 213 254 L 221 254.5 L 214 255 L 213.5 266 L 213 254 Z " /><path fill="rgb(215,216,216)" stroke="rgb(215,216,216)" stroke-width="1" opacity="1" d="M 161.5 270 L 162.5 272 L 161.5 270 Z " /><path fill="rgb(255,255,255)" stroke="rgb(255,255,255)" stroke-width="1" opacity="0.984313725490196" d="M 127.5 0 L 140 0.5 L 127.5 1 L 110.5 4 L 84.5 13 Q 53.5 27.5 33 52.5 Q 18.9 69.4 10 91.5 L 2 120.5 L 0.5 140 L 0 127.5 L 4 106.5 Q 9.2 87.7 18 72.5 Q 30.1 51.6 47.5 36 Q 64.3 20.8 86.5 11 L 106.5 4 L 127.5 0 Z " /><path fill="rgb(255,255,255)" stroke="rgb(255,255,255)" stroke-width="1" opacity="0.984313725490196" d="M 148.5 0 L 160.5 0 L 177.5 3 L 201.5 11 Q 231.7 24.3 252 47.5 Q 270.6 67.9 281 96.5 L 287 120.5 L 288 139.5 L 287 139.5 L 287 127.5 L 284 110.5 L 275 84.5 Q 260.5 53.5 235.5 33 Q 218.6 18.9 196.5 10 L 177.5 4 L 160.5 1 L 148.5 1 L 148.5 0 Z " /><path fill="rgb(255,255,255)" stroke="rgb(255,255,255)" stroke-width="1" opacity="0.984313725490196" d="M 0.5 148 L 1 160.5 L 4 177.5 L 13 203.5 Q 27.5 234.5 52.5 255 Q 69.4 269.1 91.5 278 L 120.5 286 L 140 287.5 L 127.5 288 L 106.5 284 Q 87.7 278.8 72.5 270 Q 51.6 257.9 36 240.5 Q 17.4 220.1 7 191.5 L 1 167.5 L 0.5 148 Z " /><path fill="rgb(255,255,255)" stroke="rgb(255,255,255)" stroke-width="1" opacity="0.984313725490196" d="M 287.5 148 L 288 160.5 L 284 181.5 L 277 201.5 Q 270.6 216.6 261 228.5 L 255 245.5 L 243.5 258 Q 235.7 263.9 224 265 Q 224.2 274.4 218.5 279 L 207.5 284 L 178.5 284 L 160.5 288 L 148.5 288 L 148.5 287 L 160.5 287 L 178.5 283 L 207.5 283 Q 216.8 281.3 221 274.5 Q 223.9 270.6 223 264 Q 240.8 261.9 250 250.5 Q 257.5 243 259 229.5 Q 270.8 215.3 278 196.5 L 286 167.5 L 287.5 148 Z " /><path fill="rgb(255,255,255)" stroke="rgb(255,255,255)" stroke-width="1" opacity="1" d="M 140.5 0 L 167.5 2 L 181.5 5 L 201.5 12 Q 233.8 26.7 255 52.5 Q 269.1 69.4 278 91.5 L 286 120.5 L 288 147.5 L 287 148.5 L 287 160.5 L 284 177.5 L 278 196.5 Q 270.8 215.3 259 229.5 L 258 236.5 L 255 243.5 L 245.5 255 Q 237.1 262.9 223 264 Q 223.6 275.8 215.5 280 L 207.5 283 L 178.5 283 L 160.5 287 L 140.5 288 L 139.5 287 L 127.5 287 L 110.5 284 L 86.5 276 Q 54.2 261.3 33 235.5 Q 18.9 218.6 10 196.5 L 2 167.5 L 0 140.5 L 1 139.5 L 1 127.5 L 4 110.5 L 12 86.5 Q 26.7 54.2 52.5 33 Q 69.4 18.9 91.5 10 L 110.5 4 L 127.5 1 L 139.5 1 L 140.5 0 Z M 136 10 L 135 11 L 126 11 L 111 14 L 91 21 Q 69 30 54 45 Q 32 64 20 93 L 13 115 L 12 126 L 11 127 L 11 135 L 10 136 L 11 163 L 17 188 Q 27 215 45 235 Q 67 259 101 271 L 109 270 L 111 268 L 111 239 L 107 240 L 87 240 L 75 235 L 69 230 L 59 211 L 49 202 L 46 199 L 51 196 Q 59 196 64 200 Q 71 205 75 215 Q 82 223 95 225 L 105 224 L 112 221 L 114 212 L 120 202 L 104 200 Q 91 197 82 190 L 67 174 L 62 161 L 60 150 L 60 128 L 61 124 Q 65 110 73 102 L 71 95 Q 69 76 76 66 L 82 66 L 92 69 L 111 80 L 129 76 L 161 76 L 177 80 L 197 69 L 207 66 L 214 66 L 216 71 L 218 80 Q 220 93 215 101 Q 223 109 227 121 L 229 131 L 229 139 L 265 139 L 270 141 L 275 148 L 278 150 L 278 136 L 277 135 L 276 120 L 269 96 Q 259 71 243 54 Q 224 32 196 20 L 169 12 L 154 11 L 153 10 L 136 10 Z M 222 148 L 217 150 L 213 158 L 213 195 L 214 199 L 220 203 L 232 203 L 232 225 L 230 231 Q 226 238 214 236 L 213 223 L 207 218 L 167 218 L 164 219 L 159 225 L 159 267 L 161 271 L 166 273 L 208 273 L 210 272 Q 216 268 214 255 L 227 254 L 238 249 Q 246 243 249 233 Q 248 228 250 227 L 250 203 L 265 202 L 268 198 L 268 155 L 267 153 L 261 148 L 222 148 Z " /><path fill="rgb(255,255,255)" stroke="rgb(255,255,255)" stroke-width="1" opacity="1" d="M 232 167 L 250 167 L 250 185 L 232 185 L 232 167 Z " /><path fill="rgb(255,255,255)" stroke="rgb(255,255,255)" stroke-width="1" opacity="1" d="M 177 237 L 195 237 L 195 255 L 177 255 L 177 237 Z " /><path fill="rgb(123,126,128)" stroke="rgb(123,126,128)" stroke-width="1" opacity="1" d="M 128.5 11 L 131 11.5 L 128.5 12 L 128.5 11 Z " /><path fill="rgb(123,126,128)" stroke="rgb(123,126,128)" stroke-width="1" opacity="1" d="M 156.5 11 L 160 11.5 L 156.5 12 L 156.5 11 Z " /><path fill="rgb(123,126,128)" stroke="rgb(123,126,128)" stroke-width="1" opacity="1" d="M 58.5 41 L 56.5 44 L 58.5 41 Z " /><path fill="rgb(123,126,128)" stroke="rgb(123,126,128)" stroke-width="1" opacity="1" d="M 229.5 41 L 231.5 44 L 229.5 41 Z " /><path fill="rgb(123,126,128)" stroke="rgb(123,126,128)" stroke-width="1" opacity="1" d="M 43.5 56 L 41.5 59 L 43.5 56 Z " /><path fill="rgb(123,126,128)" stroke="rgb(123,126,128)" stroke-width="1" opacity="1" d="M 244.5 56 L 246.5 59 L 244.5 56 Z " /><path fill="rgb(123,126,128)" stroke="rgb(123,126,128)" stroke-width="1" opacity="1" d="M 38.5 62 L 37.5 64 L 38.5 62 Z " /><path fill="rgb(123,126,128)" stroke="rgb(123,126,128)" stroke-width="1" opacity="1" d="M 75.5 65 L 80 65.5 L 75.5 66 L 75.5 65 Z " /><path fill="rgb(123,126,128)" stroke="rgb(123,126,128)" stroke-width="1" opacity="1" d="M 208.5 65 Q 213.8 63.8 215 66.5 L 213.5 66 Q 207.5 67.3 208.5 65 Z " /><path fill="rgb(123,126,128)" stroke="rgb(123,126,128)" stroke-width="1" opacity="1" d="M 131.5 75 L 135 75.5 L 131.5 76 L 131.5 75 Z " /><path fill="rgb(123,126,128)" stroke="rgb(123,126,128)" stroke-width="1" opacity="1" d="M 154.5 75 L 158 75.5 L 154.5 76 L 154.5 75 Z " /><path fill="rgb(123,126,128)" stroke="rgb(123,126,128)" stroke-width="1" opacity="1" d="M 183.5 75 L 182.5 77 L 183.5 75 Z " /><path fill="rgb(123,126,128)" stroke="rgb(123,126,128)" stroke-width="1" opacity="1" d="M 70.5 79 L 71 82.5 L 70 82.5 L 70.5 79 Z " /><path fill="rgb(123,126,128)" stroke="rgb(123,126,128)" stroke-width="1" opacity="1" d="M 218.5 82 L 219 89.5 L 218 89.5 L 218.5 82 Z " /><path fill="rgb(123,126,128)" stroke="rgb(123,126,128)" stroke-width="1" opacity="1" d="M 70.5 89 L 71 92.5 L 70 92.5 L 70.5 89 Z " /><path fill="rgb(123,126,128)" stroke="rgb(123,126,128)" stroke-width="1" opacity="1" d="M 218.5 104 L 219.5 106 L 218.5 104 Z " /><path fill="rgb(123,126,128)" stroke="rgb(123,126,128)" stroke-width="1" opacity="1" d="M 69.5 105 L 68.5 107 L 69.5 105 Z " /><path fill="rgb(123,126,128)" stroke="rgb(123,126,128)" stroke-width="1" opacity="1" d="M 220.5 107 L 221.5 109 L 220.5 107 Z " /><path fill="rgb(123,126,128)" stroke="rgb(123,126,128)" stroke-width="1" opacity="1" d="M 11.5 128 L 12 131.5 L 11 131.5 L 11.5 128 Z " /><path fill="rgb(123,126,128)" stroke="rgb(123,126,128)" stroke-width="1" opacity="1" d="M 276.5 128 L 277 130.5 L 276 130.5 L 276.5 128 Z " /><path fill="rgb(123,126,128)" stroke="rgb(123,126,128)" stroke-width="1" opacity="1" d="M 59.5 129 L 60 132.5 L 59 132.5 L 59.5 129 Z " /><path fill="rgb(123,126,128)" stroke="rgb(123,126,128)" stroke-width="1" opacity="1" d="M 229.5 133 L 230 137.5 L 229 137.5 L 229.5 133 Z " /><path fill="rgb(123,126,128)" stroke="rgb(123,126,128)" stroke-width="1" opacity="1" d="M 59.5 143 L 60 146.5 L 59 146.5 L 59.5 143 Z " /><path fill="rgb(123,126,128)" stroke="rgb(123,126,128)" stroke-width="1" opacity="1" d="M 274.5 145 L 275.5 147 L 274.5 145 Z " /><path fill="rgb(123,126,128)" stroke="rgb(123,126,128)" stroke-width="1" opacity="1" d="M 264.5 150 L 266.5 153 L 264.5 150 Z " /><path fill="rgb(123,126,128)" stroke="rgb(123,126,128)" stroke-width="1" opacity="1" d="M 267.5 155 L 268 196.5 L 267 196.5 L 267.5 155 Z " /><path fill="rgb(123,126,128)" stroke="rgb(123,126,128)" stroke-width="1" opacity="1" d="M 11.5 157 L 12 159.5 L 11 159.5 L 11.5 157 Z " /><path fill="rgb(123,126,128)" stroke="rgb(123,126,128)" stroke-width="1" opacity="1" d="M 250.5 167 L 251 184.5 L 249.5 186 L 232.5 186 L 232.5 185 L 250 185 L 250.5 167 Z " /><path fill="rgb(123,126,128)" stroke="rgb(123,126,128)" stroke-width="1" opacity="1" d="M 68.5 176 L 69.5 178 L 68.5 176 Z " /><path fill="rgb(123,126,128)" stroke="rgb(123,126,128)" stroke-width="1" opacity="1" d="M 70.5 179 L 71.5 181 L 70.5 179 Z " /><path fill="rgb(123,126,128)" stroke="rgb(123,126,128)" stroke-width="1" opacity="1" d="M 79.5 188 L 80.5 190 L 79.5 188 Z " /><path fill="rgb(123,126,128)" stroke="rgb(123,126,128)" stroke-width="1" opacity="1" d="M 47.5 196 L 49 196.5 L 46.5 198 L 47.5 196 Z " /><path fill="rgb(123,126,128)" stroke="rgb(123,126,128)" stroke-width="1" opacity="1" d="M 215.5 199 L 216.5 201 L 215.5 199 Z " /><path fill="rgb(123,126,128)" stroke="rgb(123,126,128)" stroke-width="1" opacity="1" d="M 64.5 200 L 65.5 202 L 64.5 200 Z " /><path fill="rgb(123,126,128)" stroke="rgb(123,126,128)" stroke-width="1" opacity="1" d="M 115.5 202 L 118 202.5 L 115.5 203 L 115.5 202 Z " /><path fill="rgb(123,126,128)" stroke="rgb(123,126,128)" stroke-width="1" opacity="1" d="M 220.5 202 L 232 202.5 L 220.5 203 L 220.5 202 Z " /><path fill="rgb(123,126,128)" stroke="rgb(123,126,128)" stroke-width="1" opacity="1" d="M 249.5 202 L 261 202.5 L 249.5 203 L 249.5 202 Z " /><path fill="rgb(123,126,128)" stroke="rgb(123,126,128)" stroke-width="1" opacity="1" d="M 69.5 205 L 70.5 207 L 69.5 205 Z " /><path fill="rgb(123,126,128)" stroke="rgb(123,126,128)" stroke-width="1" opacity="1" d="M 117.5 205 L 116.5 207 L 117.5 205 Z " /><path fill="rgb(123,126,128)" stroke="rgb(123,126,128)" stroke-width="1" opacity="1" d="M 54.5 206 L 57.5 210 L 54.5 206 Z " /><path fill="rgb(123,126,128)" stroke="rgb(123,126,128)" stroke-width="1" opacity="1" d="M 59.5 212 L 60.5 214 L 59.5 212 Z " /><path fill="rgb(123,126,128)" stroke="rgb(123,126,128)" stroke-width="1" opacity="1" d="M 74.5 212 L 75.5 214 L 74.5 212 Z " /><path fill="rgb(123,126,128)" stroke="rgb(123,126,128)" stroke-width="1" opacity="1" d="M 210.5 220 L 211.5 222 L 210.5 220 Z " /><path fill="rgb(123,126,128)" stroke="rgb(123,126,128)" stroke-width="1" opacity="1" d="M 37.5 224 L 38.5 226 L 37.5 224 Z " /><path fill="rgb(123,126,128)" stroke="rgb(123,126,128)" stroke-width="1" opacity="1" d="M 159.5 225 L 160 265.5 L 159 265.5 L 159.5 225 Z " /><path fill="rgb(123,126,128)" stroke="rgb(123,126,128)" stroke-width="1" opacity="1" d="M 41.5 229 L 43.5 232 L 41.5 229 Z " /><path fill="rgb(123,126,128)" stroke="rgb(123,126,128)" stroke-width="1" opacity="1" d="M 69.5 230 L 73.5 235 L 69.5 230 Z " /><path fill="rgb(123,126,128)" stroke="rgb(123,126,128)" stroke-width="1" opacity="1" d="M 87.5 240 L 91 240.5 L 87.5 241 L 87.5 240 Z " /><path fill="rgb(123,126,128)" stroke="rgb(123,126,128)" stroke-width="1" opacity="1" d="M 102.5 240 L 105 240.5 L 102.5 241 L 102.5 240 Z " /><path fill="rgb(123,126,128)" stroke="rgb(123,126,128)" stroke-width="1" opacity="1" d="M 244.5 240 L 243.5 242 L 244.5 240 Z " /><path fill="rgb(123,126,128)" stroke="rgb(123,126,128)" stroke-width="1" opacity="1" d="M 56.5 244 L 58.5 247 L 56.5 244 Z " /><path fill="rgb(123,126,128)" stroke="rgb(123,126,128)" stroke-width="1" opacity="1" d="M 236.5 248 L 235.5 250 L 236.5 248 Z " /><path fill="rgb(123,126,128)" stroke="rgb(123,126,128)" stroke-width="1" opacity="1" d="M 109.5 268 L 108.5 270 L 109.5 268 Z " /><path fill="rgb(123,126,128)" stroke="rgb(123,126,128)" stroke-width="1" opacity="1" d="M 211.5 269 L 210.5 271 L 211.5 269 Z " /><path fill="rgb(123,126,128)" stroke="rgb(123,126,128)" stroke-width="1" opacity="1" d="M 102.5 270 L 107 270.5 L 102.5 271 L 102.5 270 Z " /><path fill="rgb(123,126,128)" stroke="rgb(123,126,128)" stroke-width="1" opacity="1" d="M 166.5 272 L 207 272.5 L 166.5 273 L 166.5 272 Z " /></svg>