<svg width="42" height="42" viewBox="0 0 42 42" fill="none" xmlns="http://www.w3.org/2000/svg">
<g clip-path="url(#clip0_68_1584)">
<path d="M39.5 2.45621C37.9722 0.928433 36.134 0.165239 33.9854 0.166628H7.97079C5.82079 0.166628 3.9826 0.929822 2.45621 2.45621C0.928433 3.98399 0.165239 5.82218 0.166628 7.97079V33.9854C0.166628 36.1354 0.929822 37.9736 2.45621 39.5C3.98399 41.0277 5.82218 41.7909 7.97079 41.7895H14.0416C14.4375 41.7895 14.7354 41.7757 14.9354 41.7479C15.1683 41.7019 15.3785 41.5776 15.5312 41.3958C15.7298 41.1875 15.8291 40.8854 15.8291 40.4895L15.8145 38.6458C15.8062 37.4708 15.802 36.5402 15.802 35.8541L15.177 35.9625C14.7812 36.0347 14.2805 36.0666 13.675 36.0583C13.0431 36.0462 12.4132 35.9828 11.7916 35.8687C11.1293 35.7486 10.506 35.4698 9.97496 35.0562C9.41756 34.6347 9.00187 34.0533 8.78329 33.3895L8.51246 32.7645C8.28331 32.272 7.99659 31.8083 7.65829 31.3833C7.26941 30.8777 6.87635 30.5347 6.47913 30.3541L6.29163 30.2187C6.16143 30.1244 6.04258 30.0153 5.93746 29.8937C5.83705 29.7807 5.75482 29.6528 5.69371 29.5145C5.63954 29.3868 5.68468 29.2826 5.82913 29.202C5.97357 29.1187 6.23607 29.0777 6.61663 29.0791L7.15829 29.1625C7.51941 29.2333 7.96593 29.4493 8.49788 29.8104C9.0355 30.1769 9.4846 30.6587 9.81246 31.2208C10.2291 31.9597 10.7305 32.5243 11.3166 32.9145C11.9041 33.3034 12.4958 33.4979 13.0916 33.4979C13.6875 33.4979 14.2027 33.4527 14.6375 33.3625C15.0585 33.2752 15.4676 33.1381 15.8562 32.9541C16.0187 31.7444 16.4611 30.8138 17.1833 30.1625C16.2467 30.0699 15.3184 29.9069 14.4062 29.675C13.5161 29.4308 12.6601 29.0759 11.8583 28.6187C11.0192 28.1619 10.2781 27.5446 9.67704 26.802C9.09927 26.0798 8.62496 25.1319 8.25413 23.9583C7.88468 22.7833 7.69996 21.4277 7.69996 19.8916C7.69996 17.7069 8.41316 15.8458 9.83954 14.3083C9.17288 12.6652 9.23607 10.8236 10.0291 8.78329C10.5541 8.61941 11.3312 8.74093 12.3604 9.14788C13.3895 9.55482 14.1437 9.90204 14.6229 10.1895C15.102 10.4812 15.4861 10.7257 15.775 10.9229C17.4685 10.4507 19.2189 10.2137 20.977 10.2187C22.7659 10.2187 24.5007 10.4534 26.1812 10.9229L27.2104 10.2729C28.002 9.7976 28.837 9.39859 29.7041 9.08121C30.6611 8.7201 31.393 8.62079 31.9 8.78329C32.7125 10.825 32.784 12.6673 32.1145 14.3104C33.5423 15.8451 34.2562 17.7062 34.2562 19.8937C34.2562 21.4298 34.0708 22.7888 33.7 23.9708C33.3305 25.1541 32.852 26.1027 32.2645 26.8166C31.6512 27.548 30.9073 28.159 30.0708 28.6187C29.1958 29.1062 28.3465 29.4583 27.5229 29.675C26.6108 29.9076 25.6825 30.0713 24.7458 30.1645C25.6833 30.977 26.1527 32.259 26.1541 34.0104V40.4895C26.1541 40.7951 26.1993 41.043 26.2895 41.2333C26.3317 41.3246 26.3918 41.4066 26.4662 41.4742C26.5406 41.5418 26.6279 41.5938 26.7229 41.627C26.9215 41.6993 27.0979 41.7437 27.252 41.7604C27.4062 41.7798 27.627 41.7888 27.9145 41.7875H33.9854C36.1354 41.7875 37.9736 41.0243 39.5 39.4979C41.0263 37.9715 41.7895 36.1333 41.7895 33.9833V7.97079C41.7895 5.82079 41.0277 3.9826 39.5 2.45621Z" fill="#E6E6E6"/>
</g>
<defs>
<clipPath id="clip0_68_1584">
<rect width="42" height="42" fill="white"/>
</clipPath>
</defs>
</svg>
