<svg width="46" height="50" viewBox="0 0 46 50" fill="none" xmlns="http://www.w3.org/2000/svg">
<g clip-path="url(#clip0_73_1691)">
<path d="M17.5835 14.1665L17.7224 17.361L15.5002 21.5277L12.0279 28.3332L11.3335 34.0277L13.8335 42.0832L19.5279 45.2777H28.1391L36.1946 39.1665L39.8057 29.5832L31.4724 19.4443L29.1113 13.7499L17.5835 14.1665Z" fill="#ECEFF1"/>
<path d="M37.3058 22.0834C35.0836 18.8889 33.278 16.9445 32.3058 12.9167C31.3336 8.88892 32.5836 10 31.7502 6.52781C31.3336 4.72225 30.6391 3.47225 29.9447 2.50003C29.1113 1.52781 28.1391 0.972252 27.5836 0.833363C26.3336 0.138919 23.4169 -0.972192 19.8058 0.972252C16.0558 2.9167 16.4724 7.08336 17.1669 15.5556C17.1669 16.1111 17.028 16.8056 16.7502 17.3611C16.1947 18.6111 15.2224 19.7223 14.3891 20.6945C13.4169 22.0834 12.4447 23.4723 11.7502 25C10.0836 28.1945 8.55578 32.2223 8.97245 33.75C9.66689 33.6111 18.4169 46.9445 18.4169 47.2222C18.9724 47.0834 21.3336 47.0834 23.4169 47.0834C26.3336 46.9445 28.0002 46.8056 30.3613 47.3611C30.3613 46.9445 30.2224 46.5278 30.2224 46.1111C30.2224 45.2778 30.3613 44.5834 30.5002 43.6111C30.6391 42.9167 30.778 42.2223 30.9169 41.3889C29.528 42.6389 27.028 44.0278 24.6669 44.4445C22.5836 44.8611 19.1113 44.1667 17.4447 42.0834C17.5836 42.0834 17.8613 42.0834 18.0002 41.9445C18.4169 41.8056 18.8336 41.6667 18.9724 41.3889C19.3891 40.6945 19.1113 40 18.8336 39.5834C18.5558 39.1667 16.4724 37.6389 15.5002 36.8056C14.528 35.9723 13.9724 35.5556 13.4169 35L12.3058 33.8889C12.028 33.6111 11.8891 33.3334 11.7502 33.1945C11.4724 32.5 11.3336 31.6667 11.4724 30.5556C11.6113 29.0278 12.1669 27.7778 12.8613 26.3889C13.1391 25.8334 13.8336 24.7223 13.8336 24.7223C13.8336 24.7223 11.4724 30.5556 12.7224 32.3611C12.7224 32.3611 12.8613 30.5556 13.4169 28.75C13.8336 27.5 14.528 25.6945 15.3613 24.7223C16.1947 23.75 18.278 20.1389 18.4169 17.9167C18.4169 16.9445 18.5558 15.9723 18.5558 15.2778C18.0002 14.7223 27.7224 13.3334 28.278 14.8611C28.4169 15.4167 30.3613 20.4167 31.4724 23.0556C32.028 24.3056 32.7224 25.4167 33.1391 26.8056C33.5558 28.3334 33.8336 30.4167 33.8336 32.5C33.8336 32.9167 33.8336 33.6111 33.6947 34.3056C33.9724 34.3056 39.3891 28.4723 33.0002 23.6111C33.0002 23.6111 36.8891 25.4167 37.028 29.0278C37.1669 31.9445 35.9169 34.3056 35.6391 34.7223C35.778 34.7223 38.5558 35.9723 38.6947 35.9723C39.2502 35.9723 40.3613 35.5556 40.3613 35.5556C40.5002 35.1389 40.9169 34.0278 40.9169 33.6111C41.8891 30.4167 39.528 25.2778 37.3058 22.0834Z" fill="#263238"/>
<path d="M19.6664 12.9165C20.6636 12.9165 21.472 11.6729 21.472 10.1387C21.472 8.60462 20.6636 7.36096 19.6664 7.36096C18.6692 7.36096 17.8608 8.60462 17.8608 10.1387C17.8608 11.6729 18.6692 12.9165 19.6664 12.9165Z" fill="#ECEFF1"/>
<path d="M25.9163 13.1943C27.2203 13.1943 28.2774 11.7641 28.2774 9.99986C28.2774 8.23562 27.2203 6.80542 25.9163 6.80542C24.6123 6.80542 23.5552 8.23562 23.5552 9.99986C23.5552 11.7641 24.6123 13.1943 25.9163 13.1943Z" fill="#ECEFF1"/>
<path d="M20.6764 10.3287C20.561 9.41552 20.0355 8.7298 19.5028 8.79714C18.9701 8.86447 18.6319 9.65935 18.7473 10.5726C18.8627 11.4858 19.3881 12.1715 19.9208 12.1042C20.4536 12.0368 20.7918 11.2419 20.6764 10.3287Z" fill="#212121"/>
<path d="M25.7778 12.3611C26.5449 12.3611 27.1667 11.5527 27.1667 10.5556C27.1667 9.55837 26.5449 8.75 25.7778 8.75C25.0107 8.75 24.3889 9.55837 24.3889 10.5556C24.3889 11.5527 25.0107 12.3611 25.7778 12.3611Z" fill="#212121"/>
<path d="M44.2503 41.1111C43.6947 40.8333 42.7225 40.4166 41.8892 39.1666C41.4725 38.4722 41.6114 36.5278 40.917 35.6944C40.5003 35.1389 39.9447 35.4166 39.8059 35.4166C38.5559 35.6944 35.6392 37.6389 33.6947 35.4166C33.417 35.1389 33.0003 34.7222 32.3059 34.7222C31.6114 34.7222 31.3336 35 31.0559 35.5555C30.7781 36.1111 30.7781 36.5277 30.7781 37.9166C30.7781 39.0277 30.7781 40.2778 30.6392 41.25C30.3614 43.6111 29.9447 45 29.9447 46.3889C29.9447 47.9166 30.3614 48.8889 30.917 49.3055C31.3336 49.7222 32.0281 50 33.5559 50C35.0836 50 36.0559 49.4444 37.0281 48.4722C37.7225 47.7778 38.2781 47.5 40.2225 46.1111C41.7503 45.1389 44.1114 43.8889 44.5281 43.4722C44.8059 43.1944 45.2225 43.0555 45.2225 42.2222C45.2225 41.5278 44.667 41.25 44.2503 41.1111ZM16.3336 41.5278C14.9447 39.3055 14.8059 38.8889 13.8336 37.5C13.0003 36.1111 11.1947 33.4722 10.0836 33.4722C9.2503 33.4722 8.83363 33.8889 8.27808 34.4444C7.72252 35 7.16697 36.25 6.19474 36.9444C5.36141 37.6389 3.0003 37.5 2.44474 38.3333C1.88919 39.1666 3.0003 40.4166 3.0003 42.5C3.0003 43.3333 2.30586 43.8889 2.16697 44.4444C2.02808 45.1389 1.88919 45.5555 2.16697 46.1111C2.72252 46.9444 3.41697 47.2222 8.13919 48.1944C10.6392 48.75 13.0003 50.1389 14.5281 50.2778C16.0559 50.4166 18.6947 50.2777 18.6947 46.5277C18.8336 44.3055 17.5836 43.75 16.3336 41.5278ZM18.9725 16.3889C18.1392 15.8333 17.4447 15.2778 17.4447 14.4444C17.4447 13.6111 18.0003 13.3333 18.8336 12.6389C18.9725 12.5 20.5003 11.1111 22.0281 11.1111C23.5559 11.1111 25.3614 12.0833 26.0559 12.3611C27.3059 12.6389 28.5559 12.9166 28.417 13.8889C28.2781 15.2778 28.1392 15.5555 26.7503 16.25C25.7781 16.5278 23.9725 18.0555 22.7225 18.0555C22.167 18.0555 21.3336 18.0555 20.7781 17.9166C20.3614 17.7778 19.667 17.0833 18.9725 16.3889Z" fill="#FFC107"/>
<path d="M18.6945 15.2777C18.9723 15.5555 19.3889 15.8333 19.8056 15.9721C20.0834 16.111 20.5 16.2499 20.5 16.2499H21.75C22.4445 16.2499 23.4167 15.9721 24.3889 15.4166C25.3612 14.9999 25.5 14.7221 26.1945 14.4444C26.8889 14.0277 27.5834 13.611 27.3056 13.4721C27.0278 13.3333 26.75 13.4721 25.7778 14.0277C24.9445 14.5833 24.25 14.861 23.4167 15.2777C23 15.4166 22.4445 15.6944 22.0278 15.6944H20.7778C20.3612 15.6944 20.0834 15.5555 19.6667 15.4166C19.3889 15.2777 19.25 15.1388 19.1112 15.1388C18.8334 14.9999 18.2778 14.4444 18 14.3055C18 14.3055 17.7223 14.3055 17.8612 14.4444L18.6945 15.2777ZM22.8612 12.2221C23 12.4999 23.2778 12.4999 23.4167 12.6388C23.5556 12.7777 23.6945 12.7777 23.6945 12.7777C23.8334 12.6388 23.6945 12.361 23.5556 12.361C23.5556 12.0833 22.8612 12.0833 22.8612 12.2221ZM20.6389 12.4999C20.6389 12.6388 20.9167 12.7777 20.9167 12.6388C21.0556 12.4999 21.1945 12.361 21.3334 12.361C21.6112 12.2221 21.4723 12.0833 21.0556 12.0833C20.7778 12.2221 20.7778 12.361 20.6389 12.4999Z" fill="#634703"/>
<path d="M34.1112 37.0833V37.4999C34.389 38.0555 35.0834 38.1944 35.639 38.1944C36.4723 38.1944 37.3057 37.6388 37.7223 37.0833C37.7223 36.9444 37.8612 36.8055 38.0001 36.6666C38.2779 36.2499 38.4168 35.9722 38.5557 35.8333C38.5557 35.8333 38.4168 35.6944 38.4168 35.5555C38.2779 35.2777 37.8612 34.9999 37.3057 34.8611C36.889 34.7222 36.1946 34.5833 35.9168 34.5833C34.6668 34.4444 33.9723 34.8611 33.5557 35.2777C33.5557 35.2777 33.6946 35.2777 33.6946 35.4166C33.9723 35.6944 34.1112 35.9722 34.1112 36.3888C34.2501 36.6666 34.1112 36.8055 34.1112 37.0833Z" fill="#263238"/>
</g>
<defs>
<clipPath id="clip0_73_1691">
<rect width="44.4444" height="50" fill="white" transform="translate(0.777832)"/>
</clipPath>
</defs>
</svg>
