<svg width="280" height="280" version="1.1" xmlns="http://www.w3.org/2000/svg" desc="Created with imagetracer.js version 1.2.6" ><path fill="rgb(0,0,0)" stroke="rgb(0,0,0)" stroke-width="1" opacity="0" d="M 0 0 L 280 0 L 280 280 L 0 280 L 0 0 Z M 148 100 L 143 102 L 154 106 L 155 108 L 135 101 L 122 101 L 118 104 L 118 115 L 126 131 Q 133 141 146 146 L 146 147 L 134 141 L 119 125 L 115 113 L 115 107 L 98 107 L 81 110 L 72 114 L 66 115 Q 33 128 9 150 L 7 153 L 30 148 L 47 148 Q 48 150 53 149 L 64 152 L 76 159 L 83 168 L 86 170 L 86 151 L 109 151 L 118 168 Q 117 171 120 170 L 131 151 L 153 151 L 153 188 L 157 187 L 160 182 Q 165 176 175 174 Q 179 175 181 173 L 203 173 L 200 166 L 201 163 L 206 161 Q 216 161 223 157 Q 237 156 248 152 L 253 152 L 268 147 L 272 142 L 276 130 Q 274 126 270 126 L 267 132 L 266 132 L 268 125 L 239 114 L 204 105 L 181 101 L 173 101 L 172 100 L 148 100 Z M 110 175 L 109 205 L 130 205 L 131 204 L 131 175 L 120 191 L 110 175 Z " /><path fill="rgb(0,0,0)" stroke="rgb(0,0,0)" stroke-width="1" opacity="0" d="M 125 110 Q 140.9 112.4 150 122.5 L 148.5 123 L 145.5 121 L 145 122.5 L 148 126.5 L 146.5 126 L 141.5 124 L 142 125.5 L 146 131.5 L 144.5 131 Q 142.3 130.3 143 132.5 L 147 137.5 L 145.5 137 L 132 125.5 L 126 116.5 L 125 110 Z " /><path fill="rgb(0,0,0)" stroke="rgb(0,0,0)" stroke-width="1" opacity="0" d="M 189.5 118 L 197.5 118 L 221 123 Q 222.3 126 218.5 125 L 217.5 126 L 202.5 126 Q 195.9 125.1 193 120.5 Q 193.9 117.5 189.5 119 L 189.5 118 Z " /><path fill="rgb(0,0,0)" stroke="rgb(0,0,0)" stroke-width="1" opacity="0" d="M 214.5 148 L 217 148.5 L 202.5 153 L 194 158.5 L 192.5 166 Q 190.1 163.9 191 158.5 L 201.5 152 L 214.5 148 Z " /><path fill="rgb(124,0,0)" stroke="rgb(124,0,0)" stroke-width="1" opacity="0.7411764705882353" d="M 147.5 100 L 153 100.5 L 147.5 101 L 147.5 100 Z " /><path fill="rgb(124,0,0)" stroke="rgb(124,0,0)" stroke-width="1" opacity="0.7411764705882353" d="M 164.5 100 L 172 100.5 L 164.5 101 L 164.5 100 Z " /><path fill="rgb(124,0,0)" stroke="rgb(124,0,0)" stroke-width="1" opacity="0.7411764705882353" d="M 132.5 101 L 135 101.5 L 132.5 102 L 132.5 101 Z " /><path fill="rgb(124,0,0)" stroke="rgb(124,0,0)" stroke-width="1" opacity="0.7411764705882353" d="M 177.5 101 L 181 101.5 L 177.5 102 L 177.5 101 Z " /><path fill="rgb(124,0,0)" stroke="rgb(124,0,0)" stroke-width="1" opacity="0.7411764705882353" d="M 119.5 102 L 119 103.5 L 118.5 105 L 118 103.5 L 119.5 102 Z " /><path fill="rgb(124,0,0)" stroke="rgb(124,0,0)" stroke-width="1" opacity="0.7411764705882353" d="M 185.5 102 L 188 102.5 L 185.5 103 L 185.5 102 Z " /><path fill="rgb(124,0,0)" stroke="rgb(124,0,0)" stroke-width="1" opacity="0.7411764705882353" d="M 190.5 103 L 193 103.5 L 190.5 104 L 190.5 103 Z " /><path fill="rgb(124,0,0)" stroke="rgb(124,0,0)" stroke-width="1" opacity="0.7411764705882353" d="M 149.5 104 L 151 104.5 L 148.5 106 L 149.5 104 Z " /><path fill="rgb(124,0,0)" stroke="rgb(124,0,0)" stroke-width="1" opacity="0.7411764705882353" d="M 196.5 104 L 199 104.5 L 196.5 105 L 196.5 104 Z " /><path fill="rgb(124,0,0)" stroke="rgb(124,0,0)" stroke-width="1" opacity="0.7411764705882353" d="M 152.5 105 L 151.5 107 L 152.5 105 Z " /><path fill="rgb(124,0,0)" stroke="rgb(124,0,0)" stroke-width="1" opacity="0.7411764705882353" d="M 154.5 106 L 156.5 109 Q 154.3 109.8 155 107.5 L 153 107.5 L 154.5 106 Z " /><path fill="rgb(124,0,0)" stroke="rgb(124,0,0)" stroke-width="1" opacity="0.7411764705882353" d="M 97.5 107 L 102 107.5 L 97.5 108 L 97.5 107 Z " /><path fill="rgb(124,0,0)" stroke="rgb(124,0,0)" stroke-width="1" opacity="0.7411764705882353" d="M 91.5 108 L 94 108.5 L 91.5 109 L 91.5 108 Z " /><path fill="rgb(124,0,0)" stroke="rgb(124,0,0)" stroke-width="1" opacity="0.7411764705882353" d="M 85.5 109 L 88 109.5 L 85.5 110 L 85.5 109 Z " /><path fill="rgb(124,0,0)" stroke="rgb(124,0,0)" stroke-width="1" opacity="0.7411764705882353" d="M 218.5 109 L 221 109.5 L 218.5 110 L 218.5 109 Z " /><path fill="rgb(124,0,0)" stroke="rgb(124,0,0)" stroke-width="1" opacity="0.7411764705882353" d="M 118.5 112 L 119 114.5 L 118 114.5 L 118.5 112 Z " /><path fill="rgb(124,0,0)" stroke="rgb(124,0,0)" stroke-width="1" opacity="0.7411764705882353" d="M 236.5 114 L 239 114.5 L 236.5 115 L 236.5 114 Z " /><path fill="rgb(124,0,0)" stroke="rgb(124,0,0)" stroke-width="1" opacity="0.7411764705882353" d="M 141.5 115 L 142.5 117 L 141.5 115 Z " /><path fill="rgb(124,0,0)" stroke="rgb(124,0,0)" stroke-width="1" opacity="0.7411764705882353" d="M 126.5 117 L 127.5 119 L 126.5 117 Z " /><path fill="rgb(124,0,0)" stroke="rgb(124,0,0)" stroke-width="1" opacity="0.7411764705882353" d="M 186.5 117 L 194 117.5 L 187.5 119 L 186.5 117 Z " /><path fill="rgb(124,0,0)" stroke="rgb(124,0,0)" stroke-width="1" opacity="0.7411764705882353" d="M 198.5 118 L 202 118.5 L 198.5 119 L 198.5 118 Z " /><path fill="rgb(124,0,0)" stroke="rgb(124,0,0)" stroke-width="1" opacity="0.7411764705882353" d="M 204.5 119 L 207 119.5 L 204.5 120 L 204.5 119 Z " /><path fill="rgb(124,0,0)" stroke="rgb(124,0,0)" stroke-width="1" opacity="0.7411764705882353" d="M 128.5 120 L 132 124.5 L 128 121.5 L 128.5 120 Z " /><path fill="rgb(124,0,0)" stroke="rgb(124,0,0)" stroke-width="1" opacity="0.7411764705882353" d="M 148.5 120 L 151.5 124 L 149 123.5 L 150 122.5 L 148.5 120 Z " /><path fill="rgb(124,0,0)" stroke="rgb(124,0,0)" stroke-width="1" opacity="0.7411764705882353" d="M 193.5 121 L 195.5 124 L 193.5 121 Z " /><path fill="rgb(124,0,0)" stroke="rgb(124,0,0)" stroke-width="1" opacity="0.7411764705882353" d="M 221 123 L 223 123.5 Q 222.5 126.5 218.5 126 L 218.5 125 Q 222.3 126 221 123 Z " /><path fill="rgb(124,0,0)" stroke="rgb(124,0,0)" stroke-width="1" opacity="0.7411764705882353" d="M 44.5 125 L 43.5 127 L 44.5 125 Z " /><path fill="rgb(124,0,0)" stroke="rgb(124,0,0)" stroke-width="1" opacity="0.7411764705882353" d="M 119.5 125 L 120.5 127 L 119.5 125 Z " /><path fill="rgb(124,0,0)" stroke="rgb(124,0,0)" stroke-width="1" opacity="0.7411764705882353" d="M 267.5 125 L 268.5 127 L 271.5 126 L 271.5 127 Q 268.2 125.9 269 128.5 L 268 128.5 L 267.5 125 Z " /><path fill="rgb(124,0,0)" stroke="rgb(124,0,0)" stroke-width="1" opacity="0.7411764705882353" d="M 132.5 126 L 138.5 133 L 132.5 126 Z " /><path fill="rgb(124,0,0)" stroke="rgb(124,0,0)" stroke-width="1" opacity="0.7411764705882353" d="M 142.5 126 L 145.5 130 L 142.5 126 Z " /><path fill="rgb(124,0,0)" stroke="rgb(124,0,0)" stroke-width="1" opacity="0.7411764705882353" d="M 146.5 126 L 149 127.5 L 147.5 128 L 146.5 126 Z " /><path fill="rgb(124,0,0)" stroke="rgb(124,0,0)" stroke-width="1" opacity="0.7411764705882353" d="M 124.5 127 L 125.5 129 L 124.5 127 Z " /><path fill="rgb(124,0,0)" stroke="rgb(124,0,0)" stroke-width="1" opacity="0.7411764705882353" d="M 273.5 127 Q 276.5 127.5 276 131.5 L 275 131.5 L 273.5 127 Z " /><path fill="rgb(124,0,0)" stroke="rgb(124,0,0)" stroke-width="1" opacity="0.7411764705882353" d="M 121.5 128 L 122.5 130 L 121.5 128 Z " /><path fill="rgb(124,0,0)" stroke="rgb(124,0,0)" stroke-width="1" opacity="0.7411764705882353" d="M 266.5 128 L 268 130.5 L 266 129.5 L 266.5 128 Z " /><path fill="rgb(124,0,0)" stroke="rgb(124,0,0)" stroke-width="1" opacity="0.7411764705882353" d="M 126.5 130 L 129.5 134 L 126.5 130 Z " /><path fill="rgb(124,0,0)" stroke="rgb(124,0,0)" stroke-width="1" opacity="0.7411764705882353" d="M 34.5 131 L 33.5 133 L 32 132.5 L 34.5 131 Z " /><path fill="rgb(124,0,0)" stroke="rgb(124,0,0)" stroke-width="1" opacity="0.7411764705882353" d="M 123.5 131 L 130.5 139 L 123.5 131 Z " /><path fill="rgb(124,0,0)" stroke="rgb(124,0,0)" stroke-width="1" opacity="0.7411764705882353" d="M 143 131 L 145 131.5 L 144 132.5 L 145.5 135 L 143 131 Z " /><path fill="rgb(124,0,0)" stroke="rgb(124,0,0)" stroke-width="1" opacity="0.7411764705882353" d="M 265 132 Q 267.7 130.9 267 133.5 L 265 134.5 L 265 132 Z " /><path fill="rgb(124,0,0)" stroke="rgb(124,0,0)" stroke-width="1" opacity="0.7411764705882353" d="M 140.5 133 L 143.5 137 L 140.5 133 Z " /><path fill="rgb(124,0,0)" stroke="rgb(124,0,0)" stroke-width="1" opacity="0.7411764705882353" d="M 28.5 135 L 27.5 137 L 28.5 135 Z " /><path fill="rgb(124,0,0)" stroke="rgb(124,0,0)" stroke-width="1" opacity="0.7411764705882353" d="M 146.5 136 L 149 139.5 L 147 138.5 L 146.5 137 L 145 137.5 L 146.5 136 Z " /><path fill="rgb(124,0,0)" stroke="rgb(124,0,0)" stroke-width="1" opacity="0.7411764705882353" d="M 134.5 138 L 137.5 142 L 134.5 138 Z " /><path fill="rgb(124,0,0)" stroke="rgb(124,0,0)" stroke-width="1" opacity="0.7411764705882353" d="M 22.5 139 L 20.5 142 L 22.5 139 Z " /><path fill="rgb(124,0,0)" stroke="rgb(124,0,0)" stroke-width="1" opacity="0.7411764705882353" d="M 134.5 141 L 135.5 143 L 134.5 141 Z " /><path fill="rgb(124,0,0)" stroke="rgb(124,0,0)" stroke-width="1" opacity="0.7411764705882353" d="M 271.5 141 L 270.5 143 L 271.5 141 Z " /><path fill="rgb(124,0,0)" stroke="rgb(124,0,0)" stroke-width="1" opacity="0.7411764705882353" d="M 18.5 142 L 16.5 145 L 18.5 142 Z " /><path fill="rgb(124,0,0)" stroke="rgb(124,0,0)" stroke-width="1" opacity="0.7411764705882353" d="M 141.5 143 L 142.5 145 L 141.5 143 Z " /><path fill="rgb(124,0,0)" stroke="rgb(124,0,0)" stroke-width="1" opacity="0.7411764705882353" d="M 139.5 144 L 140.5 146 L 139.5 144 Z " /><path fill="rgb(124,0,0)" stroke="rgb(124,0,0)" stroke-width="1" opacity="0.7411764705882353" d="M 269.5 144 L 267.5 147 L 269.5 144 Z " /><path fill="rgb(124,0,0)" stroke="rgb(124,0,0)" stroke-width="1" opacity="0.7411764705882353" d="M 144.5 145 L 143.5 147 L 142 146.5 L 144.5 145 Z " /><path fill="rgb(124,0,0)" stroke="rgb(124,0,0)" stroke-width="1" opacity="0.7411764705882353" d="M 146 146 L 148 146.5 L 146 147.5 L 146 146 Z " /><path fill="rgb(124,0,0)" stroke="rgb(124,0,0)" stroke-width="1" opacity="0.7411764705882353" d="M 34.5 147 L 42 147.5 L 34.5 148 L 34.5 147 Z " /><path fill="rgb(124,0,0)" stroke="rgb(124,0,0)" stroke-width="1" opacity="0.7411764705882353" d="M 149.5 147 L 154 149.5 L 152.5 150 L 149 149 L 149.5 147 Z " /><path fill="rgb(124,0,0)" stroke="rgb(124,0,0)" stroke-width="1" opacity="0.7411764705882353" d="M 217 147 L 222 147.5 L 217 149 L 217 147 Z " /><path fill="rgb(124,0,0)" stroke="rgb(124,0,0)" stroke-width="1" opacity="0.7411764705882353" d="M 11.5 148 L 10.5 150 L 11.5 148 Z " /><path fill="rgb(124,0,0)" stroke="rgb(124,0,0)" stroke-width="1" opacity="0.7411764705882353" d="M 26.5 148 L 29 148.5 L 26.5 149 L 26.5 148 Z " /><path fill="rgb(124,0,0)" stroke="rgb(124,0,0)" stroke-width="1" opacity="0.7411764705882353" d="M 47.5 148 L 50 148.5 L 47.5 149 L 47.5 148 Z " /><path fill="rgb(124,0,0)" stroke="rgb(124,0,0)" stroke-width="1" opacity="0.7411764705882353" d="M 213.5 148 L 216 149.5 L 214.5 150 L 213.5 148 Z " /><path fill="rgb(124,0,0)" stroke="rgb(124,0,0)" stroke-width="1" opacity="0.7411764705882353" d="M 20.5 149 L 23 149.5 L 20.5 150 L 20.5 149 Z " /><path fill="rgb(124,0,0)" stroke="rgb(124,0,0)" stroke-width="1" opacity="0.7411764705882353" d="M 8.5 150 L 8.5 153 L 6 152.5 L 8.5 150 Z " /><path fill="rgb(124,0,0)" stroke="rgb(124,0,0)" stroke-width="1" opacity="0.7411764705882353" d="M 207.5 150 L 210 151.5 L 208.5 152 L 207.5 150 Z " /><path fill="rgb(124,0,0)" stroke="rgb(124,0,0)" stroke-width="1" opacity="0.7411764705882353" d="M 249.5 151 L 253 151.5 L 249.5 152 L 249.5 151 Z " /><path fill="rgb(124,0,0)" stroke="rgb(124,0,0)" stroke-width="1" opacity="0.7411764705882353" d="M 66.5 153 L 67.5 155 L 66.5 153 Z " /><path fill="rgb(124,0,0)" stroke="rgb(124,0,0)" stroke-width="1" opacity="0.7411764705882353" d="M 202.5 153 L 204 153.5 L 201.5 155 L 202.5 153 Z " /><path fill="rgb(124,0,0)" stroke="rgb(124,0,0)" stroke-width="1" opacity="0.7411764705882353" d="M 194.5 155 L 193.5 157 L 194.5 155 Z " /><path fill="rgb(124,0,0)" stroke="rgb(124,0,0)" stroke-width="1" opacity="0.7411764705882353" d="M 111.5 156 L 112.5 158 L 111.5 156 Z " /><path fill="rgb(124,0,0)" stroke="rgb(124,0,0)" stroke-width="1" opacity="0.7411764705882353" d="M 225.5 156 L 228 156.5 L 225.5 157 L 225.5 156 Z " /><path fill="rgb(124,0,0)" stroke="rgb(124,0,0)" stroke-width="1" opacity="0.7411764705882353" d="M 73.5 157 L 74.5 159 L 73.5 157 Z " /><path fill="rgb(124,0,0)" stroke="rgb(124,0,0)" stroke-width="1" opacity="0.7411764705882353" d="M 195.5 157 L 194.5 159 L 195.5 157 Z " /><path fill="rgb(124,0,0)" stroke="rgb(124,0,0)" stroke-width="1" opacity="0.7411764705882353" d="M 190.5 159 L 191 161.5 L 190 161.5 L 190.5 159 Z " /><path fill="rgb(124,0,0)" stroke="rgb(124,0,0)" stroke-width="1" opacity="0.7411764705882353" d="M 77.5 160 L 80.5 164 L 77.5 160 Z " /><path fill="rgb(124,0,0)" stroke="rgb(124,0,0)" stroke-width="1" opacity="0.7411764705882353" d="M 193.5 160 L 194 167.5 L 192 166.5 L 193.5 160 Z " /><path fill="rgb(124,0,0)" stroke="rgb(124,0,0)" stroke-width="1" opacity="0.7411764705882353" d="M 207.5 160 L 210 160.5 L 207.5 161 L 207.5 160 Z " /><path fill="rgb(124,0,0)" stroke="rgb(124,0,0)" stroke-width="1" opacity="0.7411764705882353" d="M 203.5 161 L 205 161.5 L 202.5 163 L 203.5 161 Z " /><path fill="rgb(124,0,0)" stroke="rgb(124,0,0)" stroke-width="1" opacity="0.7411764705882353" d="M 116.5 165 L 117.5 167 L 116.5 165 Z " /><path fill="rgb(124,0,0)" stroke="rgb(124,0,0)" stroke-width="1" opacity="0.7411764705882353" d="M 121.5 166 L 120.5 168 L 121.5 166 Z " /><path fill="rgb(124,0,0)" stroke="rgb(124,0,0)" stroke-width="1" opacity="0.7411764705882353" d="M 83.5 167 L 85.5 170 L 83.5 167 Z " /><path fill="rgb(124,0,0)" stroke="rgb(124,0,0)" stroke-width="1" opacity="0.7411764705882353" d="M 118.5 168 L 119.5 170 Q 116.7 170.7 118.5 168 Z " /><path fill="rgb(124,0,0)" stroke="rgb(124,0,0)" stroke-width="1" opacity="0.7411764705882353" d="M 202.5 171 L 203 173 L 194 172.5 L 202.5 171 Z " /><path fill="rgb(124,0,0)" stroke="rgb(124,0,0)" stroke-width="1" opacity="0.7411764705882353" d="M 176.5 173 L 180 173.5 L 176.5 174 L 176.5 173 Z " /><path fill="rgb(124,0,0)" stroke="rgb(124,0,0)" stroke-width="1" opacity="0.7411764705882353" d="M 171.5 174 L 174 174.5 L 171.5 175 L 171.5 174 Z " /><path fill="rgb(124,0,0)" stroke="rgb(124,0,0)" stroke-width="1" opacity="0.7411764705882353" d="M 109.5 175 L 111 177.5 L 109 176.5 L 109.5 175 Z " /><path fill="rgb(124,0,0)" stroke="rgb(124,0,0)" stroke-width="1" opacity="0.7411764705882353" d="M 130.5 175 L 131 203.5 L 130 203.5 L 130 177.5 L 129 176.5 L 130.5 175 Z " /><path fill="rgb(124,0,0)" stroke="rgb(124,0,0)" stroke-width="1" opacity="0.7411764705882353" d="M 166.5 176 L 165.5 178 L 166.5 176 Z " /><path fill="rgb(124,0,0)" stroke="rgb(124,0,0)" stroke-width="1" opacity="0.7411764705882353" d="M 128.5 178 L 127.5 180 L 128.5 178 Z " /><path fill="rgb(124,0,0)" stroke="rgb(124,0,0)" stroke-width="1" opacity="0.7411764705882353" d="M 163.5 178 L 162.5 180 L 163.5 178 Z " /><path fill="rgb(124,0,0)" stroke="rgb(124,0,0)" stroke-width="1" opacity="0.7411764705882353" d="M 111.5 179 L 112.5 181 L 111.5 179 Z " /><path fill="rgb(124,0,0)" stroke="rgb(124,0,0)" stroke-width="1" opacity="0.7411764705882353" d="M 126.5 181 L 125.5 183 L 126.5 181 Z " /><path fill="rgb(124,0,0)" stroke="rgb(124,0,0)" stroke-width="1" opacity="0.7411764705882353" d="M 159.5 182 L 157.5 185 L 159.5 182 Z " /><path fill="rgb(124,0,0)" stroke="rgb(124,0,0)" stroke-width="1" opacity="0.7411764705882353" d="M 124.5 184 L 123.5 186 L 124.5 184 Z " /><path fill="rgb(124,0,0)" stroke="rgb(124,0,0)" stroke-width="1" opacity="0.7411764705882353" d="M 115.5 185 L 116.5 187 L 115.5 185 Z " /><path fill="rgb(124,0,0)" stroke="rgb(124,0,0)" stroke-width="1" opacity="0.7411764705882353" d="M 122.5 187 L 121.5 189 L 122.5 187 Z " /><path fill="rgb(124,0,0)" stroke="rgb(124,0,0)" stroke-width="1" opacity="0.7411764705882353" d="M 117.5 188 L 119.5 191 L 121 190.5 Q 119.5 193.5 118 190.5 L 117.5 188 Z " /><path fill="rgb(136,0,0)" stroke="rgb(136,0,0)" stroke-width="1" opacity="0.996078431372549" d="M 153.5 100 L 157 100.5 L 153.5 101 L 153.5 100 Z " /><path fill="rgb(136,0,0)" stroke="rgb(136,0,0)" stroke-width="1" opacity="0.996078431372549" d="M 159.5 100 L 164 100.5 L 159.5 101 L 159.5 100 Z " /><path fill="rgb(136,0,0)" stroke="rgb(136,0,0)" stroke-width="1" opacity="0.996078431372549" d="M 102.5 107 L 105 107.5 L 102.5 108 L 102.5 107 Z " /><path fill="rgb(136,0,0)" stroke="rgb(136,0,0)" stroke-width="1" opacity="0.996078431372549" d="M 111.5 107 L 115 108.5 L 114.5 110 L 114 108 Q 110.7 108.8 111.5 107 Z " /><path fill="rgb(136,0,0)" stroke="rgb(136,0,0)" stroke-width="1" opacity="0.996078431372549" d="M 156.5 107 L 158 109.5 L 157 109.5 L 156.5 107 Z " /><path fill="rgb(136,0,0)" stroke="rgb(136,0,0)" stroke-width="1" opacity="0.996078431372549" d="M 185.5 117 L 186.5 119 L 185.5 117 Z " /><path fill="rgb(136,0,0)" stroke="rgb(136,0,0)" stroke-width="1" opacity="0.996078431372549" d="M 146.5 118 L 147.5 120 L 146.5 118 Z " /><path fill="rgb(136,0,0)" stroke="rgb(136,0,0)" stroke-width="1" opacity="0.996078431372549" d="M 193.5 122 L 194.5 124 L 193.5 122 Z " /><path fill="rgb(136,0,0)" stroke="rgb(136,0,0)" stroke-width="1" opacity="0.996078431372549" d="M 129.5 123 L 131.5 126 L 129.5 123 Z " /><path fill="rgb(136,0,0)" stroke="rgb(136,0,0)" stroke-width="1" opacity="0.996078431372549" d="M 223.5 123 L 222.5 125 L 223.5 123 Z " /><path fill="rgb(136,0,0)" stroke="rgb(136,0,0)" stroke-width="1" opacity="0.996078431372549" d="M 141.5 124 L 144 125.5 L 142.5 126 L 141.5 124 Z " /><path fill="rgb(136,0,0)" stroke="rgb(136,0,0)" stroke-width="1" opacity="0.996078431372549" d="M 204.5 126 L 207 126.5 L 204.5 127 L 204.5 126 Z " /><path fill="rgb(136,0,0)" stroke="rgb(136,0,0)" stroke-width="1" opacity="0.996078431372549" d="M 209.5 126 L 213 126.5 L 209.5 127 L 209.5 126 Z " /><path fill="rgb(136,0,0)" stroke="rgb(136,0,0)" stroke-width="1" opacity="0.996078431372549" d="M 132.5 127 L 133.5 129 L 132.5 127 Z " /><path fill="rgb(136,0,0)" stroke="rgb(136,0,0)" stroke-width="1" opacity="0.996078431372549" d="M 31.5 133 L 30.5 135 L 31.5 133 Z " /><path fill="rgb(136,0,0)" stroke="rgb(136,0,0)" stroke-width="1" opacity="0.996078431372549" d="M 130.5 134 L 133.5 138 L 130.5 134 Z " /><path fill="rgb(136,0,0)" stroke="rgb(136,0,0)" stroke-width="1" opacity="0.996078431372549" d="M 266.5 134 L 265.5 136 L 266.5 134 Z " /><path fill="rgb(136,0,0)" stroke="rgb(136,0,0)" stroke-width="1" opacity="0.996078431372549" d="M 24.5 138 L 23.5 140 L 24.5 138 Z " /><path fill="rgb(136,0,0)" stroke="rgb(136,0,0)" stroke-width="1" opacity="0.996078431372549" d="M 146.5 138 L 147.5 140 L 146.5 138 Z " /><path fill="rgb(136,0,0)" stroke="rgb(136,0,0)" stroke-width="1" opacity="0.996078431372549" d="M 137.5 140 L 138.5 142 L 137.5 140 Z " /><path fill="rgb(136,0,0)" stroke="rgb(136,0,0)" stroke-width="1" opacity="0.996078431372549" d="M 15.5 145 L 14.5 147 L 15.5 145 Z " /><path fill="rgb(136,0,0)" stroke="rgb(136,0,0)" stroke-width="1" opacity="0.996078431372549" d="M 222 146 L 224 146.5 L 222 147.5 L 222 146 Z " /><path fill="rgb(136,0,0)" stroke="rgb(136,0,0)" stroke-width="1" opacity="0.996078431372549" d="M 9.5 150 L 8.5 152 L 9.5 150 Z " /><path fill="rgb(136,0,0)" stroke="rgb(136,0,0)" stroke-width="1" opacity="0.996078431372549" d="M 111.5 155 L 112.5 157 L 111.5 155 Z " /><path fill="rgb(136,0,0)" stroke="rgb(136,0,0)" stroke-width="1" opacity="0.996078431372549" d="M 75.5 158 L 76.5 160 L 75.5 158 Z " /><path fill="rgb(136,0,0)" stroke="rgb(136,0,0)" stroke-width="1" opacity="0.996078431372549" d="M 201.5 162 L 200.5 164 L 201.5 162 Z " /><path fill="rgb(136,0,0)" stroke="rgb(136,0,0)" stroke-width="1" opacity="0.996078431372549" d="M 81.5 164 L 83.5 167 L 81.5 164 Z " /><path fill="rgb(136,0,0)" stroke="rgb(136,0,0)" stroke-width="1" opacity="0.996078431372549" d="M 190.5 172 L 194 172.5 L 190.5 173 L 190.5 172 Z " /><path fill="rgb(136,0,0)" stroke="rgb(136,0,0)" stroke-width="1" opacity="0.996078431372549" d="M 128.5 179 L 127.5 181 L 128.5 179 Z " /><path fill="rgb(136,0,0)" stroke="rgb(136,0,0)" stroke-width="1" opacity="0.996078431372549" d="M 156.5 185 L 155.5 187 L 156.5 185 Z " /><path fill="rgb(136,0,0)" stroke="rgb(136,0,0)" stroke-width="1" opacity="0.996078431372549" d="M 122.5 188 L 121.5 190 L 122.5 188 Z " /><path fill="rgb(136,0,0)" stroke="rgb(136,0,0)" stroke-width="1" opacity="1" d="M 157.5 100 L 159.5 101 L 175.5 101 L 194.5 105 L 201.5 105 L 217.5 110 L 222.5 110 L 235.5 115 L 239.5 115 L 267 125 L 265 135.5 L 267 134.5 L 269 127 L 275 129.5 Q 273.4 139.9 267.5 146 L 254.5 151 L 248.5 151 Q 235.8 155.8 219.5 157 L 211.5 160 L 206.5 160 L 200 163.5 Q 199.4 169.7 202 172 L 170.5 174 L 159 181.5 L 153.5 188 L 153 151 L 129.5 151 L 128 152.5 L 119.5 169 L 110 151 L 86 151 L 86 168.5 L 84 167.5 L 75.5 158 L 65.5 152 L 55.5 149 L 44.5 148 L 43.5 147 L 32.5 147 L 9.5 152 L 13.5 147 L 35.5 131 L 57.5 119 L 83.5 110 L 110.5 107 L 114 108 L 118 123.5 L 128 138 L 142.5 147 L 153.5 150 L 152.5 148 Q 136.2 142.8 127 130.5 L 119 115.5 L 118 107.5 L 120.5 102 L 130.5 101 L 146.5 105 L 157.5 110 L 158 108.5 L 145 101.5 L 156.5 101 L 157.5 100 Z M 125 109 L 125 116 L 132 128 L 148 140 L 150 140 L 144 133 L 146 133 L 148 133 L 147 131 L 144 126 L 148 128 L 149 128 L 147 124 L 149 124 L 152 124 L 141 114 L 125 109 Z M 186 117 L 187 119 L 192 120 Q 194 119 193 123 L 205 127 L 221 126 L 224 124 L 203 118 L 186 117 Z M 223 146 L 200 152 L 190 159 Q 190 166 194 169 L 194 160 L 205 153 L 223 148 L 224 147 L 223 146 Z " /><path fill="rgb(136,0,0)" stroke="rgb(136,0,0)" stroke-width="1" opacity="1" d="M 109.5 177 L 119.5 192 L 129.5 177 L 130 203.5 L 128.5 205 L 109 205 L 109.5 177 Z " /></svg>