<svg width="820" height="820" version="1.1" xmlns="http://www.w3.org/2000/svg" desc="Created with imagetracer.js version 1.2.6" ><path fill="rgb(0,0,0)" stroke="rgb(0,0,0)" stroke-width="1" opacity="0" d="M 0 0 L 820 0 L 820 820 L 0 820 L 0 0 Z M 110 187 L 110 448 L 185 491 L 186 318 L 334 404 L 337 404 L 485 318 L 485 403 L 337 489 L 335 490 L 335 578 L 484 664 L 487 664 L 494 660 L 709 535 L 710 535 L 710 360 L 637 402 L 635 404 L 635 490 L 486 576 L 412 534 L 559 449 L 560 448 L 560 187 L 548 193 L 336 316 L 123 193 L 110 187 Z M 709 187 L 637 229 L 635 230 L 635 317 L 710 275 L 710 188 L 709 187 Z " /><path fill="rgb(0,177,254)" stroke="rgb(0,177,254)" stroke-width="1" opacity="0.4666666666666667" d="M 111.5 187 L 129 197.5 L 127.5 197 L 112.5 189 L 111.5 187 Z " /><path fill="rgb(0,177,254)" stroke="rgb(0,177,254)" stroke-width="1" opacity="0.4666666666666667" d="M 130.5 198 L 136 201.5 L 134.5 201 Q 130.5 200.5 130.5 198 Z " /><path fill="rgb(0,177,254)" stroke="rgb(0,177,254)" stroke-width="1" opacity="0.4666666666666667" d="M 137.5 202 L 155 212.5 L 153.5 212 L 138.5 204 L 137.5 202 Z " /><path fill="rgb(0,177,254)" stroke="rgb(0,177,254)" stroke-width="1" opacity="0.4666666666666667" d="M 156.5 213 L 174 223.5 L 172.5 223 L 157.5 215 L 156.5 213 Z " /><path fill="rgb(0,177,254)" stroke="rgb(0,177,254)" stroke-width="1" opacity="0.4666666666666667" d="M 175.5 224 L 200 238.5 L 198.5 238 L 176.5 226 L 175.5 224 Z " /><path fill="rgb(0,177,254)" stroke="rgb(0,177,254)" stroke-width="1" opacity="0.4666666666666667" d="M 201.5 239 L 219 249.5 L 217.5 249 L 202.5 241 L 201.5 239 Z " /><path fill="rgb(0,177,254)" stroke="rgb(0,177,254)" stroke-width="1" opacity="0.4666666666666667" d="M 220.5 250 L 245 264.5 L 243.5 264 L 221.5 252 L 220.5 250 Z " /><path fill="rgb(0,177,254)" stroke="rgb(0,177,254)" stroke-width="1" opacity="0.4666666666666667" d="M 246.5 265 L 264 275.5 L 262.5 275 L 247.5 267 L 246.5 265 Z " /><path fill="rgb(0,177,254)" stroke="rgb(0,177,254)" stroke-width="1" opacity="0.4666666666666667" d="M 265.5 276 L 290 290.5 L 288.5 290 L 266.5 278 L 265.5 276 Z " /><path fill="rgb(0,177,254)" stroke="rgb(0,177,254)" stroke-width="1" opacity="0.4666666666666667" d="M 291.5 291 L 309 301.5 L 307.5 301 L 292.5 293 L 291.5 291 Z " /><path fill="rgb(0,177,254)" stroke="rgb(0,177,254)" stroke-width="1" opacity="0.4666666666666667" d="M 310.5 302 L 335 316.5 L 333.5 316 L 311.5 304 L 310.5 302 Z " /><path fill="rgb(0,177,254)" stroke="rgb(0,177,254)" stroke-width="1" opacity="0.4666666666666667" d="M 185.5 317 L 191 320.5 L 189.5 320 Q 185.5 319.5 185.5 317 Z " /><path fill="rgb(0,177,254)" stroke="rgb(0,177,254)" stroke-width="1" opacity="0.4666666666666667" d="M 192.5 321 L 236 346.5 L 234.5 346 L 193.5 323 L 192.5 321 Z " /><path fill="rgb(0,177,254)" stroke="rgb(0,177,254)" stroke-width="1" opacity="0.4666666666666667" d="M 237.5 347 L 281 372.5 L 279.5 372 L 238.5 349 L 237.5 347 Z " /><path fill="rgb(0,177,254)" stroke="rgb(0,177,254)" stroke-width="1" opacity="0.4666666666666667" d="M 282.5 373 L 326 398.5 L 324.5 398 L 283.5 375 L 282.5 373 Z " /><path fill="rgb(0,177,254)" stroke="rgb(0,177,254)" stroke-width="1" opacity="0.4666666666666667" d="M 327.5 399 L 335 403.5 L 333.5 404 L 328.5 401 L 327.5 399 Z " /><path fill="rgb(0,177,254)" stroke="rgb(0,177,254)" stroke-width="1" opacity="0.4666666666666667" d="M 110.5 447 L 116 450.5 L 114.5 450 Q 110.5 449.5 110.5 447 Z " /><path fill="rgb(0,177,254)" stroke="rgb(0,177,254)" stroke-width="1" opacity="0.4666666666666667" d="M 117.5 451 L 161 476.5 L 159.5 476 L 118.5 453 L 117.5 451 Z " /><path fill="rgb(0,177,254)" stroke="rgb(0,177,254)" stroke-width="1" opacity="0.4666666666666667" d="M 162.5 477 L 185 490.5 L 183.5 490 L 163.5 479 L 162.5 477 Z " /><path fill="rgb(0,177,254)" stroke="rgb(0,177,254)" stroke-width="1" opacity="0.4666666666666667" d="M 411.5 534 L 414 535.5 L 412.5 535 L 411.5 534 Z " /><path fill="rgb(0,177,254)" stroke="rgb(0,177,254)" stroke-width="1" opacity="0.4666666666666667" d="M 415.5 536 L 433 546.5 L 431.5 546 L 416.5 538 L 415.5 536 Z " /><path fill="rgb(0,177,254)" stroke="rgb(0,177,254)" stroke-width="1" opacity="0.4666666666666667" d="M 434.5 547 L 459 561.5 L 457.5 561 L 435.5 549 L 434.5 547 Z " /><path fill="rgb(0,177,254)" stroke="rgb(0,177,254)" stroke-width="1" opacity="0.4666666666666667" d="M 460.5 562 L 478 572.5 L 476.5 572 L 461.5 564 L 460.5 562 Z " /><path fill="rgb(0,177,254)" stroke="rgb(0,177,254)" stroke-width="1" opacity="0.4666666666666667" d="M 479.5 573 L 485 576.5 L 483.5 576 Q 479.5 575.5 479.5 573 Z " /><path fill="rgb(0,177,254)" stroke="rgb(0,177,254)" stroke-width="1" opacity="0.4666666666666667" d="M 335.5 577 L 360 591.5 L 358.5 591 L 336.5 579 L 335.5 577 Z " /><path fill="rgb(0,177,254)" stroke="rgb(0,177,254)" stroke-width="1" opacity="0.4666666666666667" d="M 361.5 592 L 405 617.5 L 403.5 617 L 362.5 594 L 361.5 592 Z " /><path fill="rgb(0,177,254)" stroke="rgb(0,177,254)" stroke-width="1" opacity="0.4666666666666667" d="M 406.5 618 L 450 643.5 L 448.5 643 L 407.5 620 L 406.5 618 Z " /><path fill="rgb(0,177,254)" stroke="rgb(0,177,254)" stroke-width="1" opacity="0.4666666666666667" d="M 451.5 644 L 485 663.5 L 483.5 664 L 452.5 646 L 451.5 644 Z " /><path fill="rgb(0,176,255)" stroke="rgb(0,176,255)" stroke-width="1" opacity="0.996078431372549" d="M 110.5 187 L 335 317.5 L 335 402.5 L 333.5 403 L 185.5 317 L 184.5 490 L 110 446.5 L 110.5 187 Z " /><path fill="rgb(0,176,255)" stroke="rgb(0,176,255)" stroke-width="1" opacity="0.996078431372549" d="M 335 491 L 354.5 501 L 485 577.5 L 485 662.5 L 483.5 663 L 335 576.5 L 335 491 Z " /><path fill="rgb(0,130,202)" stroke="rgb(0,130,202)" stroke-width="1" opacity="0.5176470588235295" d="M 558.5 187 L 560 187.5 L 555.5 190 L 556.5 188 L 558.5 187 Z " /><path fill="rgb(0,130,202)" stroke="rgb(0,130,202)" stroke-width="1" opacity="0.5176470588235295" d="M 708.5 187 L 710 187.5 L 705.5 190 L 706.5 188 L 708.5 187 Z " /><path fill="rgb(0,130,202)" stroke="rgb(0,130,202)" stroke-width="1" opacity="0.5176470588235295" d="M 553.5 190 L 552.5 192 L 548.5 194 L 549.5 192 L 553.5 190 Z " /><path fill="rgb(0,130,202)" stroke="rgb(0,130,202)" stroke-width="1" opacity="0.5176470588235295" d="M 703.5 190 L 702.5 192 L 698.5 194 L 699.5 192 L 703.5 190 Z " /><path fill="rgb(0,130,202)" stroke="rgb(0,130,202)" stroke-width="1" opacity="0.5176470588235295" d="M 546.5 194 L 545.5 196 L 529.5 205 L 530.5 203 L 546.5 194 Z " /><path fill="rgb(0,130,202)" stroke="rgb(0,130,202)" stroke-width="1" opacity="0.5176470588235295" d="M 696.5 194 L 695.5 196 L 679.5 205 L 680.5 203 L 696.5 194 Z " /><path fill="rgb(0,130,202)" stroke="rgb(0,130,202)" stroke-width="1" opacity="0.5176470588235295" d="M 527.5 205 L 526.5 207 L 510.5 216 L 511.5 214 L 527.5 205 Z " /><path fill="rgb(0,130,202)" stroke="rgb(0,130,202)" stroke-width="1" opacity="0.5176470588235295" d="M 677.5 205 L 676.5 207 L 660.5 216 L 661.5 214 L 677.5 205 Z " /><path fill="rgb(0,130,202)" stroke="rgb(0,130,202)" stroke-width="1" opacity="0.5176470588235295" d="M 508.5 216 L 507.5 218 L 503.5 220 L 504.5 218 L 508.5 216 Z " /><path fill="rgb(0,130,202)" stroke="rgb(0,130,202)" stroke-width="1" opacity="0.5176470588235295" d="M 658.5 216 L 657.5 218 L 653.5 220 L 654.5 218 L 658.5 216 Z " /><path fill="rgb(0,130,202)" stroke="rgb(0,130,202)" stroke-width="1" opacity="0.5176470588235295" d="M 501.5 220 L 500.5 222 L 491.5 227 L 492.5 225 L 501.5 220 Z " /><path fill="rgb(0,130,202)" stroke="rgb(0,130,202)" stroke-width="1" opacity="0.5176470588235295" d="M 651.5 220 L 650.5 222 L 641.5 227 L 642.5 225 L 651.5 220 Z " /><path fill="rgb(0,130,202)" stroke="rgb(0,130,202)" stroke-width="1" opacity="0.5176470588235295" d="M 489.5 227 L 488.5 229 L 484.5 231 L 485.5 229 L 489.5 227 Z " /><path fill="rgb(0,130,202)" stroke="rgb(0,130,202)" stroke-width="1" opacity="0.5176470588235295" d="M 639.5 227 L 638.5 229 L 635.5 230 L 635.5 229 L 639.5 227 Z " /><path fill="rgb(0,130,202)" stroke="rgb(0,130,202)" stroke-width="1" opacity="0.5176470588235295" d="M 482.5 231 L 481.5 233 L 465.5 242 L 466.5 240 L 482.5 231 Z " /><path fill="rgb(0,130,202)" stroke="rgb(0,130,202)" stroke-width="1" opacity="0.5176470588235295" d="M 463.5 242 L 462.5 244 L 458.5 246 L 459.5 244 L 463.5 242 Z " /><path fill="rgb(0,130,202)" stroke="rgb(0,130,202)" stroke-width="1" opacity="0.5176470588235295" d="M 456.5 246 L 455.5 248 L 446.5 253 L 447.5 251 L 456.5 246 Z " /><path fill="rgb(0,130,202)" stroke="rgb(0,130,202)" stroke-width="1" opacity="0.5176470588235295" d="M 444.5 253 L 443.5 255 L 439.5 257 L 440.5 255 L 444.5 253 Z " /><path fill="rgb(0,130,202)" stroke="rgb(0,130,202)" stroke-width="1" opacity="0.5176470588235295" d="M 437.5 257 L 436.5 259 L 420.5 268 L 421.5 266 L 437.5 257 Z " /><path fill="rgb(0,130,202)" stroke="rgb(0,130,202)" stroke-width="1" opacity="0.5176470588235295" d="M 418.5 268 L 417.5 270 L 413.5 272 L 414.5 270 L 418.5 268 Z " /><path fill="rgb(0,130,202)" stroke="rgb(0,130,202)" stroke-width="1" opacity="0.5176470588235295" d="M 411.5 272 L 410.5 274 L 401.5 279 L 402.5 277 L 411.5 272 Z " /><path fill="rgb(0,130,202)" stroke="rgb(0,130,202)" stroke-width="1" opacity="0.5176470588235295" d="M 708.5 274 L 710 274.5 L 693.5 284 L 694.5 282 L 708.5 274 Z " /><path fill="rgb(0,130,202)" stroke="rgb(0,130,202)" stroke-width="1" opacity="0.5176470588235295" d="M 399.5 279 L 398.5 281 L 394.5 283 L 395.5 281 L 399.5 279 Z " /><path fill="rgb(0,130,202)" stroke="rgb(0,130,202)" stroke-width="1" opacity="0.5176470588235295" d="M 392.5 283 L 391.5 285 L 375.5 294 L 376.5 292 L 392.5 283 Z " /><path fill="rgb(0,130,202)" stroke="rgb(0,130,202)" stroke-width="1" opacity="0.5176470588235295" d="M 691.5 284 L 690.5 286 L 674.5 295 L 675.5 293 L 691.5 284 Z " /><path fill="rgb(0,130,202)" stroke="rgb(0,130,202)" stroke-width="1" opacity="0.5176470588235295" d="M 373.5 294 L 372.5 296 L 368.5 298 L 369.5 296 L 373.5 294 Z " /><path fill="rgb(0,130,202)" stroke="rgb(0,130,202)" stroke-width="1" opacity="0.5176470588235295" d="M 672.5 295 L 671.5 297 L 648.5 310 L 649.5 308 L 672.5 295 Z " /><path fill="rgb(0,130,202)" stroke="rgb(0,130,202)" stroke-width="1" opacity="0.5176470588235295" d="M 366.5 298 L 365.5 300 L 356.5 305 L 357.5 303 L 366.5 298 Z " /><path fill="rgb(0,130,202)" stroke="rgb(0,130,202)" stroke-width="1" opacity="0.5176470588235295" d="M 354.5 305 L 353.5 307 L 349.5 309 L 350.5 307 L 354.5 305 Z " /><path fill="rgb(0,130,202)" stroke="rgb(0,130,202)" stroke-width="1" opacity="0.5176470588235295" d="M 347.5 309 L 346.5 311 L 335.5 317 L 336.5 315 L 347.5 309 Z " /><path fill="rgb(0,130,202)" stroke="rgb(0,130,202)" stroke-width="1" opacity="0.5176470588235295" d="M 646.5 310 L 645.5 312 L 635.5 317 L 635.5 316 L 646.5 310 Z " /><path fill="rgb(0,130,202)" stroke="rgb(0,130,202)" stroke-width="1" opacity="0.5176470588235295" d="M 484.5 317 L 483.5 319 L 479.5 321 L 480.5 319 L 484.5 317 Z " /><path fill="rgb(0,130,202)" stroke="rgb(0,130,202)" stroke-width="1" opacity="0.5176470588235295" d="M 477.5 321 L 476.5 323 L 453.5 336 L 454.5 334 L 477.5 321 Z " /><path fill="rgb(0,130,202)" stroke="rgb(0,130,202)" stroke-width="1" opacity="0.5176470588235295" d="M 451.5 336 L 450.5 338 L 434.5 347 L 435.5 345 L 451.5 336 Z " /><path fill="rgb(0,130,202)" stroke="rgb(0,130,202)" stroke-width="1" opacity="0.5176470588235295" d="M 432.5 347 L 431.5 349 L 408.5 362 L 409.5 360 L 432.5 347 Z " /><path fill="rgb(0,130,202)" stroke="rgb(0,130,202)" stroke-width="1" opacity="0.5176470588235295" d="M 707.5 361 L 706.5 363 L 690.5 372 L 691.5 370 L 707.5 361 Z " /><path fill="rgb(0,130,202)" stroke="rgb(0,130,202)" stroke-width="1" opacity="0.5176470588235295" d="M 406.5 362 L 405.5 364 L 389.5 373 L 390.5 371 L 406.5 362 Z " /><path fill="rgb(0,130,202)" stroke="rgb(0,130,202)" stroke-width="1" opacity="0.5176470588235295" d="M 688.5 372 L 687.5 374 L 683.5 376 L 684.5 374 L 688.5 372 Z " /><path fill="rgb(0,130,202)" stroke="rgb(0,130,202)" stroke-width="1" opacity="0.5176470588235295" d="M 387.5 373 L 386.5 375 L 363.5 388 L 364.5 386 L 387.5 373 Z " /><path fill="rgb(0,130,202)" stroke="rgb(0,130,202)" stroke-width="1" opacity="0.5176470588235295" d="M 681.5 376 L 680.5 378 L 671.5 383 L 672.5 381 L 681.5 376 Z " /><path fill="rgb(0,130,202)" stroke="rgb(0,130,202)" stroke-width="1" opacity="0.5176470588235295" d="M 669.5 383 L 668.5 385 L 664.5 387 L 665.5 385 L 669.5 383 Z " /><path fill="rgb(0,130,202)" stroke="rgb(0,130,202)" stroke-width="1" opacity="0.5176470588235295" d="M 662.5 387 L 661.5 389 L 645.5 398 L 646.5 396 L 662.5 387 Z " /><path fill="rgb(0,130,202)" stroke="rgb(0,130,202)" stroke-width="1" opacity="0.5176470588235295" d="M 361.5 388 L 360.5 390 L 344.5 399 L 345.5 397 L 361.5 388 Z " /><path fill="rgb(0,130,202)" stroke="rgb(0,130,202)" stroke-width="1" opacity="0.5176470588235295" d="M 643.5 398 L 642.5 400 L 638.5 402 L 639.5 400 L 643.5 398 Z " /><path fill="rgb(0,130,202)" stroke="rgb(0,130,202)" stroke-width="1" opacity="0.5176470588235295" d="M 342.5 399 L 341.5 401 L 337.5 403 L 338.5 401 L 342.5 399 Z " /><path fill="rgb(0,130,202)" stroke="rgb(0,130,202)" stroke-width="1" opacity="0.5176470588235295" d="M 636.5 402 L 635.5 404 L 636.5 402 Z " /><path fill="rgb(0,130,202)" stroke="rgb(0,130,202)" stroke-width="1" opacity="0.5176470588235295" d="M 484.5 403 L 483.5 405 L 476.5 409 L 477.5 407 L 484.5 403 Z " /><path fill="rgb(0,130,202)" stroke="rgb(0,130,202)" stroke-width="1" opacity="0.5176470588235295" d="M 474.5 409 L 473.5 411 L 469.5 413 L 470.5 411 L 474.5 409 Z " /><path fill="rgb(0,130,202)" stroke="rgb(0,130,202)" stroke-width="1" opacity="0.5176470588235295" d="M 467.5 413 L 466.5 415 L 450.5 424 L 451.5 422 L 467.5 413 Z " /><path fill="rgb(0,130,202)" stroke="rgb(0,130,202)" stroke-width="1" opacity="0.5176470588235295" d="M 448.5 424 L 447.5 426 L 443.5 428 L 444.5 426 L 448.5 424 Z " /><path fill="rgb(0,130,202)" stroke="rgb(0,130,202)" stroke-width="1" opacity="0.5176470588235295" d="M 441.5 428 L 440.5 430 L 431.5 435 L 432.5 433 L 441.5 428 Z " /><path fill="rgb(0,130,202)" stroke="rgb(0,130,202)" stroke-width="1" opacity="0.5176470588235295" d="M 429.5 435 L 428.5 437 L 424.5 439 L 425.5 437 L 429.5 435 Z " /><path fill="rgb(0,130,202)" stroke="rgb(0,130,202)" stroke-width="1" opacity="0.5176470588235295" d="M 422.5 439 L 421.5 441 L 405.5 450 L 406.5 448 L 422.5 439 Z " /><path fill="rgb(0,130,202)" stroke="rgb(0,130,202)" stroke-width="1" opacity="0.5176470588235295" d="M 559.5 447 L 558.5 449 L 554.5 451 L 555.5 449 L 559.5 447 Z " /><path fill="rgb(0,130,202)" stroke="rgb(0,130,202)" stroke-width="1" opacity="0.5176470588235295" d="M 403.5 450 L 402.5 452 L 398.5 454 L 399.5 452 L 403.5 450 Z " /><path fill="rgb(0,130,202)" stroke="rgb(0,130,202)" stroke-width="1" opacity="0.5176470588235295" d="M 552.5 451 L 551.5 453 L 509.5 477 L 510.5 475 L 552.5 451 Z " /><path fill="rgb(0,130,202)" stroke="rgb(0,130,202)" stroke-width="1" opacity="0.5176470588235295" d="M 396.5 454 L 395.5 456 L 386.5 461 L 387.5 459 L 396.5 454 Z " /><path fill="rgb(0,130,202)" stroke="rgb(0,130,202)" stroke-width="1" opacity="0.5176470588235295" d="M 384.5 461 L 383.5 463 L 379.5 465 L 380.5 463 L 384.5 461 Z " /><path fill="rgb(0,130,202)" stroke="rgb(0,130,202)" stroke-width="1" opacity="0.5176470588235295" d="M 377.5 465 L 376.5 467 L 360.5 476 L 361.5 474 L 377.5 465 Z " /><path fill="rgb(0,130,202)" stroke="rgb(0,130,202)" stroke-width="1" opacity="0.5176470588235295" d="M 358.5 476 L 357.5 478 L 353.5 480 L 354.5 478 L 358.5 476 Z " /><path fill="rgb(0,130,202)" stroke="rgb(0,130,202)" stroke-width="1" opacity="0.5176470588235295" d="M 507.5 477 L 506.5 479 L 464.5 503 L 465.5 501 L 507.5 477 Z " /><path fill="rgb(0,130,202)" stroke="rgb(0,130,202)" stroke-width="1" opacity="0.5176470588235295" d="M 351.5 480 L 350.5 482 L 341.5 487 L 342.5 485 L 351.5 480 Z " /><path fill="rgb(0,130,202)" stroke="rgb(0,130,202)" stroke-width="1" opacity="0.5176470588235295" d="M 339.5 487 L 338.5 489 L 335.5 491 L 335 489 L 339.5 487 Z " /><path fill="rgb(0,130,202)" stroke="rgb(0,130,202)" stroke-width="1" opacity="0.5176470588235295" d="M 632.5 491 L 631.5 493 L 615.5 502 L 616.5 500 L 632.5 491 Z " /><path fill="rgb(0,130,202)" stroke="rgb(0,130,202)" stroke-width="1" opacity="0.5176470588235295" d="M 613.5 502 L 612.5 504 L 596.5 513 L 597.5 511 L 613.5 502 Z " /><path fill="rgb(0,130,202)" stroke="rgb(0,130,202)" stroke-width="1" opacity="0.5176470588235295" d="M 462.5 503 L 461.5 505 L 445.5 514 L 446.5 512 L 462.5 503 Z " /><path fill="rgb(0,130,202)" stroke="rgb(0,130,202)" stroke-width="1" opacity="0.5176470588235295" d="M 594.5 513 L 593.5 515 L 589.5 517 L 590.5 515 L 594.5 513 Z " /><path fill="rgb(0,130,202)" stroke="rgb(0,130,202)" stroke-width="1" opacity="0.5176470588235295" d="M 443.5 514 L 442.5 516 L 419.5 529 L 420.5 527 L 443.5 514 Z " /><path fill="rgb(0,130,202)" stroke="rgb(0,130,202)" stroke-width="1" opacity="0.5176470588235295" d="M 587.5 517 L 586.5 519 L 577.5 524 L 578.5 522 L 587.5 517 Z " /><path fill="rgb(0,130,202)" stroke="rgb(0,130,202)" stroke-width="1" opacity="0.5176470588235295" d="M 575.5 524 L 574.5 526 L 570.5 528 L 571.5 526 L 575.5 524 Z " /><path fill="rgb(0,130,202)" stroke="rgb(0,130,202)" stroke-width="1" opacity="0.5176470588235295" d="M 568.5 528 L 567.5 530 L 551.5 539 L 552.5 537 L 568.5 528 Z " /><path fill="rgb(0,130,202)" stroke="rgb(0,130,202)" stroke-width="1" opacity="0.5176470588235295" d="M 417.5 529 L 416.5 531 L 410.5 534 L 410.5 533 L 417.5 529 Z " /><path fill="rgb(0,130,202)" stroke="rgb(0,130,202)" stroke-width="1" opacity="0.5176470588235295" d="M 708.5 534 L 710 534.5 L 700.5 540 L 701.5 538 L 708.5 534 Z " /><path fill="rgb(0,130,202)" stroke="rgb(0,130,202)" stroke-width="1" opacity="0.5176470588235295" d="M 549.5 539 L 548.5 541 L 544.5 543 L 545.5 541 L 549.5 539 Z " /><path fill="rgb(0,130,202)" stroke="rgb(0,130,202)" stroke-width="1" opacity="0.5176470588235295" d="M 698.5 540 L 697.5 542 L 674.5 555 L 675.5 553 L 698.5 540 Z " /><path fill="rgb(0,130,202)" stroke="rgb(0,130,202)" stroke-width="1" opacity="0.5176470588235295" d="M 542.5 543 L 541.5 545 L 532.5 550 L 533.5 548 L 542.5 543 Z " /><path fill="rgb(0,130,202)" stroke="rgb(0,130,202)" stroke-width="1" opacity="0.5176470588235295" d="M 530.5 550 L 529.5 552 L 525.5 554 L 526.5 552 L 530.5 550 Z " /><path fill="rgb(0,130,202)" stroke="rgb(0,130,202)" stroke-width="1" opacity="0.5176470588235295" d="M 523.5 554 L 522.5 556 L 506.5 565 L 507.5 563 L 523.5 554 Z " /><path fill="rgb(0,130,202)" stroke="rgb(0,130,202)" stroke-width="1" opacity="0.5176470588235295" d="M 672.5 555 L 671.5 557 L 655.5 566 L 656.5 564 L 672.5 555 Z " /><path fill="rgb(0,130,202)" stroke="rgb(0,130,202)" stroke-width="1" opacity="0.5176470588235295" d="M 504.5 565 L 503.5 567 L 499.5 569 L 500.5 567 L 504.5 565 Z " /><path fill="rgb(0,130,202)" stroke="rgb(0,130,202)" stroke-width="1" opacity="0.5176470588235295" d="M 653.5 566 L 652.5 568 L 629.5 581 L 630.5 579 L 653.5 566 Z " /><path fill="rgb(0,130,202)" stroke="rgb(0,130,202)" stroke-width="1" opacity="0.5176470588235295" d="M 497.5 569 L 496.5 571 L 487.5 576 L 488.5 574 L 497.5 569 Z " /><path fill="rgb(0,130,202)" stroke="rgb(0,130,202)" stroke-width="1" opacity="0.5176470588235295" d="M 627.5 581 L 626.5 583 L 610.5 592 L 611.5 590 L 627.5 581 Z " /><path fill="rgb(0,130,202)" stroke="rgb(0,130,202)" stroke-width="1" opacity="0.5176470588235295" d="M 608.5 592 L 607.5 594 L 584.5 607 L 585.5 605 L 608.5 592 Z " /><path fill="rgb(0,130,202)" stroke="rgb(0,130,202)" stroke-width="1" opacity="0.5176470588235295" d="M 582.5 607 L 581.5 609 L 565.5 618 L 566.5 616 L 582.5 607 Z " /><path fill="rgb(0,130,202)" stroke="rgb(0,130,202)" stroke-width="1" opacity="0.5176470588235295" d="M 563.5 618 L 562.5 620 L 539.5 633 L 540.5 631 L 563.5 618 Z " /><path fill="rgb(0,130,202)" stroke="rgb(0,130,202)" stroke-width="1" opacity="0.5176470588235295" d="M 537.5 633 L 536.5 635 L 520.5 644 L 521.5 642 L 537.5 633 Z " /><path fill="rgb(0,130,202)" stroke="rgb(0,130,202)" stroke-width="1" opacity="0.5176470588235295" d="M 518.5 644 L 517.5 646 L 494.5 659 L 495.5 657 L 518.5 644 Z " /><path fill="rgb(0,130,202)" stroke="rgb(0,130,202)" stroke-width="1" opacity="0.5176470588235295" d="M 492.5 659 L 491.5 661 L 485.5 664 L 485.5 663 L 492.5 659 Z " /><path fill="rgb(0,129,203)" stroke="rgb(0,129,203)" stroke-width="1" opacity="0.996078431372549" d="M 554.5 190 L 553.5 192 L 554.5 190 Z " /><path fill="rgb(0,129,203)" stroke="rgb(0,129,203)" stroke-width="1" opacity="0.996078431372549" d="M 704.5 190 L 703.5 192 L 704.5 190 Z " /><path fill="rgb(0,129,203)" stroke="rgb(0,129,203)" stroke-width="1" opacity="0.996078431372549" d="M 547.5 194 L 546.5 196 L 547.5 194 Z " /><path fill="rgb(0,129,203)" stroke="rgb(0,129,203)" stroke-width="1" opacity="0.996078431372549" d="M 697.5 194 L 696.5 196 L 697.5 194 Z " /><path fill="rgb(0,129,203)" stroke="rgb(0,129,203)" stroke-width="1" opacity="0.996078431372549" d="M 528.5 205 L 527.5 207 L 528.5 205 Z " /><path fill="rgb(0,129,203)" stroke="rgb(0,129,203)" stroke-width="1" opacity="0.996078431372549" d="M 678.5 205 L 677.5 207 L 678.5 205 Z " /><path fill="rgb(0,129,203)" stroke="rgb(0,129,203)" stroke-width="1" opacity="0.996078431372549" d="M 509.5 216 L 508.5 218 L 509.5 216 Z " /><path fill="rgb(0,129,203)" stroke="rgb(0,129,203)" stroke-width="1" opacity="0.996078431372549" d="M 659.5 216 L 658.5 218 L 659.5 216 Z " /><path fill="rgb(0,129,203)" stroke="rgb(0,129,203)" stroke-width="1" opacity="0.996078431372549" d="M 502.5 220 L 501.5 222 L 502.5 220 Z " /><path fill="rgb(0,129,203)" stroke="rgb(0,129,203)" stroke-width="1" opacity="0.996078431372549" d="M 652.5 220 L 651.5 222 L 652.5 220 Z " /><path fill="rgb(0,129,203)" stroke="rgb(0,129,203)" stroke-width="1" opacity="0.996078431372549" d="M 483.5 231 L 482.5 233 L 483.5 231 Z " /><path fill="rgb(0,129,203)" stroke="rgb(0,129,203)" stroke-width="1" opacity="0.996078431372549" d="M 464.5 242 L 463.5 244 L 464.5 242 Z " /><path fill="rgb(0,129,203)" stroke="rgb(0,129,203)" stroke-width="1" opacity="0.996078431372549" d="M 457.5 246 L 456.5 248 L 457.5 246 Z " /><path fill="rgb(0,129,203)" stroke="rgb(0,129,203)" stroke-width="1" opacity="0.996078431372549" d="M 438.5 257 L 437.5 259 L 438.5 257 Z " /><path fill="rgb(0,129,203)" stroke="rgb(0,129,203)" stroke-width="1" opacity="0.996078431372549" d="M 419.5 268 L 418.5 270 L 419.5 268 Z " /><path fill="rgb(0,129,203)" stroke="rgb(0,129,203)" stroke-width="1" opacity="0.996078431372549" d="M 412.5 272 L 411.5 274 L 412.5 272 Z " /><path fill="rgb(0,129,203)" stroke="rgb(0,129,203)" stroke-width="1" opacity="0.996078431372549" d="M 693.5 282 L 692.5 284 L 693.5 282 Z " /><path fill="rgb(0,129,203)" stroke="rgb(0,129,203)" stroke-width="1" opacity="0.996078431372549" d="M 393.5 283 L 392.5 285 L 393.5 283 Z " /><path fill="rgb(0,129,203)" stroke="rgb(0,129,203)" stroke-width="1" opacity="0.996078431372549" d="M 674.5 293 L 673.5 295 L 674.5 293 Z " /><path fill="rgb(0,129,203)" stroke="rgb(0,129,203)" stroke-width="1" opacity="0.996078431372549" d="M 374.5 294 L 373.5 296 L 374.5 294 Z " /><path fill="rgb(0,129,203)" stroke="rgb(0,129,203)" stroke-width="1" opacity="0.996078431372549" d="M 367.5 298 L 366.5 300 L 367.5 298 Z " /><path fill="rgb(0,129,203)" stroke="rgb(0,129,203)" stroke-width="1" opacity="0.996078431372549" d="M 648.5 308 L 647.5 310 L 648.5 308 Z " /><path fill="rgb(0,129,203)" stroke="rgb(0,129,203)" stroke-width="1" opacity="0.996078431372549" d="M 348.5 309 L 347.5 311 L 348.5 309 Z " /><path fill="rgb(0,129,203)" stroke="rgb(0,129,203)" stroke-width="1" opacity="0.996078431372549" d="M 479.5 319 L 478.5 321 L 479.5 319 Z " /><path fill="rgb(0,129,203)" stroke="rgb(0,129,203)" stroke-width="1" opacity="0.996078431372549" d="M 453.5 334 L 452.5 336 L 453.5 334 Z " /><path fill="rgb(0,129,203)" stroke="rgb(0,129,203)" stroke-width="1" opacity="0.996078431372549" d="M 434.5 345 L 433.5 347 L 434.5 345 Z " /><path fill="rgb(0,129,203)" stroke="rgb(0,129,203)" stroke-width="1" opacity="0.996078431372549" d="M 408.5 360 L 407.5 362 L 408.5 360 Z " /><path fill="rgb(0,129,203)" stroke="rgb(0,129,203)" stroke-width="1" opacity="0.996078431372549" d="M 708.5 361 L 707.5 363 L 708.5 361 Z " /><path fill="rgb(0,129,203)" stroke="rgb(0,129,203)" stroke-width="1" opacity="0.996078431372549" d="M 389.5 371 L 388.5 373 L 389.5 371 Z " /><path fill="rgb(0,129,203)" stroke="rgb(0,129,203)" stroke-width="1" opacity="0.996078431372549" d="M 689.5 372 L 688.5 374 L 689.5 372 Z " /><path fill="rgb(0,129,203)" stroke="rgb(0,129,203)" stroke-width="1" opacity="0.996078431372549" d="M 682.5 376 L 681.5 378 L 682.5 376 Z " /><path fill="rgb(0,129,203)" stroke="rgb(0,129,203)" stroke-width="1" opacity="0.996078431372549" d="M 363.5 386 L 362.5 388 L 363.5 386 Z " /><path fill="rgb(0,129,203)" stroke="rgb(0,129,203)" stroke-width="1" opacity="0.996078431372549" d="M 663.5 387 L 662.5 389 L 663.5 387 Z " /><path fill="rgb(0,129,203)" stroke="rgb(0,129,203)" stroke-width="1" opacity="0.996078431372549" d="M 344.5 397 L 343.5 399 L 344.5 397 Z " /><path fill="rgb(0,129,203)" stroke="rgb(0,129,203)" stroke-width="1" opacity="0.996078431372549" d="M 644.5 398 L 643.5 400 L 644.5 398 Z " /><path fill="rgb(0,129,203)" stroke="rgb(0,129,203)" stroke-width="1" opacity="0.996078431372549" d="M 637.5 402 L 636.5 404 L 637.5 402 Z " /><path fill="rgb(0,129,203)" stroke="rgb(0,129,203)" stroke-width="1" opacity="0.996078431372549" d="M 475.5 409 L 474.5 411 L 475.5 409 Z " /><path fill="rgb(0,129,203)" stroke="rgb(0,129,203)" stroke-width="1" opacity="0.996078431372549" d="M 468.5 413 L 467.5 415 L 468.5 413 Z " /><path fill="rgb(0,129,203)" stroke="rgb(0,129,203)" stroke-width="1" opacity="0.996078431372549" d="M 449.5 424 L 448.5 426 L 449.5 424 Z " /><path fill="rgb(0,129,203)" stroke="rgb(0,129,203)" stroke-width="1" opacity="0.996078431372549" d="M 442.5 428 L 441.5 430 L 442.5 428 Z " /><path fill="rgb(0,129,203)" stroke="rgb(0,129,203)" stroke-width="1" opacity="0.996078431372549" d="M 430.5 435 L 429.5 437 L 430.5 435 Z " /><path fill="rgb(0,129,203)" stroke="rgb(0,129,203)" stroke-width="1" opacity="0.996078431372549" d="M 423.5 439 L 422.5 441 L 423.5 439 Z " /><path fill="rgb(0,129,203)" stroke="rgb(0,129,203)" stroke-width="1" opacity="0.996078431372549" d="M 554.5 449 L 553.5 451 L 554.5 449 Z " /><path fill="rgb(0,129,203)" stroke="rgb(0,129,203)" stroke-width="1" opacity="0.996078431372549" d="M 404.5 450 L 403.5 452 L 404.5 450 Z " /><path fill="rgb(0,129,203)" stroke="rgb(0,129,203)" stroke-width="1" opacity="0.996078431372549" d="M 397.5 454 L 396.5 456 L 397.5 454 Z " /><path fill="rgb(0,129,203)" stroke="rgb(0,129,203)" stroke-width="1" opacity="0.996078431372549" d="M 385.5 461 L 384.5 463 L 385.5 461 Z " /><path fill="rgb(0,129,203)" stroke="rgb(0,129,203)" stroke-width="1" opacity="0.996078431372549" d="M 528.5 464 L 527.5 466 L 528.5 464 Z " /><path fill="rgb(0,129,203)" stroke="rgb(0,129,203)" stroke-width="1" opacity="0.996078431372549" d="M 378.5 465 L 377.5 467 L 378.5 465 Z " /><path fill="rgb(0,129,203)" stroke="rgb(0,129,203)" stroke-width="1" opacity="0.996078431372549" d="M 509.5 475 L 508.5 477 L 509.5 475 Z " /><path fill="rgb(0,129,203)" stroke="rgb(0,129,203)" stroke-width="1" opacity="0.996078431372549" d="M 359.5 476 L 358.5 478 L 359.5 476 Z " /><path fill="rgb(0,129,203)" stroke="rgb(0,129,203)" stroke-width="1" opacity="0.996078431372549" d="M 352.5 480 L 351.5 482 L 352.5 480 Z " /><path fill="rgb(0,129,203)" stroke="rgb(0,129,203)" stroke-width="1" opacity="0.996078431372549" d="M 340.5 487 L 339.5 489 L 340.5 487 Z " /><path fill="rgb(0,129,203)" stroke="rgb(0,129,203)" stroke-width="1" opacity="0.996078431372549" d="M 337.5 489 L 337.5 492 Q 334.5 490.5 337.5 489 Z " /><path fill="rgb(0,129,203)" stroke="rgb(0,129,203)" stroke-width="1" opacity="0.996078431372549" d="M 483.5 490 L 482.5 492 L 483.5 490 Z " /><path fill="rgb(0,129,203)" stroke="rgb(0,129,203)" stroke-width="1" opacity="0.996078431372549" d="M 633.5 491 L 632.5 493 L 633.5 491 Z " /><path fill="rgb(0,129,203)" stroke="rgb(0,129,203)" stroke-width="1" opacity="0.996078431372549" d="M 341.5 493 L 342.5 495 L 341.5 493 Z " /><path fill="rgb(0,129,203)" stroke="rgb(0,129,203)" stroke-width="1" opacity="0.996078431372549" d="M 348.5 497 L 349.5 499 L 348.5 497 Z " /><path fill="rgb(0,129,203)" stroke="rgb(0,129,203)" stroke-width="1" opacity="0.996078431372549" d="M 355.5 501 L 356.5 503 L 355.5 501 Z " /><path fill="rgb(0,129,203)" stroke="rgb(0,129,203)" stroke-width="1" opacity="0.996078431372549" d="M 464.5 501 L 463.5 503 L 464.5 501 Z " /><path fill="rgb(0,129,203)" stroke="rgb(0,129,203)" stroke-width="1" opacity="0.996078431372549" d="M 614.5 502 L 613.5 504 L 614.5 502 Z " /><path fill="rgb(0,129,203)" stroke="rgb(0,129,203)" stroke-width="1" opacity="0.996078431372549" d="M 360.5 504 L 364 506.5 L 362.5 506 L 360.5 504 Z " /><path fill="rgb(0,129,203)" stroke="rgb(0,129,203)" stroke-width="1" opacity="0.996078431372549" d="M 367.5 508 L 368.5 510 L 367.5 508 Z " /><path fill="rgb(0,129,203)" stroke="rgb(0,129,203)" stroke-width="1" opacity="0.996078431372549" d="M 374.5 512 L 375.5 514 L 374.5 512 Z " /><path fill="rgb(0,129,203)" stroke="rgb(0,129,203)" stroke-width="1" opacity="0.996078431372549" d="M 445.5 512 L 444.5 514 L 445.5 512 Z " /><path fill="rgb(0,129,203)" stroke="rgb(0,129,203)" stroke-width="1" opacity="0.996078431372549" d="M 595.5 513 L 594.5 515 L 595.5 513 Z " /><path fill="rgb(0,129,203)" stroke="rgb(0,129,203)" stroke-width="1" opacity="0.996078431372549" d="M 379.5 515 L 383 517.5 L 381.5 517 L 379.5 515 Z " /><path fill="rgb(0,129,203)" stroke="rgb(0,129,203)" stroke-width="1" opacity="0.996078431372549" d="M 588.5 517 L 587.5 519 L 588.5 517 Z " /><path fill="rgb(0,129,203)" stroke="rgb(0,129,203)" stroke-width="1" opacity="0.996078431372549" d="M 386.5 519 L 387.5 521 L 386.5 519 Z " /><path fill="rgb(0,129,203)" stroke="rgb(0,129,203)" stroke-width="1" opacity="0.996078431372549" d="M 393.5 523 L 394.5 525 L 393.5 523 Z " /><path fill="rgb(0,129,203)" stroke="rgb(0,129,203)" stroke-width="1" opacity="0.996078431372549" d="M 400.5 527 L 401.5 529 L 400.5 527 Z " /><path fill="rgb(0,129,203)" stroke="rgb(0,129,203)" stroke-width="1" opacity="0.996078431372549" d="M 419.5 527 L 418.5 529 L 419.5 527 Z " /><path fill="rgb(0,129,203)" stroke="rgb(0,129,203)" stroke-width="1" opacity="0.996078431372549" d="M 569.5 528 L 568.5 530 L 569.5 528 Z " /><path fill="rgb(0,129,203)" stroke="rgb(0,129,203)" stroke-width="1" opacity="0.996078431372549" d="M 405.5 530 L 409 532.5 L 407.5 532 L 405.5 530 Z " /><path fill="rgb(0,129,203)" stroke="rgb(0,129,203)" stroke-width="1" opacity="0.996078431372549" d="M 700.5 538 L 699.5 540 L 700.5 538 Z " /><path fill="rgb(0,129,203)" stroke="rgb(0,129,203)" stroke-width="1" opacity="0.996078431372549" d="M 550.5 539 L 549.5 541 L 550.5 539 Z " /><path fill="rgb(0,129,203)" stroke="rgb(0,129,203)" stroke-width="1" opacity="0.996078431372549" d="M 543.5 543 L 542.5 545 L 543.5 543 Z " /><path fill="rgb(0,129,203)" stroke="rgb(0,129,203)" stroke-width="1" opacity="0.996078431372549" d="M 674.5 553 L 673.5 555 L 674.5 553 Z " /><path fill="rgb(0,129,203)" stroke="rgb(0,129,203)" stroke-width="1" opacity="0.996078431372549" d="M 524.5 554 L 523.5 556 L 524.5 554 Z " /><path fill="rgb(0,129,203)" stroke="rgb(0,129,203)" stroke-width="1" opacity="0.996078431372549" d="M 655.5 564 L 654.5 566 L 655.5 564 Z " /><path fill="rgb(0,129,203)" stroke="rgb(0,129,203)" stroke-width="1" opacity="0.996078431372549" d="M 505.5 565 L 504.5 567 L 505.5 565 Z " /><path fill="rgb(0,129,203)" stroke="rgb(0,129,203)" stroke-width="1" opacity="0.996078431372549" d="M 498.5 569 L 497.5 571 L 498.5 569 Z " /><path fill="rgb(0,129,203)" stroke="rgb(0,129,203)" stroke-width="1" opacity="0.996078431372549" d="M 629.5 579 L 628.5 581 L 629.5 579 Z " /><path fill="rgb(0,129,203)" stroke="rgb(0,129,203)" stroke-width="1" opacity="0.996078431372549" d="M 610.5 590 L 609.5 592 L 610.5 590 Z " /><path fill="rgb(0,129,203)" stroke="rgb(0,129,203)" stroke-width="1" opacity="0.996078431372549" d="M 584.5 605 L 583.5 607 L 584.5 605 Z " /><path fill="rgb(0,129,203)" stroke="rgb(0,129,203)" stroke-width="1" opacity="0.996078431372549" d="M 565.5 616 L 564.5 618 L 565.5 616 Z " /><path fill="rgb(0,129,203)" stroke="rgb(0,129,203)" stroke-width="1" opacity="0.996078431372549" d="M 539.5 631 L 538.5 633 L 539.5 631 Z " /><path fill="rgb(0,129,203)" stroke="rgb(0,129,203)" stroke-width="1" opacity="0.996078431372549" d="M 520.5 642 L 519.5 644 L 520.5 642 Z " /><path fill="rgb(0,129,203)" stroke="rgb(0,129,203)" stroke-width="1" opacity="0.996078431372549" d="M 494.5 657 L 493.5 659 L 494.5 657 Z " /><path fill="rgb(0,129,203)" stroke="rgb(0,129,203)" stroke-width="1" opacity="1" d="M 559.5 188 L 560 447 L 409.5 533 L 337 490.5 L 485 405 L 485 317.5 L 483.5 317 L 335.5 403 L 335 317 L 347.5 311 L 559.5 188 Z " /><path fill="rgb(0,129,203)" stroke="rgb(0,129,203)" stroke-width="1" opacity="1" d="M 709.5 188 L 710 272.5 L 635.5 316 L 635 231.5 L 709.5 188 Z " /><path fill="rgb(0,129,203)" stroke="rgb(0,129,203)" stroke-width="1" opacity="1" d="M 709.5 361 L 710 532.5 L 485.5 663 L 485 577 L 504.5 567 L 635 490.5 L 635 404.5 L 636.5 404 L 709.5 361 Z " /></svg>