<svg width="50" height="50" viewBox="0 0 50 50" fill="none" xmlns="http://www.w3.org/2000/svg">
<g clip-path="url(#clip0_73_1655)">
<path d="M45.9718 38.3758C43.248 38.3012 41.1683 38.5559 39.389 39.3051C38.8839 39.5187 38.0785 39.5234 37.9961 40.1566C38.2738 40.448 38.3164 40.8828 38.5379 41.2414C38.9621 41.9266 39.6793 42.848 40.3187 43.332C41.0175 43.8586 41.7379 44.423 42.4871 44.8793C43.8207 45.6926 45.3086 46.1566 46.5902 46.9699C47.3472 47.4504 48.0976 48.0547 48.8363 48.5965C49.2011 48.8637 49.4468 49.2801 49.9195 49.448V49.3719C49.6707 49.0547 49.6066 48.618 49.3777 48.2871L48.3707 47.2801C47.3863 45.9738 46.1367 44.8266 44.8093 43.8742C43.7504 43.1129 41.3793 42.0859 40.9382 40.8547L40.8605 40.777C41.6113 40.6914 42.4902 40.4199 43.1843 40.2336C44.3484 39.9223 45.3894 40.0031 46.5902 39.6918L48.2168 39.2281V38.9184C47.6093 38.2957 47.1761 37.4703 46.514 36.9059C44.7793 35.4289 42.8871 33.9547 40.9386 32.725C39.8582 32.043 38.523 31.5988 37.3773 31.0207C36.9914 30.827 36.3152 30.7246 36.0605 30.4012C35.4593 29.6352 35.1312 28.6633 34.6675 27.7691C33.6957 25.8969 32.7418 23.8539 31.8797 21.884C31.2922 20.5414 30.9093 19.2168 30.1769 18.0129C26.6613 12.2328 22.8773 8.74336 17.0148 5.31445C15.7668 4.58516 14.2652 4.29687 12.6781 3.91992L10.1222 3.76562C9.60192 3.54883 9.06168 2.9125 8.5734 2.60273C6.6316 1.375 1.64957 -1.29375 0.21051 2.21562C-0.697302 4.42969 1.56871 6.59023 2.37887 7.71328C2.94801 8.49922 3.67575 9.38242 4.0816 10.2676C4.35035 10.8504 4.39606 11.4332 4.62496 12.0484C5.18668 13.5652 5.6777 15.216 6.40582 16.6168C6.7734 17.3262 7.17926 18.0727 7.64488 18.7074C7.92887 19.0965 8.41832 19.2691 8.49645 19.8687C8.01715 20.5387 7.98981 21.5777 7.72145 22.4246C6.51129 26.241 6.9691 30.9832 8.72848 33.8062C9.26871 34.6746 10.5414 36.5328 12.2898 35.8203C13.8203 35.1961 13.4785 33.266 13.9164 31.5617C14.0156 31.1758 13.9547 30.8918 14.1484 30.6324V30.7102L15.5429 33.4965C16.5746 35.1582 18.4039 36.8945 19.9558 38.0664C20.7601 38.6738 21.3933 39.7234 22.4339 40.0789V40.0012H22.3562C22.1546 39.6867 21.839 39.557 21.5828 39.3055C20.9769 38.7105 20.3027 37.9719 19.8019 37.2914C18.3906 35.3766 17.1437 33.2797 16.0086 31.098C15.4652 30.0559 14.9937 28.907 14.5359 27.8465C14.3589 27.4375 14.3621 26.818 13.9941 26.6074C13.4937 27.384 12.755 28.0129 12.3675 28.9297C11.7496 30.3961 11.6687 32.1859 11.4398 34.0398C11.3039 34.0887 11.3636 34.0551 11.2843 34.1176C10.2054 33.8566 9.82731 32.7473 9.42574 31.7937C8.41246 29.3859 8.2234 25.5086 9.11598 22.7348C9.34645 22.0176 10.3902 19.7594 9.96754 19.0957C9.76598 18.4352 9.10074 18.052 8.72848 17.5469C8.26754 16.9227 7.80856 16.1004 7.48942 15.3785C6.65934 13.5016 6.2734 11.393 5.39879 9.49492C4.98082 8.58711 4.27574 7.66836 3.69606 6.86289C3.05348 5.96875 2.33512 5.30937 1.83746 4.2293C1.66051 3.84492 1.42106 3.22969 1.68199 2.83633C1.76598 2.56914 1.88356 2.45781 2.14723 2.37109C2.59567 2.02461 3.84723 2.48711 4.31403 2.68086C5.55621 3.19648 6.59215 3.68789 7.64488 4.38515C8.1484 4.71914 8.65973 5.36641 9.26989 5.54648H9.96715C11.0566 5.79687 12.2773 5.62266 13.2964 5.93242C15.0968 6.48008 16.7097 7.33164 18.1746 8.25625C22.6363 11.0746 26.2863 15.0844 28.7824 19.8711C29.1836 20.6418 29.3578 21.3758 29.7117 22.1934C30.4242 23.8414 31.323 25.5367 32.0324 27.1496C32.7418 28.7562 33.4316 30.3801 34.4339 31.718C34.9605 32.4215 36.9929 32.7984 37.9175 33.1891C38.566 33.4621 39.6281 33.7477 40.2414 34.1184C41.4132 34.825 42.5484 35.6672 43.6488 36.4406C44.1964 36.8281 45.8871 37.6781 45.9711 38.377L45.9718 38.3758ZM11.3605 8.87578C10.7929 8.86523 10.3918 8.93672 9.96754 9.03008V9.10781H10.0437C10.3152 9.66328 10.7929 10.0219 11.1285 10.5008L11.9019 12.1273L11.9797 12.0512C12.4589 11.7125 12.6785 11.1723 12.6754 10.3469C12.4832 10.1437 12.4558 9.89219 12.2879 9.64961C12.0683 9.32773 11.6394 9.14609 11.3601 8.87617L11.3605 8.87578Z" fill="#00618A"/>
</g>
<defs>
<clipPath id="clip0_73_1655">
<rect width="50" height="50" fill="white"/>
</clipPath>
</defs>
</svg>
