<svg width="50" height="50" viewBox="0 0 50 50" fill="none" xmlns="http://www.w3.org/2000/svg">
<path d="M36.6441 35.9812C36.9508 33.4292 36.859 33.0546 38.7598 33.4683L39.2422 33.5105C40.7039 33.5769 42.616 33.2753 43.7394 32.7535C46.1578 31.6312 47.5914 29.7582 45.2074 30.25C39.7684 31.3722 39.3945 29.5304 39.3945 29.5304C45.1379 21.0089 47.5387 10.1914 45.466 7.54331C39.8137 0.321046 30.0297 3.73628 29.866 3.82456L29.8137 3.83433C28.7391 3.61128 27.5363 3.47808 26.1852 3.4562C23.7238 3.41558 21.8562 4.10151 20.4394 5.17573C20.4394 5.17573 2.98515 -2.01528 3.79726 14.2191C3.96992 17.6726 8.74726 40.3511 14.4457 33.5011C16.5285 30.9964 18.541 28.8785 18.541 28.8785C19.5402 29.5421 20.7371 29.8812 21.9918 29.7593L22.0891 29.6765C22.0586 29.9875 22.0719 30.2917 22.1277 30.6519C20.6602 32.2921 21.0914 32.58 18.1566 33.1839C15.1871 33.7957 16.9316 34.8851 18.0703 35.1699C19.4512 35.5152 22.6453 36.0042 24.8039 32.9832L24.718 33.3277C25.2937 33.7886 25.2551 36.639 25.3363 38.6753C25.418 40.7121 25.5543 42.6125 25.9695 43.7332C26.3848 44.8539 26.8746 47.7394 30.7316 46.9128C33.9551 46.2238 36.4195 45.2296 36.6441 35.9812Z" fill="black"/>
<path d="M29.4758 48.9281C27.7699 48.9281 26.659 48.2684 25.9844 47.6313C24.966 46.6703 24.5621 45.4324 24.3207 44.693L24.2164 44.3844C23.7305 43.0727 23.5656 41.184 23.468 38.752C23.4531 38.3867 23.443 38.0106 23.4316 37.6117C23.4234 37.3199 23.4133 36.9539 23.3984 36.5711C22.7839 36.8641 22.1315 37.0703 21.4602 37.1836C20.2574 37.3891 18.9645 37.3227 17.6164 36.9856C16.6652 36.7477 15.677 36.2547 15.1137 35.4934C13.4719 36.9313 11.9059 36.7363 11.0527 36.4516C9.54766 35.9496 8.20078 34.5391 6.93476 32.1403C6.03281 30.4313 5.16055 28.2047 4.3418 25.5219C2.91601 20.85 2.01015 15.9293 1.92969 14.3137C1.67656 9.25705 3.03789 5.64064 5.975 3.56603C10.6082 0.293378 17.6281 2.21799 20.1875 3.09182C21.907 2.05549 23.9301 1.55119 26.216 1.58752C27.4438 1.60744 28.6129 1.71525 29.6988 1.909C30.8316 1.55275 33.0691 1.04142 35.6305 1.07346C40.3496 1.12971 44.2602 2.96877 46.9387 6.39182C48.8504 8.834 47.9051 13.9625 47.1719 16.8024C46.1398 20.7969 44.3316 25.0453 42.1105 28.7438C42.7137 28.7481 43.5875 28.6758 44.8297 28.4192C47.2805 27.9133 47.9973 29.2274 48.1918 29.8156C48.9711 32.1758 45.5836 33.9594 44.527 34.45C43.173 35.0785 40.9656 35.4613 39.1578 35.3785L39.0789 35.3735L38.6039 35.3317L38.557 35.7278L38.5117 36.1149C38.3902 40.802 37.7207 43.7703 36.343 45.7317C34.8988 47.7879 32.8918 48.3641 31.1238 48.743C30.5207 48.8719 29.9727 48.9281 29.4758 48.9281ZM25.8859 31.8692C26.9871 32.7504 27.0836 34.4086 27.1699 37.5074C27.1809 37.8942 27.191 38.2602 27.2047 38.602C27.2461 39.6371 27.3434 42.061 27.723 43.0852C27.7766 43.2301 27.8246 43.377 27.8754 43.5328C28.2984 44.8281 28.5105 45.4778 30.3398 45.0867C31.8754 44.7574 32.6648 44.4621 33.2828 43.5824C34.1809 42.3035 34.6832 39.7309 34.7754 35.936L36.6437 35.9813L34.7883 35.7586L34.843 35.2953C35.0207 33.768 35.1488 32.6649 36.1695 31.9352C36.9887 31.35 37.9219 31.4067 38.6652 31.5406C37.8484 30.9235 37.6227 30.1996 37.5625 29.9028L37.4066 29.1352L37.8445 28.4856C40.3668 24.7434 42.4465 20.1442 43.5512 15.8668C44.6863 11.4719 44.3402 9.13791 43.9941 8.6965C39.4125 2.84221 31.4676 5.25939 30.6379 5.53361L30.4977 5.60939L29.7945 5.74025L29.4344 5.66564C28.4414 5.45939 27.3383 5.34533 26.1559 5.32619C24.298 5.29494 22.7992 5.734 21.5703 6.66642L20.7176 7.31291L19.7281 6.90549C17.6141 6.04103 11.4047 4.30314 8.12812 6.62385C6.30937 7.91213 5.48086 10.4363 5.66523 14.1266C5.72617 15.3449 6.55391 19.9571 7.91953 24.4301C9.80664 30.6117 11.5215 32.6653 12.2375 32.9039C12.3625 32.9461 12.6867 32.6942 13.0094 32.3067C14.3547 30.694 15.7478 29.1216 17.1867 27.5918L18.2687 26.4531L19.577 27.3223C20.1043 27.6727 20.6859 27.8715 21.2832 27.909L24.4031 25.2481L23.9512 29.8606C23.941 29.9641 23.9359 30.1051 23.9766 30.3668L24.1125 31.241L23.5227 31.9004L23.4547 31.977L25.1687 32.768L25.8859 31.8692Z" fill="black"/>
<path d="M45.2073 30.25C39.7679 31.3723 39.3941 29.5305 39.3941 29.5305C45.1374 21.0086 47.5382 10.1907 45.4663 7.5434C39.814 0.321528 30.0292 3.73676 29.8659 3.82543L29.8132 3.83481C28.7386 3.61176 27.5359 3.47895 26.1839 3.45708C23.7226 3.41684 21.8558 4.10239 20.439 5.17661C20.439 5.17661 2.98429 -2.01402 3.79601 14.22C3.96867 17.6739 8.74601 40.3524 14.4445 33.5024C16.5273 30.9977 18.5394 28.8797 18.5394 28.8797C19.539 29.5434 20.7355 29.8825 21.9898 29.7606L22.0874 29.6778C22.057 29.9887 22.071 30.293 22.1265 30.6532C20.6585 32.2934 21.0898 32.5813 18.155 33.1852C15.1855 33.7969 16.93 34.8864 18.0691 35.1711C19.4495 35.5165 22.6441 36.0055 24.8023 32.9844L24.7159 33.329C25.2913 33.7899 25.6952 36.3258 25.6277 38.6247C25.5601 40.9235 25.5144 42.502 25.9679 43.7348C26.421 44.9676 26.8726 47.7411 30.7304 46.9145C33.9538 46.2239 35.6241 44.4336 35.8569 41.4477C36.0218 39.3247 36.3948 39.6387 36.4187 37.7407L36.7183 36.8422C37.0636 33.9645 36.773 33.0364 38.7593 33.468L39.2417 33.5102C40.7034 33.5766 42.6163 33.275 43.7394 32.7532C46.1573 31.6317 47.5913 29.7582 45.2073 30.25Z" fill="#336791"/>
<path d="M29.6708 47.7762C26.4552 47.7762 25.4364 45.2297 25.0196 44.1883C24.4095 42.6621 24.2778 36.7395 24.4138 31.8824C24.4158 31.8005 24.434 31.7198 24.4673 31.645C24.5007 31.5701 24.5485 31.5026 24.608 31.4464C24.6676 31.3901 24.7377 31.3461 24.8143 31.3171C24.8909 31.288 24.9725 31.2744 25.0544 31.277C25.1362 31.2792 25.2168 31.2975 25.2915 31.3309C25.3662 31.3643 25.4336 31.4121 25.4899 31.4716C25.5461 31.531 25.59 31.601 25.6192 31.6775C25.6484 31.7539 25.6622 31.8354 25.6599 31.9172C25.5032 37.5192 25.7255 42.5957 26.177 43.7254C26.8817 45.4867 27.9505 47.0274 30.972 46.3801C33.8403 45.7649 34.9145 44.6774 35.3931 41.9035C35.7603 39.775 36.4864 33.7195 36.5759 32.5246C36.5819 32.443 36.6039 32.3633 36.6407 32.2902C36.6776 32.217 36.7285 32.1519 36.7905 32.0985C36.8526 32.0451 36.9246 32.0044 37.0023 31.9789C37.0801 31.9533 37.1622 31.9434 37.2438 31.9496C37.4086 31.9621 37.5617 32.0395 37.6695 32.1647C37.7773 32.2899 37.831 32.4528 37.8188 32.6176C37.7255 33.8617 37.0028 39.9055 36.6216 42.1156C36.0567 45.3918 34.5962 46.8778 31.2333 47.5988C30.6618 47.7211 30.1427 47.7758 29.6708 47.7762ZM12.2349 35.3383C11.9538 35.3374 11.6747 35.2912 11.4083 35.2016C9.31962 34.5047 7.33017 31.1031 5.49501 25.0903C4.09814 20.5133 3.21298 15.736 3.13525 14.1832C2.90517 9.58009 4.09033 6.32345 6.65869 4.50431C11.7395 0.904312 20.2868 4.33244 20.6481 4.48009C20.8012 4.54262 20.9232 4.66338 20.9872 4.81583C21.0512 4.96828 21.0521 5.13991 20.9895 5.29298C20.927 5.44605 20.8063 5.56802 20.6538 5.63204C20.5014 5.69607 20.3297 5.69691 20.1767 5.63439C20.0942 5.6008 11.8981 2.3172 7.37665 5.52306C5.18056 7.08009 4.17236 9.97306 4.37978 14.1211C4.44501 15.4293 5.27197 20.0918 6.68681 24.7262C8.32509 30.0942 10.1895 33.4813 11.8024 34.0192C12.0556 34.1035 12.8259 34.3602 13.927 33.036C15.2111 31.4937 16.5434 29.9921 17.922 28.5336C18.0373 28.4186 18.1931 28.3532 18.356 28.3516C18.5189 28.35 18.676 28.4122 18.7936 28.5249C18.9112 28.6376 18.98 28.7919 18.9853 28.9547C18.9906 29.1175 18.932 29.276 18.822 29.3961C18.8032 29.4156 16.9286 31.3754 14.8856 33.8332C13.9181 34.9969 12.9907 35.3383 12.2349 35.3383ZM39.3556 30.0863C39.2426 30.0862 39.1317 30.0553 39.0349 29.9971C38.9381 29.9388 38.8589 29.8553 38.8059 29.7555C38.7529 29.6558 38.7279 29.5434 38.7338 29.4306C38.7397 29.3177 38.7761 29.2086 38.8392 29.1149C44.645 20.4996 46.6829 10.0899 44.9376 7.85939C42.7407 5.05236 39.6388 3.58634 35.7173 3.50158C32.8138 3.43908 30.506 4.18048 30.1286 4.30978L30.0337 4.34845C29.6544 4.46759 29.3634 4.25978 29.2536 4.01681C29.191 3.87761 29.1815 3.72031 29.2269 3.57459C29.2724 3.42888 29.3695 3.30481 29.5001 3.2258C29.5181 3.21525 29.5751 3.19103 29.6677 3.15705C30.3087 2.92228 32.6517 2.21916 35.5536 2.25236C39.8927 2.29845 43.477 3.9715 45.9185 7.09142C47.0735 8.56759 47.0763 11.9684 45.9259 16.4223C44.7532 20.9633 42.5466 25.8434 39.8724 29.8117C39.7528 29.9902 39.556 30.0863 39.3556 30.0863ZM39.6524 34.0746C38.661 34.0746 37.7724 33.9348 37.2403 33.616C36.6935 33.2883 36.5892 32.843 36.5755 32.6067C36.4263 29.9856 37.8724 29.5293 38.6099 29.3211C38.5071 29.1656 38.361 28.9828 38.2099 28.7942C37.7798 28.2567 37.1907 27.5207 36.7368 26.4199C36.6657 26.2481 36.4431 25.8485 36.1852 25.3856C34.7872 22.8785 31.8782 17.6617 33.747 14.9902C34.6118 13.7539 36.3341 13.2672 38.8716 13.5387C38.1251 11.2645 34.5704 4.15041 26.1356 4.01212C23.5989 3.96994 21.5185 4.75001 19.9552 6.32853C16.4552 9.8633 16.5817 16.259 16.5837 16.3231C16.5858 16.4049 16.5719 16.4863 16.5425 16.5627C16.5132 16.6392 16.4691 16.709 16.4128 16.7684C16.3565 16.8278 16.289 16.8755 16.2142 16.9088C16.1395 16.9421 16.0589 16.9604 15.977 16.9625C15.8952 16.9647 15.8138 16.9507 15.7374 16.9214C15.6609 16.892 15.5911 16.848 15.5317 16.7916C15.4723 16.7353 15.4246 16.6678 15.3913 16.5931C15.358 16.5183 15.3397 16.4377 15.3376 16.3559C15.3298 16.0719 15.1993 9.36017 19.0696 5.45119C20.881 3.62189 23.2653 2.71876 26.1563 2.76603C31.5524 2.8547 35.0259 5.59806 36.9892 7.88361C39.1294 10.3746 40.1786 13.1223 40.2649 14.0395C40.3294 14.7215 39.8399 14.8578 39.7411 14.8781L39.5161 14.8832C37.0259 14.4844 35.4282 14.7613 34.7677 15.7051C33.3462 17.7367 36.0981 22.6715 37.2731 24.7789C37.5731 25.3164 37.7895 25.7051 37.8888 25.9449C38.2747 26.8809 38.7782 27.5098 39.1825 28.0153C39.5384 28.4598 39.8466 28.8453 39.9567 29.2977C40.0079 29.3875 40.7341 30.4617 45.0431 29.5723C46.1231 29.3496 46.7708 29.5399 46.9688 30.1387C47.3583 31.3164 45.1731 32.6903 43.9634 33.252C42.8794 33.7559 41.1493 34.0746 39.6524 34.0746ZM37.8181 32.5039C37.9548 32.6418 38.6388 32.8797 40.0552 32.8188C41.3145 32.7649 42.6427 32.491 43.4395 32.1211C44.4587 31.6477 45.1392 31.1184 45.4915 30.757L45.2962 30.793C42.5411 31.3617 40.5923 31.286 39.504 30.5676C39.4308 30.5194 39.3604 30.4671 39.2931 30.411C39.1751 30.4574 39.0661 30.4879 38.9884 30.5098C38.3712 30.6828 37.7329 30.8621 37.8181 32.5039ZM20.0204 35.9863C19.336 35.9863 18.6157 35.893 17.8802 35.709C17.1181 35.5184 15.8333 34.9445 15.8528 34.002C15.8751 32.9445 17.413 32.6274 17.9919 32.5082C20.0833 32.0774 20.2196 31.9047 20.8731 31.0746C21.0638 30.8328 21.3009 30.5317 21.6243 30.1707C22.1044 29.6332 22.629 29.361 23.1837 29.361C23.57 29.361 23.8868 29.4918 24.0962 29.5789C24.7634 29.8555 25.32 30.5242 25.5489 31.3238C25.7556 32.0453 25.6567 32.7399 25.2716 33.2793C24.0071 35.05 22.1911 35.9863 20.0204 35.9863ZM17.1993 34.0555C17.3872 34.2008 17.7638 34.3949 18.1829 34.4996C18.82 34.659 19.438 34.7399 20.0208 34.7399C21.7966 34.7399 23.2224 34.0047 24.2579 32.5547C24.4739 32.2524 24.4091 31.8684 24.3513 31.6664C24.2302 31.2434 23.9294 30.8586 23.6196 30.7301C23.4517 30.6606 23.3122 30.6074 23.1841 30.6074C23.1153 30.6074 22.906 30.6074 22.5536 31.0016C22.3104 31.275 22.0767 31.5567 21.8528 31.8461C21.0388 32.8797 20.6657 33.2305 18.2438 33.7293C17.6528 33.8504 17.3497 33.9738 17.1993 34.0555ZM21.9919 31.1805C21.8431 31.1802 21.6993 31.1268 21.5865 31.0298C21.4736 30.9328 21.3992 30.7987 21.3767 30.6516C21.361 30.5481 21.3506 30.444 21.3454 30.3395C19.7579 30.3098 18.2263 29.6285 17.0634 28.4152C15.5931 26.8813 14.9239 24.7559 15.2278 22.5844C15.5579 20.2262 15.4345 18.1445 15.3681 17.0262C15.3497 16.7152 15.3364 16.4906 15.3372 16.3352C15.3384 16.1379 15.3423 15.6149 17.0907 14.7285C17.7126 14.4133 18.9595 13.8633 20.3216 13.7223C22.5782 13.4891 24.0657 14.4942 24.511 16.5527C25.713 22.1106 24.6063 24.5688 23.7981 26.3641C23.6477 26.6985 23.5056 27.0141 23.3919 27.3199L23.2915 27.5895C22.8645 28.7344 22.4954 29.7235 22.6087 30.4621C22.6211 30.543 22.6175 30.6256 22.598 30.7051C22.5785 30.7846 22.5436 30.8595 22.4952 30.9254C22.4467 30.9914 22.3858 31.0472 22.3158 31.0896C22.2458 31.1321 22.1681 31.1603 22.0872 31.1727L21.9919 31.1805ZM16.5876 16.5078L16.6118 16.9527C16.6806 18.1145 16.8087 20.2762 16.4618 22.7574C16.2114 24.5485 16.7583 26.2965 17.963 27.5528C18.9149 28.5457 20.1677 29.0938 21.4552 29.0938H21.4817C21.6259 28.4863 21.8653 27.8449 22.1231 27.1539L22.2227 26.886C22.3513 26.5406 22.5017 26.2063 22.661 25.8524C23.4388 24.1242 24.4071 21.9731 23.2919 16.8164C23.0712 15.7949 22.5356 15.2039 21.6556 15.009C19.8477 14.6098 17.1536 15.9695 16.5876 16.5078ZM20.3493 16.2434C20.3181 16.4637 20.7528 17.052 21.32 17.1305C21.886 17.2098 22.3704 16.7496 22.4013 16.5293C22.4321 16.309 21.9977 16.066 21.4306 15.9871C20.8634 15.9082 20.3794 16.0231 20.3493 16.2434ZM21.4501 17.3473L21.2911 17.3363C20.9395 17.2875 20.5841 17.066 20.3407 16.7434C20.2552 16.6301 20.1157 16.4106 20.1435 16.2145C20.1829 15.927 20.5337 15.7547 21.081 15.7547C21.2032 15.7547 21.3306 15.7637 21.4587 15.7817C21.7579 15.8231 22.0356 15.9094 22.2407 16.0238C22.5962 16.2223 22.6224 16.4438 22.6063 16.5582C22.5626 16.8758 22.0575 17.3473 21.4501 17.3473ZM20.556 16.2801C20.5735 16.416 20.9102 16.8645 21.3485 16.925L21.4505 16.932C21.8552 16.932 22.1575 16.6137 22.1931 16.5094C22.1556 16.4383 21.8954 16.2617 21.402 16.193C21.2958 16.178 21.1886 16.1703 21.0813 16.1699C20.7642 16.1699 20.5958 16.2414 20.556 16.2801ZM37.5892 15.7938C37.62 16.0141 37.1856 16.6024 36.6188 16.6813C36.0524 16.7602 35.5677 16.3004 35.5364 16.0801C35.5067 15.8598 35.9411 15.6164 36.5075 15.5379C37.0739 15.4586 37.5579 15.5738 37.5892 15.7938ZM36.488 16.7938C35.9427 16.7938 35.472 16.3695 35.4333 16.0942C35.3884 15.7637 35.9325 15.5125 36.4927 15.4348C36.6161 15.4176 36.7384 15.409 36.8559 15.409C37.3395 15.409 37.6599 15.5508 37.6919 15.7797C37.7126 15.9277 37.5989 16.1563 37.4032 16.3625C37.2739 16.4981 37.0024 16.7328 36.6325 16.784L36.488 16.7938ZM36.8563 15.6168C36.748 15.6168 36.6366 15.6248 36.522 15.6406C35.9591 15.7192 35.6231 15.9449 35.6395 16.066C35.6583 16.1992 36.0177 16.5863 36.4884 16.5863L36.6044 16.5781C36.9118 16.5356 37.1427 16.3348 37.2528 16.2192C37.4259 16.0375 37.4946 15.8664 37.4864 15.8082C37.4755 15.7309 37.2677 15.6168 36.8563 15.6168ZM38.4052 28.4461C38.2922 28.4462 38.1814 28.4155 38.0846 28.3575C37.9877 28.2994 37.9085 28.2161 37.8554 28.1164C37.8022 28.0168 37.7772 27.9046 37.783 27.7918C37.7887 27.679 37.825 27.5699 37.888 27.4762C39.2153 25.4938 38.9724 23.4723 38.7376 21.5172C38.6372 20.6844 38.5341 19.8231 38.5606 18.9965C38.588 18.1461 38.6962 17.4445 38.8005 16.766C38.9243 15.9621 39.0415 15.2027 38.9931 14.3012C38.9886 14.2195 39.0004 14.1377 39.0276 14.0605C39.0548 13.9833 39.0969 13.9122 39.1516 13.8513C39.2062 13.7904 39.2724 13.7409 39.3462 13.7056C39.42 13.6702 39.5 13.6497 39.5817 13.6453C39.6635 13.6409 39.7452 13.6526 39.8224 13.6798C39.8996 13.707 39.9707 13.7492 40.0316 13.8038C40.1546 13.9142 40.2287 14.069 40.2376 14.234C40.2931 15.2645 40.1606 16.1238 40.0325 16.9555C39.9337 17.5973 39.8313 18.261 39.8067 19.0363C39.7829 19.7684 39.8763 20.5457 39.9751 21.3684C40.2251 23.4473 40.5083 25.8035 38.9239 28.1695C38.8668 28.2547 38.7896 28.3244 38.6991 28.3726C38.6086 28.4209 38.5077 28.4461 38.4052 28.4461Z" fill="white"/>
</svg>
