<svg width="3840" height="3840" version="1.1" xmlns="http://www.w3.org/2000/svg" desc="Created with imagetracer.js version 1.2.6" ><path fill="rgb(0,0,0)" stroke="rgb(0,0,0)" stroke-width="1" opacity="0" d="M 0 0 L 1833 0.5 L 1775.5 2 L 1774.5 3 L 1753.5 3 L 1752.5 4 L 1705.5 6 L 1704.5 7 L 1692.5 7 L 1691.5 8 L 1679.5 8 L 1678.5 9 L 1668.5 9 L 1667.5 10 L 1645.5 11 L 1644.5 12 L 1616.5 14 L 1607.5 16 L 1575.5 19 L 1574.5 20 L 1553.5 22 L 1546.5 24 L 1540.5 24 L 1533.5 26 L 1503.5 30 L 1497.5 32 L 1492.5 32 L 1451.5 40 L 1366.5 61 L 1318.5 76 L 1277.5 91 Q 1233.8 108.3 1194.5 130 Q 1125.9 167.4 1075 222.5 Q 1041.7 258.7 1020 306.5 L 1007 342.5 L 1000 373.5 L 999 387.5 L 998 388.5 L 998 398.5 L 997 399.5 L 997 864 L 1929.5 864 L 1930 864.5 L 1930 996 L 590.5 996 L 589.5 997 L 563.5 998 L 562.5 999 L 553.5 999 L 552.5 1000 L 545.5 1000 L 544.5 1001 L 537.5 1001 L 536.5 1002 L 512.5 1005 L 463.5 1016 Q 420.4 1027.9 382.5 1045 Q 290 1087.5 224 1156.5 Q 171.8 1210.3 133 1277.5 Q 112.8 1312.3 96 1350.5 L 78 1394.5 L 62 1440.5 L 50 1480.5 L 39 1523.5 L 27 1580.5 L 27 1585.5 L 25 1591.5 L 25 1596.5 L 19 1627.5 L 19 1633.5 L 14 1662.5 L 12 1686.5 L 11 1687.5 L 10 1705.5 L 8 1715.5 L 8 1726.5 L 7 1727.5 L 7 1737.5 L 6 1738.5 L 4 1778.5 L 3 1779.5 L 3 1796.5 L 2 1797.5 L 0.5 1844 L 0 0 Z " /><path fill="rgb(0,0,0)" stroke="rgb(0,0,0)" stroke-width="1" opacity="0" d="M 1990.5 0 L 3840 0 L 3840 1855.5 L 3839 1855.5 L 3838 1805.5 L 3837 1804.5 L 3837 1786.5 L 3836 1785.5 L 3834 1742.5 L 3833 1741.5 L 3832 1719.5 L 3831 1718.5 L 3831 1708.5 L 3830 1707.5 L 3830 1698.5 L 3829 1697.5 L 3829 1688.5 L 3828 1687.5 L 3828 1679.5 L 3826 1670.5 L 3826 1662.5 L 3825 1661.5 L 3824 1646.5 L 3823 1645.5 L 3819 1611.5 L 3817 1604.5 L 3817 1598.5 L 3804 1528.5 L 3794 1488.5 L 3794 1484.5 L 3779 1429.5 L 3767 1394.5 L 3767 1391.5 L 3754 1355.5 L 3729 1296.5 Q 3709.9 1255.6 3687 1218.5 Q 3645.1 1150.4 3588.5 1097 Q 3544.2 1055.3 3488.5 1025 Q 3460 1009.5 3427.5 998 L 3398.5 989 L 3358.5 980 L 3352.5 980 L 3337.5 977 L 3329.5 977 L 3328.5 976 L 3316.5 976 L 3315.5 975 L 2967 975 L 2967 1450.5 L 2966 1451.5 L 2966 1472.5 L 2965 1473.5 L 2963 1506.5 L 2962 1507.5 L 2961 1522.5 L 2960 1523.5 L 2956 1553.5 Q 2919.6 1740.6 2804.5 1849 Q 2749.4 1901.4 2674.5 1934 L 2632.5 1950 L 2598.5 1960 L 2551.5 1970 L 2539.5 1971 L 2532.5 1973 L 2525.5 1973 L 2524.5 1974 L 2517.5 1974 L 2516.5 1975 L 2509.5 1975 L 2508.5 1976 L 2470.5 1978 L 2469.5 1979 L 2432.5 1979 L 2431.5 1980 L 1473.5 1980 L 1472.5 1981 L 1459.5 1981 L 1458.5 1982 L 1439.5 1983 L 1438.5 1984 L 1424.5 1985 L 1423.5 1986 L 1393.5 1990 L 1341.5 2002 L 1294.5 2017 Q 1255.2 2031.2 1220.5 2050 Q 1153.2 2086.2 1103 2139.5 Q 1054.4 2190.9 1024 2260.5 L 1014 2285.5 L 999 2334.5 L 991 2372.5 L 988 2398.5 L 987 2399.5 L 987 2406.5 L 986 2407.5 L 984 2442.5 L 983 2443.5 L 983 2475.5 L 982 2476.5 L 982 3337.5 L 983 3338.5 L 983 3359.5 L 984 3360.5 L 985 3380.5 L 993 3425.5 L 1005 3466.5 L 1018 3498.5 Q 1053.2 3573.3 1110.5 3626 Q 1167.1 3678.9 1239.5 3716 Q 1279 3736.5 1322.5 3753 L 1358.5 3766 L 1361.5 3766 L 1403.5 3780 L 1497.5 3803 L 1569.5 3816 L 1575.5 3816 L 1582.5 3818 L 1610.5 3821 L 1618.5 3823 L 1626.5 3823 L 1627.5 3824 L 1670.5 3828 L 1671.5 3829 L 1680.5 3829 L 1681.5 3830 L 1714.5 3832 L 1715.5 3833 L 1727.5 3833 L 1728.5 3834 L 1741.5 3834 L 1742.5 3835 L 1794.5 3837 L 1795.5 3838 L 1850 3839.5 L 0 3840 L 0.5 1982 L 2 2032.5 L 3 2033.5 L 3 2050.5 L 4 2051.5 L 4 2067.5 L 5 2068.5 L 5 2080.5 L 6 2081.5 L 7 2106.5 L 8 2107.5 L 8 2117.5 L 9 2118.5 L 9 2128.5 L 10 2129.5 L 13 2165.5 L 14 2166.5 L 14 2173.5 L 15 2174.5 L 15 2181.5 L 16 2182.5 L 16 2189.5 L 17 2190.5 L 22 2231.5 L 30 2272.5 L 30 2277.5 L 44 2343.5 L 57 2393.5 L 79 2462.5 Q 111.2 2554.3 159 2630.5 Q 200.6 2696.9 256.5 2749 Q 300.2 2789.8 355.5 2819 L 405.5 2841 L 440.5 2852 L 472.5 2859 L 490.5 2861 L 491.5 2862 L 498.5 2862 L 499.5 2863 L 522.5 2864 L 523.5 2865 L 873 2865 L 873 2388.5 L 874 2387.5 L 874 2367.5 L 875 2366.5 L 876 2343.5 L 877 2342.5 L 879 2318.5 L 880 2317.5 L 884 2287.5 Q 919.8 2105.8 1029.5 1998 Q 1087 1941 1166.5 1906 L 1211.5 1889 L 1242.5 1880 L 1283.5 1871 L 1314.5 1867 L 1315.5 1866 L 1331.5 1865 L 1332.5 1864 L 1354.5 1863 L 1355.5 1862 L 1369.5 1862 L 1370.5 1861 L 1407.5 1861 L 1408.5 1860 L 2367.5 1860 L 2368.5 1859 L 2382.5 1859 L 2383.5 1858 L 2411.5 1856 L 2412.5 1855 L 2444.5 1851 L 2487.5 1842 L 2523.5 1832 Q 2573.5 1816.5 2616.5 1794 Q 2686.5 1757.5 2738 1702.5 Q 2785.2 1652.2 2815 1584.5 L 2825 1559.5 L 2837 1522.5 L 2847 1479.5 L 2851 1449.5 L 2852 1448.5 L 2853 1433.5 L 2854 1432.5 L 2855 1411.5 L 2856 1410.5 L 2856 1396.5 L 2857 1395.5 L 2857 1361.5 L 2858 1360.5 L 2858 505.5 L 2857 504.5 L 2856 464.5 L 2855 463.5 L 2855 454.5 L 2854 453.5 L 2854 446.5 L 2853 445.5 L 2851 427.5 Q 2842.5 384 2827 347.5 Q 2790.8 265.7 2728.5 210 Q 2676.6 162.4 2611.5 128 Q 2569.8 105.7 2523.5 88 L 2475.5 71 L 2428.5 57 L 2368.5 42 L 2319.5 32 L 2314.5 32 L 2308.5 30 L 2303.5 30 L 2297.5 28 L 2279.5 26 L 2266.5 23 L 2232.5 19 L 2231.5 18 L 2199.5 15 L 2198.5 14 L 2190.5 14 L 2189.5 13 L 2181.5 13 L 2180.5 12 L 2151.5 10 L 2150.5 9 L 2114.5 7 L 2113.5 6 L 2066.5 4 L 2065.5 3 L 2046.5 3 L 2045.5 2 L 1990.5 1 L 1990.5 0 Z " /><path fill="rgb(0,0,0)" stroke="rgb(0,0,0)" stroke-width="1" opacity="0" d="M 1388.5 296 L 1419.5 297 L 1440.5 301 L 1461.5 308 Q 1500.5 324.5 1526 354.5 Q 1548.8 380.2 1560 417.5 L 1566 450.5 L 1566 476.5 L 1565 477.5 L 1565 485.5 L 1564 486.5 L 1563 497.5 L 1559 513.5 L 1553 529.5 Q 1539.3 560.8 1516.5 583 Q 1491.3 608.3 1454.5 622 L 1437.5 627 L 1421.5 630 L 1413.5 630 L 1412.5 631 L 1384.5 631 L 1383.5 630 L 1369.5 629 L 1348.5 624 L 1316.5 610 Q 1289.4 594.6 1270 571.5 Q 1248 546 1237 509.5 L 1232 484.5 L 1231 452.5 L 1232 451.5 L 1232 442.5 L 1236 421.5 L 1246 393.5 Q 1262 360 1288.5 337 Q 1308.7 319.2 1335.5 308 L 1356.5 301 L 1378.5 297 L 1387.5 297 L 1388.5 296 Z " /><path fill="rgb(0,0,0)" stroke="rgb(0,0,0)" stroke-width="1" opacity="0" d="M 3839.5 1995 L 3840 3840 L 2006 3839.5 L 2062.5 3838 L 2063.5 3837 L 2084.5 3837 L 2085.5 3836 L 2132.5 3834 L 2133.5 3833 L 2170.5 3831 L 2171.5 3830 L 2192.5 3829 L 2193.5 3828 L 2202.5 3828 L 2203.5 3827 L 2211.5 3827 L 2212.5 3826 L 2254.5 3822 L 2255.5 3821 L 2303.5 3815 L 2380.5 3801 L 2385.5 3799 L 2416.5 3793 L 2473.5 3778 L 2529.5 3760 L 2561.5 3748 L 2613.5 3725 L 2647.5 3707 Q 2714.2 3670.2 2764 3616.5 Q 2797.7 3580.2 2820 3532.5 L 2836 3487.5 L 2843 3450.5 L 2844 3416.5 L 2845 3415.5 L 2845 2976 L 1910.5 2976 L 1910 2975.5 L 1910 2844 L 3249.5 2844 L 3250.5 2843 L 3276.5 2842 L 3277.5 2841 L 3294.5 2840 L 3295.5 2839 L 3327.5 2835 L 3372.5 2825 L 3417.5 2811 L 3465.5 2791 Q 3558.1 2746.1 3624 2674.5 Q 3676.5 2618 3715 2547.5 L 3734 2510.5 L 3751 2472.5 L 3768 2428.5 L 3780 2392.5 L 3802 2311.5 L 3812 2264.5 L 3812 2259.5 L 3814 2253.5 L 3814 2248.5 L 3816 2242.5 L 3820 2212.5 L 3822 2205.5 L 3826 2169.5 L 3827 2168.5 L 3827 2161.5 L 3828 2160.5 L 3828 2153.5 L 3829 2152.5 L 3829 2143.5 L 3830 2142.5 L 3832 2113.5 L 3833 2112.5 L 3833 2102.5 L 3834 2101.5 L 3834 2090.5 L 3835 2089.5 L 3835 2075.5 L 3836 2074.5 L 3836 2061.5 L 3837 2060.5 L 3837 2043.5 L 3838 2042.5 L 3839.5 1995 Z " /><path fill="rgb(0,0,0)" stroke="rgb(0,0,0)" stroke-width="1" opacity="0" d="M 2427.5 3209 L 2455.5 3209 L 2456.5 3210 L 2464.5 3210 L 2484.5 3214 L 2507.5 3222 Q 2544.5 3238.5 2569 3267.5 Q 2588 3289 2599 3318.5 L 2607 3348.5 L 2608 3363.5 L 2609 3364.5 L 2609 3387.5 L 2608 3388.5 L 2608 3397.5 L 2604 3418.5 L 2593 3448.5 Q 2577.5 3480 2552.5 3502 Q 2528.1 3524.1 2493.5 3536 L 2461.5 3543 L 2431.5 3544 L 2430.5 3543 L 2421.5 3543 L 2420.5 3542 L 2408.5 3541 L 2392.5 3537 L 2369.5 3528 Q 2337.3 3512.2 2315 3486.5 Q 2295.4 3464.6 2284 3434.5 L 2279 3418.5 L 2275 3398.5 L 2274 3364.5 L 2275 3363.5 L 2275 3354.5 L 2276 3353.5 L 2277 3342.5 L 2280 3330.5 Q 2285.6 3310.6 2295 3294.5 Q 2310.4 3267.4 2333.5 3248 Q 2351.7 3232.2 2375.5 3222 L 2398.5 3214 L 2427.5 3209 Z " /><path fill="rgb(52,120,174)" stroke="rgb(52,120,174)" stroke-width="1" opacity="0.996078431372549" d="M 1833.5 0 L 1987.5 0 L 1988.5 1 L 2013.5 1 L 2014.5 2 L 2018.5 2 L 2040.5 2 L 2041.5 3 L 2044.5 2 L 2045.5 3 L 2059.5 3 L 2060.5 4 L 2064.5 4 L 2077.5 4 L 2078.5 5 L 2080.5 4 L 2081.5 5 L 2091.5 5 L 2092.5 6 L 2094.5 5 L 2099.5 6 Q 2107 4.5 2110.5 7 L 2114.5 7 Q 2120 5.5 2121.5 8 L 2124.5 7 L 2127.5 8 L 2132.5 9 L 2135.5 8 L 2137.5 8 L 2142.5 10 L 2144.5 9 L 2149.5 10 Q 2155 8.5 2156.5 11 L 2160.5 11 L 2165.5 12 L 2167.5 11 L 2169.5 11 L 2176.5 13 L 2179.5 12 L 2184.5 14 L 2186.5 13 L 2188.5 14 L 2190.5 14 Q 2195.3 12.8 2196.5 15 L 2198.5 14 L 2201.5 16 L 2204.5 15 L 2206.5 16 L 2208.5 16 L 2213.5 17 L 2215.5 16 L 2222.5 18 L 2224.5 18 L 2229 18.5 L 1727 517.5 L 1723.5 522 L 1429 814.5 L 1425.5 819 L 1379.5 864 L 997 864 L 997 399.5 L 998 398.5 L 998 389.5 L 999 388.5 L 1000 373.5 L 1007 342.5 L 1021 304.5 L 1044 262.5 L 1068 230 Q 1070.7 231.1 1070 228.5 L 1102.5 195 Q 1149.3 153.3 1207.5 123 L 1244.5 105 L 1285.5 88 L 1318.5 76 L 1321.5 76 L 1366.5 61 L 1437.5 43 L 1492.5 32 L 1497.5 32 L 1503.5 30 L 1533.5 26 L 1540.5 24 L 1546.5 24 L 1575.5 19 L 1582.5 19 L 1583.5 18 L 1590.5 18 L 1591.5 17 L 1598.5 17 L 1599.5 16 L 1615.5 15 L 1616.5 14 L 1644.5 12 L 1645.5 11 L 1656.5 11 L 1657.5 10 L 1692.5 8 L 1693.5 7 L 1704.5 7 L 1705.5 6 L 1720.5 6 L 1721.5 5 L 1752.5 4 L 1753.5 3 L 1775.5 3 L 1777.5 2 L 1779.5 2 L 1832.5 1 L 1833.5 0 Z M 1389 296 L 1388 297 L 1378 297 L 1357 301 L 1336 308 Q 1309 319 1290 336 Q 1266 356 1251 384 L 1238 415 L 1234 430 L 1233 442 L 1232 443 L 1232 452 L 1231 453 L 1232 485 L 1233 486 L 1235 503 L 1239 517 L 1247 537 L 1254 550 L 1265 566 L 1276 578 Q 1275 580 1278 579 L 1278 581 L 1280 581 L 1282 584 Q 1284 583 1283 586 L 1308 605 L 1326 615 L 1348 624 L 1381 631 L 1383 630 L 1385 631 L 1413 631 L 1414 630 L 1422 630 L 1424 630 L 1456 622 Q 1457 618 1459 621 L 1475 613 L 1477 613 L 1477 611 L 1487 607 L 1495 601 Q 1497 602 1496 599 L 1499 599 L 1499 597 L 1503 595 Q 1505 596 1504 593 L 1510 590 L 1512 587 L 1516 584 L 1520 579 L 1524 576 L 1528 569 L 1531 568 Q 1530 564 1533 565 L 1535 561 L 1538 559 L 1537 558 L 1540 556 L 1542 550 L 1552 533 L 1555 523 Q 1558 521 1556 520 L 1558 515 Q 1561 513 1559 512 L 1563 499 L 1564 490 L 1564 488 L 1566 481 L 1566 450 L 1565 449 L 1565 441 L 1565 439 L 1560 417 L 1550 391 Q 1541 373 1529 359 Q 1530 356 1528 357 L 1522 351 Q 1523 348 1521 349 L 1515 342 L 1494 325 Q 1478 314 1460 307 L 1441 301 L 1420 297 L 1389 296 Z " /><path fill="rgb(52,120,174)" stroke="rgb(52,120,174)" stroke-width="1" opacity="0.996078431372549" d="M 590.5 996 L 1247 996.5 L 1129.5 1114 L 1128 1114 Q 1129.1 1116.7 1126.5 1116 L 832 1409.5 L 826.5 1416 L 534 1706.5 L 529.5 1712 L 524 1716.5 L 522.5 1719 L 228 2011.5 L 225.5 2015 L 21.5 2218 L 20 2214.5 L 20 2212.5 L 19 2208.5 L 19 2206.5 L 18 2201.5 L 18 2199.5 L 17 2196.5 L 17 2194.5 L 18 2192.5 L 16 2188.5 L 17 2186.5 L 16 2183.5 L 15 2179.5 L 15 2177.5 L 14 2169.5 L 14 2167.5 L 13 2164.5 L 13 2160.5 Q 14.5 2155 12 2153.5 L 13 2151.5 L 11 2143.5 L 12 2141.5 L 10 2136.5 L 10 2132.5 L 9 2116.5 L 8 2115.5 L 8 2111.5 L 7 2106.5 L 8 2103.5 L 6 2092.5 L 6 2090.5 L 7 2088.5 L 6 2085.5 L 5 2080.5 L 6 2077.5 L 5 2076.5 L 5 2066.5 L 4 2065.5 L 4 2048.5 L 3 2047.5 L 3 2033.5 L 2 2032.5 L 3 2030.5 L 2 2027.5 L 2 2025.5 L 2 2010.5 L 1 2008.5 L 1 2004.5 L 1 1982.5 L 0 1981.5 L 0 1979.5 L 1 1977.5 L 1 1975.5 L 0 1973.5 L 0 1851.5 L 0 1849.5 L 1 1846.5 L 1 1818.5 L 2 1817.5 L 2 1797.5 L 3 1796.5 L 3 1779.5 L 4 1778.5 L 6 1738.5 L 7 1737.5 L 7 1727.5 L 8 1726.5 L 8 1715.5 L 9 1714.5 L 9 1706.5 L 11 1696.5 L 11 1687.5 L 12 1686.5 L 12 1679.5 L 13 1678.5 L 13 1671.5 L 14 1670.5 L 14 1663.5 L 15 1662.5 L 15 1655.5 L 16 1654.5 L 19 1627.5 L 20 1626.5 L 25 1591.5 L 27 1585.5 L 27 1580.5 L 39 1523.5 L 52 1473.5 L 63 1437.5 L 78 1394.5 L 93 1357.5 L 124 1293.5 L 136 1272.5 L 176 1212.5 Q 201.2 1179.2 230.5 1150 L 233.5 1148 Q 301 1079.5 396.5 1039 L 449.5 1020 L 492.5 1009 L 530.5 1002 L 544.5 1001 L 545.5 1000 L 553.5 1000 L 563.5 998 L 574.5 998 L 575.5 997 L 589.5 997 L 590.5 996 Z " /><path fill="rgb(52,120,174)" stroke="rgb(52,120,174)" stroke-width="1" opacity="0.996078431372549" d="M 1031.5 1996 L 1030.5 1998 L 1031.5 1996 Z " /><path fill="rgb(52,111,160)" stroke="rgb(52,111,160)" stroke-width="1" opacity="0.996078431372549" d="M 2719.5 202 L 2720.5 204 L 2719.5 202 Z " /><path fill="rgb(52,111,160)" stroke="rgb(52,111,160)" stroke-width="1" opacity="0.996078431372549" d="M 2728.5 210 L 2729.5 212 L 2728.5 210 Z " /><path fill="rgb(52,111,160)" stroke="rgb(52,111,160)" stroke-width="1" opacity="0.996078431372549" d="M 2731.5 213 L 2732.5 215 L 2731.5 213 Z " /><path fill="rgb(52,111,160)" stroke="rgb(52,111,160)" stroke-width="1" opacity="0.996078431372549" d="M 2770.5 255 L 2771.5 257 L 2770.5 255 Z " /><path fill="rgb(52,111,160)" stroke="rgb(52,111,160)" stroke-width="1" opacity="0.996078431372549" d="M 2773.5 259 L 2774.5 261 L 2773.5 259 Z " /><path fill="rgb(52,111,160)" stroke="rgb(52,111,160)" stroke-width="1" opacity="0.996078431372549" d="M 2780.5 268 L 2781.5 270 L 2780.5 268 Z " /><path fill="rgb(52,111,160)" stroke="rgb(52,111,160)" stroke-width="1" opacity="0.996078431372549" d="M 2799.5 296 L 2800.5 298 L 2799.5 296 Z " /><path fill="rgb(52,111,160)" stroke="rgb(52,111,160)" stroke-width="1" opacity="0.996078431372549" d="M 2825.5 347 L 2828 350.5 L 2826 351 L 2825.5 347 Z " /><path fill="rgb(52,111,160)" stroke="rgb(52,111,160)" stroke-width="1" opacity="0.996078431372549" d="M 2830.5 359 L 2832 362.5 L 2831 362.5 L 2830.5 359 Z " /><path fill="rgb(52,111,160)" stroke="rgb(52,111,160)" stroke-width="1" opacity="0.996078431372549" d="M 2832.5 364 L 2833.5 366 L 2832.5 364 Z " /><path fill="rgb(52,111,160)" stroke="rgb(52,111,160)" stroke-width="1" opacity="0.996078431372549" d="M 2833.5 368 Q 2836.1 367.2 2835 370.5 L 2840 383.5 Q 2837.5 385 2841 386.5 L 2842 394.5 L 2844 397.5 L 2848 413.5 L 2848 417.5 L 2850 424.5 L 2850 426.5 L 2852 434.5 L 2852 436.5 L 2854 446.5 L 2854 454.5 L 2855 455.5 L 2855 464.5 L 2856 465.5 L 2857 506.5 L 2858 507.5 L 2857 509.5 L 2858 510.5 L 2858 663.5 L 2857 664.5 L 2857 770.5 L 2691.5 936 L 2689 937.5 L 2685.5 942 L 2381 1244.5 L 2379.5 1247 L 2085 1539.5 L 2082.5 1543 L 1788 1835.5 L 1785.5 1839 L 1763.5 1860 L 1407.5 1860 L 1406.5 1861 L 1397.5 1861 L 1395.5 1861 L 1391.5 1860 L 1387.5 1861 L 1385.5 1860 L 1384.5 1861 Q 1373 1859.5 1365.5 1862 L 1363.5 1862 L 1361.5 1861 L 1358.5 1862 L 1356.5 1862 L 1349.5 1863 L 1347.5 1863 L 1339.5 1864 L 1337.5 1864 L 1335 1863.5 L 1562 1637.5 L 1565.5 1633 L 1861 1339.5 L 1866.5 1333 L 2157.5 1043 L 2159 1043 L 2163.5 1037 L 2169 1032.5 Q 2168.3 1030.3 2170.5 1031 L 2455.5 746 L 2457 746 L 2461.5 740 L 2466 736.5 L 2467.5 734 L 2763 440.5 L 2765.5 437 L 2834 369.5 L 2833.5 368 Z " /><path fill="rgb(52,111,160)" stroke="rgb(52,111,160)" stroke-width="1" opacity="0.996078431372549" d="M 1930.5 868 L 1931 995.5 L 1930 995.5 L 1930.5 868 Z " /><path fill="rgb(52,111,160)" stroke="rgb(52,111,160)" stroke-width="1" opacity="0.996078431372549" d="M 1315.5 1865 L 1314.5 1867 L 1312 1866.5 L 1315.5 1865 Z " /><path fill="rgb(52,111,160)" stroke="rgb(52,111,160)" stroke-width="1" opacity="0.996078431372549" d="M 1319.5 1865 L 1323 1865.5 L 1319.5 1866 L 1319.5 1865 Z " /><path fill="rgb(52,111,160)" stroke="rgb(52,111,160)" stroke-width="1" opacity="0.996078431372549" d="M 1308.5 1866 L 1307.5 1868 L 1306 1867.5 L 1308.5 1866 Z " /><path fill="rgb(52,111,160)" stroke="rgb(52,111,160)" stroke-width="1" opacity="0.996078431372549" d="M 1295.5 1868 L 1297 1868.5 L 1292.5 1870 L 1292.5 1869 L 1295.5 1868 Z " /><path fill="rgb(52,111,160)" stroke="rgb(52,111,160)" stroke-width="1" opacity="0.996078431372549" d="M 1086.5 1950 L 1085.5 1952 L 1086.5 1950 Z " /><path fill="rgb(52,111,160)" stroke="rgb(52,111,160)" stroke-width="1" opacity="0.996078431372549" d="M 1049.5 1979 L 1048.5 1981 L 1049.5 1979 Z " /><path fill="rgb(52,111,160)" stroke="rgb(52,111,160)" stroke-width="1" opacity="0.996078431372549" d="M 1018.5 2009 L 1016.5 2012 L 1018.5 2009 Z " /><path fill="rgb(52,111,160)" stroke="rgb(52,111,160)" stroke-width="1" opacity="0.996078431372549" d="M 988.5 2044 L 987.5 2046 L 988.5 2044 Z " /><path fill="rgb(52,111,160)" stroke="rgb(52,111,160)" stroke-width="1" opacity="0.996078431372549" d="M 977.5 2059 L 976.5 2061 L 977.5 2059 Z " /><path fill="rgb(52,111,160)" stroke="rgb(52,111,160)" stroke-width="1" opacity="0.996078431372549" d="M 958.5 2088 L 957.5 2090 L 958.5 2088 Z " /><path fill="rgb(52,111,160)" stroke="rgb(52,111,160)" stroke-width="1" opacity="0.996078431372549" d="M 909.5 2192 L 908.5 2194 L 909.5 2192 Z " /><path fill="rgb(52,111,160)" stroke="rgb(52,111,160)" stroke-width="1" opacity="0.996078431372549" d="M 889.5 2260 L 890 2262.5 L 889 2262.5 L 889.5 2260 Z " /><path fill="rgb(52,111,160)" stroke="rgb(52,111,160)" stroke-width="1" opacity="0.996078431372549" d="M 886.5 2275 L 887 2277 L 885 2276.5 L 886.5 2275 Z " /><path fill="rgb(52,111,160)" stroke="rgb(52,111,160)" stroke-width="1" opacity="0.996078431372549" d="M 884.5 2286 L 884 2287.5 L 883.5 2290 L 883 2287.5 L 884.5 2286 Z " /><path fill="rgb(52,111,160)" stroke="rgb(52,111,160)" stroke-width="1" opacity="0.996078431372549" d="M 881.5 2300 L 882 2303.5 L 881 2303.5 L 881.5 2300 Z " /><path fill="rgb(52,111,160)" stroke="rgb(52,111,160)" stroke-width="1" opacity="0.996078431372549" d="M 880.5 2308 L 881 2310.5 L 879.5 2313 L 879 2311.5 L 880.5 2308 Z " /><path fill="rgb(52,111,160)" stroke="rgb(52,111,160)" stroke-width="1" opacity="0.996078431372549" d="M 878.5 2318 L 879 2322.5 L 878 2325.5 L 877 2328.5 L 878 2331.5 L 876 2338.5 L 876 2340.5 Q 877.8 2346.8 875 2348.5 L 876 2350.5 L 875 2353.5 L 874 2358.5 Q 876.5 2360 875 2365.5 L 873 2376.5 L 874 2379.5 L 873 2381.5 L 874 2383.5 L 873 2385.5 L 873 2387.5 L 873 2747.5 L 757 2863.5 L 840 2864.5 L 525.5 2865 L 522.5 2864 L 509.5 2864 L 501.5 2862 L 499.5 2862 L 484.5 2861 L 478.5 2859 L 467.5 2858 L 458.5 2855 L 456.5 2855 Q 451.9 2855.6 450.5 2853 L 448.5 2853 L 420.5 2846 L 415.5 2843 L 405.5 2841 L 401.5 2838 L 400 2838.5 L 399.5 2837 L 397.5 2837 L 383.5 2832 L 379.5 2829 L 377.5 2829 L 367 2823.5 L 368.5 2824 L 371.5 2824 L 662 2534.5 L 664.5 2531 L 668 2528.5 Q 667.3 2526.3 669.5 2527 L 878.5 2318 Z " /><path fill="rgb(52,111,160)" stroke="rgb(52,111,160)" stroke-width="1" opacity="0.996078431372549" d="M 212.5 2702 L 213.5 2704 L 212.5 2702 Z " /><path fill="rgb(52,111,160)" stroke="rgb(52,111,160)" stroke-width="1" opacity="0.996078431372549" d="M 246.5 2738 L 253.5 2746 L 246.5 2738 Z " /><path fill="rgb(52,111,160)" stroke="rgb(52,111,160)" stroke-width="1" opacity="0.996078431372549" d="M 263.5 2754 L 265.5 2757 L 263.5 2754 Z " /><path fill="rgb(52,111,160)" stroke="rgb(52,111,160)" stroke-width="1" opacity="0.996078431372549" d="M 277.5 2766 L 278.5 2768 L 277.5 2766 Z " /><path fill="rgb(52,111,160)" stroke="rgb(52,111,160)" stroke-width="1" opacity="0.996078431372549" d="M 295.5 2780 L 296.5 2782 L 295.5 2780 Z " /><path fill="rgb(52,111,160)" stroke="rgb(52,111,160)" stroke-width="1" opacity="0.996078431372549" d="M 302.5 2785 L 303.5 2787 L 302.5 2785 Z " /><path fill="rgb(52,111,160)" stroke="rgb(52,111,160)" stroke-width="1" opacity="0.996078431372549" d="M 318.5 2796 L 319.5 2798 L 318.5 2796 Z " /><path fill="rgb(52,111,160)" stroke="rgb(52,111,160)" stroke-width="1" opacity="0.996078431372549" d="M 352.5 2816 L 355 2817.5 L 353.5 2817 L 352.5 2816 Z " /><path fill="rgb(52,117,168)" stroke="rgb(52,117,168)" stroke-width="1" opacity="0.996078431372549" d="M 2229.5 18 L 2232.5 19 L 2237.5 19 L 2243.5 21 L 2245.5 21 L 2250.5 22 L 2252.5 22 L 2257.5 23 L 2259.5 23 L 2261.5 24 L 2265.5 23 L 2270.5 25 L 2272.5 24 L 2278.5 26 L 2297.5 28 L 2308.5 31 L 2313.5 31 L 2324.5 34 L 2349.5 38 L 2409.5 52 L 2431.5 59 L 2435.5 59 L 2455.5 66 L 2462.5 67 L 2501.5 81 L 2504.5 81 L 2562 104 L 2562.5 106 L 2564.5 106 L 2567.5 108 Q 2569 105.5 2570.5 109 L 2582.5 115 Q 2584 112.5 2585.5 116 Q 2597.7 119.8 2606.5 127 Q 2608 124.5 2609.5 128 L 2612 128 Q 2610.9 130.7 2613.5 130 L 2619 132 L 2619 134 L 2622 134 Q 2620.8 137 2624.5 136 L 2638 143.5 L 2637.5 145 L 2635.5 143 L 2536.5 242 L 2245 531.5 L 2239.5 538 L 1943 832.5 L 1939.5 837 L 1911.5 864 L 1380.5 864 L 1424.5 819 L 1429 815.5 L 1430.5 813 L 1727 518.5 L 1730.5 514 L 2229.5 18 Z " /><path fill="rgb(52,117,168)" stroke="rgb(52,117,168)" stroke-width="1" opacity="0.996078431372549" d="M 2646.5 149 L 2649 150.5 L 2647.5 151 L 2646.5 149 Z " /><path fill="rgb(52,117,168)" stroke="rgb(52,117,168)" stroke-width="1" opacity="0.996078431372549" d="M 2655.5 154 L 2656.5 156 L 2655.5 154 Z " /><path fill="rgb(52,117,168)" stroke="rgb(52,117,168)" stroke-width="1" opacity="0.996078431372549" d="M 2661.5 158 L 2665 160.5 L 2663.5 161 L 2661.5 158 Z " /><path fill="rgb(52,117,168)" stroke="rgb(52,117,168)" stroke-width="1" opacity="0.996078431372549" d="M 2670.5 164 L 2671.5 166 L 2670.5 164 Z " /><path fill="rgb(52,117,168)" stroke="rgb(52,117,168)" stroke-width="1" opacity="0.996078431372549" d="M 2688.5 177 L 2689.5 179 L 2688.5 177 Z " /><path fill="rgb(52,117,168)" stroke="rgb(52,117,168)" stroke-width="1" opacity="0.996078431372549" d="M 2692.5 180 L 2693.5 182 L 2692.5 180 Z " /><path fill="rgb(52,117,168)" stroke="rgb(52,117,168)" stroke-width="1" opacity="0.996078431372549" d="M 2751.5 233 L 2752.5 235 L 2751.5 233 Z " /><path fill="rgb(52,117,168)" stroke="rgb(52,117,168)" stroke-width="1" opacity="0.996078431372549" d="M 1565.5 477 L 1566 480.5 L 1565 480.5 L 1565.5 477 Z " /><path fill="rgb(52,117,168)" stroke="rgb(52,117,168)" stroke-width="1" opacity="0.996078431372549" d="M 1540.5 553 L 1540 554.5 L 1539.5 556 L 1539 554.5 L 1540.5 553 Z " /><path fill="rgb(52,117,168)" stroke="rgb(52,117,168)" stroke-width="1" opacity="0.996078431372549" d="M 1530.5 567 L 1529.5 569 L 1530.5 567 Z " /><path fill="rgb(52,117,168)" stroke="rgb(52,117,168)" stroke-width="1" opacity="0.996078431372549" d="M 1509.5 589 L 1508.5 591 L 1509.5 589 Z " /><path fill="rgb(52,117,168)" stroke="rgb(52,117,168)" stroke-width="1" opacity="0.996078431372549" d="M 1296.5 596 L 1297.5 598 L 1296.5 596 Z " /><path fill="rgb(52,117,168)" stroke="rgb(52,117,168)" stroke-width="1" opacity="0.996078431372549" d="M 1247.5 996 L 1779 996.5 L 1337 1436.5 L 1335.5 1439 L 1048.5 1725 L 1047 1725 L 1041.5 1732 L 1037 1735.5 L 1035.5 1738 L 742 2029.5 L 739.5 2033 L 734 2037.5 Q 734.8 2039.8 732.5 2039 L 446.5 2325 L 445 2325 L 441.5 2330 L 437 2333.5 L 435.5 2336 L 153 2617.5 L 155 2621.5 L 153 2620.5 L 152 2616.5 L 138 2594.5 L 137 2590 Q 134.3 2591.1 135 2588.5 L 135 2586.5 L 132 2583.5 L 104 2525.5 L 77 2456.5 L 57 2393.5 L 57 2389.5 L 52 2374.5 L 40 2325.5 L 40 2323.5 L 26 2254.5 L 26 2252.5 L 25 2248.5 L 25 2246.5 L 24 2242.5 L 24 2240.5 L 23 2236.5 L 23 2234.5 L 21 2223.5 L 21 2219.5 L 20 2216.5 L 21 2216.5 L 21.5 2218 L 228 2012.5 L 229.5 2010 L 524 1717.5 L 528.5 1712 L 534 1707.5 L 535.5 1705 L 832 1410.5 L 833.5 1408 L 1126.5 1116 L 1128 1116 Q 1126.9 1113.3 1129.5 1114 L 1247.5 996 Z " /><path fill="rgb(52,117,168)" stroke="rgb(52,117,168)" stroke-width="1" opacity="0.996078431372549" d="M 226.5 1154 L 224.5 1157 L 226.5 1154 Z " /><path fill="rgb(52,117,168)" stroke="rgb(52,117,168)" stroke-width="1" opacity="0.996078431372549" d="M 1035.5 1992 L 1034.5 1994 L 1035.5 1992 Z " /><path fill="rgb(52,117,168)" stroke="rgb(52,117,168)" stroke-width="1" opacity="0.996078431372549" d="M 993.5 2038 L 992.5 2040 L 993.5 2038 Z " /><path fill="rgb(52,117,168)" stroke="rgb(52,117,168)" stroke-width="1" opacity="0.996078431372549" d="M 5.5 2077 L 6 2079.5 L 5 2079.5 L 5.5 2077 Z " /><path fill="rgb(52,117,168)" stroke="rgb(52,117,168)" stroke-width="1" opacity="0.996078431372549" d="M 7.5 2103 L 8 2105.5 L 7 2105.5 L 7.5 2103 Z " /><path fill="rgb(52,117,168)" stroke="rgb(52,117,168)" stroke-width="1" opacity="0.996078431372549" d="M 9.5 2125 L 10 2127.5 L 9 2127.5 L 9.5 2125 Z " /><path fill="rgb(52,117,168)" stroke="rgb(52,117,168)" stroke-width="1" opacity="0.996078431372549" d="M 11.5 2144 L 12 2146.5 L 11 2146.5 L 11.5 2144 Z " /><path fill="rgb(52,117,168)" stroke="rgb(52,117,168)" stroke-width="1" opacity="0.996078431372549" d="M 12.5 2154 L 13 2156.5 L 12 2156.5 L 12.5 2154 Z " /><path fill="rgb(52,117,168)" stroke="rgb(52,117,168)" stroke-width="1" opacity="0.996078431372549" d="M 14.5 2171 L 15 2173.5 L 14 2173.5 L 14.5 2171 Z " /><path fill="rgb(52,117,168)" stroke="rgb(52,117,168)" stroke-width="1" opacity="0.996078431372549" d="M 169.5 2645 L 170.5 2647 L 169.5 2645 Z " /><path fill="rgb(52,117,168)" stroke="rgb(52,117,168)" stroke-width="1" opacity="0.996078431372549" d="M 190.5 2674 L 193 2677.5 L 191 2676.5 L 190.5 2674 Z " /><path fill="rgb(51,114,164)" stroke="rgb(51,114,164)" stroke-width="1" opacity="0.996078431372549" d="M 2566.5 106 L 2567.5 108 L 2566.5 106 Z " /><path fill="rgb(51,114,164)" stroke="rgb(51,114,164)" stroke-width="1" opacity="0.996078431372549" d="M 2641.5 146 L 2646 148.5 L 2644.5 149 L 2641.5 146 Z " /><path fill="rgb(51,114,164)" stroke="rgb(51,114,164)" stroke-width="1" opacity="0.996078431372549" d="M 2649.5 151 L 2653 152 L 2652.5 154 L 2649.5 151 Z " /><path fill="rgb(51,114,164)" stroke="rgb(51,114,164)" stroke-width="1" opacity="0.996078431372549" d="M 2654.5 154 L 2655.5 156 L 2654.5 154 Z " /><path fill="rgb(51,114,164)" stroke="rgb(51,114,164)" stroke-width="1" opacity="0.996078431372549" d="M 2660.5 158 L 2661.5 160 L 2660.5 158 Z " /><path fill="rgb(51,114,164)" stroke="rgb(51,114,164)" stroke-width="1" opacity="0.996078431372549" d="M 2664.5 161 L 2668 162 L 2667.5 164 L 2664.5 161 Z " /><path fill="rgb(51,114,164)" stroke="rgb(51,114,164)" stroke-width="1" opacity="0.996078431372549" d="M 2669.5 164 L 2670.5 166 L 2669.5 164 Z " /><path fill="rgb(51,114,164)" stroke="rgb(51,114,164)" stroke-width="1" opacity="0.996078431372549" d="M 2672.5 166 L 2678 169 L 2677.5 171 L 2672.5 166 Z " /><path fill="rgb(51,114,164)" stroke="rgb(51,114,164)" stroke-width="1" opacity="0.996078431372549" d="M 2679.5 171 L 2685 175.5 L 2681.5 173 L 2679.5 171 Z " /><path fill="rgb(51,114,164)" stroke="rgb(51,114,164)" stroke-width="1" opacity="0.996078431372549" d="M 2686.5 176 L 2688.5 179 L 2686.5 176 Z " /><path fill="rgb(51,114,164)" stroke="rgb(51,114,164)" stroke-width="1" opacity="0.996078431372549" d="M 2690.5 179 L 2692.5 182 L 2690.5 179 Z " /><path fill="rgb(51,114,164)" stroke="rgb(51,114,164)" stroke-width="1" opacity="0.996078431372549" d="M 2694.5 182 L 2698 184.5 L 2697.5 186 L 2694.5 182 Z " /><path fill="rgb(51,114,164)" stroke="rgb(51,114,164)" stroke-width="1" opacity="0.996078431372549" d="M 2699.5 186 L 2708 193.5 L 2703.5 190 L 2699.5 186 Z " /><path fill="rgb(51,114,164)" stroke="rgb(51,114,164)" stroke-width="1" opacity="0.996078431372549" d="M 2709.5 194 L 2723 205.5 Q 2722.3 207.8 2724.5 207 L 2731 212 L 2732.5 215 L 2738 219.5 Q 2737.3 221.8 2739.5 221 L 2743.5 226 L 2746 227.5 L 2747.5 230 Q 2749.8 229.3 2749 231.5 L 2756.5 240 Q 2737.8 217.7 2714.5 200 L 2709.5 194 Z " /><path fill="rgb(51,114,164)" stroke="rgb(51,114,164)" stroke-width="1" opacity="0.996078431372549" d="M 2759.5 243 L 2762 244 L 2765 248.5 L 2759.5 243 Z " /><path fill="rgb(51,114,164)" stroke="rgb(51,114,164)" stroke-width="1" opacity="0.996078431372549" d="M 2768.5 253 L 2770 255.5 L 2769 255.5 L 2768.5 253 Z " /><path fill="rgb(51,114,164)" stroke="rgb(51,114,164)" stroke-width="1" opacity="0.996078431372549" d="M 2771.5 257 L 2772.5 259 L 2771.5 257 Z " /><path fill="rgb(51,114,164)" stroke="rgb(51,114,164)" stroke-width="1" opacity="0.996078431372549" d="M 2774.5 261 L 2780 267.5 L 2778 266.5 L 2776 263.5 L 2774.5 261 Z " /><path fill="rgb(51,114,164)" stroke="rgb(51,114,164)" stroke-width="1" opacity="0.996078431372549" d="M 2780.5 269 L 2785 274.5 L 2782 272.5 L 2780.5 269 Z " /><path fill="rgb(51,114,164)" stroke="rgb(51,114,164)" stroke-width="1" opacity="0.996078431372549" d="M 2791.5 284 L 2792.5 286 L 2791.5 284 Z " /><path fill="rgb(51,114,164)" stroke="rgb(51,114,164)" stroke-width="1" opacity="0.996078431372549" d="M 2794.5 289 L 2795.5 291 L 2794.5 289 Z " /><path fill="rgb(51,114,164)" stroke="rgb(51,114,164)" stroke-width="1" opacity="0.996078431372549" d="M 2799.5 297 L 2800.5 299 L 2799.5 297 Z " /><path fill="rgb(51,114,164)" stroke="rgb(51,114,164)" stroke-width="1" opacity="0.996078431372549" d="M 2807.5 310 L 2808.5 312 L 2807.5 310 Z " /><path fill="rgb(51,114,164)" stroke="rgb(51,114,164)" stroke-width="1" opacity="0.996078431372549" d="M 2819.5 333 L 2821 335.5 L 2819 334.5 L 2819.5 333 Z " /><path fill="rgb(51,114,164)" stroke="rgb(51,114,164)" stroke-width="1" opacity="0.996078431372549" d="M 2824.5 345 L 2825.5 347 L 2824.5 345 Z " /><path fill="rgb(51,114,164)" stroke="rgb(51,114,164)" stroke-width="1" opacity="0.996078431372549" d="M 2829.5 356 L 2831 358.5 L 2829 357.5 L 2829.5 356 Z " /><path fill="rgb(51,114,164)" stroke="rgb(51,114,164)" stroke-width="1" opacity="0.996078431372549" d="M 1224.5 1884 L 1223.5 1886 L 1222 1885.5 L 1224.5 1884 Z " /><path fill="rgb(51,114,164)" stroke="rgb(51,114,164)" stroke-width="1" opacity="0.996078431372549" d="M 1211.5 1888 L 1213 1888.5 L 1208.5 1890 L 1208.5 1889 L 1211.5 1888 Z " /><path fill="rgb(51,114,164)" stroke="rgb(51,114,164)" stroke-width="1" opacity="0.996078431372549" d="M 1197.5 1893 L 1199 1893.5 L 1194.5 1895 L 1194.5 1894 L 1197.5 1893 Z " /><path fill="rgb(51,114,164)" stroke="rgb(51,114,164)" stroke-width="1" opacity="0.996078431372549" d="M 1189.5 1896 L 1188.5 1898 L 1186 1897.5 L 1189.5 1896 Z " /><path fill="rgb(51,114,164)" stroke="rgb(51,114,164)" stroke-width="1" opacity="0.996078431372549" d="M 1164.5 1906 L 1163.5 1908 L 1162 1907.5 L 1164.5 1906 Z " /><path fill="rgb(51,114,164)" stroke="rgb(51,114,164)" stroke-width="1" opacity="0.996078431372549" d="M 1160.5 1908 L 1159.5 1910 L 1158 1909.5 L 1160.5 1908 Z " /><path fill="rgb(51,114,164)" stroke="rgb(51,114,164)" stroke-width="1" opacity="0.996078431372549" d="M 1142.5 1916 L 1140.5 1919 L 1139 1918.5 L 1142.5 1916 Z " /><path fill="rgb(51,114,164)" stroke="rgb(51,114,164)" stroke-width="1" opacity="0.996078431372549" d="M 1131.5 1922 L 1130.5 1924 L 1124.5 1927 L 1125.5 1925 L 1131.5 1922 Z " /><path fill="rgb(51,114,164)" stroke="rgb(51,114,164)" stroke-width="1" opacity="0.996078431372549" d="M 1120.5 1928 L 1118.5 1931 L 1118 1929 L 1120.5 1928 Z " /><path fill="rgb(51,114,164)" stroke="rgb(51,114,164)" stroke-width="1" opacity="0.996078431372549" d="M 1108.5 1935 L 1110 1935.5 L 1104.5 1939 L 1105.5 1937 L 1108.5 1935 Z " /><path fill="rgb(51,114,164)" stroke="rgb(51,114,164)" stroke-width="1" opacity="0.996078431372549" d="M 1094.5 1944 L 1093.5 1946 L 1094.5 1944 Z " /><path fill="rgb(51,114,164)" stroke="rgb(51,114,164)" stroke-width="1" opacity="0.996078431372549" d="M 1091.5 1946 L 1089.5 1949 L 1091.5 1946 Z " /><path fill="rgb(51,114,164)" stroke="rgb(51,114,164)" stroke-width="1" opacity="0.996078431372549" d="M 1084.5 1951 L 1082.5 1954 L 1081 1953.5 L 1084.5 1951 Z " /><path fill="rgb(51,114,164)" stroke="rgb(51,114,164)" stroke-width="1" opacity="0.996078431372549" d="M 1074.5 1958 L 1076 1958.5 L 1072.5 1961 L 1074.5 1958 Z " /><path fill="rgb(51,114,164)" stroke="rgb(51,114,164)" stroke-width="1" opacity="0.996078431372549" d="M 1070.5 1961 L 1068.5 1964 L 1070.5 1961 Z " /><path fill="rgb(51,114,164)" stroke="rgb(51,114,164)" stroke-width="1" opacity="0.996078431372549" d="M 1063.5 1967 L 1061.5 1970 L 1056.5 1974 L 1060.5 1969 L 1063.5 1967 Z " /><path fill="rgb(51,114,164)" stroke="rgb(51,114,164)" stroke-width="1" opacity="0.996078431372549" d="M 1040.5 1986 L 1041 1987.5 L 1039 1988.5 L 1040.5 1986 Z " /><path fill="rgb(51,114,164)" stroke="rgb(51,114,164)" stroke-width="1" opacity="0.996078431372549" d="M 1031.5 1995 L 1027.5 2000 L 1031.5 1995 Z " /><path fill="rgb(51,114,164)" stroke="rgb(51,114,164)" stroke-width="1" opacity="0.996078431372549" d="M 1025.5 2001 L 1024.5 2003 L 1025.5 2001 Z " /><path fill="rgb(51,114,164)" stroke="rgb(51,114,164)" stroke-width="1" opacity="0.996078431372549" d="M 1014 2012 L 1016 2012.5 L 1014 2013.5 L 1014 2012 Z " /><path fill="rgb(51,114,164)" stroke="rgb(51,114,164)" stroke-width="1" opacity="0.996078431372549" d="M 1012.5 2015 L 1009.5 2019 L 1012.5 2015 Z " /><path fill="rgb(51,114,164)" stroke="rgb(51,114,164)" stroke-width="1" opacity="0.996078431372549" d="M 1004.5 2024 L 1003.5 2026 L 1004.5 2024 Z " /><path fill="rgb(51,114,164)" stroke="rgb(51,114,164)" stroke-width="1" opacity="0.996078431372549" d="M 999.5 2030 L 997.5 2033 L 999.5 2030 Z " /><path fill="rgb(51,114,164)" stroke="rgb(51,114,164)" stroke-width="1" opacity="0.996078431372549" d="M 995.5 2034 L 996 2035.5 L 992 2038.5 L 995.5 2034 Z " /><path fill="rgb(51,114,164)" stroke="rgb(51,114,164)" stroke-width="1" opacity="0.996078431372549" d="M 978 2056 L 980 2056.5 L 977 2058.5 L 978 2056 Z " /><path fill="rgb(51,114,164)" stroke="rgb(51,114,164)" stroke-width="1" opacity="0.996078431372549" d="M 975.5 2061 L 974.5 2063 L 975.5 2061 Z " /><path fill="rgb(51,114,164)" stroke="rgb(51,114,164)" stroke-width="1" opacity="0.996078431372549" d="M 973.5 2064 L 973 2065.5 L 971.5 2068 L 972 2066.5 L 973.5 2064 Z " /><path fill="rgb(51,114,164)" stroke="rgb(51,114,164)" stroke-width="1" opacity="0.996078431372549" d="M 965.5 2076 L 964 2078.5 L 960.5 2085 L 960 2083.5 L 965.5 2076 Z " /><path fill="rgb(51,114,164)" stroke="rgb(51,114,164)" stroke-width="1" opacity="0.996078431372549" d="M 959.5 2086 L 957.5 2089 L 959.5 2086 Z " /><path fill="rgb(51,114,164)" stroke="rgb(51,114,164)" stroke-width="1" opacity="0.996078431372549" d="M 955.5 2092 L 954.5 2094 L 955.5 2092 Z " /><path fill="rgb(51,114,164)" stroke="rgb(51,114,164)" stroke-width="1" opacity="0.996078431372549" d="M 951.5 2099 L 951 2100.5 L 950.5 2102 L 950 2100.5 L 951.5 2099 Z " /><path fill="rgb(51,114,164)" stroke="rgb(51,114,164)" stroke-width="1" opacity="0.996078431372549" d="M 949.5 2103 L 948 2105.5 L 947.5 2107 L 947 2105.5 L 949.5 2103 Z " /><path fill="rgb(51,114,164)" stroke="rgb(51,114,164)" stroke-width="1" opacity="0.996078431372549" d="M 945.5 2110 L 944.5 2112 L 945.5 2110 Z " /><path fill="rgb(51,114,164)" stroke="rgb(51,114,164)" stroke-width="1" opacity="0.996078431372549" d="M 940.5 2119 L 940 2120.5 L 938.5 2124 L 938 2122.5 L 940.5 2119 Z " /><path fill="rgb(51,114,164)" stroke="rgb(51,114,164)" stroke-width="1" opacity="0.996078431372549" d="M 937.5 2125 L 937 2126.5 L 935.5 2130 L 935 2128.5 L 937.5 2125 Z " /><path fill="rgb(51,114,164)" stroke="rgb(51,114,164)" stroke-width="1" opacity="0.996078431372549" d="M 931.5 2137 L 931 2138.5 L 930.5 2140 L 930 2138.5 L 931.5 2137 Z " /><path fill="rgb(51,114,164)" stroke="rgb(51,114,164)" stroke-width="1" opacity="0.996078431372549" d="M 927.5 2146 L 927 2147.5 L 924.5 2153 L 925 2151.5 L 927.5 2146 Z " /><path fill="rgb(51,114,164)" stroke="rgb(51,114,164)" stroke-width="1" opacity="0.996078431372549" d="M 923.5 2154 L 924 2155.5 L 922.5 2158 L 922 2156.5 L 923.5 2154 Z " /><path fill="rgb(51,114,164)" stroke="rgb(51,114,164)" stroke-width="1" opacity="0.996078431372549" d="M 920.5 2162 L 921 2163.5 L 918.5 2168 L 918 2166.5 L 920.5 2162 Z " /><path fill="rgb(51,114,164)" stroke="rgb(51,114,164)" stroke-width="1" opacity="0.996078431372549" d="M 908.5 2194 L 907.5 2196 L 908.5 2194 Z " /><path fill="rgb(51,114,164)" stroke="rgb(51,114,164)" stroke-width="1" opacity="0.996078431372549" d="M 907.5 2197 L 906.5 2199 L 907.5 2197 Z " /><path fill="rgb(51,114,164)" stroke="rgb(51,114,164)" stroke-width="1" opacity="0.996078431372549" d="M 893.5 2242 L 894 2244.5 L 893 2244.5 L 893.5 2242 Z " /><path fill="rgb(51,114,164)" stroke="rgb(51,114,164)" stroke-width="1" opacity="0.996078431372549" d="M 155.5 2622 L 157 2624.5 L 155 2623.5 L 155.5 2622 Z " /><path fill="rgb(51,114,164)" stroke="rgb(51,114,164)" stroke-width="1" opacity="0.996078431372549" d="M 158.5 2627 L 164 2635.5 L 162 2634.5 L 158 2628.5 L 158.5 2627 Z " /><path fill="rgb(51,114,164)" stroke="rgb(51,114,164)" stroke-width="1" opacity="0.996078431372549" d="M 164.5 2637 L 166.5 2640 L 164.5 2637 Z " /><path fill="rgb(51,114,164)" stroke="rgb(51,114,164)" stroke-width="1" opacity="0.996078431372549" d="M 167.5 2641 L 171 2645.5 L 167 2642.5 L 167.5 2641 Z " /><path fill="rgb(51,114,164)" stroke="rgb(51,114,164)" stroke-width="1" opacity="0.996078431372549" d="M 171.5 2647 L 172.5 2649 L 171.5 2647 Z " /><path fill="rgb(51,114,164)" stroke="rgb(51,114,164)" stroke-width="1" opacity="0.996078431372549" d="M 174.5 2651 L 178 2655.5 L 176 2656 L 174.5 2651 Z " /><path fill="rgb(51,114,164)" stroke="rgb(51,114,164)" stroke-width="1" opacity="0.996078431372549" d="M 178.5 2657 L 179.5 2659 L 178.5 2657 Z " /><path fill="rgb(51,114,164)" stroke="rgb(51,114,164)" stroke-width="1" opacity="0.996078431372549" d="M 180.5 2660 L 186 2666.5 L 184 2667 L 180.5 2660 Z " /><path fill="rgb(51,114,164)" stroke="rgb(51,114,164)" stroke-width="1" opacity="0.996078431372549" d="M 186.5 2668 L 191 2673.5 L 189 2674 L 186.5 2668 Z " /><path fill="rgb(51,114,164)" stroke="rgb(51,114,164)" stroke-width="1" opacity="0.996078431372549" d="M 193.5 2677 Q 217.5 2709.5 246 2737.5 L 245 2737.5 Q 245.8 2735.3 243.5 2736 L 239.5 2731 L 236.5 2729 L 232.5 2724 Q 230.3 2724.8 231 2722.5 L 221 2712.5 L 221 2711 Q 218.3 2712.1 219 2709.5 L 216 2705 Q 213.3 2706.1 214 2703.5 L 199 2686.5 L 193 2678.5 L 193.5 2677 Z " /><path fill="rgb(51,114,164)" stroke="rgb(51,114,164)" stroke-width="1" opacity="0.996078431372549" d="M 249.5 2740 L 250.5 2742 L 249.5 2740 Z " /><path fill="rgb(51,114,164)" stroke="rgb(51,114,164)" stroke-width="1" opacity="0.996078431372549" d="M 253.5 2744 L 265 2754.5 L 263.5 2754 L 253.5 2744 Z " /><path fill="rgb(51,114,164)" stroke="rgb(51,114,164)" stroke-width="1" opacity="0.996078431372549" d="M 270.5 2760 L 273 2761 L 272.5 2763 L 270.5 2760 Z " /><path fill="rgb(51,114,164)" stroke="rgb(51,114,164)" stroke-width="1" opacity="0.996078431372549" d="M 274.5 2763 L 276.5 2766 L 274.5 2763 Z " /><path fill="rgb(51,114,164)" stroke="rgb(51,114,164)" stroke-width="1" opacity="0.996078431372549" d="M 282.5 2769 L 285.5 2773 L 282.5 2769 Z " /><path fill="rgb(51,114,164)" stroke="rgb(51,114,164)" stroke-width="1" opacity="0.996078431372549" d="M 287.5 2774 L 295 2779.5 L 291.5 2777 Q 286.8 2776.2 287.5 2774 Z " /><path fill="rgb(51,114,164)" stroke="rgb(51,114,164)" stroke-width="1" opacity="0.996078431372549" d="M 296.5 2780 L 298.5 2783 L 296.5 2780 Z " /><path fill="rgb(51,114,164)" stroke="rgb(51,114,164)" stroke-width="1" opacity="0.996078431372549" d="M 319.5 2796 L 320.5 2798 L 319.5 2796 Z " /><path fill="rgb(51,114,164)" stroke="rgb(51,114,164)" stroke-width="1" opacity="0.996078431372549" d="M 344.5 2811 L 345.5 2813 L 344.5 2811 Z " /><path fill="rgb(51,108,155)" stroke="rgb(51,108,155)" stroke-width="1" opacity="0.996078431372549" d="M 2857.5 664 L 2858 1357.5 L 2857 1359.5 L 2857 1361.5 L 2856 1410.5 L 2855 1411.5 L 2854 1432.5 L 2853 1433.5 L 2853 1440.5 L 2852 1441.5 L 2849 1468.5 L 2837 1522.5 L 2825 1559.5 Q 2810.7 1598.2 2791 1631.5 L 2767 1667.5 L 2737 1704 Q 2734.3 1702.9 2735 1705.5 L 2719.5 1721 L 2718 1721 Q 2719.1 1723.7 2716.5 1723 Q 2689.8 1749.3 2657.5 1770 Q 2624.9 1791.4 2587.5 1808 L 2547.5 1824 L 2513.5 1835 L 2474.5 1845 L 2432.5 1853 L 2403.5 1856 L 2402.5 1857 L 2394.5 1857 L 2393.5 1858 L 2368.5 1859 L 2367.5 1860 L 1764.5 1860 L 1784.5 1839 L 1788 1836.5 L 1790.5 1833 L 2085 1540.5 L 2088.5 1536 L 2381 1245.5 L 2389.5 1236 L 2689 938.5 L 2690.5 936 L 2857 770.5 L 2857.5 664 Z " /><path fill="rgb(51,108,155)" stroke="rgb(51,108,155)" stroke-width="1" opacity="0.996078431372549" d="M 227.5 2719 L 228.5 2721 L 227.5 2719 Z " /><path fill="rgb(51,108,155)" stroke="rgb(51,108,155)" stroke-width="1" opacity="0.996078431372549" d="M 872.5 2748 L 873 2865 L 840.5 2865 L 839.5 2864 L 757 2863.5 L 872.5 2748 Z " /><path fill="rgb(255,211,65)" stroke="rgb(255,211,65)" stroke-width="1" opacity="0.996078431372549" d="M 3543.5 1060 L 3544.5 1062 L 3543.5 1060 Z " /><path fill="rgb(255,211,65)" stroke="rgb(255,211,65)" stroke-width="1" opacity="0.996078431372549" d="M 3565.5 1077 L 3567.5 1080 L 3565.5 1077 Z " /><path fill="rgb(255,211,65)" stroke="rgb(255,211,65)" stroke-width="1" opacity="0.996078431372549" d="M 3572.5 1083 L 3573.5 1085 L 3572.5 1083 Z " /><path fill="rgb(255,211,65)" stroke="rgb(255,211,65)" stroke-width="1" opacity="0.996078431372549" d="M 3579.5 1089 L 3580.5 1091 L 3579.5 1089 Z " /><path fill="rgb(255,211,65)" stroke="rgb(255,211,65)" stroke-width="1" opacity="0.996078431372549" d="M 3593.5 1103 Q 3595.8 1102.3 3595 1104.5 L 3593.5 1103 Z " /><path fill="rgb(255,211,65)" stroke="rgb(255,211,65)" stroke-width="1" opacity="0.996078431372549" d="M 3596.5 1105 L 3597.5 1107 Q 3594.7 1107.7 3596.5 1105 Z " /><path fill="rgb(255,211,65)" stroke="rgb(255,211,65)" stroke-width="1" opacity="0.996078431372549" d="M 3599.5 1108 L 3602 1111.5 L 3600 1110.5 L 3599.5 1108 Z " /><path fill="rgb(255,211,65)" stroke="rgb(255,211,65)" stroke-width="1" opacity="0.996078431372549" d="M 3603.5 1112 L 3604.5 1114 L 3603.5 1112 Z " /><path fill="rgb(255,211,65)" stroke="rgb(255,211,65)" stroke-width="1" opacity="0.996078431372549" d="M 3615.5 1125 L 3617.5 1128 L 3615.5 1125 Z " /><path fill="rgb(255,211,65)" stroke="rgb(255,211,65)" stroke-width="1" opacity="0.996078431372549" d="M 3624.5 1136 L 3630 1140.5 Q 3627.8 1141.8 3630.5 1143 L 3633 1144.5 L 3632.5 1146 L 3635 1146.5 Q 3632.3 1148.2 3636.5 1150 Q 3639.1 1149.2 3638 1152.5 L 3640 1152.5 Q 3637.8 1153.8 3640.5 1155 L 3644 1157.5 L 3650 1165.5 L 3650 1168 L 3654 1170.5 L 3664 1184.5 L 3664 1187 Q 3666.7 1185.9 3666 1188.5 L 3672 1198 Q 3674.7 1196.9 3674 1199.5 L 3685 1215.5 L 3706 1251.5 L 3727 1292.5 L 3733 1305.5 L 3733 1308.5 L 3738 1316.5 Q 3735.5 1318 3739 1319.5 L 3740 1321.5 L 3739 1323.5 L 3743 1328.5 L 3742 1329.5 Q 3745.1 1331.3 3743.5 1333 L 3745 1333.5 L 3745 1335.5 Q 3744 1339.3 3747 1338 L 3747 1341.5 L 3749 1344.5 L 3748 1345.5 L 3751 1348.5 Q 3750.4 1353.1 3753 1354.5 L 3752.5 1356 Q 3754.8 1355.3 3754 1357.5 L 3756 1361.5 L 3757 1365.5 Q 3754.5 1367 3758 1368.5 L 3761 1378.5 L 3763 1380.5 Q 3760.5 1382 3764 1383.5 L 3768 1396.5 L 3767 1396.5 Q 3767.8 1394.3 3765.5 1395 L 2377.5 2844 L 1988 2843.5 L 3624.5 1136 Z " /><path fill="rgb(255,211,65)" stroke="rgb(255,211,65)" stroke-width="1" opacity="0.996078431372549" d="M 2877.5 1760 L 2876.5 1762 L 2877.5 1760 Z " /><path fill="rgb(255,211,65)" stroke="rgb(255,211,65)" stroke-width="1" opacity="0.996078431372549" d="M 2857.5 1789 L 2855.5 1792 L 2857.5 1789 Z " /><path fill="rgb(255,211,65)" stroke="rgb(255,211,65)" stroke-width="1" opacity="0.996078431372549" d="M 2831.5 1821 L 2830.5 1823 L 2831.5 1821 Z " /><path fill="rgb(255,211,65)" stroke="rgb(255,211,65)" stroke-width="1" opacity="0.996078431372549" d="M 2815.5 1838 L 2811.5 1843 L 2815.5 1838 Z " /><path fill="rgb(255,211,65)" stroke="rgb(255,211,65)" stroke-width="1" opacity="0.996078431372549" d="M 2784.5 1866 L 2783.5 1868 L 2784.5 1866 Z " /><path fill="rgb(255,211,65)" stroke="rgb(255,211,65)" stroke-width="1" opacity="0.996078431372549" d="M 2761.5 1884 L 2760.5 1886 L 2761.5 1884 Z " /><path fill="rgb(255,211,65)" stroke="rgb(255,211,65)" stroke-width="1" opacity="0.996078431372549" d="M 2748.5 1893 L 2747.5 1895 L 2748.5 1893 Z " /><path fill="rgb(255,211,65)" stroke="rgb(255,211,65)" stroke-width="1" opacity="0.996078431372549" d="M 2734.5 1902 L 2733.5 1904 L 2734.5 1902 Z " /><path fill="rgb(255,211,65)" stroke="rgb(255,211,65)" stroke-width="1" opacity="0.996078431372549" d="M 2724.5 1908 L 2723.5 1910 L 2724.5 1908 Z " /><path fill="rgb(255,211,65)" stroke="rgb(255,211,65)" stroke-width="1" opacity="0.996078431372549" d="M 2717.5 1912 L 2716.5 1914 L 2717.5 1912 Z " /><path fill="rgb(255,211,65)" stroke="rgb(255,211,65)" stroke-width="1" opacity="0.996078431372549" d="M 2700.5 1921 L 2699.5 1923 L 2700.5 1921 Z " /><path fill="rgb(255,211,65)" stroke="rgb(255,211,65)" stroke-width="1" opacity="0.996078431372549" d="M 2692.5 1925 L 2691.5 1927 L 2692.5 1925 Z " /><path fill="rgb(255,211,65)" stroke="rgb(255,211,65)" stroke-width="1" opacity="0.996078431372549" d="M 3622.5 2675 L 3621.5 2677 L 3622.5 2675 Z " /><path fill="rgb(255,211,65)" stroke="rgb(255,211,65)" stroke-width="1" opacity="0.996078431372549" d="M 3600.5 2697 L 3599.5 2699 L 3600.5 2697 Z " /><path fill="rgb(255,211,65)" stroke="rgb(255,211,65)" stroke-width="1" opacity="0.996078431372549" d="M 1908.5 2927 L 1909 2976 L 2251 2976.5 L 1497 3762.5 L 1466.5 3796 L 1458.5 3793 L 1456.5 3793 L 1454.5 3792 L 1453 3792.5 L 1452.5 3791 L 1448.5 3791 L 1446.5 3790 L 1445 3790.5 L 1444.5 3789 L 1440.5 3789 L 1429.5 3787 L 1426.5 3785 L 1425.5 3786 L 1421.5 3784 Q 1417.1 3785.5 1418 3782.5 L 1415.5 3782 Q 1410.2 3782.8 1408.5 3780 L 1406.5 3780 L 1401.5 3778 L 1399.5 3778 L 1394.5 3776 L 1392.5 3776 L 1381.5 3772 Q 1380 3774.5 1378.5 3771 L 1373.5 3769 L 1371.5 3770 L 1339.5 3758 Q 1338 3760.5 1336.5 3757 L 1328.5 3755 L 1288.5 3739 L 1267.5 3728 Q 1266 3730.5 1264.5 3727 L 1236 3714 L 1235.5 3712 L 1234 3712.5 L 1233.5 3711 L 1231.5 3711 Q 1228.9 3711.7 1230 3709 L 1227.5 3709 L 1222.5 3705 L 1221 3705.5 L 1220.5 3704 L 1218.5 3704 L 1216 3702.5 L 1215.5 3701 Q 1214 3703.5 1212.5 3700 L 1204 3695.5 Q 1204.8 3692.9 1201.5 3694 L 1199 3693 Q 1200.3 3690 1196.5 3691 L 1194 3690 Q 1195.1 3687.3 1192.5 3688 L 1188 3685.5 L 1187.5 3684 Q 1185.8 3686.8 1184 3682.5 L 1908.5 2927 Z " /><path fill="rgb(255,211,65)" stroke="rgb(255,211,65)" stroke-width="1" opacity="0.996078431372549" d="M 2336.5 3245 L 2335.5 3247 L 2336.5 3245 Z " /><path fill="rgb(255,211,65)" stroke="rgb(255,211,65)" stroke-width="1" opacity="0.996078431372549" d="M 2327.5 3253 L 2326.5 3255 L 2327.5 3253 Z " /><path fill="rgb(255,211,65)" stroke="rgb(255,211,65)" stroke-width="1" opacity="0.996078431372549" d="M 2555.5 3253 L 2556.5 3255 L 2555.5 3253 Z " /><path fill="rgb(255,211,65)" stroke="rgb(255,211,65)" stroke-width="1" opacity="0.996078431372549" d="M 2319.5 3261 L 2318.5 3263 L 2319.5 3261 Z " /><path fill="rgb(255,211,65)" stroke="rgb(255,211,65)" stroke-width="1" opacity="0.996078431372549" d="M 2564.5 3262 L 2565.5 3264 L 2564.5 3262 Z " /><path fill="rgb(255,211,65)" stroke="rgb(255,211,65)" stroke-width="1" opacity="0.996078431372549" d="M 1045.5 3547 L 1046.5 3549 L 1045.5 3547 Z " /><path fill="rgb(255,211,65)" stroke="rgb(255,211,65)" stroke-width="1" opacity="0.996078431372549" d="M 1056.5 3563 L 1057.5 3565 L 1056.5 3563 Z " /><path fill="rgb(255,211,65)" stroke="rgb(255,211,65)" stroke-width="1" opacity="0.996078431372549" d="M 1068.5 3579 L 1069.5 3581 L 1068.5 3579 Z " /><path fill="rgb(255,211,65)" stroke="rgb(255,211,65)" stroke-width="1" opacity="0.996078431372549" d="M 1078.5 3591 L 1081.5 3595 L 1078.5 3591 Z " /><path fill="rgb(255,211,65)" stroke="rgb(255,211,65)" stroke-width="1" opacity="0.996078431372549" d="M 1088.5 3602 L 1089.5 3604 L 1088.5 3602 Z " /><path fill="rgb(255,211,65)" stroke="rgb(255,211,65)" stroke-width="1" opacity="0.996078431372549" d="M 2770.5 3608 L 2769.5 3610 L 2770.5 3608 Z " /><path fill="rgb(255,211,65)" stroke="rgb(255,211,65)" stroke-width="1" opacity="0.996078431372549" d="M 1098.5 3613 L 1099.5 3615 L 1098.5 3613 Z " /><path fill="rgb(255,211,65)" stroke="rgb(255,211,65)" stroke-width="1" opacity="0.996078431372549" d="M 1112.5 3626 L 1115.5 3630 L 1112.5 3626 Z " /><path fill="rgb(255,211,65)" stroke="rgb(255,211,65)" stroke-width="1" opacity="0.996078431372549" d="M 1123.5 3636 L 1124.5 3638 L 1123.5 3636 Z " /><path fill="rgb(255,211,65)" stroke="rgb(255,211,65)" stroke-width="1" opacity="0.996078431372549" d="M 1137.5 3648 L 1141 3650.5 L 1139.5 3651 L 1137.5 3648 Z " /><path fill="rgb(255,211,65)" stroke="rgb(255,211,65)" stroke-width="1" opacity="0.996078431372549" d="M 1147.5 3656 L 1148.5 3658 L 1147.5 3656 Z " /><path fill="rgb(255,211,65)" stroke="rgb(255,211,65)" stroke-width="1" opacity="0.996078431372549" d="M 1153.5 3661 Q 1155.8 3660.3 1155 3662.5 L 1153.5 3661 Z " /><path fill="rgb(255,211,65)" stroke="rgb(255,211,65)" stroke-width="1" opacity="0.996078431372549" d="M 1163.5 3668 L 1166 3669.5 L 1164.5 3670 L 1163.5 3668 Z " /><path fill="rgb(255,211,65)" stroke="rgb(255,211,65)" stroke-width="1" opacity="0.996078431372549" d="M 1170.5 3673 Q 1172.8 3672.3 1172 3674.5 L 1170.5 3673 Z " /><path fill="rgb(255,211,65)" stroke="rgb(255,211,65)" stroke-width="1" opacity="0.996078431372549" d="M 1179.5 3679 L 1182 3680 L 1181.5 3682 L 1179.5 3679 Z " /><path fill="rgb(52,114,163)" stroke="rgb(52,114,163)" stroke-width="1" opacity="1" d="M 2635.5 143 L 2646.5 150 L 2648 149.5 L 2647.5 151 L 2683.5 175 Q 2684.7 172.7 2686 175.5 L 2688.5 179 L 2706.5 193 L 2708 192.5 L 2707.5 194 Q 2726.1 207.9 2741.5 225 Q 2742.8 222.7 2744 225.5 Q 2741.3 227.3 2745.5 229 L 2747 228.5 L 2746 229.5 L 2757.5 241 Q 2760.1 240.2 2759 243.5 L 2761 243.5 L 2760 244.5 L 2766 250.5 L 2768 253.5 L 2769 256 Q 2771.7 254.9 2771 257.5 L 2776 265 Q 2778.7 263.9 2778 266.5 L 2784.5 275 L 2786 275.5 L 2785.5 277 Q 2787.8 276.3 2787 278.5 L 2793 288 L 2795 288.5 Q 2792.5 290 2796 291.5 Q 2795.3 293.8 2797.5 293 L 2801 301 Q 2803.7 299.9 2803 302.5 L 2810 314.5 L 2810 317 Q 2812.7 315.9 2812 318.5 L 2819 331.5 L 2819 334.5 L 2823 339.5 L 2822.5 341 L 2824 341.5 L 2823 344 L 2826 345.5 L 2825 347.5 L 2831 363 L 2833 363.5 L 2833 365.5 L 2834 367.5 L 2834 369.5 L 2766.5 437 L 2763 439.5 L 2760.5 443 L 2466 735.5 L 2462.5 740 L 2457 744.5 Q 2457.8 746.8 2455.5 746 L 2170.5 1031 L 2169 1031 L 2164.5 1037 L 2159 1041.5 Q 2159.8 1043.8 2157.5 1043 L 1861 1338.5 L 1858.5 1342 L 1562 1636.5 L 1560.5 1639 L 1333.5 1864 L 1331.5 1864 L 1328.5 1865 L 1326.5 1865 Q 1320.3 1863.3 1318.5 1866 L 1314.5 1866 L 1311.5 1867 L 1307.5 1867 L 1305.5 1868 L 1299.5 1868 L 1285.5 1871 L 1283.5 1871 L 1266.5 1875 L 1264.5 1875 L 1261.5 1876 L 1259.5 1876 L 1257.5 1877 L 1255.5 1876 L 1247.5 1879 L 1245.5 1879 L 1232.5 1883 Q 1231 1880.5 1229.5 1884 L 1225.5 1885 L 1223.5 1885 L 1216.5 1888 L 1208 1889 Q 1209.3 1892 1205.5 1891 L 1203.5 1892 L 1202 1891.5 Q 1202.9 1894.9 1197.5 1893 L 1194 1894 L 1193.5 1896 L 1191.5 1896 L 1186 1897 L 1185.5 1899 L 1183.5 1899 Q 1174.6 1900.1 1169.5 1905 L 1166 1905 L 1165.5 1907 L 1163.5 1907 L 1143.5 1917 Q 1142 1914.5 1140.5 1918 L 1136.5 1921 L 1135 1920.5 L 1134.5 1922 L 1133 1921.5 L 1132.5 1923 L 1130.5 1923 L 1122 1927 L 1121.5 1929 L 1119.5 1929 Q 1116.9 1928.3 1118 1931 L 1115.5 1931 L 1113 1932 L 1111.5 1935 L 1108.5 1935 L 1104 1938.5 L 1103.5 1940 L 1102 1939.5 L 1101.5 1941 L 1100 1940.5 L 1098.5 1943 L 1094.5 1944 L 1081 1953 L 1079.5 1956 L 1077 1956 Q 1078.3 1959 1074.5 1958 L 1065 1965 Q 1066.1 1967.7 1063.5 1967 L 1054 1974 L 1052.5 1977 L 1049.5 1979 L 1044 1983 Q 1045.1 1985.7 1042.5 1985 L 1040 1986 L 1037.5 1991 L 1036 1990.5 L 1032.5 1995 L 1027 1999.5 Q 1027.8 2001.8 1025.5 2001 L 1024 2004 Q 1021.3 2002.9 1022 2005.5 L 1016 2010 Q 1017 2013 1014 2012 L 1014 2015 L 1012.5 2015 L 1007.5 2021 L 1006 2021 Q 1007.5 2024.8 1004.5 2024 L 1001.5 2028 L 1000 2028.5 L 1000.5 2030 L 997 2032.5 L 995 2035.5 L 991 2042 L 989 2042 L 989 2044 Q 986.3 2042.9 987 2045.5 L 986 2048 Q 983.3 2046.9 984 2049.5 L 983 2052 Q 980.3 2050.9 981 2053.5 L 980 2056 Q 977.3 2054.9 978 2057.5 Q 972 2063 970 2071 Q 967 2069.8 968 2073.5 L 963 2078.5 Q 960 2087.5 954 2093.5 L 954 2095.5 L 939 2120.5 L 935 2128.5 L 935 2131.5 L 930 2138.5 L 930 2142.5 L 924 2152.5 L 924.5 2154 Q 922.3 2153.3 923 2155.5 L 923.5 2157 L 922 2156.5 L 922 2159.5 L 915 2174.5 L 915 2176.5 L 913 2183.5 L 911 2185.5 L 911.5 2187 Q 908.9 2186.2 910 2189.5 L 908 2193.5 L 907 2195.5 L 907 2199.5 L 904 2209.5 L 901 2214.5 L 898 2229.5 L 896 2231.5 L 896 2233.5 L 895 2240.5 L 893 2242.5 L 893 2248.5 L 889 2260.5 L 888 2268.5 L 886 2272.5 L 886 2274.5 L 885 2276.5 L 886 2278.5 L 884 2284.5 Q 886.5 2286 883 2287.5 L 884 2290.5 Q 881.4 2291.9 882 2296.5 L 882.5 2298 L 881 2298.5 L 881 2300.5 L 880 2305.5 L 880 2307.5 L 879 2312.5 L 879 2314.5 L 879 2317.5 L 669.5 2527 Q 667.3 2526.3 668 2528.5 L 662 2533.5 L 660.5 2536 L 371.5 2824 L 368.5 2824 L 366 2823.5 L 365.5 2822 L 364 2822.5 L 363.5 2821 L 362 2821.5 L 361.5 2820 L 360 2820.5 L 359.5 2819 L 358 2819.5 Q 358.8 2816.9 355.5 2818 L 344.5 2811 L 343 2811.5 Q 343.9 2808.5 339.5 2810 L 328 2803 L 327.5 2801 Q 326 2803.5 324.5 2800 L 321.5 2798 Q 319.6 2794.4 315 2795 L 315 2793 Q 311.3 2794.5 312 2791.5 L 301 2785 Q 302.1 2782.3 299.5 2783 L 283.5 2770 Q 282.3 2772.3 281 2769.5 Q 281.8 2767.3 279.5 2768 L 273 2763 Q 274.1 2760.3 271.5 2761 L 267 2758 L 267 2756 Q 264.3 2757.1 265 2754.5 L 251 2742.5 L 249.5 2740 L 246 2737.5 L 245.5 2736 L 244 2736.5 L 245 2735.5 L 241.5 2732 Q 240.3 2734.3 239 2731.5 Q 241.3 2730.3 238.5 2729 L 237 2729.5 L 238 2728.5 L 225 2715.5 L 216.5 2705 L 215 2705.5 L 216 2704.5 L 211 2699.5 L 197.5 2682 L 196 2682.5 Q 198.5 2681 195 2679.5 L 187.5 2669 L 186 2669.5 L 186 2667.5 L 179.5 2658 L 178 2658.5 L 178 2656.5 L 173.5 2650 L 172 2649.5 Q 174.5 2648 171 2646.5 L 167.5 2641 L 166 2640.5 Q 168.5 2639 165 2637.5 L 158.5 2627 L 157 2626.5 L 157 2624.5 L 153 2617.5 L 437 2334.5 L 440.5 2330 L 445 2326.5 Q 444.3 2324.3 446.5 2325 L 732.5 2039 L 734 2039 L 738.5 2033 L 742 2030.5 L 744.5 2027 L 1037 1736.5 L 1040.5 1732 L 1047 1726.5 Q 1046.3 1724.3 1048.5 1725 L 1337 1437.5 L 1342.5 1431 L 1779.5 996 L 1931 996 L 1931 868.5 L 1930 864 L 1912 863.5 L 1943 833.5 L 1944.5 831 L 2245 532.5 L 2246.5 530 L 2635.5 143 Z " /><path fill="rgb(255,220,75)" stroke="rgb(255,220,75)" stroke-width="1" opacity="0.996078431372549" d="M 2967 975 L 3101 975.5 L 3096.5 976 L 3086 986.5 L 2968 1110.5 L 2967.5 1235 L 2967 975 Z " /><path fill="rgb(255,220,75)" stroke="rgb(255,220,75)" stroke-width="1" opacity="0.996078431372549" d="M 3313.5 975 L 3316 975.5 L 3313.5 976 L 3313.5 975 Z " /><path fill="rgb(255,220,75)" stroke="rgb(255,220,75)" stroke-width="1" opacity="0.996078431372549" d="M 3570.5 1081 L 3571.5 1083 L 3570.5 1081 Z " /><path fill="rgb(255,220,75)" stroke="rgb(255,220,75)" stroke-width="1" opacity="0.996078431372549" d="M 2845.5 1804 L 2844.5 1806 L 2845.5 1804 Z " /><path fill="rgb(255,220,75)" stroke="rgb(255,220,75)" stroke-width="1" opacity="0.996078431372549" d="M 2827.5 1825 L 2824.5 1829 L 2827.5 1825 Z " /><path fill="rgb(255,220,75)" stroke="rgb(255,220,75)" stroke-width="1" opacity="0.996078431372549" d="M 2802.5 1850 L 2801.5 1852 L 2802.5 1850 Z " /><path fill="rgb(255,220,75)" stroke="rgb(255,220,75)" stroke-width="1" opacity="0.996078431372549" d="M 2433.5 1979 L 2437 1979.5 L 2433.5 1980 L 2433.5 1979 Z " /><path fill="rgb(255,220,75)" stroke="rgb(255,220,75)" stroke-width="1" opacity="0.996078431372549" d="M 1473.5 1980 L 2134 1980.5 L 982.5 3183 L 982 2477.5 L 983 2476.5 L 983 2444.5 L 984 2443.5 L 985 2417.5 L 986 2416.5 L 987 2399.5 L 991 2378.5 L 991 2372.5 L 1003 2319.5 L 1019 2272.5 Q 1055.7 2182.2 1121.5 2121 Q 1182.7 2063.2 1266.5 2028 L 1324.5 2007 L 1369.5 1995 L 1417.5 1986 L 1448.5 1983 L 1449.5 1982 L 1458.5 1982 L 1459.5 1981 L 1472.5 1981 L 1473.5 1980 Z " /><path fill="rgb(255,220,75)" stroke="rgb(255,220,75)" stroke-width="1" opacity="0.996078431372549" d="M 1076.5 3589 L 1077.5 3591 L 1076.5 3589 Z " /><path fill="rgb(255,220,75)" stroke="rgb(255,220,75)" stroke-width="1" opacity="0.996078431372549" d="M 1100.5 3615 L 1105.5 3621 L 1100.5 3615 Z " /><path fill="rgb(255,220,75)" stroke="rgb(255,220,75)" stroke-width="1" opacity="0.996078431372549" d="M 1108.5 3623 L 1109.5 3625 L 1108.5 3623 Z " /><path fill="rgb(255,220,75)" stroke="rgb(255,220,75)" stroke-width="1" opacity="0.996078431372549" d="M 1120.5 3634 L 1121.5 3636 L 1120.5 3634 Z " /><path fill="rgb(255,220,75)" stroke="rgb(255,220,75)" stroke-width="1" opacity="0.996078431372549" d="M 1134.5 3646 L 1135.5 3648 L 1134.5 3646 Z " /><path fill="rgb(255,213,67)" stroke="rgb(255,213,67)" stroke-width="1" opacity="0.996078431372549" d="M 3434.5 1001 L 3435.5 1003 L 3434.5 1001 Z " /><path fill="rgb(255,213,67)" stroke="rgb(255,213,67)" stroke-width="1" opacity="0.996078431372549" d="M 3466.5 1015 L 3473.5 1019 L 3475 1018.5 Q 3474.2 1021.1 3477.5 1020 Q 3479.4 1023.6 3484 1023 L 3484.5 1025 L 3486.5 1025 Q 3488.8 1024.3 3488 1026.5 L 3490 1026.5 Q 3489.3 1028.8 3491.5 1028 L 3497 1030 L 3497.5 1032 L 3499 1031.5 Q 3498.3 1033.8 3500.5 1033 L 3504 1034.5 Q 3503.2 1037.1 3506.5 1036 L 3509 1037 L 3509.5 1039 Q 3511 1036.5 3512.5 1040 Q 3514.8 1039.3 3514 1041.5 L 3516 1041.5 L 3517.5 1044 L 3518.5 1043 L 3522.5 1047 Q 3523.8 1044.8 3525 1047.5 L 3525.5 1049 L 3527 1048.5 L 3528.5 1051 L 3535 1054.5 L 3535.5 1056 Q 3536.8 1053.8 3538 1056.5 L 3538 1058 L 3541 1058 Q 3539.9 1060.7 3542.5 1060 L 3557 1070 Q 3555.9 1072.7 3558.5 1072 L 3583 1092.5 Q 3582.3 1095.1 3585 1094 L 3585 1096 L 3586.5 1096 L 3594 1102.5 Q 3591.8 1103.8 3594.5 1105 Q 3597.1 1104.3 3596 1107 L 3599 1107 L 3599 1108.5 L 3601.5 1112 L 3603 1111.5 L 3605 1116 L 3608 1117.5 L 3608.5 1119 L 3610 1118.5 L 3618.5 1129 L 3621 1130.5 L 3622 1134 L 3625 1135.5 L 1987.5 2844 L 1910 2844 L 1910 2975.5 L 1909 2975.5 L 1908.5 2927 L 1183.5 3683 L 1182 3680 L 1172 3674.5 Q 1172.8 3671.9 1169.5 3673 L 1166 3670.5 Q 1166.8 3668.3 1164.5 3669 L 1160 3667 Q 1161.1 3664.3 1158.5 3665 L 1155 3663 L 1155 3661 L 1152 3661 Q 1153.1 3658.3 1150.5 3659 L 1146 3656 L 1146 3654 L 1143 3654 L 1143 3652 L 1141 3652 Q 1142.1 3649.3 1139.5 3650 L 1125 3638.5 L 1123.5 3636 L 1101 3615.5 L 1099.5 3613 L 1096.5 3611 L 1092.5 3606 L 1090 3604.5 L 1088.5 3602 L 1086 3600.5 L 1085 3597 L 1082 3595.5 L 1075 3586 Q 1072.3 3587.1 1073 3584.5 L 1072 3582 Q 1069.3 3583.1 1070 3580.5 L 1067.5 3577 L 1066 3577 L 1066 3574 Q 1063.3 3575.1 1064 3572.5 L 1061.5 3569 Q 1058.9 3569.8 1060 3566.5 L 1057 3562 Q 1054.3 3563.1 1055 3560.5 L 1054 3558 Q 1051.3 3559.1 1052 3556.5 L 1048.5 3551 Q 1045.9 3551.8 1047 3548.5 L 1046 3546 L 1044 3545.5 L 1057 3533.5 L 2542 1983.5 L 2554 1969 L 2556.5 1970 L 2559.5 1968 L 2563 1969 L 2563.5 1967 L 2566.5 1968 L 2579.5 1964 L 2581.5 1965 L 2592.5 1961 L 2594.5 1961 Q 2598.1 1958.1 2605.5 1959 L 2607.5 1957 L 2609.5 1957 L 2611.5 1956 L 2613.5 1956 L 2617.5 1954 L 2619.5 1955 L 2623.5 1953 L 2627.5 1951 L 2628.5 1952 L 2630.5 1950 L 2634.5 1950 Q 2636.8 1950.8 2636 1948.5 Q 2637.8 1950.1 2639.5 1947 L 2640.5 1948 L 2642.5 1946 Q 2647.5 1947 2648.5 1944 L 2650 1944.5 L 2650.5 1943 L 2652.5 1943 L 2656.5 1941 Q 2658 1943.5 2659.5 1940 L 2678.5 1933 L 2703.5 1920 L 2706 1920 L 2706.5 1918 Q 2708 1920.5 2709.5 1917 L 2713.5 1916 L 2728.5 1906 L 2731 1906 L 2731.5 1904 L 2732.5 1905 L 2735.5 1902 L 2741 1900 Q 2739.9 1897.3 2742.5 1898 L 2753 1892 L 2754.5 1889 L 2765 1883 Q 2763.9 1880.3 2766.5 1881 L 2772 1877.5 Q 2771.3 1875.3 2773.5 1876 L 2776 1875 L 2777.5 1872 L 2787 1865.5 L 2788.5 1863 L 2794 1860 L 2795.5 1857 L 2806 1848.5 L 2807.5 1846 Q 2809.8 1846.8 2809 1844.5 L 2816 1838.5 L 2818 1835.5 L 2832 1821.5 L 2835 1816 Q 2837.7 1817.1 2837 1814.5 L 2842 1808 L 2845 1806.5 L 2852.5 1796 L 2854 1795.5 L 2853.5 1794 Q 2855.8 1794.8 2855 1792.5 L 2866 1778.5 L 2869 1772 Q 2872 1773.3 2871 1769.5 Q 2877.8 1764 2880 1755 Q 2883 1756.3 2882 1752.5 L 2888 1744.5 L 2889 1740 L 2891 1739.5 Q 2888.5 1738 2892 1736.5 L 2896 1727 Q 2899 1728.3 2898 1724.5 L 2902 1718.5 L 2901.5 1717 Q 2904.1 1717.8 2903 1714.5 L 2908 1706.5 L 2909 1701.5 L 2922 1674.5 L 2922 1671.5 L 2924 1669.5 L 2925 1663.5 L 2927 1661.5 L 2927 1659.5 L 2931 1646 L 2933 1645.5 L 2932 1644.5 L 2934 1642.5 L 2933 1641.5 L 2935 1639.5 L 2934 1638.5 L 2936 1634.5 L 2937 1632.5 Q 2934.5 1631 2938 1629.5 L 2939 1626.5 L 2938 1625.5 L 2941 1620.5 L 2942 1616.5 L 2941 1614.5 L 2944 1609.5 L 2943 1607.5 Q 2946.5 1606 2944 1604.5 L 2946 1601.5 Q 2943.5 1600 2947 1598.5 L 2948 1593.5 L 2948 1591.5 L 2950 1585.5 L 2950 1583.5 L 2951 1581.5 L 2950 1579.5 L 2952 1577.5 Q 2950.6 1570.1 2954 1567.5 L 2953 1565.5 L 2955 1562.5 L 2954 1560.5 L 2956 1557.5 L 2955 1555.5 L 2957 1552.5 L 2956 1549 L 2957.5 1549 L 2976 1530.5 L 3468 1016.5 L 3466.5 1015 Z " /><path fill="rgb(255,213,67)" stroke="rgb(255,213,67)" stroke-width="1" opacity="0.996078431372549" d="M 3628.5 1140 L 3630.5 1143 L 3628.5 1140 Z " /><path fill="rgb(255,213,67)" stroke="rgb(255,213,67)" stroke-width="1" opacity="0.996078431372549" d="M 3634.5 1147 L 3636.5 1150 L 3634.5 1147 Z " /><path fill="rgb(255,213,67)" stroke="rgb(255,213,67)" stroke-width="1" opacity="0.996078431372549" d="M 3638.5 1152 L 3640.5 1155 L 3638.5 1152 Z " /><path fill="rgb(255,213,67)" stroke="rgb(255,213,67)" stroke-width="1" opacity="0.996078431372549" d="M 2966.5 1455 L 2967 1458.5 L 2966 1458.5 L 2966.5 1455 Z " /><path fill="rgb(255,213,67)" stroke="rgb(255,213,67)" stroke-width="1" opacity="0.996078431372549" d="M 2540.5 1971 L 2543 1971.5 L 2540.5 1972 L 2540.5 1971 Z " /><path fill="rgb(255,213,67)" stroke="rgb(255,213,67)" stroke-width="1" opacity="0.996078431372549" d="M 2500.5 1976 L 2503 1976.5 L 2500.5 1977 L 2500.5 1976 Z " /><path fill="rgb(255,213,67)" stroke="rgb(255,213,67)" stroke-width="1" opacity="0.996078431372549" d="M 2473.5 1978 L 2477 1978.5 L 2473.5 1979 L 2473.5 1978 Z " /><path fill="rgb(255,213,67)" stroke="rgb(255,213,67)" stroke-width="1" opacity="0.996078431372549" d="M 1034.5 3528 L 1036 3530.5 L 1035 3530.5 L 1034.5 3528 Z " /><path fill="rgb(255,213,67)" stroke="rgb(255,213,67)" stroke-width="1" opacity="0.996078431372549" d="M 1040.5 3539 L 1041.5 3541 L 1040.5 3539 Z " /><path fill="rgb(255,213,67)" stroke="rgb(255,213,67)" stroke-width="1" opacity="0.996078431372549" d="M 1190.5 3686 L 1191.5 3688 L 1190.5 3686 Z " /><path fill="rgb(255,213,67)" stroke="rgb(255,213,67)" stroke-width="1" opacity="0.996078431372549" d="M 1222.5 3705 L 1223.5 3707 L 1222.5 3705 Z " /><path fill="rgb(255,213,67)" stroke="rgb(255,213,67)" stroke-width="1" opacity="0.996078431372549" d="M 1267.5 3728 L 1270 3729.5 L 1268.5 3730 L 1267.5 3728 Z " /><path fill="rgb(255,205,56)" stroke="rgb(255,205,56)" stroke-width="1" opacity="0.996078431372549" d="M 3577.5 1087 L 3578.5 1089 L 3577.5 1087 Z " /><path fill="rgb(255,205,56)" stroke="rgb(255,205,56)" stroke-width="1" opacity="0.996078431372549" d="M 3829.5 1701 L 3830 1702.5 L 3829 1704.5 L 3829 1706.5 L 3829.5 1709 L 3831 1708.5 L 3830 1710.5 L 3830 1712.5 L 3831 1717.5 L 3830.5 1719 L 3832 1719.5 L 3832 1721.5 L 3831 1730.5 Q 3833.8 1731.3 3833 1735.5 L 3832 1738.5 L 3833 1740.5 L 3832 1742.5 L 3834 1742.5 L 3833 1744.5 L 3834 1748.5 L 3834 1750.5 L 3833 1755.5 L 3835 1759.5 L 3834 1763.5 L 3836 1770.5 L 3836 1777.5 L 3836 1781.5 L 3837 1793.5 L 3836 1796.5 L 3838 1805.5 L 3838 1807.5 L 3837 1816.5 L 3838 1817.5 L 3838 1827.5 L 3839 1828.5 L 3838 1830.5 L 3839 1831.5 L 3839 1839.5 L 3839 1841.5 L 3839 1855.5 L 3840 1856.5 L 3839 1858.5 L 3840 1860.5 L 3840 1862.5 L 3839 1864.5 L 3840 1865.5 L 3840 1876.5 L 3840 1878.5 L 3839 1881.5 L 3840 1882.5 L 3840 1988.5 L 3839 1991.5 L 3840 1994.5 L 3839 1995.5 L 3839 2016.5 L 3838 2017.5 L 3839 2020.5 L 3838 2021.5 L 3838 2040.5 L 3837 2041.5 L 3837 2043.5 L 3837 2058.5 L 3836 2059.5 L 3836 2072.5 L 3835 2073.5 L 3835 2086.5 L 3834 2087.5 L 3835 2089.5 L 3833 2100.5 L 3833 2102.5 L 3833 2112.5 L 3832 2113.5 L 3832 2123.5 L 3831 2124.5 L 3831 2133.5 L 3829 2142.5 L 3828 2160.5 L 3825 2175.5 L 3822 2205.5 L 3821 2206.5 L 3814 2253.5 L 3812 2259.5 L 3812 2264.5 L 3804 2302.5 L 3801 2311.5 L 3801 2315.5 L 3789 2358.5 L 3789 2362.5 L 3787 2365.5 L 3784 2379.5 L 3782 2382.5 L 3780 2392.5 L 3768 2425.5 L 3768 2428.5 L 3740 2497.5 L 3715 2547.5 L 3680 2604.5 L 3641 2656 Q 3638.3 2654.9 3639 2657.5 L 3624 2673.5 L 3624 2675 L 3621 2676.5 L 3601.5 2697 L 3599 2698.5 L 3599 2700 L 3597 2700 Q 3598.1 2702.7 3595.5 2702 Q 3541.1 2754.1 3469.5 2789 L 3430.5 2806 L 3396.5 2818 L 3360.5 2828 L 3321.5 2836 L 3315.5 2836 L 3293.5 2840 L 3286.5 2840 L 3285.5 2841 L 3277.5 2841 L 3276.5 2842 L 3249.5 2843 L 3248.5 2844 L 2735.5 2844 L 2742 2836.5 L 3829.5 1701 Z " /><path fill="rgb(255,205,56)" stroke="rgb(255,205,56)" stroke-width="1" opacity="0.996078431372549" d="M 2607.5 2976 L 2845 2976 L 2845 3415.5 L 2844 3416.5 L 2844 3439.5 L 2843 3440.5 L 2841 3464.5 L 2836 3487.5 L 2828 3512.5 L 2820 3532.5 L 2803 3564.5 L 2776 3603 Q 2773.3 3601.9 2774 3604.5 L 2762.5 3618 Q 2760.3 3617.3 2761 3619.5 L 2738.5 3642 L 2730 3648 Q 2731.1 3650.7 2728.5 3650 Q 2687.3 3686.3 2636.5 3713 L 2578.5 3741 L 2529.5 3760 L 2459.5 3782 L 2380.5 3801 L 2375.5 3801 L 2355.5 3806 L 2338.5 3808 L 2333.5 3810 L 2328.5 3810 L 2303.5 3815 L 2297.5 3815 L 2296.5 3816 L 2290.5 3816 L 2289.5 3817 L 2283.5 3817 L 2254.5 3822 L 2247.5 3822 L 2246.5 3823 L 2221.5 3825 L 2220.5 3826 L 2218.5 3826 L 2181.5 3829 L 2180.5 3830 L 2170.5 3830 L 2169.5 3831 L 2147.5 3832 L 2146.5 3833 L 2133.5 3833 L 2132.5 3834 L 2130.5 3834 L 2082.5 3836 L 2081.5 3837 L 2063.5 3837 L 2060.5 3838 L 2058.5 3838 L 2006.5 3839 L 2005.5 3840 L 2002.5 3839 L 2001.5 3840 L 1982.5 3840 L 1980.5 3840 L 1977.5 3839 L 1976.5 3840 L 1890.5 3840 L 1888.5 3840 L 1882.5 3839 L 1878.5 3840 Q 1877 3837.5 1871.5 3839 L 1870.5 3840 L 1853.5 3840 L 1851.5 3839 L 1849.5 3839 L 1838.5 3838 L 1836.5 3838 L 1824.5 3839 L 1821.5 3838 L 1816.5 3837 L 1814.5 3837 Q 1809 3835.5 1807.5 3838 L 1805.5 3837 Q 1804.2 3839.3 1799.5 3838 L 1796.5 3837 L 1795 3837.5 Q 1795.6 3834.8 1789.5 3836 L 1787.5 3836 L 1784 3835.5 L 2285.5 3313 L 2286 3315 L 2284 3315.5 L 2284.5 3317 Q 2282.3 3316.3 2283 3318.5 L 2284 3320.5 L 2281 3323.5 L 2281 3327.5 Q 2281.7 3330.1 2279 3329 L 2279 3331.5 L 2279.5 3333 L 2278 3333.5 L 2279 3336.5 L 2277 3339.5 L 2277.5 3341 Q 2274.9 3340.2 2276 3343.5 L 2277 3345.5 L 2276.5 3348 L 2275 3347.5 L 2276 3351.5 L 2274 3354.5 L 2275 3356.5 L 2275 3360.5 L 2273 3367.5 L 2273 3371.5 Q 2271.8 3376.3 2274 3377.5 L 2273 3380.5 L 2274 3382.5 L 2273 3384.5 L 2273 3388.5 L 2275 3393.5 L 2274 3395.5 L 2276 3401.5 L 2276 3403.5 L 2277 3407.5 L 2276 3408.5 L 2278 3412.5 L 2279 3416.5 L 2278 3419 Q 2281 3417.8 2280 3421.5 L 2280 3425.5 L 2282 3427.5 L 2284 3436.5 Q 2289.7 3443.3 2292 3453.5 L 2296 3458.5 L 2297 3463 Q 2300 3461.8 2299 3465.5 Q 2304.3 3469.8 2306 3477 Q 2308.7 3475.9 2308 3478.5 L 2323.5 3496 L 2326 3497.5 Q 2325.3 3499.8 2327.5 3499 L 2333 3503 Q 2331.9 3505.7 2334.5 3505 L 2343.5 3513 L 2346 3513 Q 2344.9 3515.7 2347.5 3515 L 2352.5 3519 L 2373.5 3530 L 2395.5 3538 L 2420.5 3543 L 2452.5 3544 L 2453.5 3543 L 2463.5 3543 L 2483.5 3539 L 2496.5 3534 L 2499.5 3534 L 2504.5 3531 L 2507.5 3531 L 2533.5 3517 L 2551 3504 Q 2549.9 3501.3 2552.5 3502 L 2567 3487.5 L 2567 3486 Q 2569.7 3487.1 2569 3484.5 L 2577 3475.5 L 2578 3472 Q 2580.7 3473.1 2580 3470.5 L 2587 3460.5 L 2596 3442.5 L 2604 3418.5 L 2609 3389.5 L 2609 3364.5 L 2607 3354.5 L 2607 3352.5 L 2605 3337.5 L 2601 3323.5 L 2597 3315.5 L 2597 3312.5 Q 2590.8 3296.7 2581 3284.5 L 2581 3282 Q 2578.3 3283.1 2579 3280.5 L 2564.5 3262 L 2561 3259.5 L 2559.5 3257 L 2557 3255.5 L 2554.5 3252 L 2538.5 3239 L 2536 3239 Q 2537.1 3236.3 2534.5 3237 Q 2533.4 3234.3 2530 3235 Q 2531.3 3232 2527.5 3233 L 2519.5 3227 L 2514.5 3226 L 2503.5 3220 L 2497.5 3219 L 2490.5 3215 L 2488.5 3215 Q 2479.9 3214.6 2474.5 3211 L 2472.5 3212 L 2468.5 3210 L 2466.5 3210 L 2461.5 3209 L 2459.5 3210 L 2457.5 3209 L 2453.5 3209 L 2446.5 3208 Q 2445.3 3210.2 2440.5 3209 L 2438.5 3209 L 2435.5 3208 L 2433.5 3208 L 2430.5 3209 L 2428.5 3209 L 2422.5 3210 L 2419.5 3209 L 2415.5 3211 L 2412.5 3210 L 2409.5 3212 L 2406.5 3211 L 2406.5 3213 L 2402.5 3212 L 2400.5 3214 L 2391 3215 L 2390.5 3217 L 2388 3216 L 2387.5 3218 L 2385 3217 L 2384.5 3219 L 2382.5 3218 L 2382.5 3220 L 2379.5 3219 L 2379.5 3221 L 2377 3220 Q 2378.1 3222.7 2375.5 3222 L 2373 3221.5 L 2607.5 2976 Z " /><path fill="rgb(255,205,56)" stroke="rgb(255,205,56)" stroke-width="1" opacity="0.996078431372549" d="M 2332.5 3248 L 2331.5 3250 L 2332.5 3248 Z " /><path fill="rgb(255,205,56)" stroke="rgb(255,205,56)" stroke-width="1" opacity="0.996078431372549" d="M 2323.5 3257 L 2322.5 3259 L 2323.5 3257 Z " /><path fill="rgb(255,205,56)" stroke="rgb(255,205,56)" stroke-width="1" opacity="0.996078431372549" d="M 2312.5 3269 L 2311.5 3271 L 2312.5 3269 Z " /><path fill="rgb(255,205,56)" stroke="rgb(255,205,56)" stroke-width="1" opacity="0.996078431372549" d="M 2297.5 3290 L 2297 3291.5 L 2295.5 3294 L 2296 3292.5 L 2297.5 3290 Z " /><path fill="rgb(255,205,56)" stroke="rgb(255,205,56)" stroke-width="1" opacity="0.996078431372549" d="M 1082.5 3596 L 1083.5 3598 L 1082.5 3596 Z " /><path fill="rgb(255,205,56)" stroke="rgb(255,205,56)" stroke-width="1" opacity="0.996078431372549" d="M 1692.5 3830 L 1695 3830.5 L 1692.5 3831 L 1692.5 3830 Z " /><path fill="rgb(255,205,56)" stroke="rgb(255,205,56)" stroke-width="1" opacity="0.996078431372549" d="M 1731.5 3833 L 1734 3833.5 L 1731.5 3834 L 1731.5 3833 Z " /><path fill="rgb(255,205,56)" stroke="rgb(255,205,56)" stroke-width="1" opacity="0.996078431372549" d="M 1744.5 3834 L 1748 3834.5 L 1744.5 3835 L 1744.5 3834 Z " /><path fill="rgb(255,216,69)" stroke="rgb(255,216,69)" stroke-width="1" opacity="0.996078431372549" d="M 3101.5 975 L 3311.5 975 L 3312.5 976 L 3325.5 976 L 3326.5 977 L 3328.5 977 L 3335.5 978 L 3337.5 978 L 3342.5 979 L 3344.5 978 L 3350.5 980 L 3368.5 982 L 3385.5 987 L 3390.5 987 L 3393.5 989 L 3395.5 989 L 3428.5 999 L 3435.5 1003 L 3437.5 1002 L 3439.5 1004 L 3442.5 1004 L 3466 1014 Q 3464.9 1016.7 3467.5 1016 L 3469 1015.5 L 2957.5 1549 L 2957 1546.5 L 2958 1544.5 L 2958 1542.5 L 2960 1532.5 L 2959 1530.5 L 2962 1522.5 L 2961 1519.5 L 2962 1517.5 L 2962 1513.5 L 2964 1500.5 L 2964 1498.5 Q 2962.3 1492.3 2965 1490.5 L 2965 1488.5 L 2965 1478.5 L 2966 1477.5 L 2966 1473.5 L 2966 1462.5 L 2967 1461.5 L 2966 1459.5 L 2967 1455.5 L 2967 1453.5 L 2968 1110.5 L 3096.5 976 L 3101.5 975 Z " /><path fill="rgb(255,216,69)" stroke="rgb(255,216,69)" stroke-width="1" opacity="0.996078431372549" d="M 3490.5 1027 L 3496 1029.5 L 3494.5 1030 L 3490.5 1028 L 3490.5 1027 Z " /><path fill="rgb(255,216,69)" stroke="rgb(255,216,69)" stroke-width="1" opacity="0.996078431372549" d="M 3499.5 1032 L 3502 1033.5 L 3500.5 1033 L 3499.5 1032 Z " /><path fill="rgb(255,216,69)" stroke="rgb(255,216,69)" stroke-width="1" opacity="0.996078431372549" d="M 3516.5 1042 L 3517.5 1044 L 3516.5 1042 Z " /><path fill="rgb(255,216,69)" stroke="rgb(255,216,69)" stroke-width="1" opacity="0.996078431372549" d="M 3605.5 1114 L 3606.5 1116 L 3605.5 1114 Z " /><path fill="rgb(255,216,69)" stroke="rgb(255,216,69)" stroke-width="1" opacity="0.996078431372549" d="M 2955.5 1557 L 2956 1558.5 L 2954 1559.5 L 2955.5 1557 Z " /><path fill="rgb(255,216,69)" stroke="rgb(255,216,69)" stroke-width="1" opacity="0.996078431372549" d="M 2935.5 1636 L 2934.5 1638 L 2935.5 1636 Z " /><path fill="rgb(255,216,69)" stroke="rgb(255,216,69)" stroke-width="1" opacity="0.996078431372549" d="M 2933.5 1642 L 2932.5 1644 L 2933.5 1642 Z " /><path fill="rgb(255,216,69)" stroke="rgb(255,216,69)" stroke-width="1" opacity="0.996078431372549" d="M 2901.5 1718 L 2901 1719.5 L 2900.5 1721 L 2900 1719.5 L 2901.5 1718 Z " /><path fill="rgb(255,216,69)" stroke="rgb(255,216,69)" stroke-width="1" opacity="0.996078431372549" d="M 2805.5 1848 L 2804.5 1850 L 2805.5 1848 Z " /><path fill="rgb(255,216,69)" stroke="rgb(255,216,69)" stroke-width="1" opacity="0.996078431372549" d="M 2799.5 1853 L 2796.5 1857 L 2799.5 1853 Z " /><path fill="rgb(255,216,69)" stroke="rgb(255,216,69)" stroke-width="1" opacity="0.996078431372549" d="M 2790.5 1861 L 2789.5 1863 L 2790.5 1861 Z " /><path fill="rgb(255,216,69)" stroke="rgb(255,216,69)" stroke-width="1" opacity="0.996078431372549" d="M 2786.5 1865 L 2785.5 1867 L 2786.5 1865 Z " /><path fill="rgb(255,216,69)" stroke="rgb(255,216,69)" stroke-width="1" opacity="0.996078431372549" d="M 2726.5 1907 L 2725.5 1909 L 2726.5 1907 Z " /><path fill="rgb(255,216,69)" stroke="rgb(255,216,69)" stroke-width="1" opacity="0.996078431372549" d="M 2708.5 1917 L 2707.5 1919 L 2708.5 1917 Z " /><path fill="rgb(255,216,69)" stroke="rgb(255,216,69)" stroke-width="1" opacity="0.996078431372549" d="M 2658.5 1940 L 2657.5 1942 L 2658.5 1940 Z " /><path fill="rgb(255,216,69)" stroke="rgb(255,216,69)" stroke-width="1" opacity="0.996078431372549" d="M 2613.5 1955 L 2616 1955.5 L 2612.5 1957 L 2613.5 1955 Z " /><path fill="rgb(255,216,69)" stroke="rgb(255,216,69)" stroke-width="1" opacity="0.996078431372549" d="M 2603.5 1958 L 2606 1958.5 L 2603.5 1959 L 2603.5 1958 Z " /><path fill="rgb(255,216,69)" stroke="rgb(255,216,69)" stroke-width="1" opacity="0.996078431372549" d="M 2583.5 1963 L 2586 1963.5 L 2583.5 1964 L 2583.5 1963 Z " /><path fill="rgb(255,216,69)" stroke="rgb(255,216,69)" stroke-width="1" opacity="0.996078431372549" d="M 2560.5 1968 L 2563 1968.5 L 2560.5 1969 L 2560.5 1968 Z " /><path fill="rgb(255,216,69)" stroke="rgb(255,216,69)" stroke-width="1" opacity="0.996078431372549" d="M 2552.5 1969 Q 2554.8 1968.3 2554 1970.5 L 1045.5 3545 Q 1042.9 3545.7 1044 3543 L 1042 3543 L 1042 3540.5 L 1039 3537.5 L 1036 3529.5 L 1032 3525.5 L 1031 3520 Q 1028.3 3521.1 1029 3518.5 L 1020 3502.5 Q 1022.5 3501 1019 3499.5 L 1005 3465.5 L 992 3420.5 L 987 3393.5 L 986 3379.5 L 985 3378.5 L 984 3359.5 L 983 3358.5 L 983 3337.5 L 982 3336.5 L 983 3334.5 L 983 3332.5 L 982 3328.5 L 982 3183.5 L 2134.5 1980 L 2437.5 1980 L 2442.5 1979 L 2444.5 1979 L 2448.5 1980 L 2450.5 1979 L 2452.5 1980 L 2455.5 1979 L 2471.5 1979 L 2472.5 1978 L 2476.5 1979 L 2477.5 1978 Q 2485 1979.5 2488.5 1977 L 2490.5 1977 L 2498.5 1977 L 2499.5 1976 L 2502.5 1977 L 2510.5 1975 L 2512.5 1976 L 2519.5 1974 L 2521.5 1974 L 2542.5 1972 L 2547.5 1970 L 2549.5 1970 L 2552.5 1969 Z " /><path fill="rgb(255,216,69)" stroke="rgb(255,216,69)" stroke-width="1" opacity="0.996078431372549" d="M 1058.5 3565 L 1059.5 3567 L 1058.5 3565 Z " /><path fill="rgb(255,216,69)" stroke="rgb(255,216,69)" stroke-width="1" opacity="0.996078431372549" d="M 1061.5 3569 L 1063 3571.5 L 1062 3571.5 L 1061.5 3569 Z " /><path fill="rgb(255,216,69)" stroke="rgb(255,216,69)" stroke-width="1" opacity="0.996078431372549" d="M 1067.5 3577 L 1068.5 3579 L 1067.5 3577 Z " /><path fill="rgb(255,216,69)" stroke="rgb(255,216,69)" stroke-width="1" opacity="0.996078431372549" d="M 1092.5 3606 L 1094.5 3609 L 1092.5 3606 Z " /><path fill="rgb(255,216,69)" stroke="rgb(255,216,69)" stroke-width="1" opacity="0.996078431372549" d="M 1099.5 3613 L 1100.5 3615 L 1099.5 3613 Z " /><path fill="rgb(255,216,69)" stroke="rgb(255,216,69)" stroke-width="1" opacity="0.996078431372549" d="M 1116.5 3630 L 1117.5 3632 L 1116.5 3630 Z " /><path fill="rgb(255,209,61)" stroke="rgb(255,209,61)" stroke-width="1" opacity="0.996078431372549" d="M 3739.5 1322 L 3741 1324.5 L 3739 1323.5 L 3739.5 1322 Z " /><path fill="rgb(255,209,61)" stroke="rgb(255,209,61)" stroke-width="1" opacity="0.996078431372549" d="M 3741.5 1328 L 3742.5 1330 L 3741.5 1328 Z " /><path fill="rgb(255,209,61)" stroke="rgb(255,209,61)" stroke-width="1" opacity="0.996078431372549" d="M 3748.5 1345 Q 3750.8 1344.3 3750 1346.5 L 3748.5 1345 Z " /><path fill="rgb(255,209,61)" stroke="rgb(255,209,61)" stroke-width="1" opacity="0.996078431372549" d="M 3756.5 1366 L 3757.5 1368 L 3756.5 1366 Z " /><path fill="rgb(255,209,61)" stroke="rgb(255,209,61)" stroke-width="1" opacity="0.996078431372549" d="M 3765.5 1395 Q 3767.8 1394.3 3767 1396.5 L 3775 1417.5 L 3779 1430.5 L 3779 1434.5 L 3781 1437.5 L 3781 1439.5 L 3791 1474.5 L 3791 1476.5 L 3800 1511.5 L 3800 1513.5 L 3803 1524.5 L 3803 1526.5 L 3807 1544.5 L 3807 1549.5 L 3810 1559.5 Q 3811.3 1578.2 3816 1593.5 L 3818 1613.5 L 3821 1625.5 L 3821 1627.5 L 3822 1632.5 L 3822 1634.5 Q 3820.5 1640 3823 1641.5 L 3823 1643.5 L 3824 1657.5 L 3826 1663.5 L 3825 1665.5 L 3827 1673.5 L 3827 1675.5 L 3828 1680.5 L 3828 1682.5 Q 3826.5 1688 3829 1689.5 L 3829 1691.5 L 3829 1699.5 L 3830 1700.5 L 2734.5 2844 L 2378 2843.5 L 3765.5 1395 Z " /><path fill="rgb(255,209,61)" stroke="rgb(255,209,61)" stroke-width="1" opacity="0.996078431372549" d="M 3829.5 1706 L 3830 1708.5 L 3829 1708.5 L 3829.5 1706 Z " /><path fill="rgb(255,209,61)" stroke="rgb(255,209,61)" stroke-width="1" opacity="0.996078431372549" d="M 3831.5 1725 L 3833 1731.5 L 3831 1730.5 L 3831.5 1725 Z " /><path fill="rgb(255,209,61)" stroke="rgb(255,209,61)" stroke-width="1" opacity="0.996078431372549" d="M 3832.5 1736 L 3833 1738.5 L 3832 1738.5 L 3832.5 1736 Z " /><path fill="rgb(255,209,61)" stroke="rgb(255,209,61)" stroke-width="1" opacity="0.996078431372549" d="M 3833.5 1752 L 3834 1755.5 L 3833 1755.5 L 3833.5 1752 Z " /><path fill="rgb(255,209,61)" stroke="rgb(255,209,61)" stroke-width="1" opacity="0.996078431372549" d="M 3834.5 1761 L 3835 1763.5 L 3834 1763.5 L 3834.5 1761 Z " /><path fill="rgb(255,209,61)" stroke="rgb(255,209,61)" stroke-width="1" opacity="0.996078431372549" d="M 3836.5 1794 L 3837 1796.5 L 3836 1796.5 L 3836.5 1794 Z " /><path fill="rgb(255,209,61)" stroke="rgb(255,209,61)" stroke-width="1" opacity="0.996078431372549" d="M 3837.5 1814 L 3838 1816.5 L 3837 1816.5 L 3837.5 1814 Z " /><path fill="rgb(255,209,61)" stroke="rgb(255,209,61)" stroke-width="1" opacity="0.996078431372549" d="M 2251.5 2976 L 2607 2976.5 L 2374 3220.5 L 2375 3223 L 2372.5 3223 L 2348 3236 Q 2349.3 3239 2345.5 3238 L 2341 3241 Q 2342.1 3243.7 2339.5 3243 L 2330 3250.5 Q 2330.8 3252.8 2328.5 3252 L 2317 3263.5 L 2317 3265 L 2314 3266.5 L 2302 3282.5 L 2301 3286 Q 2298 3284.8 2299 3288.5 L 2296 3291.5 L 2289 3307.5 L 2284 3314.5 L 2284.5 3316 L 2283.5 3315 L 2263 3335.5 L 1784 3835.5 L 1788 3836.5 L 1783.5 3837 L 1781.5 3836 L 1779.5 3836 L 1777.5 3837 L 1776.5 3836 L 1765.5 3836 L 1764.5 3835 L 1762.5 3836 L 1761.5 3835 L 1748.5 3835 L 1747.5 3834 L 1737.5 3834 L 1736.5 3833 L 1734.5 3834 L 1730.5 3833 L 1728.5 3833 Q 1721.7 3834.3 1718.5 3832 L 1716.5 3832 L 1682.5 3830 L 1681.5 3829 L 1672.5 3829 L 1663.5 3827 L 1661.5 3827 L 1653.5 3827 L 1636.5 3824 L 1634.5 3824 Q 1629.7 3825.2 1628.5 3823 L 1626.5 3823 L 1619.5 3823 L 1618.5 3822 L 1570.5 3816 L 1564.5 3814 L 1541.5 3811 L 1536.5 3809 L 1534.5 3809 L 1531.5 3808 L 1529.5 3809 L 1525.5 3807 L 1523.5 3807 L 1509.5 3805 L 1505.5 3803 L 1503.5 3804 L 1495.5 3801 L 1493.5 3801 L 1490.5 3800 L 1488.5 3801 L 1476.5 3797 L 1474.5 3797 Q 1469.9 3797.6 1468.5 3795 L 1467 3795.5 L 1497 3762.5 L 2251.5 2976 Z " /><path fill="rgb(255,209,61)" stroke="rgb(255,209,61)" stroke-width="1" opacity="0.996078431372549" d="M 2431.5 3208 L 2434 3208.5 L 2431.5 3209 L 2431.5 3208 Z " /><path fill="rgb(255,209,61)" stroke="rgb(255,209,61)" stroke-width="1" opacity="0.996078431372549" d="M 2446.5 3208 L 2450 3208.5 L 2446.5 3209 L 2446.5 3208 Z " /><path fill="rgb(255,209,61)" stroke="rgb(255,209,61)" stroke-width="1" opacity="0.996078431372549" d="M 2419.5 3209 L 2422 3209.5 L 2419.5 3210 L 2419.5 3209 Z " /><path fill="rgb(255,209,61)" stroke="rgb(255,209,61)" stroke-width="1" opacity="0.996078431372549" d="M 2406.5 3211 L 2409 3211.5 L 2406.5 3212 L 2406.5 3211 Z " /><path fill="rgb(255,209,61)" stroke="rgb(255,209,61)" stroke-width="1" opacity="0.996078431372549" d="M 2402.5 3212 L 2405 3212.5 L 2401.5 3214 L 2402.5 3212 Z " /><path fill="rgb(255,209,61)" stroke="rgb(255,209,61)" stroke-width="1" opacity="0.996078431372549" d="M 2394.5 3214 L 2398 3214.5 L 2391.5 3216 L 2391.5 3215 L 2394.5 3214 Z " /><path fill="rgb(255,209,61)" stroke="rgb(255,209,61)" stroke-width="1" opacity="0.996078431372549" d="M 2379.5 3219 L 2381 3219.5 L 2377.5 3221 L 2377.5 3220 L 2379.5 3219 Z " /><path fill="rgb(255,209,61)" stroke="rgb(255,209,61)" stroke-width="1" opacity="0.996078431372549" d="M 2519.5 3227 L 2520.5 3229 L 2519.5 3227 Z " /><path fill="rgb(255,209,61)" stroke="rgb(255,209,61)" stroke-width="1" opacity="0.996078431372549" d="M 2282.5 3322 L 2281.5 3324 L 2282.5 3322 Z " /><path fill="rgb(255,209,61)" stroke="rgb(255,209,61)" stroke-width="1" opacity="0.996078431372549" d="M 2281.5 3325 L 2280.5 3327 L 2281.5 3325 Z " /><path fill="rgb(255,209,61)" stroke="rgb(255,209,61)" stroke-width="1" opacity="0.996078431372549" d="M 2279.5 3329 L 2280 3331.5 L 2279 3331.5 L 2279.5 3329 Z " /><path fill="rgb(255,209,61)" stroke="rgb(255,209,61)" stroke-width="1" opacity="0.996078431372549" d="M 2276 3341 L 2278 3341.5 L 2276.5 3344 L 2276 3341 Z " /><path fill="rgb(255,209,61)" stroke="rgb(255,209,61)" stroke-width="1" opacity="0.996078431372549" d="M 2275.5 3352 L 2275 3353.5 L 2274.5 3355 L 2274 3353.5 L 2275.5 3352 Z " /><path fill="rgb(255,209,61)" stroke="rgb(255,209,61)" stroke-width="1" opacity="0.996078431372549" d="M 2273.5 3371 L 2274 3376.5 L 2273 3376.5 L 2273.5 3371 Z " /><path fill="rgb(255,209,61)" stroke="rgb(255,209,61)" stroke-width="1" opacity="0.996078431372549" d="M 2273.5 3378 L 2274 3380.5 L 2273 3380.5 L 2273.5 3378 Z " /><path fill="rgb(255,209,61)" stroke="rgb(255,209,61)" stroke-width="1" opacity="0.996078431372549" d="M 2273.5 3388 L 2275 3391.5 L 2274 3391.5 L 2273.5 3388 Z " /><path fill="rgb(255,209,61)" stroke="rgb(255,209,61)" stroke-width="1" opacity="0.996078431372549" d="M 2280.5 3425 L 2281.5 3427 L 2280.5 3425 Z " /><path fill="rgb(255,209,61)" stroke="rgb(255,209,61)" stroke-width="1" opacity="0.996078431372549" d="M 2322.5 3494 L 2323.5 3496 L 2322.5 3494 Z " /><path fill="rgb(255,209,61)" stroke="rgb(255,209,61)" stroke-width="1" opacity="0.996078431372549" d="M 1373.5 3769 L 1376 3770.5 L 1374.5 3771 L 1373.5 3769 Z " /><path fill="rgb(255,209,61)" stroke="rgb(255,209,61)" stroke-width="1" opacity="0.996078431372549" d="M 1400.5 3777 L 1401.5 3779 L 1400.5 3777 Z " /><path fill="rgb(255,209,61)" stroke="rgb(255,209,61)" stroke-width="1" opacity="0.996078431372549" d="M 1789.5 3836 L 1795 3836.5 L 1789.5 3837 L 1789.5 3836 Z " /><path fill="rgb(255,209,61)" stroke="rgb(255,209,61)" stroke-width="1" opacity="0.996078431372549" d="M 1808.5 3837 L 1815 3837.5 L 1808.5 3838 L 1808.5 3837 Z " /><path fill="rgb(255,209,61)" stroke="rgb(255,209,61)" stroke-width="1" opacity="0.996078431372549" d="M 1819.5 3838 L 1822 3838.5 L 1819.5 3839 L 1819.5 3838 Z " /><path fill="rgb(255,209,61)" stroke="rgb(255,209,61)" stroke-width="1" opacity="0.996078431372549" d="M 1831.5 3838 L 1837 3838.5 L 1831.5 3839 L 1831.5 3838 Z " /><path fill="rgb(255,209,61)" stroke="rgb(255,209,61)" stroke-width="1" opacity="0.996078431372549" d="M 1838.5 3838 L 1847 3838.5 L 1838.5 3839 L 1838.5 3838 Z " /><path fill="rgb(255,209,61)" stroke="rgb(255,209,61)" stroke-width="1" opacity="0.996078431372549" d="M 1871.5 3839 L 1878 3839.5 L 1871.5 3840 L 1871.5 3839 Z " /><path fill="rgb(255,209,61)" stroke="rgb(255,209,61)" stroke-width="1" opacity="0.996078431372549" d="M 1882.5 3839 L 1885 3839.5 L 1882.5 3840 L 1882.5 3839 Z " /><path fill="rgb(255,209,61)" stroke="rgb(255,209,61)" stroke-width="1" opacity="0.996078431372549" d="M 2002.5 3839 L 2005 3839.5 L 2002.5 3840 L 2002.5 3839 Z " /></svg>