<svg width="512" height="512" version="1.1" xmlns="http://www.w3.org/2000/svg" desc="Created with imagetracer.js version 1.2.6" ><path fill="rgb(254,252,252)" stroke="rgb(254,252,252)" stroke-width="1" opacity="1" d="M 229 68 L 261.5 81 L 265.5 81 L 296 71 L 288 91.5 L 320 104.5 L 313.5 106 L 295.5 107 L 294.5 108 L 285.5 108 Q 284 110.5 278.5 109 L 277 110.5 L 269 132 Q 266.3 133.1 267 130.5 L 251.5 106 L 208.5 103 L 203 101.5 L 239 89 L 229 68 Z " /><path fill="rgb(254,252,252)" stroke="rgb(254,252,252)" stroke-width="1" opacity="1" d="M 137.5 118 L 167.5 118 L 168.5 119 L 181.5 120 L 200.5 126 Q 208.3 129.3 213 135.5 Q 215.8 138.2 215 144.5 L 208.5 153 L 197.5 159 L 174.5 165 L 166.5 165 L 165.5 166 L 139.5 166 L 138.5 165 L 120.5 163 L 107.5 159 L 93 149.5 Q 90 146.5 90 140.5 L 96.5 131 L 112.5 123 L 137.5 118 Z " /><path fill="rgb(254,252,252)" stroke="rgb(254,252,252)" stroke-width="1" opacity="1" d="M 298.5 167 Q 300.8 166.3 300 168.5 L 265.5 218 L 260.5 217 L 186 185.5 L 187.5 184 Q 192.2 185.3 193.5 183 L 199.5 183 L 206.5 181 L 212.5 181 L 219.5 179 L 225.5 179 L 232.5 177 L 238.5 177 L 239.5 176 L 271.5 172 L 298.5 167 Z " /><path fill="rgb(214,47,39)" stroke="rgb(214,47,39)" stroke-width="1" opacity="0.5098039215686274" d="M 263.5 40 L 268 40.5 L 263.5 41 L 263.5 40 Z " /><path fill="rgb(214,47,39)" stroke="rgb(214,47,39)" stroke-width="1" opacity="0.5098039215686274" d="M 254.5 41 L 259 41.5 L 254.5 42 L 254.5 41 Z " /><path fill="rgb(214,47,39)" stroke="rgb(214,47,39)" stroke-width="1" opacity="0.5098039215686274" d="M 271.5 41 L 281 42.5 L 277.5 43 Q 276.3 40.8 271.5 42 L 271.5 41 Z " /><path fill="rgb(214,47,39)" stroke="rgb(214,47,39)" stroke-width="1" opacity="0.5098039215686274" d="M 249.5 42 L 253 42.5 L 249.5 43 L 249.5 42 Z " /><path fill="rgb(214,47,39)" stroke="rgb(214,47,39)" stroke-width="1" opacity="0.5098039215686274" d="M 245.5 43 L 248 43.5 L 245.5 44 L 245.5 43 Z " /><path fill="rgb(214,47,39)" stroke="rgb(214,47,39)" stroke-width="1" opacity="0.5098039215686274" d="M 282.5 43 L 288 44.5 L 285.5 45 L 282.5 44 L 282.5 43 Z " /><path fill="rgb(214,47,39)" stroke="rgb(214,47,39)" stroke-width="1" opacity="0.5098039215686274" d="M 238.5 45 L 241 45.5 L 230.5 49 L 230.5 48 L 238.5 45 Z " /><path fill="rgb(214,47,39)" stroke="rgb(214,47,39)" stroke-width="1" opacity="0.5098039215686274" d="M 292.5 46 L 302 49.5 L 300.5 50 L 292.5 47 L 292.5 46 Z " /><path fill="rgb(214,47,39)" stroke="rgb(214,47,39)" stroke-width="1" opacity="0.5098039215686274" d="M 224.5 50 L 226 50.5 L 219.5 53 L 219.5 52 L 224.5 50 Z " /><path fill="rgb(214,47,39)" stroke="rgb(214,47,39)" stroke-width="1" opacity="0.5098039215686274" d="M 303.5 50 L 315 54.5 L 313.5 55 L 303.5 51 L 303.5 50 Z " /><path fill="rgb(214,47,39)" stroke="rgb(214,47,39)" stroke-width="1" opacity="0.5098039215686274" d="M 216.5 53 L 218 53.5 L 203.5 59 L 203.5 58 L 216.5 53 Z " /><path fill="rgb(214,47,39)" stroke="rgb(214,47,39)" stroke-width="1" opacity="0.5098039215686274" d="M 316.5 55 L 320 56.5 L 318.5 57 L 316.5 55 Z " /><path fill="rgb(214,47,39)" stroke="rgb(214,47,39)" stroke-width="1" opacity="0.5098039215686274" d="M 321.5 57 L 333 61.5 L 331.5 62 L 321.5 58 L 321.5 57 Z " /><path fill="rgb(214,47,39)" stroke="rgb(214,47,39)" stroke-width="1" opacity="0.5098039215686274" d="M 200.5 59 L 202 59.5 L 195.5 62 L 195.5 61 L 200.5 59 Z " /><path fill="rgb(214,47,39)" stroke="rgb(214,47,39)" stroke-width="1" opacity="0.5098039215686274" d="M 192.5 62 L 194 62.5 L 190.5 64 L 190.5 63 L 192.5 62 Z " /><path fill="rgb(214,47,39)" stroke="rgb(214,47,39)" stroke-width="1" opacity="0.5098039215686274" d="M 334.5 62 L 338 63.5 L 336.5 64 L 334.5 62 Z " /><path fill="rgb(214,47,39)" stroke="rgb(214,47,39)" stroke-width="1" opacity="0.5098039215686274" d="M 187.5 64 L 189 64.5 L 177.5 69 L 177.5 68 L 187.5 64 Z " /><path fill="rgb(214,47,39)" stroke="rgb(214,47,39)" stroke-width="1" opacity="0.5098039215686274" d="M 339.5 64 L 356 70.5 L 354.5 71 L 339.5 65 L 339.5 64 Z " /><path fill="rgb(214,47,39)" stroke="rgb(214,47,39)" stroke-width="1" opacity="0.5098039215686274" d="M 174.5 69 L 176 69.5 L 164.5 74 L 164.5 73 L 174.5 69 Z " /><path fill="rgb(214,47,39)" stroke="rgb(214,47,39)" stroke-width="1" opacity="0.5098039215686274" d="M 357.5 71 L 361 72.5 L 359.5 73 L 357.5 71 Z " /><path fill="rgb(214,47,39)" stroke="rgb(214,47,39)" stroke-width="1" opacity="0.5098039215686274" d="M 362.5 73 L 379 79.5 L 377.5 80 L 362.5 74 L 362.5 73 Z " /><path fill="rgb(214,47,39)" stroke="rgb(214,47,39)" stroke-width="1" opacity="0.5098039215686274" d="M 161.5 74 L 163 74.5 L 159.5 76 L 159.5 75 L 161.5 74 Z " /><path fill="rgb(214,47,39)" stroke="rgb(214,47,39)" stroke-width="1" opacity="0.5098039215686274" d="M 156.5 76 L 158 76.5 L 146.5 81 L 146.5 80 L 156.5 76 Z " /><path fill="rgb(214,47,39)" stroke="rgb(214,47,39)" stroke-width="1" opacity="0.5098039215686274" d="M 380.5 80 L 384 81.5 L 382.5 82 L 380.5 80 Z " /><path fill="rgb(214,47,39)" stroke="rgb(214,47,39)" stroke-width="1" opacity="0.5098039215686274" d="M 143.5 81 L 145 81.5 L 133.5 86 L 133.5 85 L 143.5 81 Z " /><path fill="rgb(214,47,39)" stroke="rgb(214,47,39)" stroke-width="1" opacity="0.5098039215686274" d="M 385.5 82 L 389 83.5 L 387.5 84 L 385.5 82 Z " /><path fill="rgb(214,47,39)" stroke="rgb(214,47,39)" stroke-width="1" opacity="0.5098039215686274" d="M 390.5 84 L 407 90.5 L 405.5 91 L 390.5 85 L 390.5 84 Z " /><path fill="rgb(214,47,39)" stroke="rgb(214,47,39)" stroke-width="1" opacity="0.5098039215686274" d="M 130.5 86 L 132 86.5 L 128.5 88 L 128.5 87 L 130.5 86 Z " /><path fill="rgb(214,47,39)" stroke="rgb(214,47,39)" stroke-width="1" opacity="0.5098039215686274" d="M 125.5 88 L 127 88.5 L 110.5 95 L 110.5 94 L 125.5 88 Z " /><path fill="rgb(214,47,39)" stroke="rgb(214,47,39)" stroke-width="1" opacity="0.5098039215686274" d="M 408.5 91 L 412 92.5 L 410.5 93 L 408.5 91 Z " /><path fill="rgb(214,47,39)" stroke="rgb(214,47,39)" stroke-width="1" opacity="0.5098039215686274" d="M 413.5 93 L 430 99.5 L 428.5 100 L 413.5 94 L 413.5 93 Z " /><path fill="rgb(214,47,39)" stroke="rgb(214,47,39)" stroke-width="1" opacity="0.5098039215686274" d="M 107.5 95 L 109 95.5 L 92.5 102 L 92.5 101 L 107.5 95 Z " /><path fill="rgb(214,47,39)" stroke="rgb(214,47,39)" stroke-width="1" opacity="0.5098039215686274" d="M 431.5 100 L 435 101.5 L 433.5 102 L 431.5 100 Z " /><path fill="rgb(214,47,39)" stroke="rgb(214,47,39)" stroke-width="1" opacity="0.5098039215686274" d="M 89.5 102 L 91 102.5 L 87.5 104 L 87.5 103 L 89.5 102 Z " /><path fill="rgb(214,47,39)" stroke="rgb(214,47,39)" stroke-width="1" opacity="0.5098039215686274" d="M 436.5 102 L 440 103.5 L 438.5 104 L 436.5 102 Z " /><path fill="rgb(214,47,39)" stroke="rgb(214,47,39)" stroke-width="1" opacity="0.5098039215686274" d="M 84.5 104 L 86 104.5 L 69.5 111 L 69.5 110 L 84.5 104 Z " /><path fill="rgb(214,47,39)" stroke="rgb(214,47,39)" stroke-width="1" opacity="0.5098039215686274" d="M 441.5 104 L 453 108.5 L 451.5 109 L 441.5 105 L 441.5 104 Z " /><path fill="rgb(214,47,39)" stroke="rgb(214,47,39)" stroke-width="1" opacity="0.5098039215686274" d="M 454.5 109 L 458 110.5 L 456.5 111 L 454.5 109 Z " /><path fill="rgb(214,47,39)" stroke="rgb(214,47,39)" stroke-width="1" opacity="0.5098039215686274" d="M 66.5 111 L 68 111.5 L 64.5 113 L 64.5 112 L 66.5 111 Z " /><path fill="rgb(214,47,39)" stroke="rgb(214,47,39)" stroke-width="1" opacity="0.5098039215686274" d="M 459.5 111 L 476 117.5 L 474.5 118 L 459.5 112 L 459.5 111 Z " /><path fill="rgb(214,47,39)" stroke="rgb(214,47,39)" stroke-width="1" opacity="0.5098039215686274" d="M 61.5 113 L 63 113.5 L 46.5 120 L 46.5 119 L 61.5 113 Z " /><path fill="rgb(214,47,39)" stroke="rgb(214,47,39)" stroke-width="1" opacity="0.5098039215686274" d="M 477.5 118 L 484 120.5 L 482.5 121 L 477.5 119 L 477.5 118 Z " /><path fill="rgb(214,47,39)" stroke="rgb(214,47,39)" stroke-width="1" opacity="0.5098039215686274" d="M 43.5 120 L 45 120.5 L 41.5 122 L 41.5 121 L 43.5 120 Z " /><path fill="rgb(214,47,39)" stroke="rgb(214,47,39)" stroke-width="1" opacity="0.5098039215686274" d="M 485.5 121 Q 498 124 506 131.5 L 507 133.5 L 501.5 129 L 485.5 122 L 485.5 121 Z " /><path fill="rgb(214,47,39)" stroke="rgb(214,47,39)" stroke-width="1" opacity="0.5098039215686274" d="M 38.5 122 L 40 122.5 L 28.5 127 L 28.5 126 L 38.5 122 Z " /><path fill="rgb(214,47,39)" stroke="rgb(214,47,39)" stroke-width="1" opacity="0.5098039215686274" d="M 25.5 127 L 27 127.5 L 23.5 129 L 23.5 128 L 25.5 127 Z " /><path fill="rgb(214,47,39)" stroke="rgb(214,47,39)" stroke-width="1" opacity="0.5098039215686274" d="M 20.5 129 L 22 129.5 L 6 138 L 4 142.5 L 3.5 196 L 3 142.5 L 7.5 136 L 20.5 129 Z " /><path fill="rgb(214,47,39)" stroke="rgb(214,47,39)" stroke-width="1" opacity="0.5098039215686274" d="M 507.5 135 L 508 187.5 L 507 187.5 L 507.5 135 Z " /><path fill="rgb(214,47,39)" stroke="rgb(214,47,39)" stroke-width="1" opacity="0.5098039215686274" d="M 506.5 189 L 507 190.5 L 505 191.5 L 506.5 189 Z " /><path fill="rgb(214,47,39)" stroke="rgb(214,47,39)" stroke-width="1" opacity="0.5098039215686274" d="M 504.5 193 L 501.5 197 L 498.5 199 L 500.5 196 L 504.5 193 Z " /><path fill="rgb(214,47,39)" stroke="rgb(214,47,39)" stroke-width="1" opacity="0.5098039215686274" d="M 4.5 197 L 10.5 204 L 13 205.5 L 11.5 205 L 4 198.5 L 4.5 197 Z " /><path fill="rgb(214,47,39)" stroke="rgb(214,47,39)" stroke-width="1" opacity="0.5098039215686274" d="M 496.5 199 L 495.5 201 L 485 206.5 L 489 208.5 L 487.5 209 L 483 206.5 L 496.5 199 Z " /><path fill="rgb(214,47,39)" stroke="rgb(214,47,39)" stroke-width="1" opacity="0.5098039215686274" d="M 14.5 206 L 18 208.5 L 16.5 208 L 14.5 206 Z " /><path fill="rgb(214,47,39)" stroke="rgb(214,47,39)" stroke-width="1" opacity="0.5098039215686274" d="M 490.5 209 L 494 210.5 L 492.5 211 L 490.5 209 Z " /><path fill="rgb(214,47,39)" stroke="rgb(214,47,39)" stroke-width="1" opacity="0.5098039215686274" d="M 495.5 211 L 506 217.5 L 508 221.5 L 508 273.5 L 507 273.5 L 507 221.5 L 501.5 215 L 495.5 212 L 495.5 211 Z " /><path fill="rgb(214,47,39)" stroke="rgb(214,47,39)" stroke-width="1" opacity="0.5098039215686274" d="M 25 212 Q 28 211 27 214 L 23.5 215 L 23.5 214 Q 26.1 214.7 25 212 Z " /><path fill="rgb(214,47,39)" stroke="rgb(214,47,39)" stroke-width="1" opacity="0.5098039215686274" d="M 20.5 215 L 22 215.5 Q 11 218.5 5 226.5 L 4 228.5 L 3.5 282 L 3 228.5 L 7.5 222 L 20.5 215 Z " /><path fill="rgb(214,47,39)" stroke="rgb(214,47,39)" stroke-width="1" opacity="0.5098039215686274" d="M 506.5 275 L 507 276.5 L 505 277.5 L 506.5 275 Z " /><path fill="rgb(214,47,39)" stroke="rgb(214,47,39)" stroke-width="1" opacity="0.5098039215686274" d="M 504.5 279 L 502.5 282 L 504.5 279 Z " /><path fill="rgb(214,47,39)" stroke="rgb(214,47,39)" stroke-width="1" opacity="0.5098039215686274" d="M 500.5 282 L 498.5 285 L 500.5 282 Z " /><path fill="rgb(214,47,39)" stroke="rgb(214,47,39)" stroke-width="1" opacity="0.5098039215686274" d="M 4.5 283 L 10.5 290 L 16 293.5 L 14.5 293 L 4 284.5 L 4.5 283 Z " /><path fill="rgb(214,47,39)" stroke="rgb(214,47,39)" stroke-width="1" opacity="0.5098039215686274" d="M 496.5 285 L 495.5 287 L 493.5 288 L 494.5 286 L 496.5 285 Z " /><path fill="rgb(214,47,39)" stroke="rgb(214,47,39)" stroke-width="1" opacity="0.5098039215686274" d="M 491.5 288 L 490.5 290 L 489 290.5 L 506 300.5 L 507 302.5 L 501.5 298 Q 495.4 293.3 487 292 Q 485.9 289.3 488.5 290 L 491.5 288 Z " /><path fill="rgb(214,47,39)" stroke="rgb(214,47,39)" stroke-width="1" opacity="0.5098039215686274" d="M 20.5 298 L 22 298.5 L 6 307 L 4 311.5 L 3.5 365 L 3 311.5 L 7.5 305 L 20.5 298 Z " /><path fill="rgb(214,47,39)" stroke="rgb(214,47,39)" stroke-width="1" opacity="0.5098039215686274" d="M 507.5 304 L 508 356.5 L 507 356.5 L 507.5 304 Z " /><path fill="rgb(214,47,39)" stroke="rgb(214,47,39)" stroke-width="1" opacity="0.5098039215686274" d="M 506.5 358 L 507 359.5 L 505 360.5 L 506.5 358 Z " /><path fill="rgb(214,47,39)" stroke="rgb(214,47,39)" stroke-width="1" opacity="0.5098039215686274" d="M 504.5 362 L 501.5 366 L 498.5 368 L 500.5 365 L 504.5 362 Z " /><path fill="rgb(214,47,39)" stroke="rgb(214,47,39)" stroke-width="1" opacity="0.5098039215686274" d="M 4.5 366 L 10.5 373 L 13 374.5 L 11.5 374 L 4 367.5 L 4.5 366 Z " /><path fill="rgb(214,47,39)" stroke="rgb(214,47,39)" stroke-width="1" opacity="0.5098039215686274" d="M 496.5 368 L 495.5 370 L 475.5 380 L 475.5 379 L 496.5 368 Z " /><path fill="rgb(214,47,39)" stroke="rgb(214,47,39)" stroke-width="1" opacity="0.5098039215686274" d="M 14.5 375 L 18 377.5 L 16.5 377 L 14.5 375 Z " /><path fill="rgb(214,47,39)" stroke="rgb(214,47,39)" stroke-width="1" opacity="0.5098039215686274" d="M 25.5 381 L 31 383.5 L 29.5 384 L 25.5 382 L 25.5 381 Z " /><path fill="rgb(214,47,39)" stroke="rgb(214,47,39)" stroke-width="1" opacity="0.5098039215686274" d="M 470.5 381 L 472 381.5 L 466.5 384 L 466.5 383 L 470.5 381 Z " /><path fill="rgb(214,47,39)" stroke="rgb(214,47,39)" stroke-width="1" opacity="0.5098039215686274" d="M 36.5 386 L 42 388.5 L 40.5 389 L 36.5 387 L 36.5 386 Z " /><path fill="rgb(214,47,39)" stroke="rgb(214,47,39)" stroke-width="1" opacity="0.5098039215686274" d="M 459.5 386 L 461 386.5 L 455.5 389 L 455.5 388 L 459.5 386 Z " /><path fill="rgb(214,47,39)" stroke="rgb(214,47,39)" stroke-width="1" opacity="0.5098039215686274" d="M 43.5 389 L 47 390.5 L 45.5 391 L 43.5 389 Z " /><path fill="rgb(214,47,39)" stroke="rgb(214,47,39)" stroke-width="1" opacity="0.5098039215686274" d="M 450.5 390 L 452 390.5 L 448.5 392 L 448.5 391 L 450.5 390 Z " /><path fill="rgb(214,47,39)" stroke="rgb(214,47,39)" stroke-width="1" opacity="0.5098039215686274" d="M 50.5 392 L 54 393.5 L 52.5 394 L 50.5 392 Z " /><path fill="rgb(214,47,39)" stroke="rgb(214,47,39)" stroke-width="1" opacity="0.5098039215686274" d="M 443.5 393 L 445 393.5 L 439.5 396 L 439.5 395 L 443.5 393 Z " /><path fill="rgb(214,47,39)" stroke="rgb(214,47,39)" stroke-width="1" opacity="0.5098039215686274" d="M 57.5 395 L 61 396.5 L 59.5 397 L 57.5 395 Z " /><path fill="rgb(214,47,39)" stroke="rgb(214,47,39)" stroke-width="1" opacity="0.5098039215686274" d="M 436.5 396 L 438 396.5 L 432.5 399 L 432.5 398 L 436.5 396 Z " /><path fill="rgb(214,47,39)" stroke="rgb(214,47,39)" stroke-width="1" opacity="0.5098039215686274" d="M 429.5 399 L 431 399.5 L 427.5 401 L 427.5 400 L 429.5 399 Z " /><path fill="rgb(214,47,39)" stroke="rgb(214,47,39)" stroke-width="1" opacity="0.5098039215686274" d="M 69.5 400 L 73 401.5 L 71.5 402 L 69.5 400 Z " /><path fill="rgb(214,47,39)" stroke="rgb(214,47,39)" stroke-width="1" opacity="0.5098039215686274" d="M 74.5 402 L 78 403.5 L 76.5 404 L 74.5 402 Z " /><path fill="rgb(214,47,39)" stroke="rgb(214,47,39)" stroke-width="1" opacity="0.5098039215686274" d="M 420.5 403 L 422 403.5 L 418.5 405 L 418.5 404 L 420.5 403 Z " /><path fill="rgb(214,47,39)" stroke="rgb(214,47,39)" stroke-width="1" opacity="0.5098039215686274" d="M 81.5 405 L 85 406.5 L 83.5 407 L 81.5 405 Z " /><path fill="rgb(214,47,39)" stroke="rgb(214,47,39)" stroke-width="1" opacity="0.5098039215686274" d="M 413.5 406 L 415 406.5 L 411.5 408 L 411.5 407 L 413.5 406 Z " /><path fill="rgb(214,47,39)" stroke="rgb(214,47,39)" stroke-width="1" opacity="0.5098039215686274" d="M 86.5 407 L 90 408.5 L 88.5 409 L 86.5 407 Z " /><path fill="rgb(214,47,39)" stroke="rgb(214,47,39)" stroke-width="1" opacity="0.5098039215686274" d="M 406.5 409 L 408 409.5 L 404.5 411 L 404.5 410 L 406.5 409 Z " /><path fill="rgb(214,47,39)" stroke="rgb(214,47,39)" stroke-width="1" opacity="0.5098039215686274" d="M 93.5 410 L 97 411.5 L 95.5 412 L 93.5 410 Z " /><path fill="rgb(214,47,39)" stroke="rgb(214,47,39)" stroke-width="1" opacity="0.5098039215686274" d="M 98.5 412 L 102 413.5 L 100.5 414 L 98.5 412 Z " /><path fill="rgb(214,47,39)" stroke="rgb(214,47,39)" stroke-width="1" opacity="0.5098039215686274" d="M 399.5 412 L 401 412.5 L 395.5 415 L 395.5 414 L 399.5 412 Z " /><path fill="rgb(214,47,39)" stroke="rgb(214,47,39)" stroke-width="1" opacity="0.5098039215686274" d="M 105.5 415 L 109 416.5 L 107.5 417 L 105.5 415 Z " /><path fill="rgb(214,47,39)" stroke="rgb(214,47,39)" stroke-width="1" opacity="0.5098039215686274" d="M 392.5 415 L 394 415.5 L 388.5 418 L 388.5 417 L 392.5 415 Z " /><path fill="rgb(214,47,39)" stroke="rgb(214,47,39)" stroke-width="1" opacity="0.5098039215686274" d="M 110.5 417 L 114 418.5 L 112.5 419 L 110.5 417 Z " /><path fill="rgb(214,47,39)" stroke="rgb(214,47,39)" stroke-width="1" opacity="0.5098039215686274" d="M 385.5 418 L 387 418.5 L 383.5 420 L 383.5 419 L 385.5 418 Z " /><path fill="rgb(214,47,39)" stroke="rgb(214,47,39)" stroke-width="1" opacity="0.5098039215686274" d="M 117.5 420 L 121 421.5 L 119.5 422 L 117.5 420 Z " /><path fill="rgb(214,47,39)" stroke="rgb(214,47,39)" stroke-width="1" opacity="0.5098039215686274" d="M 378.5 421 L 380 421.5 L 376.5 423 L 376.5 422 L 378.5 421 Z " /><path fill="rgb(214,47,39)" stroke="rgb(214,47,39)" stroke-width="1" opacity="0.5098039215686274" d="M 122.5 422 L 126 423.5 L 124.5 424 L 122.5 422 Z " /><path fill="rgb(214,47,39)" stroke="rgb(214,47,39)" stroke-width="1" opacity="0.5098039215686274" d="M 129.5 425 L 133 426.5 L 131.5 427 L 129.5 425 Z " /><path fill="rgb(214,47,39)" stroke="rgb(214,47,39)" stroke-width="1" opacity="0.5098039215686274" d="M 369.5 425 L 371 425.5 L 367.5 427 L 367.5 426 L 369.5 425 Z " /><path fill="rgb(214,47,39)" stroke="rgb(214,47,39)" stroke-width="1" opacity="0.5098039215686274" d="M 134.5 427 L 138 428.5 L 136.5 429 L 134.5 427 Z " /><path fill="rgb(214,47,39)" stroke="rgb(214,47,39)" stroke-width="1" opacity="0.5098039215686274" d="M 362.5 428 L 364 428.5 L 360.5 430 L 360.5 429 L 362.5 428 Z " /><path fill="rgb(214,47,39)" stroke="rgb(214,47,39)" stroke-width="1" opacity="0.5098039215686274" d="M 141.5 430 L 145 431.5 L 143.5 432 L 141.5 430 Z " /><path fill="rgb(214,47,39)" stroke="rgb(214,47,39)" stroke-width="1" opacity="0.5098039215686274" d="M 355.5 431 L 357 431.5 L 353.5 433 L 353.5 432 L 355.5 431 Z " /><path fill="rgb(214,47,39)" stroke="rgb(214,47,39)" stroke-width="1" opacity="0.5098039215686274" d="M 146.5 432 L 150 433.5 L 148.5 434 L 146.5 432 Z " /><path fill="rgb(214,47,39)" stroke="rgb(214,47,39)" stroke-width="1" opacity="0.5098039215686274" d="M 348.5 434 L 350 434.5 L 346.5 436 L 346.5 435 L 348.5 434 Z " /><path fill="rgb(214,47,39)" stroke="rgb(214,47,39)" stroke-width="1" opacity="0.5098039215686274" d="M 153.5 435 L 157 436.5 L 155.5 437 L 153.5 435 Z " /><path fill="rgb(214,47,39)" stroke="rgb(214,47,39)" stroke-width="1" opacity="0.5098039215686274" d="M 158.5 437 L 164 439.5 L 162.5 440 L 158.5 438 L 158.5 437 Z " /><path fill="rgb(214,47,39)" stroke="rgb(214,47,39)" stroke-width="1" opacity="0.5098039215686274" d="M 339.5 438 L 341 438.5 L 337.5 440 L 337.5 439 L 339.5 438 Z " /><path fill="rgb(214,47,39)" stroke="rgb(214,47,39)" stroke-width="1" opacity="0.5098039215686274" d="M 165.5 440 L 169 441.5 L 167.5 442 L 165.5 440 Z " /><path fill="rgb(214,47,39)" stroke="rgb(214,47,39)" stroke-width="1" opacity="0.5098039215686274" d="M 332.5 441 L 334 441.5 L 330.5 443 L 330.5 442 L 332.5 441 Z " /><path fill="rgb(214,47,39)" stroke="rgb(214,47,39)" stroke-width="1" opacity="0.5098039215686274" d="M 170.5 442 L 174 443.5 L 172.5 444 L 170.5 442 Z " /><path fill="rgb(214,47,39)" stroke="rgb(214,47,39)" stroke-width="1" opacity="0.5098039215686274" d="M 177.5 445 L 181 446.5 L 179.5 447 L 177.5 445 Z " /><path fill="rgb(214,47,39)" stroke="rgb(214,47,39)" stroke-width="1" opacity="0.5098039215686274" d="M 323.5 445 L 325 445.5 L 319.5 448 L 319.5 447 L 323.5 445 Z " /><path fill="rgb(214,47,39)" stroke="rgb(214,47,39)" stroke-width="1" opacity="0.5098039215686274" d="M 182.5 447 L 186 448.5 L 184.5 449 L 182.5 447 Z " /><path fill="rgb(214,47,39)" stroke="rgb(214,47,39)" stroke-width="1" opacity="0.5098039215686274" d="M 314.5 449 L 316 449.5 L 310.5 452 L 310.5 451 L 314.5 449 Z " /><path fill="rgb(214,47,39)" stroke="rgb(214,47,39)" stroke-width="1" opacity="0.5098039215686274" d="M 189.5 450 L 193 451.5 L 191.5 452 L 189.5 450 Z " /><path fill="rgb(214,47,39)" stroke="rgb(214,47,39)" stroke-width="1" opacity="0.5098039215686274" d="M 196.5 453 L 200 454.5 L 198.5 455 L 196.5 453 Z " /><path fill="rgb(214,47,39)" stroke="rgb(214,47,39)" stroke-width="1" opacity="0.5098039215686274" d="M 303.5 454 L 305 454.5 L 285.5 464 L 285.5 463 L 303.5 454 Z " /><path fill="rgb(214,47,39)" stroke="rgb(214,47,39)" stroke-width="1" opacity="0.5098039215686274" d="M 201.5 455 L 205 456.5 L 203.5 457 L 201.5 455 Z " /><path fill="rgb(214,47,39)" stroke="rgb(214,47,39)" stroke-width="1" opacity="0.5098039215686274" d="M 210.5 459 L 216 461.5 L 214.5 462 L 210.5 460 L 210.5 459 Z " /><path fill="rgb(214,47,39)" stroke="rgb(214,47,39)" stroke-width="1" opacity="0.5098039215686274" d="M 219.5 463 L 223 464.5 L 221.5 465 L 219.5 463 Z " /><path fill="rgb(214,47,39)" stroke="rgb(214,47,39)" stroke-width="1" opacity="0.5098039215686274" d="M 280.5 465 L 282 465.5 L 278.5 467 L 278.5 466 L 280.5 465 Z " /><path fill="rgb(214,47,39)" stroke="rgb(214,47,39)" stroke-width="1" opacity="0.5098039215686274" d="M 275.5 467 L 277 467.5 L 273.5 469 L 273.5 468 L 275.5 467 Z " /><path fill="rgb(214,47,39)" stroke="rgb(214,47,39)" stroke-width="1" opacity="0.5098039215686274" d="M 231.5 468 L 236 469.5 L 233.5 470 L 231.5 468 Z " /><path fill="rgb(214,47,39)" stroke="rgb(214,47,39)" stroke-width="1" opacity="0.5098039215686274" d="M 269.5 469 L 272 469.5 L 266.5 471 L 266.5 470 L 269.5 469 Z " /><path fill="rgb(214,47,39)" stroke="rgb(214,47,39)" stroke-width="1" opacity="0.5098039215686274" d="M 240.5 471 L 244 471.5 L 240.5 472 L 240.5 471 Z " /><path fill="rgb(214,47,39)" stroke="rgb(214,47,39)" stroke-width="1" opacity="0.5098039215686274" d="M 261.5 471 L 264 471.5 L 261.5 472 L 261.5 471 Z " /><path fill="rgb(214,47,39)" stroke="rgb(214,47,39)" stroke-width="1" opacity="0.5098039215686274" d="M 247.5 472 L 258 472.5 L 247.5 473 L 247.5 472 Z " /><path fill="rgb(0,0,0)" stroke="rgb(0,0,0)" stroke-width="1" opacity="0" d="M 0 0 L 512 0 L 512 512 L 0 512 L 0 0 Z M 264 40 L 263 41 L 255 41 L 246 43 L 211 55 L 36 123 L 8 136 L 3 143 L 3 196 L 4 199 Q 11 208 24 212 Q 26 211 25 214 L 8 222 L 3 229 L 3 282 L 4 285 Q 11 294 23 298 L 8 305 L 3 312 L 3 365 L 4 368 L 16 377 L 41 389 L 187 449 L 229 468 L 248 473 Q 267 473 280 467 L 330 443 L 477 380 L 502 366 L 508 357 L 508 305 L 506 301 L 489 291 L 503 282 L 508 274 L 508 222 L 506 218 L 499 212 L 485 207 L 502 197 L 508 188 L 508 136 L 506 132 L 495 124 L 441 104 L 308 51 L 277 41 L 264 40 Z " /><path fill="rgb(215,47,39)" stroke="rgb(215,47,39)" stroke-width="1" opacity="1" d="M 259.5 41 L 262 41.5 L 259.5 42 L 259.5 41 Z " /><path fill="rgb(215,47,39)" stroke="rgb(215,47,39)" stroke-width="1" opacity="1" d="M 365.5 113 L 367 113.5 L 363.5 115 L 363.5 114 L 365.5 113 Z " /><path fill="rgb(215,47,39)" stroke="rgb(215,47,39)" stroke-width="1" opacity="1" d="M 360.5 115 L 362 115.5 L 358.5 117 L 358.5 116 L 360.5 115 Z " /><path fill="rgb(215,47,39)" stroke="rgb(215,47,39)" stroke-width="1" opacity="1" d="M 355.5 117 L 357 117.5 L 353.5 119 L 353.5 118 L 355.5 117 Z " /><path fill="rgb(215,47,39)" stroke="rgb(215,47,39)" stroke-width="1" opacity="1" d="M 350.5 119 L 352 119.5 L 348.5 121 L 348.5 120 L 350.5 119 Z " /><path fill="rgb(215,47,39)" stroke="rgb(215,47,39)" stroke-width="1" opacity="1" d="M 345.5 121 L 347 121.5 L 343.5 123 L 343.5 122 L 345.5 121 Z " /><path fill="rgb(215,47,39)" stroke="rgb(215,47,39)" stroke-width="1" opacity="1" d="M 340.5 123 L 342 123.5 L 338.5 125 L 338.5 124 L 340.5 123 Z " /><path fill="rgb(215,47,39)" stroke="rgb(215,47,39)" stroke-width="1" opacity="1" d="M 332.5 126 L 334 126.5 L 330.5 128 L 330.5 127 L 332.5 126 Z " /><path fill="rgb(215,47,39)" stroke="rgb(215,47,39)" stroke-width="1" opacity="1" d="M 327.5 128 L 329 128.5 L 325.5 130 L 325.5 129 L 327.5 128 Z " /><path fill="rgb(215,47,39)" stroke="rgb(215,47,39)" stroke-width="1" opacity="1" d="M 322.5 130 L 324 130.5 L 320.5 132 L 320.5 131 L 322.5 130 Z " /><path fill="rgb(215,47,39)" stroke="rgb(215,47,39)" stroke-width="1" opacity="1" d="M 317.5 132 L 319 132.5 L 315.5 134 L 315.5 133 L 317.5 132 Z " /><path fill="rgb(215,47,39)" stroke="rgb(215,47,39)" stroke-width="1" opacity="1" d="M 312.5 134 L 314 134.5 L 310.5 136 L 310.5 135 L 312.5 134 Z " /><path fill="rgb(215,47,39)" stroke="rgb(215,47,39)" stroke-width="1" opacity="1" d="M 307.5 136 L 309 136.5 L 305.5 138 L 305.5 137 L 307.5 136 Z " /><path fill="rgb(215,47,39)" stroke="rgb(215,47,39)" stroke-width="1" opacity="1" d="M 302.5 138 L 304 138.5 L 300.5 140 L 300.5 139 L 302.5 138 Z " /><path fill="rgb(215,47,39)" stroke="rgb(215,47,39)" stroke-width="1" opacity="1" d="M 297.5 140 L 299 140.5 L 298.5 142 L 300 142.5 L 298.5 143 L 296 141.5 L 297.5 140 Z " /><path fill="rgb(215,47,39)" stroke="rgb(215,47,39)" stroke-width="1" opacity="1" d="M 505.5 140 L 500.5 146 L 505.5 140 Z " /><path fill="rgb(215,47,39)" stroke="rgb(215,47,39)" stroke-width="1" opacity="1" d="M 301.5 143 L 305 144.5 L 303.5 145 L 301.5 143 Z " /><path fill="rgb(215,47,39)" stroke="rgb(215,47,39)" stroke-width="1" opacity="1" d="M 306.5 145 L 310 146.5 L 308.5 147 L 306.5 145 Z " /><path fill="rgb(215,47,39)" stroke="rgb(215,47,39)" stroke-width="1" opacity="1" d="M 498.5 146 L 496.5 149 L 494.5 150 L 495.5 148 L 498.5 146 Z " /><path fill="rgb(215,47,39)" stroke="rgb(215,47,39)" stroke-width="1" opacity="1" d="M 5.5 147 L 11.5 154 L 5.5 147 Z " /><path fill="rgb(215,47,39)" stroke="rgb(215,47,39)" stroke-width="1" opacity="1" d="M 311.5 147 L 315 148.5 L 313.5 149 L 311.5 147 Z " /><path fill="rgb(215,47,39)" stroke="rgb(215,47,39)" stroke-width="1" opacity="1" d="M 316.5 149 L 320 150.5 L 318.5 151 L 316.5 149 Z " /><path fill="rgb(215,47,39)" stroke="rgb(215,47,39)" stroke-width="1" opacity="1" d="M 321.5 151 L 325 152.5 L 323.5 153 L 321.5 151 Z " /><path fill="rgb(215,47,39)" stroke="rgb(215,47,39)" stroke-width="1" opacity="1" d="M 490.5 151 L 489.5 153 L 478.5 158 L 478.5 157 L 490.5 151 Z " /><path fill="rgb(215,47,39)" stroke="rgb(215,47,39)" stroke-width="1" opacity="1" d="M 326.5 153 L 330 154.5 L 328.5 155 L 326.5 153 Z " /><path fill="rgb(215,47,39)" stroke="rgb(215,47,39)" stroke-width="1" opacity="1" d="M 13.5 154 L 17 156.5 L 15.5 156 L 13.5 154 Z " /><path fill="rgb(215,47,39)" stroke="rgb(215,47,39)" stroke-width="1" opacity="1" d="M 331.5 155 L 335 156.5 L 333.5 157 L 331.5 155 Z " /><path fill="rgb(215,47,39)" stroke="rgb(215,47,39)" stroke-width="1" opacity="1" d="M 339.5 158 L 343 159.5 L 341.5 160 L 339.5 158 Z " /><path fill="rgb(215,47,39)" stroke="rgb(215,47,39)" stroke-width="1" opacity="1" d="M 344.5 160 L 348 161.5 L 346.5 162 L 344.5 160 Z " /><path fill="rgb(215,47,39)" stroke="rgb(215,47,39)" stroke-width="1" opacity="1" d="M 469.5 161 L 471 161.5 L 465.5 164 L 465.5 163 L 469.5 161 Z " /><path fill="rgb(215,47,39)" stroke="rgb(215,47,39)" stroke-width="1" opacity="1" d="M 28.5 162 L 32 163.5 L 30.5 164 L 28.5 162 Z " /><path fill="rgb(215,47,39)" stroke="rgb(215,47,39)" stroke-width="1" opacity="1" d="M 349.5 162 L 353 163.5 L 351.5 164 L 349.5 162 Z " /><path fill="rgb(215,47,39)" stroke="rgb(215,47,39)" stroke-width="1" opacity="1" d="M 354.5 164 L 358 165.5 L 356.5 166 L 354.5 164 Z " /><path fill="rgb(215,47,39)" stroke="rgb(215,47,39)" stroke-width="1" opacity="1" d="M 460.5 165 L 462 165.5 L 458.5 167 L 458.5 166 L 460.5 165 Z " /><path fill="rgb(215,47,39)" stroke="rgb(215,47,39)" stroke-width="1" opacity="1" d="M 37.5 166 L 41 167.5 L 39.5 168 L 37.5 166 Z " /><path fill="rgb(215,47,39)" stroke="rgb(215,47,39)" stroke-width="1" opacity="1" d="M 359.5 166 L 363 167.5 L 361.5 168 L 359.5 166 Z " /><path fill="rgb(215,47,39)" stroke="rgb(215,47,39)" stroke-width="1" opacity="1" d="M 364.5 168 L 367 168.5 L 364.5 169 L 364.5 168 Z " /><path fill="rgb(215,47,39)" stroke="rgb(215,47,39)" stroke-width="1" opacity="1" d="M 44.5 169 L 48 170.5 L 46.5 171 L 44.5 169 Z " /><path fill="rgb(215,47,39)" stroke="rgb(215,47,39)" stroke-width="1" opacity="1" d="M 449.5 170 L 451 170.5 L 447.5 172 L 447.5 171 L 449.5 170 Z " /><path fill="rgb(215,47,39)" stroke="rgb(215,47,39)" stroke-width="1" opacity="1" d="M 442.5 173 L 444 173.5 L 440.5 175 L 440.5 174 L 442.5 173 Z " /><path fill="rgb(215,47,39)" stroke="rgb(215,47,39)" stroke-width="1" opacity="1" d="M 435.5 176 L 437 176.5 L 433.5 178 L 433.5 177 L 435.5 176 Z " /><path fill="rgb(215,47,39)" stroke="rgb(215,47,39)" stroke-width="1" opacity="1" d="M 428.5 179 L 430 179.5 L 426.5 181 L 426.5 180 L 428.5 179 Z " /><path fill="rgb(215,47,39)" stroke="rgb(215,47,39)" stroke-width="1" opacity="1" d="M 421.5 182 L 423 182.5 L 419.5 184 L 419.5 183 L 421.5 182 Z " /><path fill="rgb(215,47,39)" stroke="rgb(215,47,39)" stroke-width="1" opacity="1" d="M 412.5 186 L 414 186.5 L 410.5 188 L 410.5 187 L 412.5 186 Z " /><path fill="rgb(215,47,39)" stroke="rgb(215,47,39)" stroke-width="1" opacity="1" d="M 405.5 189 L 407 189.5 L 403.5 191 L 403.5 190 L 405.5 189 Z " /><path fill="rgb(215,47,39)" stroke="rgb(215,47,39)" stroke-width="1" opacity="1" d="M 398.5 192 L 400 192.5 L 396.5 194 L 396.5 193 L 398.5 192 Z " /><path fill="rgb(215,47,39)" stroke="rgb(215,47,39)" stroke-width="1" opacity="1" d="M 106.5 195 L 110 196.5 L 108.5 197 L 106.5 195 Z " /><path fill="rgb(215,47,39)" stroke="rgb(215,47,39)" stroke-width="1" opacity="1" d="M 391.5 195 L 393 195.5 L 389.5 197 L 389.5 196 L 391.5 195 Z " /><path fill="rgb(215,47,39)" stroke="rgb(215,47,39)" stroke-width="1" opacity="1" d="M 384.5 198 L 386 198.5 L 382.5 200 L 382.5 199 L 384.5 198 Z " /><path fill="rgb(215,47,39)" stroke="rgb(215,47,39)" stroke-width="1" opacity="1" d="M 377.5 201 L 379 201.5 L 375.5 203 L 375.5 202 L 377.5 201 Z " /><path fill="rgb(215,47,39)" stroke="rgb(215,47,39)" stroke-width="1" opacity="1" d="M 481.5 207 L 483 207.5 L 477.5 210 L 477.5 209 L 481.5 207 Z " /><path fill="rgb(215,47,39)" stroke="rgb(215,47,39)" stroke-width="1" opacity="1" d="M 354.5 211 L 356 211.5 L 352.5 213 L 352.5 212 L 354.5 211 Z " /><path fill="rgb(215,47,39)" stroke="rgb(215,47,39)" stroke-width="1" opacity="1" d="M 468.5 213 L 470 213.5 L 466.5 215 L 466.5 214 L 468.5 213 Z " /><path fill="rgb(215,47,39)" stroke="rgb(215,47,39)" stroke-width="1" opacity="1" d="M 29.5 214 L 33 215.5 L 31.5 216 L 29.5 214 Z " /><path fill="rgb(215,47,39)" stroke="rgb(215,47,39)" stroke-width="1" opacity="1" d="M 347.5 214 L 349 214.5 L 345.5 216 L 345.5 215 L 347.5 214 Z " /><path fill="rgb(215,47,39)" stroke="rgb(215,47,39)" stroke-width="1" opacity="1" d="M 36.5 217 L 40 218.5 L 38.5 219 L 36.5 217 Z " /><path fill="rgb(215,47,39)" stroke="rgb(215,47,39)" stroke-width="1" opacity="1" d="M 159.5 217 L 163 218.5 L 161.5 219 L 159.5 217 Z " /><path fill="rgb(215,47,39)" stroke="rgb(215,47,39)" stroke-width="1" opacity="1" d="M 459.5 217 L 461 217.5 L 457.5 219 L 457.5 218 L 459.5 217 Z " /><path fill="rgb(215,47,39)" stroke="rgb(215,47,39)" stroke-width="1" opacity="1" d="M 338.5 218 L 340 218.5 L 336.5 220 L 336.5 219 L 338.5 218 Z " /><path fill="rgb(215,47,39)" stroke="rgb(215,47,39)" stroke-width="1" opacity="1" d="M 10.5 221 L 9.5 223 L 10.5 221 Z " /><path fill="rgb(215,47,39)" stroke="rgb(215,47,39)" stroke-width="1" opacity="1" d="M 331.5 221 L 333 221.5 L 329.5 223 L 329.5 222 L 331.5 221 Z " /><path fill="rgb(215,47,39)" stroke="rgb(215,47,39)" stroke-width="1" opacity="1" d="M 450.5 221 L 452 221.5 L 448.5 223 L 448.5 222 L 450.5 221 Z " /><path fill="rgb(215,47,39)" stroke="rgb(215,47,39)" stroke-width="1" opacity="1" d="M 171.5 222 L 175 223.5 L 173.5 224 L 171.5 222 Z " /><path fill="rgb(215,47,39)" stroke="rgb(215,47,39)" stroke-width="1" opacity="1" d="M 50.5 223 L 54 224.5 L 52.5 225 L 50.5 223 Z " /><path fill="rgb(215,47,39)" stroke="rgb(215,47,39)" stroke-width="1" opacity="1" d="M 322.5 225 L 324 225.5 L 320.5 227 L 320.5 226 L 322.5 225 Z " /><path fill="rgb(215,47,39)" stroke="rgb(215,47,39)" stroke-width="1" opacity="1" d="M 57.5 226 L 61 227.5 L 59.5 228 L 57.5 226 Z " /><path fill="rgb(215,47,39)" stroke="rgb(215,47,39)" stroke-width="1" opacity="1" d="M 505.5 226 L 499.5 233 L 494.5 236 L 495.5 234 L 505.5 226 Z " /><path fill="rgb(215,47,39)" stroke="rgb(215,47,39)" stroke-width="1" opacity="1" d="M 64.5 229 L 68 230.5 L 66.5 231 L 64.5 229 Z " /><path fill="rgb(215,47,39)" stroke="rgb(215,47,39)" stroke-width="1" opacity="1" d="M 313.5 229 L 315 229.5 L 309.5 232 L 309.5 231 L 313.5 229 Z " /><path fill="rgb(215,47,39)" stroke="rgb(215,47,39)" stroke-width="1" opacity="1" d="M 427.5 231 L 429 231.5 L 425.5 233 L 425.5 232 L 427.5 231 Z " /><path fill="rgb(215,47,39)" stroke="rgb(215,47,39)" stroke-width="1" opacity="1" d="M 5.5 233 L 6.5 235 L 5.5 233 Z " /><path fill="rgb(215,47,39)" stroke="rgb(215,47,39)" stroke-width="1" opacity="1" d="M 76.5 234 L 80 235.5 L 78.5 236 L 76.5 234 Z " /><path fill="rgb(215,47,39)" stroke="rgb(215,47,39)" stroke-width="1" opacity="1" d="M 302.5 234 L 304 234.5 L 286.5 243 L 286.5 242 L 302.5 234 Z " /><path fill="rgb(215,47,39)" stroke="rgb(215,47,39)" stroke-width="1" opacity="1" d="M 492.5 236 L 491.5 238 L 489.5 239 L 490.5 237 L 492.5 236 Z " /><path fill="rgb(215,47,39)" stroke="rgb(215,47,39)" stroke-width="1" opacity="1" d="M 9.5 237 L 11.5 240 L 9.5 237 Z " /><path fill="rgb(215,47,39)" stroke="rgb(215,47,39)" stroke-width="1" opacity="1" d="M 413.5 237 L 415 237.5 L 411.5 239 L 411.5 238 L 413.5 237 Z " /><path fill="rgb(215,47,39)" stroke="rgb(215,47,39)" stroke-width="1" opacity="1" d="M 88.5 239 L 92 240.5 L 90.5 241 L 88.5 239 Z " /><path fill="rgb(215,47,39)" stroke="rgb(215,47,39)" stroke-width="1" opacity="1" d="M 211.5 239 L 215 240.5 L 213.5 241 L 211.5 239 Z " /><path fill="rgb(215,47,39)" stroke="rgb(215,47,39)" stroke-width="1" opacity="1" d="M 13.5 240 L 17 242.5 L 15.5 242 L 13.5 240 Z " /><path fill="rgb(215,47,39)" stroke="rgb(215,47,39)" stroke-width="1" opacity="1" d="M 482.5 241 L 484 241.5 L 481.5 243 L 482.5 241 Z " /><path fill="rgb(215,47,39)" stroke="rgb(215,47,39)" stroke-width="1" opacity="1" d="M 220.5 243 L 224 244.5 L 222.5 245 L 220.5 243 Z " /><path fill="rgb(215,47,39)" stroke="rgb(215,47,39)" stroke-width="1" opacity="1" d="M 478.5 243 L 480 243.5 L 474.5 246 L 474.5 245 L 478.5 243 Z " /><path fill="rgb(215,47,39)" stroke="rgb(215,47,39)" stroke-width="1" opacity="1" d="M 100.5 244 L 104 245.5 L 102.5 246 L 100.5 244 Z " /><path fill="rgb(215,47,39)" stroke="rgb(215,47,39)" stroke-width="1" opacity="1" d="M 279.5 245 L 281 245.5 L 277.5 247 L 277.5 246 L 279.5 245 Z " /><path fill="rgb(215,47,39)" stroke="rgb(215,47,39)" stroke-width="1" opacity="1" d="M 467.5 248 L 469 248.5 L 465.5 250 L 465.5 249 L 467.5 248 Z " /><path fill="rgb(215,47,39)" stroke="rgb(215,47,39)" stroke-width="1" opacity="1" d="M 112.5 249 L 116 250.5 L 114.5 251 L 112.5 249 Z " /><path fill="rgb(215,47,39)" stroke="rgb(215,47,39)" stroke-width="1" opacity="1" d="M 238.5 250 L 241 250.5 L 238.5 251 L 238.5 250 Z " /><path fill="rgb(215,47,39)" stroke="rgb(215,47,39)" stroke-width="1" opacity="1" d="M 264.5 250 L 267 250.5 L 264.5 251 L 264.5 250 Z " /><path fill="rgb(215,47,39)" stroke="rgb(215,47,39)" stroke-width="1" opacity="1" d="M 383.5 250 L 385 250.5 L 381.5 252 L 381.5 251 L 383.5 250 Z " /><path fill="rgb(215,47,39)" stroke="rgb(215,47,39)" stroke-width="1" opacity="1" d="M 243.5 251 L 246 251.5 L 243.5 252 L 243.5 251 Z " /><path fill="rgb(215,47,39)" stroke="rgb(215,47,39)" stroke-width="1" opacity="1" d="M 259.5 251 L 262 251.5 L 259.5 252 L 259.5 251 Z " /><path fill="rgb(215,47,39)" stroke="rgb(215,47,39)" stroke-width="1" opacity="1" d="M 458.5 252 L 460 252.5 L 456.5 254 L 456.5 253 L 458.5 252 Z " /><path fill="rgb(215,47,39)" stroke="rgb(215,47,39)" stroke-width="1" opacity="1" d="M 376.5 253 L 378 253.5 L 374.5 255 L 374.5 254 L 376.5 253 Z " /><path fill="rgb(215,47,39)" stroke="rgb(215,47,39)" stroke-width="1" opacity="1" d="M 124.5 254 L 128 255.5 L 126.5 256 L 124.5 254 Z " /><path fill="rgb(215,47,39)" stroke="rgb(215,47,39)" stroke-width="1" opacity="1" d="M 44.5 255 L 48 256.5 L 46.5 257 L 44.5 255 Z " /><path fill="rgb(215,47,39)" stroke="rgb(215,47,39)" stroke-width="1" opacity="1" d="M 449.5 256 L 451 256.5 L 447.5 258 L 447.5 257 L 449.5 256 Z " /><path fill="rgb(215,47,39)" stroke="rgb(215,47,39)" stroke-width="1" opacity="1" d="M 136.5 259 L 140 260.5 L 138.5 261 L 136.5 259 Z " /><path fill="rgb(215,47,39)" stroke="rgb(215,47,39)" stroke-width="1" opacity="1" d="M 442.5 259 L 444 259.5 L 440.5 261 L 440.5 260 L 442.5 259 Z " /><path fill="rgb(215,47,39)" stroke="rgb(215,47,39)" stroke-width="1" opacity="1" d="M 435.5 262 L 437 262.5 L 433.5 264 L 433.5 263 L 435.5 262 Z " /><path fill="rgb(215,47,39)" stroke="rgb(215,47,39)" stroke-width="1" opacity="1" d="M 148.5 264 L 152 265.5 L 150.5 266 L 148.5 264 Z " /><path fill="rgb(215,47,39)" stroke="rgb(215,47,39)" stroke-width="1" opacity="1" d="M 153.5 266 L 157 267.5 L 155.5 268 L 153.5 266 Z " /><path fill="rgb(215,47,39)" stroke="rgb(215,47,39)" stroke-width="1" opacity="1" d="M 346.5 266 L 348 266.5 L 344.5 268 L 344.5 267 L 346.5 266 Z " /><path fill="rgb(215,47,39)" stroke="rgb(215,47,39)" stroke-width="1" opacity="1" d="M 339.5 269 L 341 269.5 L 337.5 271 L 337.5 270 L 339.5 269 Z " /><path fill="rgb(215,47,39)" stroke="rgb(215,47,39)" stroke-width="1" opacity="1" d="M 419.5 269 L 421 269.5 L 417.5 271 L 417.5 270 L 419.5 269 Z " /><path fill="rgb(215,47,39)" stroke="rgb(215,47,39)" stroke-width="1" opacity="1" d="M 165.5 271 L 169 272.5 L 167.5 273 L 165.5 271 Z " /><path fill="rgb(215,47,39)" stroke="rgb(215,47,39)" stroke-width="1" opacity="1" d="M 412.5 272 L 414 272.5 L 410.5 274 L 410.5 273 L 412.5 272 Z " /><path fill="rgb(215,47,39)" stroke="rgb(215,47,39)" stroke-width="1" opacity="1" d="M 330.5 273 L 332 273.5 L 328.5 275 L 328.5 274 L 330.5 273 Z " /><path fill="rgb(215,47,39)" stroke="rgb(215,47,39)" stroke-width="1" opacity="1" d="M 405.5 275 L 407 275.5 L 403.5 277 L 403.5 276 L 405.5 275 Z " /><path fill="rgb(215,47,39)" stroke="rgb(215,47,39)" stroke-width="1" opacity="1" d="M 177.5 276 L 181 277.5 L 179.5 278 L 177.5 276 Z " /><path fill="rgb(215,47,39)" stroke="rgb(215,47,39)" stroke-width="1" opacity="1" d="M 398.5 278 L 400 278.5 L 396.5 280 L 396.5 279 L 398.5 278 Z " /><path fill="rgb(215,47,39)" stroke="rgb(215,47,39)" stroke-width="1" opacity="1" d="M 312.5 281 L 314 281.5 L 310.5 283 L 310.5 282 L 312.5 281 Z " /><path fill="rgb(215,47,39)" stroke="rgb(215,47,39)" stroke-width="1" opacity="1" d="M 391.5 281 L 393 281.5 L 389.5 283 L 389.5 282 L 391.5 281 Z " /><path fill="rgb(215,47,39)" stroke="rgb(215,47,39)" stroke-width="1" opacity="1" d="M 196.5 284 L 200 285.5 L 198.5 286 L 196.5 284 Z " /><path fill="rgb(215,47,39)" stroke="rgb(215,47,39)" stroke-width="1" opacity="1" d="M 301.5 286 L 303 286.5 L 287.5 294 L 287.5 293 L 301.5 286 Z " /><path fill="rgb(215,47,39)" stroke="rgb(215,47,39)" stroke-width="1" opacity="1" d="M 203.5 287 L 207 288.5 L 205.5 289 L 203.5 287 Z " /><path fill="rgb(215,47,39)" stroke="rgb(215,47,39)" stroke-width="1" opacity="1" d="M 210.5 290 L 216 292.5 L 214.5 293 L 210.5 291 L 210.5 290 Z " /><path fill="rgb(215,47,39)" stroke="rgb(215,47,39)" stroke-width="1" opacity="1" d="M 368.5 291 L 370 291.5 L 366.5 293 L 366.5 292 L 368.5 291 Z " /><path fill="rgb(215,47,39)" stroke="rgb(215,47,39)" stroke-width="1" opacity="1" d="M 219.5 294 L 225 296.5 L 223.5 297 L 219.5 295 L 219.5 294 Z " /><path fill="rgb(215,47,39)" stroke="rgb(215,47,39)" stroke-width="1" opacity="1" d="M 361.5 294 L 363 294.5 L 359.5 296 L 359.5 295 L 361.5 294 Z " /><path fill="rgb(215,47,39)" stroke="rgb(215,47,39)" stroke-width="1" opacity="1" d="M 479.5 294 L 481 294.5 L 477.5 296 L 477.5 295 L 479.5 294 Z " /><path fill="rgb(215,47,39)" stroke="rgb(215,47,39)" stroke-width="1" opacity="1" d="M 354.5 297 L 356 297.5 L 352.5 299 L 352.5 298 L 354.5 297 Z " /><path fill="rgb(215,47,39)" stroke="rgb(215,47,39)" stroke-width="1" opacity="1" d="M 228.5 298 L 232 299.5 L 230.5 300 L 228.5 298 Z " /><path fill="rgb(215,47,39)" stroke="rgb(215,47,39)" stroke-width="1" opacity="1" d="M 29.5 300 L 33 301.5 L 31.5 302 L 29.5 300 Z " /><path fill="rgb(215,47,39)" stroke="rgb(215,47,39)" stroke-width="1" opacity="1" d="M 347.5 300 L 349 300.5 L 345.5 302 L 345.5 301 L 347.5 300 Z " /><path fill="rgb(215,47,39)" stroke="rgb(215,47,39)" stroke-width="1" opacity="1" d="M 466.5 300 L 468 300.5 L 464.5 302 L 464.5 301 L 466.5 300 Z " /><path fill="rgb(215,47,39)" stroke="rgb(215,47,39)" stroke-width="1" opacity="1" d="M 266.5 301 L 269 301.5 L 266.5 302 L 266.5 301 Z " /><path fill="rgb(215,47,39)" stroke="rgb(215,47,39)" stroke-width="1" opacity="1" d="M 261.5 302 L 264 302.5 L 261.5 303 L 261.5 302 Z " /><path fill="rgb(215,47,39)" stroke="rgb(215,47,39)" stroke-width="1" opacity="1" d="M 247.5 303 L 258 303.5 L 247.5 304 L 247.5 303 Z " /><path fill="rgb(215,47,39)" stroke="rgb(215,47,39)" stroke-width="1" opacity="1" d="M 38.5 304 L 42 305.5 L 40.5 306 L 38.5 304 Z " /><path fill="rgb(215,47,39)" stroke="rgb(215,47,39)" stroke-width="1" opacity="1" d="M 338.5 304 L 340 304.5 L 336.5 306 L 336.5 305 L 338.5 304 Z " /><path fill="rgb(215,47,39)" stroke="rgb(215,47,39)" stroke-width="1" opacity="1" d="M 457.5 304 L 459 304.5 L 455.5 306 L 455.5 305 L 457.5 304 Z " /><path fill="rgb(215,47,39)" stroke="rgb(215,47,39)" stroke-width="1" opacity="1" d="M 45.5 307 L 49 308.5 L 47.5 309 L 45.5 307 Z " /><path fill="rgb(215,47,39)" stroke="rgb(215,47,39)" stroke-width="1" opacity="1" d="M 331.5 307 L 333 307.5 L 327.5 310 L 327.5 309 L 331.5 307 Z " /><path fill="rgb(215,47,39)" stroke="rgb(215,47,39)" stroke-width="1" opacity="1" d="M 505.5 309 L 500.5 315 L 505.5 309 Z " /><path fill="rgb(215,47,39)" stroke="rgb(215,47,39)" stroke-width="1" opacity="1" d="M 322.5 311 L 324 311.5 L 318.5 314 L 318.5 313 L 322.5 311 Z " /><path fill="rgb(215,47,39)" stroke="rgb(215,47,39)" stroke-width="1" opacity="1" d="M 441.5 311 L 443 311.5 L 439.5 313 L 439.5 312 L 441.5 311 Z " /><path fill="rgb(215,47,39)" stroke="rgb(215,47,39)" stroke-width="1" opacity="1" d="M 64.5 315 L 68 316.5 L 66.5 317 L 64.5 315 Z " /><path fill="rgb(215,47,39)" stroke="rgb(215,47,39)" stroke-width="1" opacity="1" d="M 498.5 315 L 496.5 318 L 494.5 319 L 495.5 317 L 498.5 315 Z " /><path fill="rgb(215,47,39)" stroke="rgb(215,47,39)" stroke-width="1" opacity="1" d="M 5.5 316 L 11.5 323 L 5.5 316 Z " /><path fill="rgb(215,47,39)" stroke="rgb(215,47,39)" stroke-width="1" opacity="1" d="M 311.5 316 L 313 316.5 L 309.5 318 L 309.5 317 L 311.5 316 Z " /><path fill="rgb(215,47,39)" stroke="rgb(215,47,39)" stroke-width="1" opacity="1" d="M 427.5 317 L 429 317.5 L 425.5 319 L 425.5 318 L 427.5 317 Z " /><path fill="rgb(215,47,39)" stroke="rgb(215,47,39)" stroke-width="1" opacity="1" d="M 76.5 320 L 80 321.5 L 78.5 322 L 76.5 320 Z " /><path fill="rgb(215,47,39)" stroke="rgb(215,47,39)" stroke-width="1" opacity="1" d="M 490.5 320 L 489.5 322 L 478.5 327 L 478.5 326 L 490.5 320 Z " /><path fill="rgb(215,47,39)" stroke="rgb(215,47,39)" stroke-width="1" opacity="1" d="M 300.5 321 L 302 321.5 L 284.5 330 L 284.5 329 L 300.5 321 Z " /><path fill="rgb(215,47,39)" stroke="rgb(215,47,39)" stroke-width="1" opacity="1" d="M 13.5 323 L 17 325.5 L 15.5 325 L 13.5 323 Z " /><path fill="rgb(215,47,39)" stroke="rgb(215,47,39)" stroke-width="1" opacity="1" d="M 88.5 325 L 92 326.5 L 90.5 327 L 88.5 325 Z " /><path fill="rgb(215,47,39)" stroke="rgb(215,47,39)" stroke-width="1" opacity="1" d="M 220.5 329 L 224 330.5 L 222.5 331 L 220.5 329 Z " /><path fill="rgb(215,47,39)" stroke="rgb(215,47,39)" stroke-width="1" opacity="1" d="M 100.5 330 L 104 331.5 L 102.5 332 L 100.5 330 Z " /><path fill="rgb(215,47,39)" stroke="rgb(215,47,39)" stroke-width="1" opacity="1" d="M 397.5 330 L 399 330.5 L 395.5 332 L 395.5 331 L 397.5 330 Z " /><path fill="rgb(215,47,39)" stroke="rgb(215,47,39)" stroke-width="1" opacity="1" d="M 469.5 330 L 471 330.5 L 465.5 333 L 465.5 332 L 469.5 330 Z " /><path fill="rgb(215,47,39)" stroke="rgb(215,47,39)" stroke-width="1" opacity="1" d="M 28.5 331 L 32 332.5 L 30.5 333 L 28.5 331 Z " /><path fill="rgb(215,47,39)" stroke="rgb(215,47,39)" stroke-width="1" opacity="1" d="M 460.5 334 L 462 334.5 L 458.5 336 L 458.5 335 L 460.5 334 Z " /><path fill="rgb(215,47,39)" stroke="rgb(215,47,39)" stroke-width="1" opacity="1" d="M 37.5 335 L 41 336.5 L 39.5 337 L 37.5 335 Z " /><path fill="rgb(215,47,39)" stroke="rgb(215,47,39)" stroke-width="1" opacity="1" d="M 112.5 335 L 116 336.5 L 114.5 337 L 112.5 335 Z " /><path fill="rgb(215,47,39)" stroke="rgb(215,47,39)" stroke-width="1" opacity="1" d="M 264.5 336 L 267 336.5 L 264.5 337 L 264.5 336 Z " /><path fill="rgb(215,47,39)" stroke="rgb(215,47,39)" stroke-width="1" opacity="1" d="M 383.5 336 L 385 336.5 L 381.5 338 L 381.5 337 L 383.5 336 Z " /><path fill="rgb(215,47,39)" stroke="rgb(215,47,39)" stroke-width="1" opacity="1" d="M 242.5 337 L 246 337.5 L 242.5 338 L 242.5 337 Z " /><path fill="rgb(215,47,39)" stroke="rgb(215,47,39)" stroke-width="1" opacity="1" d="M 259.5 337 L 262 337.5 L 259.5 338 L 259.5 337 Z " /><path fill="rgb(215,47,39)" stroke="rgb(215,47,39)" stroke-width="1" opacity="1" d="M 44.5 338 L 48 339.5 L 46.5 340 L 44.5 338 Z " /><path fill="rgb(215,47,39)" stroke="rgb(215,47,39)" stroke-width="1" opacity="1" d="M 449.5 339 L 451 339.5 L 447.5 341 L 447.5 340 L 449.5 339 Z " /><path fill="rgb(215,47,39)" stroke="rgb(215,47,39)" stroke-width="1" opacity="1" d="M 442.5 342 L 444 342.5 L 440.5 344 L 440.5 343 L 442.5 342 Z " /><path fill="rgb(215,47,39)" stroke="rgb(215,47,39)" stroke-width="1" opacity="1" d="M 136.5 345 L 140 346.5 L 138.5 347 L 136.5 345 Z " /><path fill="rgb(215,47,39)" stroke="rgb(215,47,39)" stroke-width="1" opacity="1" d="M 435.5 345 L 437 345.5 L 433.5 347 L 433.5 346 L 435.5 345 Z " /><path fill="rgb(215,47,39)" stroke="rgb(215,47,39)" stroke-width="1" opacity="1" d="M 428.5 348 L 430 348.5 L 426.5 350 L 426.5 349 L 428.5 348 Z " /><path fill="rgb(215,47,39)" stroke="rgb(215,47,39)" stroke-width="1" opacity="1" d="M 353.5 349 L 355 349.5 L 351.5 351 L 351.5 350 L 353.5 349 Z " /><path fill="rgb(215,47,39)" stroke="rgb(215,47,39)" stroke-width="1" opacity="1" d="M 148.5 350 L 152 351.5 L 150.5 352 L 148.5 350 Z " /><path fill="rgb(215,47,39)" stroke="rgb(215,47,39)" stroke-width="1" opacity="1" d="M 421.5 351 L 423 351.5 L 419.5 353 L 419.5 352 L 421.5 351 Z " /><path fill="rgb(215,47,39)" stroke="rgb(215,47,39)" stroke-width="1" opacity="1" d="M 346.5 352 L 348 352.5 L 344.5 354 L 344.5 353 L 346.5 352 Z " /><path fill="rgb(215,47,39)" stroke="rgb(215,47,39)" stroke-width="1" opacity="1" d="M 160.5 355 L 164 356.5 L 162.5 357 L 160.5 355 Z " /><path fill="rgb(215,47,39)" stroke="rgb(215,47,39)" stroke-width="1" opacity="1" d="M 412.5 355 L 414 355.5 L 410.5 357 L 410.5 356 L 412.5 355 Z " /><path fill="rgb(215,47,39)" stroke="rgb(215,47,39)" stroke-width="1" opacity="1" d="M 405.5 358 L 407 358.5 L 403.5 360 L 403.5 359 L 405.5 358 Z " /><path fill="rgb(215,47,39)" stroke="rgb(215,47,39)" stroke-width="1" opacity="1" d="M 172.5 360 L 176 361.5 L 174.5 362 L 172.5 360 Z " /><path fill="rgb(215,47,39)" stroke="rgb(215,47,39)" stroke-width="1" opacity="1" d="M 398.5 361 L 400 361.5 L 396.5 363 L 396.5 362 L 398.5 361 Z " /><path fill="rgb(215,47,39)" stroke="rgb(215,47,39)" stroke-width="1" opacity="1" d="M 321.5 363 L 323 363.5 L 319.5 365 L 319.5 364 L 321.5 363 Z " /><path fill="rgb(215,47,39)" stroke="rgb(215,47,39)" stroke-width="1" opacity="1" d="M 106.5 364 L 110 365.5 L 108.5 366 L 106.5 364 Z " /><path fill="rgb(215,47,39)" stroke="rgb(215,47,39)" stroke-width="1" opacity="1" d="M 391.5 364 L 393 364.5 L 389.5 366 L 389.5 365 L 391.5 364 Z " /><path fill="rgb(215,47,39)" stroke="rgb(215,47,39)" stroke-width="1" opacity="1" d="M 184.5 365 L 188 366.5 L 186.5 367 L 184.5 365 Z " /><path fill="rgb(215,47,39)" stroke="rgb(215,47,39)" stroke-width="1" opacity="1" d="M 384.5 367 L 386 367.5 L 382.5 369 L 382.5 368 L 384.5 367 Z " /><path fill="rgb(215,47,39)" stroke="rgb(215,47,39)" stroke-width="1" opacity="1" d="M 191.5 368 L 195 369.5 L 193.5 370 L 191.5 368 Z " /><path fill="rgb(215,47,39)" stroke="rgb(215,47,39)" stroke-width="1" opacity="1" d="M 377.5 370 L 379 370.5 L 375.5 372 L 375.5 371 L 377.5 370 Z " /><path fill="rgb(215,47,39)" stroke="rgb(215,47,39)" stroke-width="1" opacity="1" d="M 299.5 373 L 301 373.5 L 283.5 382 L 283.5 381 L 299.5 373 Z " /><path fill="rgb(215,47,39)" stroke="rgb(215,47,39)" stroke-width="1" opacity="1" d="M 370.5 373 L 372 373.5 L 368.5 375 L 368.5 374 L 370.5 373 Z " /><path fill="rgb(215,47,39)" stroke="rgb(215,47,39)" stroke-width="1" opacity="1" d="M 212.5 377 L 216 378.5 L 214.5 379 L 212.5 377 Z " /><path fill="rgb(215,47,39)" stroke="rgb(215,47,39)" stroke-width="1" opacity="1" d="M 354.5 380 L 356 380.5 L 352.5 382 L 352.5 381 L 354.5 380 Z " /><path fill="rgb(215,47,39)" stroke="rgb(215,47,39)" stroke-width="1" opacity="1" d="M 221.5 381 L 225 382.5 L 223.5 383 L 221.5 381 Z " /><path fill="rgb(215,47,39)" stroke="rgb(215,47,39)" stroke-width="1" opacity="1" d="M 278.5 383 L 280 383.5 L 276.5 385 L 276.5 384 L 278.5 383 Z " /><path fill="rgb(215,47,39)" stroke="rgb(215,47,39)" stroke-width="1" opacity="1" d="M 347.5 383 L 349 383.5 L 345.5 385 L 345.5 384 L 347.5 383 Z " /><path fill="rgb(215,47,39)" stroke="rgb(215,47,39)" stroke-width="1" opacity="1" d="M 228.5 384 L 232 385.5 L 230.5 386 L 228.5 384 Z " /><path fill="rgb(215,47,39)" stroke="rgb(215,47,39)" stroke-width="1" opacity="1" d="M 159.5 386 L 163 387.5 L 161.5 388 L 159.5 386 Z " /><path fill="rgb(215,47,39)" stroke="rgb(215,47,39)" stroke-width="1" opacity="1" d="M 236.5 387 L 239 387.5 L 236.5 388 L 236.5 387 Z " /><path fill="rgb(215,47,39)" stroke="rgb(215,47,39)" stroke-width="1" opacity="1" d="M 338.5 387 L 340 387.5 L 336.5 389 L 336.5 388 L 338.5 387 Z " /><path fill="rgb(215,47,39)" stroke="rgb(215,47,39)" stroke-width="1" opacity="1" d="M 240.5 388 L 243 388.5 L 240.5 389 L 240.5 388 Z " /><path fill="rgb(215,47,39)" stroke="rgb(215,47,39)" stroke-width="1" opacity="1" d="M 262.5 388 L 265 388.5 L 262.5 389 L 262.5 388 Z " /><path fill="rgb(215,47,39)" stroke="rgb(215,47,39)" stroke-width="1" opacity="1" d="M 246.5 389 L 258 389.5 L 246.5 390 L 246.5 389 Z " /><path fill="rgb(215,47,39)" stroke="rgb(215,47,39)" stroke-width="1" opacity="1" d="M 331.5 390 L 333 390.5 L 329.5 392 L 329.5 391 L 331.5 390 Z " /><path fill="rgb(215,47,39)" stroke="rgb(215,47,39)" stroke-width="1" opacity="1" d="M 171.5 391 L 175 392.5 L 173.5 393 L 171.5 391 Z " /><path fill="rgb(215,47,39)" stroke="rgb(215,47,39)" stroke-width="1" opacity="1" d="M 322.5 394 L 324 394.5 L 320.5 396 L 320.5 395 L 322.5 394 Z " /><path fill="rgb(215,47,39)" stroke="rgb(215,47,39)" stroke-width="1" opacity="1" d="M 313.5 398 L 315 398.5 L 309.5 401 L 309.5 400 L 313.5 398 Z " /><path fill="rgb(215,47,39)" stroke="rgb(215,47,39)" stroke-width="1" opacity="1" d="M 302.5 403 L 304 403.5 L 286.5 412 L 286.5 411 L 302.5 403 Z " /><path fill="rgb(215,47,39)" stroke="rgb(215,47,39)" stroke-width="1" opacity="1" d="M 211.5 408 L 215 409.5 L 213.5 410 L 211.5 408 Z " /><path fill="rgb(215,47,39)" stroke="rgb(215,47,39)" stroke-width="1" opacity="1" d="M 220.5 412 L 224 413.5 L 222.5 414 L 220.5 412 Z " /><path fill="rgb(215,47,39)" stroke="rgb(215,47,39)" stroke-width="1" opacity="1" d="M 279.5 414 L 281 414.5 L 277.5 416 L 277.5 415 L 279.5 414 Z " /><path fill="rgb(215,47,39)" stroke="rgb(215,47,39)" stroke-width="1" opacity="1" d="M 238.5 419 L 241 419.5 L 238.5 420 L 238.5 419 Z " /><path fill="rgb(215,47,39)" stroke="rgb(215,47,39)" stroke-width="1" opacity="1" d="M 264.5 419 L 267 419.5 L 264.5 420 L 264.5 419 Z " /><path fill="rgb(215,47,39)" stroke="rgb(215,47,39)" stroke-width="1" opacity="1" d="M 243.5 420 L 246 420.5 L 243.5 421 L 243.5 420 Z " /><path fill="rgb(215,47,39)" stroke="rgb(215,47,39)" stroke-width="1" opacity="1" d="M 259.5 420 L 262 420.5 L 259.5 421 L 259.5 420 Z " /><path fill="rgb(133,24,23)" stroke="rgb(133,24,23)" stroke-width="1" opacity="0.8549019607843137" d="M 373 112 L 441 138.5 L 373 165 L 373 112 Z " /><path fill="rgb(216,47,39)" stroke="rgb(216,47,39)" stroke-width="1" opacity="1" d="M 262.5 41 L 276.5 42 L 280.5 44 L 282.5 44 L 293.5 47 L 304.5 52 L 307.5 52 L 309.5 54 L 312.5 54 L 327.5 61 L 333.5 62 L 340.5 66 L 348.5 68 L 350.5 70 L 356.5 71 L 358.5 73 L 361.5 73 L 363.5 75 L 366.5 75 L 378.5 81 L 384.5 82 L 391.5 86 L 399.5 88 L 401.5 90 L 407.5 91 L 409.5 93 L 412.5 93 L 414.5 95 L 417.5 95 L 429.5 101 L 435.5 102 L 442.5 106 L 450.5 108 L 452.5 110 L 458.5 111 L 470.5 117 L 481.5 120 L 486.5 123 L 489.5 123 Q 491.3 126.2 496.5 126 L 507 134.5 L 506 137.5 L 506 139.5 L 499.5 146 L 471.5 161 L 331.5 221 L 281.5 245 L 263.5 251 L 246.5 252 L 228.5 247 L 191.5 230 L 36.5 166 L 12.5 154 L 5 146.5 L 4 143.5 L 6 138 L 10 137 Q 8.9 134.3 11.5 135 L 25.5 128 L 33.5 126 L 35.5 124 L 48.5 119 L 51.5 119 L 68.5 111 L 74.5 110 L 86.5 104 L 120.5 92 L 127.5 88 L 138.5 85 L 148.5 80 L 151.5 80 L 163.5 74 L 169.5 73 L 171.5 71 L 182.5 68 L 189.5 64 L 248.5 43 L 250.5 43 L 261.5 42 L 262.5 41 Z M 229 68 L 239 89 L 203 102 L 209 103 L 252 106 L 267 131 Q 266 133 269 132 L 277 111 L 279 109 Q 284 111 286 108 L 295 108 L 296 107 L 314 106 L 320 105 L 288 92 L 296 71 L 266 81 L 262 81 L 229 68 Z M 372 111 L 296 142 L 365 169 L 378 165 L 442 139 L 439 136 L 376 111 L 372 111 Z M 138 118 L 113 123 L 97 131 L 90 141 Q 90 147 93 150 L 108 159 L 121 163 L 139 165 L 140 166 L 166 166 L 167 165 L 175 165 L 198 159 L 209 153 L 215 145 Q 216 138 213 136 Q 208 129 201 126 L 182 120 L 169 119 L 168 118 L 138 118 Z M 299 167 L 272 172 L 240 176 L 239 177 L 233 177 L 226 179 L 220 179 L 213 181 L 207 181 L 200 183 L 194 183 Q 192 185 188 184 L 186 186 L 261 217 L 266 218 L 300 169 Q 301 166 299 167 Z " /><path fill="rgb(216,47,39)" stroke="rgb(216,47,39)" stroke-width="1" opacity="1" d="M 483.5 207 L 501.5 215 L 506 219.5 L 507 222.5 Q 505.4 229.4 499.5 232 L 480.5 243 L 331.5 307 L 279.5 332 L 258.5 338 L 246.5 338 L 228.5 333 L 179.5 311 L 52.5 259 L 17.5 243 L 7 235.5 L 4 229.5 L 8.5 223 L 22.5 215 L 28.5 214 L 66.5 231 L 186.5 280 L 230.5 300 L 247.5 304 L 257.5 304 L 268.5 302 L 279.5 298 L 320.5 278 L 449.5 223 L 483.5 207 Z " /><path fill="rgb(216,47,39)" stroke="rgb(216,47,39)" stroke-width="1" opacity="1" d="M 485.5 292 Q 500.1 293.9 507 303.5 L 506 306.5 L 506 308.5 L 499.5 315 L 471.5 330 L 331.5 390 L 281.5 414 L 263.5 420 L 246.5 421 L 228.5 416 L 191.5 399 L 36.5 335 L 12.5 323 L 5 315.5 L 4 312.5 L 8.5 306 L 11.5 304 L 24.5 298 L 66.5 317 L 200.5 372 L 230.5 386 L 246.5 390 L 257.5 390 L 271.5 387 L 284.5 382 L 329.5 360 L 440.5 313 L 485.5 292 Z " /><path fill="rgb(164,33,34)" stroke="rgb(164,33,34)" stroke-width="1" opacity="0.996078431372549" d="M 504.5 192 L 501.5 196 L 504.5 192 Z " /><path fill="rgb(164,33,34)" stroke="rgb(164,33,34)" stroke-width="1" opacity="0.996078431372549" d="M 499.5 196 L 497.5 199 L 499.5 196 Z " /><path fill="rgb(164,33,34)" stroke="rgb(164,33,34)" stroke-width="1" opacity="0.996078431372549" d="M 5.5 198 L 10.5 204 L 5.5 198 Z " /><path fill="rgb(164,33,34)" stroke="rgb(164,33,34)" stroke-width="1" opacity="0.996078431372549" d="M 493.5 200 L 492.5 202 L 493.5 200 Z " /><path fill="rgb(164,33,34)" stroke="rgb(164,33,34)" stroke-width="1" opacity="0.996078431372549" d="M 12.5 204 L 13.5 206 L 12.5 204 Z " /><path fill="rgb(164,33,34)" stroke="rgb(164,33,34)" stroke-width="1" opacity="0.996078431372549" d="M 17.5 207 L 18.5 209 L 17.5 207 Z " /><path fill="rgb(164,33,34)" stroke="rgb(164,33,34)" stroke-width="1" opacity="0.996078431372549" d="M 27.5 212 L 28.5 214 L 27.5 212 Z " /><path fill="rgb(164,33,34)" stroke="rgb(164,33,34)" stroke-width="1" opacity="0.996078431372549" d="M 504.5 278 L 501.5 282 L 504.5 278 Z " /><path fill="rgb(164,33,34)" stroke="rgb(164,33,34)" stroke-width="1" opacity="0.996078431372549" d="M 499.5 282 L 497.5 285 L 499.5 282 Z " /><path fill="rgb(164,33,34)" stroke="rgb(164,33,34)" stroke-width="1" opacity="0.996078431372549" d="M 5.5 284 L 10.5 290 L 5.5 284 Z " /><path fill="rgb(164,33,34)" stroke="rgb(164,33,34)" stroke-width="1" opacity="0.996078431372549" d="M 493.5 286 L 492.5 288 L 493.5 286 Z " /><path fill="rgb(164,33,34)" stroke="rgb(164,33,34)" stroke-width="1" opacity="0.996078431372549" d="M 12.5 290 L 13.5 292 L 12.5 290 Z " /><path fill="rgb(164,33,34)" stroke="rgb(164,33,34)" stroke-width="1" opacity="0.996078431372549" d="M 15.5 292 L 19 294.5 L 17.5 294 L 15.5 292 Z " /><path fill="rgb(164,33,34)" stroke="rgb(164,33,34)" stroke-width="1" opacity="0.996078431372549" d="M 504.5 361 L 501.5 365 L 504.5 361 Z " /><path fill="rgb(164,33,34)" stroke="rgb(164,33,34)" stroke-width="1" opacity="0.996078431372549" d="M 499.5 365 L 497.5 368 L 499.5 365 Z " /><path fill="rgb(164,33,34)" stroke="rgb(164,33,34)" stroke-width="1" opacity="0.996078431372549" d="M 5.5 367 L 10.5 373 L 5.5 367 Z " /><path fill="rgb(164,33,34)" stroke="rgb(164,33,34)" stroke-width="1" opacity="0.996078431372549" d="M 493.5 369 L 492.5 371 L 493.5 369 Z " /><path fill="rgb(164,33,34)" stroke="rgb(164,33,34)" stroke-width="1" opacity="0.996078431372549" d="M 12.5 373 L 13.5 375 L 12.5 373 Z " /><path fill="rgb(164,33,34)" stroke="rgb(164,33,34)" stroke-width="1" opacity="0.996078431372549" d="M 17.5 376 L 18.5 378 L 17.5 376 Z " /><path fill="rgb(164,33,34)" stroke="rgb(164,33,34)" stroke-width="1" opacity="0.996078431372549" d="M 462.5 384 L 464 384.5 L 460.5 386 L 460.5 385 L 462.5 384 Z " /><path fill="rgb(164,33,34)" stroke="rgb(164,33,34)" stroke-width="1" opacity="0.996078431372549" d="M 453.5 388 L 455 388.5 L 451.5 390 L 451.5 389 L 453.5 388 Z " /><path fill="rgb(164,33,34)" stroke="rgb(164,33,34)" stroke-width="1" opacity="0.996078431372549" d="M 372.5 423 L 374 423.5 L 370.5 425 L 370.5 424 L 372.5 423 Z " /><path fill="rgb(164,33,34)" stroke="rgb(164,33,34)" stroke-width="1" opacity="0.996078431372549" d="M 306.5 452 L 308 452.5 L 304.5 454 L 304.5 453 L 306.5 452 Z " /><path fill="rgb(164,33,34)" stroke="rgb(164,33,34)" stroke-width="1" opacity="0.996078431372549" d="M 207.5 457 L 211 458.5 L 209.5 459 L 207.5 457 Z " /><path fill="rgb(164,33,34)" stroke="rgb(164,33,34)" stroke-width="1" opacity="0.996078431372549" d="M 216.5 461 L 220 462.5 L 218.5 463 L 216.5 461 Z " /><path fill="rgb(164,33,34)" stroke="rgb(164,33,34)" stroke-width="1" opacity="0.996078431372549" d="M 244.5 471 L 247 471.5 L 244.5 472 L 244.5 471 Z " /><path fill="rgb(164,33,34)" stroke="rgb(164,33,34)" stroke-width="1" opacity="0.996078431372549" d="M 258.5 471 L 261 471.5 L 258.5 472 L 258.5 471 Z " /><path fill="rgb(164,33,34)" stroke="rgb(164,33,34)" stroke-width="1" opacity="1" d="M 372.5 111 L 375 111.5 L 373 112 L 373 164.5 L 374 165.5 L 367.5 168 L 363.5 168 L 298 141.5 L 372.5 111 Z " /><path fill="rgb(164,33,34)" stroke="rgb(164,33,34)" stroke-width="1" opacity="1" d="M 439.5 137 L 442 138.5 L 440.5 138 L 439.5 137 Z " /><path fill="rgb(164,33,34)" stroke="rgb(164,33,34)" stroke-width="1" opacity="1" d="M 506.5 139 L 507 186.5 Q 505.5 193 500.5 196 L 470.5 213 L 339.5 269 L 280.5 297 L 260.5 303 L 243.5 303 L 227.5 298 L 178.5 276 L 44.5 221 L 19.5 209 Q 10.8 204.8 5 197.5 L 4 195.5 L 4 146.5 L 5 146.5 L 11.5 154 L 39.5 168 L 192.5 231 L 229.5 248 L 243.5 252 L 261.5 252 L 278.5 247 L 328.5 223 L 466.5 164 L 496.5 149 L 506 140.5 L 506.5 139 Z " /><path fill="rgb(164,33,34)" stroke="rgb(164,33,34)" stroke-width="1" opacity="1" d="M 506.5 225 L 507 273.5 L 500.5 282 L 486 290 Q 487.1 292.7 484.5 292 L 450.5 308 L 321.5 363 L 280.5 383 L 261.5 389 L 243.5 389 L 227.5 384 L 185.5 365 L 37.5 304 L 14.5 292 L 5 283.5 L 4 281.5 L 4 232.5 L 5 232.5 L 11.5 240 L 39.5 254 L 180.5 312 L 229.5 334 L 242.5 338 L 261.5 338 L 285.5 330 L 308.5 318 L 344.5 302 L 475.5 246 L 496.5 235 L 506 226.5 L 506.5 225 Z " /><path fill="rgb(164,33,34)" stroke="rgb(164,33,34)" stroke-width="1" opacity="1" d="M 506.5 308 L 507 355.5 Q 505.5 362 500.5 365 L 473.5 380 L 333.5 440 L 276.5 467 L 263.5 471 L 247.5 472 L 226.5 466 L 182.5 446 L 34.5 385 L 14.5 375 L 5 366.5 L 4 364.5 L 4 315.5 L 5 315.5 L 11.5 323 L 39.5 337 L 192.5 400 L 229.5 417 L 243.5 421 L 261.5 421 L 278.5 416 L 328.5 392 L 466.5 333 L 496.5 318 L 506 309.5 L 506.5 308 Z " /></svg>