<svg width="78" height="50" viewBox="0 0 78 50" fill="none" xmlns="http://www.w3.org/2000/svg">
<path d="M19.5 15.8336C22.1 5.46326 28.6 0.278076 39 0.278076C54.6 0.278076 56.55 11.9447 64.35 13.8892C69.55 15.1855 74.1 13.241 78 8.05585C75.4 18.4262 68.9 23.6114 58.5 23.6114C42.9 23.6114 40.95 11.9447 33.15 10.0003C27.95 8.704 23.4 10.6484 19.5 15.8336ZM0 39.167C2.6 28.7966 9.1 23.6114 19.5 23.6114C35.1 23.6114 37.05 35.2781 44.85 37.2225C50.05 38.5188 54.6 36.5744 58.5 31.3892C55.9 41.7596 49.4 46.9447 39 46.9447C23.4 46.9447 21.45 35.2781 13.65 33.3336C8.45 32.0373 3.9 33.9818 0 39.167Z" fill="#44A8B3"/>
</svg>
