<svg width="84" height="50" viewBox="0 0 84 50" fill="none" xmlns="http://www.w3.org/2000/svg">
<g clip-path="url(#clip0_68_1618)">
<path d="M23.8275 18.117C23.8275 19.1422 23.9386 19.9733 24.1324 20.5827C24.3785 21.2684 24.6747 21.935 25.0187 22.5772C25.1572 22.7987 25.2125 23.0203 25.2125 23.2144C25.2125 23.4912 25.0465 23.7684 24.6863 24.0455L22.9412 25.2089C22.6919 25.3752 22.4425 25.4582 22.2206 25.4582C21.9438 25.4582 21.6667 25.3197 21.3896 25.0703C21.016 24.6695 20.6821 24.2335 20.3925 23.7684C20.1154 23.2978 19.8383 22.771 19.5337 22.134C17.3727 24.6824 14.6579 25.9567 11.3893 25.9569C9.06247 25.9569 7.20626 25.2919 5.84875 23.9625C4.49156 22.6324 3.79907 20.8595 3.79907 18.6435C3.79907 16.2889 4.63012 14.3775 6.31999 12.937C8.00953 11.4965 10.2536 10.7762 13.1069 10.7762C14.0487 10.7762 15.0184 10.8592 16.0432 10.9978C17.0684 11.1363 18.121 11.3579 19.2291 11.6072V9.58502C19.2291 7.47947 18.7857 6.01149 17.9268 5.15267C17.0406 4.29384 15.5445 3.87816 13.4115 3.87816C12.4419 3.87816 11.4448 3.98927 10.4197 4.23862C9.3945 4.48796 8.39744 4.79254 7.42783 5.18045C6.98469 5.37424 6.65234 5.48502 6.45822 5.54058C6.26411 5.59613 6.12587 5.62358 6.01509 5.62358C5.62718 5.62358 5.43339 5.34646 5.43339 4.76476V3.40724C5.43339 2.96411 5.48894 2.63175 5.62718 2.43796C5.76574 2.24384 6.01509 2.05005 6.40299 1.85626C7.37249 1.35735 8.53589 0.941775 9.89319 0.609531C11.251 0.249401 12.6916 0.0833876 14.2151 0.0833876C17.5118 0.0833876 19.9219 0.8311 21.4733 2.32718C22.9968 3.82293 23.7726 6.0945 23.7726 9.14188V18.117H23.8275ZM12.5804 22.3278C13.4948 22.3278 14.4367 22.1618 15.4337 21.8291C16.4311 21.4968 17.3177 20.8873 18.0654 20.0563C18.5089 19.5301 18.8412 18.9484 19.0072 18.2834C19.1736 17.6187 19.2844 16.8151 19.2844 15.8733V14.7099C18.4442 14.5055 17.5933 14.3483 16.7357 14.2389C15.872 14.1294 15.0023 14.0738 14.1318 14.0726C12.2755 14.0726 10.9184 14.4327 10.0043 15.1808C9.09025 15.9288 8.64678 16.9814 8.64678 18.3664C8.64678 19.6684 8.97914 20.638 9.67162 21.303C10.3367 21.9955 11.3063 22.3278 12.5804 22.3278ZM34.8252 25.3197C34.3265 25.3197 33.9942 25.2367 33.7726 25.0425C33.551 24.8765 33.3569 24.4886 33.1909 23.9625L26.6811 2.54875C26.5144 1.9945 26.4314 1.63437 26.4314 1.44058C26.4314 0.99744 26.653 0.747767 27.0965 0.747767H29.8112C30.3373 0.747767 30.6978 0.8311 30.8916 1.02489C31.1131 1.19123 31.2795 1.57914 31.4455 2.10528L36.0994 20.4442L40.421 2.10528C40.5595 1.55136 40.7259 1.19123 40.9471 1.02489C41.169 0.858878 41.5569 0.748093 42.0556 0.748093H44.2716C44.7978 0.748093 45.1582 0.8311 45.3795 1.02489C45.6014 1.19123 45.7951 1.57914 45.9059 2.10528L50.2831 20.6657L55.0752 2.10528C55.2412 1.55136 55.4353 1.19123 55.6291 1.02489C55.8507 0.858878 56.2108 0.748093 56.7095 0.748093H59.2857C59.7291 0.748093 59.9785 0.969662 59.9785 1.44058C59.9785 1.57914 59.9507 1.7177 59.9229 1.88371C59.8951 2.04973 59.8399 2.27162 59.7291 2.57652L53.0527 23.9899C52.8867 24.5442 52.6928 24.9043 52.471 25.0703C52.2494 25.2367 51.8893 25.3474 51.4187 25.3474H49.0363C48.5099 25.3474 48.1497 25.2644 47.9278 25.0703C47.7063 24.8765 47.5125 24.5164 47.4017 23.9625L43.1076 6.0945L38.8416 23.9344C38.7033 24.4886 38.537 24.8487 38.3154 25.0425C38.0938 25.2367 37.7059 25.3197 37.2076 25.3197H34.8252ZM70.4223 26.0677C68.9818 26.0677 67.5412 25.9014 66.1563 25.569C64.771 25.2367 63.6909 24.8762 62.9706 24.4612C62.5272 24.2115 62.2223 23.9347 62.1118 23.6853C62.0041 23.4408 61.9475 23.1768 61.9455 22.9095V21.4968C61.9455 20.9151 62.167 20.638 62.5827 20.638C62.7524 20.6386 62.9208 20.6667 63.0814 20.7213C63.2474 20.7769 63.4968 20.8873 63.7739 20.9981C64.7522 21.4287 65.7737 21.7537 66.821 21.9677C67.9061 22.1877 69.0105 22.299 70.1177 22.3001C71.8628 22.3001 73.2203 21.9955 74.1621 21.386C75.104 20.7765 75.6027 19.8902 75.6027 18.7543C75.6027 17.9788 75.3533 17.3416 74.8546 16.8151C74.3559 16.2886 73.4141 15.818 72.0569 15.3746L68.0399 14.1282C66.0177 13.4909 64.5219 12.5491 63.6076 11.3023C62.6935 10.0834 62.2226 8.7262 62.2226 7.28568C62.2226 6.12228 62.4719 5.09722 62.9706 4.21051C63.469 3.32424 64.134 2.54875 64.9651 1.93927C65.7961 1.30201 66.738 0.8311 67.8461 0.498747C68.954 0.166394 70.1174 0.027832 71.3363 0.027832C71.9458 0.027832 72.5831 0.0556098 73.1925 0.138616C73.8298 0.221623 74.4115 0.332407 74.9932 0.443191C75.5471 0.581754 76.0736 0.720316 76.5723 0.886656C77.0707 1.05267 77.4585 1.21879 77.7357 1.38502C78.1236 1.60692 78.4004 1.82849 78.5667 2.07783C78.7329 2.2994 78.8161 2.60408 78.8161 2.99188V4.29384C78.8161 4.87554 78.5945 5.18045 78.1788 5.18045C77.9572 5.18045 77.5971 5.06933 77.1265 4.84777C75.547 4.1275 73.774 3.76737 71.8076 3.76737C70.2285 3.76737 68.9818 4.01672 68.1229 4.54319C67.2644 5.06933 66.821 5.87293 66.821 7.00855C66.821 7.78437 67.0981 8.44907 67.652 8.97554C68.2059 9.50202 69.2311 10.0282 70.6994 10.4991L74.6331 11.7458C76.6275 12.3831 78.068 13.2693 78.9268 14.405C79.7857 15.5406 80.2014 16.8429 80.2014 18.2834C80.2014 19.4746 79.9517 20.555 79.4808 21.4968C78.9824 22.4386 78.3174 23.2697 77.4585 23.9347C76.5997 24.6272 75.5749 25.1259 74.3837 25.486C73.137 25.8739 71.835 26.0677 70.4223 26.0677Z" fill="#E6E6E6"/>
<path d="M75.6577 39.5307C66.544 46.2624 53.3022 49.8359 41.9169 49.8359C25.9603 49.8359 11.5832 43.9353 0.724056 34.1287C-0.134767 33.3532 0.640723 32.3006 1.66556 32.9098C13.4113 39.7248 27.8995 43.8522 42.8865 43.8522C52.9976 43.8522 64.1061 41.747 74.3283 37.4254C75.8518 36.7326 77.1538 38.4228 75.6577 39.5307ZM79.4531 35.2091C78.2897 33.7134 71.7518 34.4888 68.7878 34.849C67.9012 34.9601 67.7626 34.1843 68.5662 33.6026C73.774 29.9457 82.3342 30.9986 83.3312 32.2173C84.3286 33.464 83.0541 42.0238 78.1786 46.1238C77.4309 46.7611 76.7106 46.4287 77.043 45.5977C78.1508 42.8549 80.6165 36.6774 79.4531 35.2091Z" fill="#FF9900"/>
</g>
<defs>
<clipPath id="clip0_68_1618">
<rect width="83.6601" height="50" fill="white" transform="translate(0.169922)"/>
</clipPath>
</defs>
</svg>
