<svg width="50" height="50" viewBox="0 0 50 50" fill="none" xmlns="http://www.w3.org/2000/svg">
<g clip-path="url(#clip0_68_1531)">
<path fill-rule="evenodd" clip-rule="evenodd" d="M0.428956 0.625C0.59661 0.42899 0.804737 0.271626 1.03902 0.163734C1.2733 0.0558421 1.52817 -1.69166e-05 1.7861 5.27075e-08H48.2147C48.4728 -6.26523e-05 48.7278 0.0558245 48.9622 0.163812C49.1967 0.271799 49.4049 0.429319 49.5726 0.625522C49.7403 0.821725 49.8634 1.05195 49.9336 1.30033C50.0037 1.54871 50.0192 1.80935 49.979 2.06429L44.6218 35.9929C44.5846 36.23 44.5 36.4573 44.373 36.661C44.2459 36.8648 44.0791 37.0408 43.8825 37.1786L26.0254 49.6786C25.725 49.8891 25.3672 50.002 25.0004 50.002C24.6336 50.002 24.2757 49.8891 23.9754 49.6786L6.11824 37.1786C5.92163 37.0408 5.75483 36.8648 5.62781 36.661C5.50078 36.4573 5.41615 36.23 5.37896 35.9929L0.0218132 2.06429C-0.0184256 1.80921 -0.00286366 1.54844 0.0674261 1.29996C0.137716 1.05148 0.261061 0.8212 0.428956 0.625ZM15.0004 8.79643C14.4084 8.79643 13.8406 9.0316 13.422 9.45021C13.0034 9.86882 12.7682 10.4366 12.7682 11.0286C12.7682 11.6206 13.0034 12.1883 13.422 12.6069C13.8406 13.0255 14.4084 13.2607 15.0004 13.2607H27.2147L17.8218 19.1321C17.4092 19.3883 17.0914 19.7721 16.9165 20.2252C16.7417 20.6783 16.7195 21.1761 16.8532 21.643C16.9869 22.1099 17.2692 22.5205 17.6574 22.8125C18.0455 23.1044 18.5183 23.2618 19.004 23.2607H30.7718V29.9107L25.0004 34.2321L18.3397 29.2429C17.8661 28.8877 17.2708 28.7351 16.6847 28.8189C16.0987 28.9026 15.5699 29.2157 15.2147 29.6893C14.8595 30.1629 14.707 30.7582 14.7907 31.3442C14.8744 31.9303 15.1875 32.4591 15.6611 32.8143L23.6611 38.8143C24.0475 39.1041 24.5174 39.2607 25.0004 39.2607C25.4834 39.2607 25.9533 39.1041 26.3397 38.8143L34.3397 32.8143C34.6159 32.6054 34.8401 32.3356 34.995 32.0259C35.1499 31.7162 35.2312 31.3749 35.2325 31.0286V21.0286C35.2316 20.4372 34.996 19.8704 34.5775 19.4525C34.159 19.0347 33.5918 18.8 33.0004 18.8H26.7861L36.179 12.925C36.5896 12.6683 36.9057 12.285 37.0795 11.833C37.2532 11.3809 37.2752 10.8846 37.1422 10.4189C37.0091 9.95325 36.7283 9.54348 36.3419 9.25145C35.9555 8.95942 35.4847 8.80097 35.0004 8.8L15.0004 8.79643Z" fill="#3B82F6"/>
</g>
<defs>
<clipPath id="clip0_68_1531">
<rect width="50" height="50" fill="white"/>
</clipPath>
</defs>
</svg>
