<svg width="50" height="50" viewBox="0 0 50 50" fill="none" xmlns="http://www.w3.org/2000/svg">
<g clip-path="url(#clip0_73_1629)">
<path d="M33.9854 10.7142L30.6318 17.8571L32.1426 21.4249H35.714L37.3711 17.8571L33.9854 10.7142Z" fill="#F4511E"/>
<path d="M21.4282 0L24.9996 14.2857H28.571L33.9853 3.57143L39.2853 14.2857H42.8568L46.4282 0H21.4282ZM46.4282 32.1429H42.8568C41.0088 32.003 39.2722 31.2055 37.9617 29.895C36.6513 28.5846 35.8538 26.848 35.7139 25H32.1425C32.0058 26.8993 31.1466 28.674 29.7417 29.9594C28.3368 31.2447 26.4928 31.943 24.5889 31.9107C21.871 36.1607 15.3835 39.5589 10.7139 41.1036C8.94476 40.428 7.45437 39.1769 6.48263 37.5515C5.51088 35.9261 5.11432 34.021 5.35676 32.1429H3.57104C-4.85396 46.3893 9.04247 55.7482 23.1335 46.2411C30.0889 40.1732 49.3889 45.5125 46.4282 32.1429Z" fill="#F4511E"/>
<path d="M8.92868 28.5715C11.8873 28.5715 14.2858 26.173 14.2858 23.2143C14.2858 20.2557 11.8873 17.8572 8.92868 17.8572C5.97001 17.8572 3.57153 20.2557 3.57153 23.2143C3.57153 26.173 5.97001 28.5715 8.92868 28.5715Z" fill="#F4511E"/>
<path d="M44.6428 28.5715C47.6015 28.5715 49.9999 26.173 49.9999 23.2143C49.9999 20.2557 47.6015 17.8572 44.6428 17.8572C41.6841 17.8572 39.2856 20.2557 39.2856 23.2143C39.2856 26.173 41.6841 28.5715 44.6428 28.5715Z" fill="#F4511E"/>
<path d="M24.9999 28.5714C26.9723 28.5714 28.5713 26.9725 28.5713 25C28.5713 23.0276 26.9723 21.4286 24.9999 21.4286C23.0274 21.4286 21.4285 23.0276 21.4285 25C21.4285 26.9725 23.0274 28.5714 24.9999 28.5714Z" fill="#F4511E"/>
</g>
<defs>
<clipPath id="clip0_73_1629">
<rect width="50" height="50" fill="white"/>
</clipPath>
</defs>
</svg>
