<svg width="188" height="200" version="1.1" xmlns="http://www.w3.org/2000/svg" desc="Created with imagetracer.js version 1.2.6" ><path fill="rgb(0,0,1)" stroke="rgb(0,0,1)" stroke-width="1" opacity="0.0196078431372549" d="M 0 0 L 188 0 L 188 200 L 0 200 L 0 0 Z M 94 3 L 12 50 L 9 53 L 9 149 L 95 198 L 178 150 L 179 149 L 179 51 L 96 3 L 94 3 Z " /><path fill="rgb(21,41,68)" stroke="rgb(21,41,68)" stroke-width="1" opacity="0.996078431372549" d="M 102.5 43 L 100.5 46 L 102.5 43 Z " /><path fill="rgb(21,41,68)" stroke="rgb(21,41,68)" stroke-width="1" opacity="0.996078431372549" d="M 86.5 46 L 89 47.5 L 86 58.5 L 88 67.5 L 95.5 78 L 98 79.5 L 96.5 79 L 91 74.5 L 87 67.5 L 85 58.5 L 88 47 Q 85.3 45.9 86 48.5 L 79 60.5 L 79 70.5 Q 83.1 82.4 92.5 89 L 95 90.5 L 93.5 90 L 84 82.5 L 78 70.5 L 78 59.5 L 86.5 46 Z " /><path fill="rgb(21,41,68)" stroke="rgb(21,41,68)" stroke-width="1" opacity="0.996078431372549" d="M 102.5 48 L 103 52.5 L 102 52.5 L 102.5 48 Z " /><path fill="rgb(21,41,68)" stroke="rgb(21,41,68)" stroke-width="1" opacity="0.996078431372549" d="M 9.5 52 L 10 148.5 L 11 149.5 L 9 148.5 L 9.5 52 Z " /><path fill="rgb(21,41,68)" stroke="rgb(21,41,68)" stroke-width="1" opacity="0.996078431372549" d="M 66.5 54 L 67 55.5 Q 60.6 60.6 58 69.5 L 58 84.5 Q 62.2 99.8 73.5 108 L 85.5 115 L 106 116.5 L 88.5 117 Q 72.8 111.8 64 99.5 L 57 84.5 L 57 69.5 Q 60.1 60.1 66.5 54 Z " /><path fill="rgb(21,41,68)" stroke="rgb(21,41,68)" stroke-width="1" opacity="0.996078431372549" d="M 69.5 54 L 70 56.5 L 67 64.5 L 67 71.5 Q 70.1 88.9 82.5 97 Q 89 103 100 104.5 L 95.5 105 Q 81.8 100.7 74 90.5 Q 65.3 81.7 66 63.5 L 69.5 54 Z " /><path fill="rgb(21,41,68)" stroke="rgb(21,41,68)" stroke-width="1" opacity="0.996078431372549" d="M 106.5 61 L 107.5 63 L 106.5 61 Z " /><path fill="rgb(21,41,68)" stroke="rgb(21,41,68)" stroke-width="1" opacity="0.996078431372549" d="M 109.5 63 L 110.5 65 L 109.5 63 Z " /><path fill="rgb(21,41,68)" stroke="rgb(21,41,68)" stroke-width="1" opacity="0.996078431372549" d="M 130.5 66 L 129.5 68 L 130.5 66 Z " /><path fill="rgb(21,41,68)" stroke="rgb(21,41,68)" stroke-width="1" opacity="0.996078431372549" d="M 103.5 68 L 108 71.5 L 106.5 71 L 103.5 68 Z " /><path fill="rgb(21,41,68)" stroke="rgb(21,41,68)" stroke-width="1" opacity="0.996078431372549" d="M 112.5 73 L 121 73.5 L 112.5 74 L 112.5 73 Z " /><path fill="rgb(21,41,68)" stroke="rgb(21,41,68)" stroke-width="1" opacity="0.996078431372549" d="M 99.5 80 L 100.5 82 L 99.5 80 Z " /><path fill="rgb(21,41,68)" stroke="rgb(21,41,68)" stroke-width="1" opacity="0.996078431372549" d="M 127.5 80 L 126.5 82 L 127.5 80 Z " /><path fill="rgb(21,41,68)" stroke="rgb(21,41,68)" stroke-width="1" opacity="0.996078431372549" d="M 131.5 82 L 130.5 84 L 131.5 82 Z " /><path fill="rgb(21,41,68)" stroke="rgb(21,41,68)" stroke-width="1" opacity="0.996078431372549" d="M 108.5 84 L 111 84.5 L 108.5 85 L 108.5 84 Z " /><path fill="rgb(21,41,68)" stroke="rgb(21,41,68)" stroke-width="1" opacity="0.996078431372549" d="M 117.5 84 L 120 84.5 L 117.5 85 L 117.5 84 Z " /><path fill="rgb(21,41,68)" stroke="rgb(21,41,68)" stroke-width="1" opacity="0.996078431372549" d="M 125.5 88 L 124.5 90 L 125.5 88 Z " /><path fill="rgb(21,41,68)" stroke="rgb(21,41,68)" stroke-width="1" opacity="0.996078431372549" d="M 102.5 93 L 116 93.5 L 102.5 94 L 102.5 93 Z " /><path fill="rgb(21,41,68)" stroke="rgb(21,41,68)" stroke-width="1" opacity="0.996078431372549" d="M 128.5 96 L 126.5 99 L 128.5 96 Z " /><path fill="rgb(21,41,68)" stroke="rgb(21,41,68)" stroke-width="1" opacity="0.996078431372549" d="M 131.5 97 L 130.5 99 L 131.5 97 Z " /><path fill="rgb(21,41,68)" stroke="rgb(21,41,68)" stroke-width="1" opacity="0.996078431372549" d="M 112.5 104 L 116 104.5 L 112.5 105 L 112.5 104 Z " /><path fill="rgb(21,41,68)" stroke="rgb(21,41,68)" stroke-width="1" opacity="0.996078431372549" d="M 121.5 109 L 120.5 111 L 121.5 109 Z " /><path fill="rgb(21,41,68)" stroke="rgb(21,41,68)" stroke-width="1" opacity="0.996078431372549" d="M 116.5 112 L 118 112.5 L 115.5 114 L 116.5 112 Z " /><path fill="rgb(21,41,68)" stroke="rgb(21,41,68)" stroke-width="1" opacity="0.996078431372549" d="M 61.5 113 Q 72.3 112.3 76 118.5 L 77 123 Q 80 124.3 79 120.5 Q 80.5 117.5 86.5 119 Q 89.3 120.3 88 125.5 Q 85.1 129.4 86 136 L 90 134.5 L 92 121.5 L 94.5 119 L 100 119.5 L 94 120 L 90 137 Q 85.4 138.3 84 135.5 L 87 120 L 80 120 L 80 122.5 L 77 133.5 L 77 138.5 L 80.5 143 L 95.5 143 L 96 140.5 L 97 140.5 L 95.5 144 L 83.5 145 L 76 141 L 73.5 145 L 57.5 145 L 50 141.5 L 47.5 136 L 44 148.5 L 39.5 153 L 31.5 154 L 29 150.5 L 30 146.5 L 32.5 144 Q 35.8 145.1 35 142.5 L 38 129.5 L 40 126.5 L 39 124.5 L 41.5 119 Q 48.8 117.2 50.5 121 L 54.5 116 L 61.5 113 Z M 63 114 L 57 116 L 52 121 L 48 132 L 49 139 L 55 143 L 75 143 L 76 137 L 73 137 L 77 126 L 74 117 Q 71 114 63 114 Z M 41 120 L 41 125 L 41 127 L 36 145 L 33 146 L 30 152 L 40 152 L 44 145 L 47 132 L 47 127 L 49 123 L 49 120 L 41 120 Z " /><path fill="rgb(21,41,68)" stroke="rgb(21,41,68)" stroke-width="1" opacity="0.996078431372549" d="M 155.5 116 Q 162.3 114.2 164 117.5 L 161.5 121 L 163 118.5 L 162.5 117 L 155.5 117 L 148.5 126 L 150 123.5 L 155.5 116 Z " /><path fill="rgb(21,41,68)" stroke="rgb(21,41,68)" stroke-width="1" opacity="0.996078431372549" d="M 109.5 119 L 117 119.5 L 109.5 120 L 109.5 119 Z " /><path fill="rgb(21,41,68)" stroke="rgb(21,41,68)" stroke-width="1" opacity="0.996078431372549" d="M 126.5 119 L 141 119.5 L 126.5 120 L 125.5 121 L 126.5 119 Z " /><path fill="rgb(21,41,68)" stroke="rgb(21,41,68)" stroke-width="1" opacity="0.996078431372549" d="M 106.5 120 L 108 120.5 L 102.5 124 L 104.5 121 L 106.5 120 Z " /><path fill="rgb(21,41,68)" stroke="rgb(21,41,68)" stroke-width="1" opacity="0.996078431372549" d="M 62.5 121 L 68 122 L 69 126.5 L 66 137 Q 59.8 137.9 57 136 L 56 130.5 L 58 124.5 L 60.5 122 L 62.5 121 Z M 64 122 L 60 123 L 57 134 Q 58 137 65 135 Q 68 131 67 123 L 64 122 Z " /><path fill="rgb(21,41,68)" stroke="rgb(21,41,68)" stroke-width="1" opacity="0.996078431372549" d="M 100.5 122 L 102 125.5 Q 98.1 129.6 99 138.5 L 102 142.5 L 99 140.5 Q 99.7 137.9 97 139 L 97 136.5 L 99 126 L 101 125.5 L 100.5 122 Z " /><path fill="rgb(21,41,68)" stroke="rgb(21,41,68)" stroke-width="1" opacity="0.996078431372549" d="M 160.5 122 L 158.5 125 L 160.5 122 Z " /><path fill="rgb(21,41,68)" stroke="rgb(21,41,68)" stroke-width="1" opacity="0.996078431372549" d="M 124.5 123 L 125 125.5 L 124 125.5 L 124.5 123 Z " /><path fill="rgb(21,41,68)" stroke="rgb(21,41,68)" stroke-width="1" opacity="0.996078431372549" d="M 145.5 124 L 146 126.5 L 145 126.5 L 145.5 124 Z " /><path fill="rgb(21,41,68)" stroke="rgb(21,41,68)" stroke-width="1" opacity="0.996078431372549" d="M 122.5 125 L 124 130.5 L 122 129.5 L 122.5 125 Z " /><path fill="rgb(21,41,68)" stroke="rgb(21,41,68)" stroke-width="1" opacity="0.996078431372549" d="M 111.5 126 L 114 127.5 L 113.5 129 L 108 129 Q 106.9 126.3 109.5 127 L 112.5 128 L 112.5 127 L 111.5 126 Z " /><path fill="rgb(21,41,68)" stroke="rgb(21,41,68)" stroke-width="1" opacity="0.996078431372549" d="M 157.5 126 L 155.5 129 L 157.5 126 Z " /><path fill="rgb(21,41,68)" stroke="rgb(21,41,68)" stroke-width="1" opacity="0.996078431372549" d="M 131 127 L 138 127 L 138 129.5 L 137 129.5 L 137 128 L 132 128 L 131.5 131 L 131 127 Z " /><path fill="rgb(21,41,68)" stroke="rgb(21,41,68)" stroke-width="1" opacity="0.996078431372549" d="M 147.5 127 L 146.5 129 L 147.5 127 Z " /><path fill="rgb(21,41,68)" stroke="rgb(21,41,68)" stroke-width="1" opacity="0.996078431372549" d="M 154.5 130 L 152.5 133 L 154.5 130 Z " /><path fill="rgb(21,41,68)" stroke="rgb(21,41,68)" stroke-width="1" opacity="0.996078431372549" d="M 121 132 Q 124 130.8 123 134.5 L 121 133.5 L 121 132 Z " /><path fill="rgb(21,41,68)" stroke="rgb(21,41,68)" stroke-width="1" opacity="0.996078431372549" d="M 130.5 132 L 131 135.5 L 130 135.5 L 130.5 132 Z " /><path fill="rgb(21,41,68)" stroke="rgb(21,41,68)" stroke-width="1" opacity="0.996078431372549" d="M 139.5 134 L 140 136.5 L 139 136.5 L 139.5 134 Z " /><path fill="rgb(21,41,68)" stroke="rgb(21,41,68)" stroke-width="1" opacity="0.996078431372549" d="M 151.5 134 L 149.5 137 L 151.5 134 Z " /><path fill="rgb(21,41,68)" stroke="rgb(21,41,68)" stroke-width="1" opacity="0.996078431372549" d="M 107.5 135 L 108.5 136 L 119 136.5 L 107 137 L 107.5 135 Z " /><path fill="rgb(21,41,68)" stroke="rgb(21,41,68)" stroke-width="1" opacity="0.996078431372549" d="M 121.5 137 L 122 140.5 L 121 140.5 L 121.5 137 Z " /><path fill="rgb(21,41,68)" stroke="rgb(21,41,68)" stroke-width="1" opacity="0.996078431372549" d="M 129.5 137 L 130 140.5 L 129 140.5 L 129.5 137 Z " /><path fill="rgb(21,41,68)" stroke="rgb(21,41,68)" stroke-width="1" opacity="0.996078431372549" d="M 139.5 138 L 140 140.5 L 139 140.5 L 139.5 138 Z " /><path fill="rgb(21,41,68)" stroke="rgb(21,41,68)" stroke-width="1" opacity="0.996078431372549" d="M 119.5 140 L 121 142.5 L 119 143 L 119.5 140 Z " /><path fill="rgb(21,41,68)" stroke="rgb(21,41,68)" stroke-width="1" opacity="0.996078431372549" d="M 147.5 141 L 148 142.5 Q 146.5 145.5 140.5 144 L 140.5 143 Q 147.7 144.5 147.5 141 Z " /><path fill="rgb(21,41,68)" stroke="rgb(21,41,68)" stroke-width="1" opacity="0.996078431372549" d="M 128.5 142 L 127.5 144 L 122 143.5 L 128.5 142 Z " /><path fill="rgb(21,41,68)" stroke="rgb(21,41,68)" stroke-width="1" opacity="0.996078431372549" d="M 103.5 143 L 106 143.5 L 103.5 144 L 103.5 143 Z " /><path fill="rgb(21,41,68)" stroke="rgb(21,41,68)" stroke-width="1" opacity="0.996078431372549" d="M 14.5 151 L 18 153.5 L 16.5 153 L 14.5 151 Z " /><path fill="rgb(21,41,68)" stroke="rgb(21,41,68)" stroke-width="1" opacity="0.996078431372549" d="M 21.5 155 L 25 157.5 L 23.5 157 L 21.5 155 Z " /><path fill="rgb(21,41,68)" stroke="rgb(21,41,68)" stroke-width="1" opacity="0.996078431372549" d="M 28.5 159 L 32 161.5 L 30.5 161 L 28.5 159 Z " /><path fill="rgb(21,41,68)" stroke="rgb(21,41,68)" stroke-width="1" opacity="0.996078431372549" d="M 35.5 163 L 36.5 165 L 35.5 163 Z " /><path fill="rgb(21,41,68)" stroke="rgb(21,41,68)" stroke-width="1" opacity="0.996078431372549" d="M 42.5 167 L 46 169.5 L 44.5 169 L 42.5 167 Z " /><path fill="rgb(21,41,68)" stroke="rgb(21,41,68)" stroke-width="1" opacity="0.996078431372549" d="M 47.5 170 L 51 172.5 L 49.5 172 L 47.5 170 Z " /><path fill="rgb(21,41,68)" stroke="rgb(21,41,68)" stroke-width="1" opacity="0.996078431372549" d="M 56.5 175 L 57.5 177 L 56.5 175 Z " /><path fill="rgb(21,41,68)" stroke="rgb(21,41,68)" stroke-width="1" opacity="0.996078431372549" d="M 61.5 178 L 65 180.5 L 63.5 180 L 61.5 178 Z " /><path fill="rgb(21,41,68)" stroke="rgb(21,41,68)" stroke-width="1" opacity="0.996078431372549" d="M 68.5 182 L 72 184.5 L 70.5 184 L 68.5 182 Z " /><path fill="rgb(21,41,68)" stroke="rgb(21,41,68)" stroke-width="1" opacity="0.996078431372549" d="M 75.5 186 L 79 188.5 L 77.5 188 L 75.5 186 Z " /><path fill="rgb(21,41,68)" stroke="rgb(21,41,68)" stroke-width="1" opacity="0.996078431372549" d="M 82.5 190 L 83.5 192 L 82.5 190 Z " /><path fill="rgb(21,41,68)" stroke="rgb(21,41,68)" stroke-width="1" opacity="0.996078431372549" d="M 89.5 194 L 93 196.5 L 91.5 196 L 89.5 194 Z " /><path fill="rgb(15,49,84)" stroke="rgb(15,49,84)" stroke-width="1" opacity="0.9647058823529412" d="M 112.5 13 L 113.5 15 L 112.5 13 Z " /><path fill="rgb(15,49,84)" stroke="rgb(15,49,84)" stroke-width="1" opacity="0.9647058823529412" d="M 119.5 17 L 120.5 19 L 119.5 17 Z " /><path fill="rgb(15,49,84)" stroke="rgb(15,49,84)" stroke-width="1" opacity="0.9647058823529412" d="M 126.5 21 L 127.5 23 L 126.5 21 Z " /><path fill="rgb(15,49,84)" stroke="rgb(15,49,84)" stroke-width="1" opacity="0.9647058823529412" d="M 152.5 36 L 153.5 38 L 152.5 36 Z " /><path fill="rgb(15,49,84)" stroke="rgb(15,49,84)" stroke-width="1" opacity="0.9647058823529412" d="M 159.5 40 L 160.5 42 L 159.5 40 Z " /><path fill="rgb(15,49,84)" stroke="rgb(15,49,84)" stroke-width="1" opacity="0.9647058823529412" d="M 166.5 44 L 167.5 46 L 166.5 44 Z " /><path fill="rgb(15,49,84)" stroke="rgb(15,49,84)" stroke-width="1" opacity="0.9647058823529412" d="M 99.5 46 L 98.5 48 L 99.5 46 Z " /><path fill="rgb(15,49,84)" stroke="rgb(15,49,84)" stroke-width="1" opacity="0.9647058823529412" d="M 97.5 50 L 98 60.5 L 99 61.5 L 97 60.5 L 97.5 50 Z " /><path fill="rgb(15,49,84)" stroke="rgb(15,49,84)" stroke-width="1" opacity="0.9647058823529412" d="M 178.5 51 L 179 148.5 L 178 148.5 L 178.5 51 Z " /><path fill="rgb(15,49,84)" stroke="rgb(15,49,84)" stroke-width="1" opacity="0.9647058823529412" d="M 130.5 62 L 131.5 64 L 130.5 62 Z " /><path fill="rgb(15,49,84)" stroke="rgb(15,49,84)" stroke-width="1" opacity="0.9647058823529412" d="M 99.5 64 L 100.5 66 L 99.5 64 Z " /><path fill="rgb(15,49,84)" stroke="rgb(15,49,84)" stroke-width="1" opacity="0.9647058823529412" d="M 127.5 64 L 126.5 66 L 127.5 64 Z " /><path fill="rgb(15,49,84)" stroke="rgb(15,49,84)" stroke-width="1" opacity="0.9647058823529412" d="M 116.5 66 L 117.5 68 L 116.5 66 Z " /><path fill="rgb(15,49,84)" stroke="rgb(15,49,84)" stroke-width="1" opacity="0.9647058823529412" d="M 119.5 67 L 122 67.5 L 119.5 68 L 119.5 67 Z " /><path fill="rgb(15,49,84)" stroke="rgb(15,49,84)" stroke-width="1" opacity="0.9647058823529412" d="M 125.5 71 L 124.5 73 L 125.5 71 Z " /><path fill="rgb(15,49,84)" stroke="rgb(15,49,84)" stroke-width="1" opacity="0.9647058823529412" d="M 130.5 77 L 130 78.5 Q 130.8 80.8 128.5 80 L 130.5 77 Z " /><path fill="rgb(15,49,84)" stroke="rgb(15,49,84)" stroke-width="1" opacity="0.9647058823529412" d="M 103.5 82 L 106 83.5 L 104.5 84 L 103.5 82 Z " /><path fill="rgb(15,49,84)" stroke="rgb(15,49,84)" stroke-width="1" opacity="0.9647058823529412" d="M 111.5 85 L 117 85.5 L 111.5 86 L 111.5 85 Z " /><path fill="rgb(15,49,84)" stroke="rgb(15,49,84)" stroke-width="1" opacity="0.9647058823529412" d="M 127.5 87 L 126.5 89 L 127.5 87 Z " /><path fill="rgb(15,49,84)" stroke="rgb(15,49,84)" stroke-width="1" opacity="0.9647058823529412" d="M 117.5 92 L 116.5 94 L 117.5 92 Z " /><path fill="rgb(15,49,84)" stroke="rgb(15,49,84)" stroke-width="1" opacity="0.9647058823529412" d="M 124.5 99 L 126 99.5 L 123.5 101 L 124.5 99 Z " /><path fill="rgb(15,49,84)" stroke="rgb(15,49,84)" stroke-width="1" opacity="0.9647058823529412" d="M 100.5 104 L 101.5 105 L 112 105.5 L 101.5 106 L 100.5 104 Z " /><path fill="rgb(15,49,84)" stroke="rgb(15,49,84)" stroke-width="1" opacity="0.9647058823529412" d="M 126.5 104 L 126 105.5 L 123.5 109 L 125 106.5 L 126.5 104 Z " /><path fill="rgb(15,49,84)" stroke="rgb(15,49,84)" stroke-width="1" opacity="0.9647058823529412" d="M 143.5 120 L 144.5 122 L 143.5 120 Z " /><path fill="rgb(15,49,84)" stroke="rgb(15,49,84)" stroke-width="1" opacity="0.9647058823529412" d="M 125.5 121 L 124.5 123 L 125.5 121 Z " /><path fill="rgb(15,49,84)" stroke="rgb(15,49,84)" stroke-width="1" opacity="0.9647058823529412" d="M 101.5 124 L 100.5 126 L 101.5 124 Z " /><path fill="rgb(15,49,84)" stroke="rgb(15,49,84)" stroke-width="1" opacity="0.9647058823529412" d="M 124.5 126 L 123.5 128 L 124.5 126 Z " /><path fill="rgb(15,49,84)" stroke="rgb(15,49,84)" stroke-width="1" opacity="0.9647058823529412" d="M 122.5 130 L 123.5 132 Q 120.7 132.7 122.5 130 Z " /><path fill="rgb(15,49,84)" stroke="rgb(15,49,84)" stroke-width="1" opacity="0.9647058823529412" d="M 120.5 134 L 120 135.5 L 120.5 137 L 123 135.5 L 119.5 140 L 120 138.5 L 118.5 136 L 108 135.5 L 119.5 135 L 120.5 134 Z " /><path fill="rgb(15,49,84)" stroke="rgb(15,49,84)" stroke-width="1" opacity="0.9647058823529412" d="M 138.5 141 L 140 143.5 L 138 142.5 L 138.5 141 Z " /><path fill="rgb(15,49,84)" stroke="rgb(15,49,84)" stroke-width="1" opacity="0.9647058823529412" d="M 106.5 144 L 118 144.5 L 106.5 145 L 106.5 144 Z " /><path fill="rgb(23,44,69)" stroke="rgb(23,44,69)" stroke-width="1" opacity="1" d="M 93.5 3 L 94 74.5 L 91 72.5 L 88 67.5 L 86 58.5 L 89 47.5 L 86.5 46 L 78 59.5 L 78 70.5 L 79 70.5 L 79.5 69 L 80 70.5 L 79 73.5 L 81 73.5 L 80 75.5 Q 83.3 83.3 89.5 88 L 94 90 L 93.5 103 Q 80.6 97.9 73 87.5 Q 66.6 79.4 67 64.5 L 70 54 Q 65.3 53 64 56.5 L 57 69.5 L 57 84.5 Q 61.8 101.2 74.5 110 L 82.5 114 L 84 113.5 L 83.5 115 Q 87.4 117.9 94 117 L 90 129.5 L 90 134.5 L 88.5 136 L 86 136 L 86 130.5 Q 88.7 127.2 88 120.5 Q 86.5 117.5 80.5 119 L 79 123 Q 76 124.3 77 120.5 L 72.5 115 Q 68.9 112.1 61.5 113 Q 54.9 113.9 52 118.5 L 50.5 121 Q 48.8 117.2 41.5 119 L 41.5 121 L 40 120.5 L 39 125.5 L 41 125.5 L 38 129.5 L 35 144 Q 31.2 143.3 30 146.5 L 29 151.5 Q 30.3 155.3 36.5 154 L 44 148.5 L 47.5 136 L 51.5 143 Q 59.5 147 73.5 145 L 76 141 L 83.5 145 L 92.5 145 L 94 144.5 L 93.5 197 L 10 148.5 L 10 51.5 L 11.5 51 L 93.5 3 Z " /><path fill="rgb(23,44,69)" stroke="rgb(23,44,69)" stroke-width="1" opacity="1" d="M 63.5 122 L 67 123 Q 68.1 130.8 64.5 135 Q 58.5 136.5 57 133.5 L 60 123 L 63.5 122 Z " /><path fill="rgb(25,53,86)" stroke="rgb(25,53,86)" stroke-width="1" opacity="1" d="M 94 4 L 178 51 L 178 148.5 L 176.5 150 L 94.5 197 L 94 144 L 97 142.5 L 96 139.5 L 99 139.5 L 102.5 144 L 106.5 143 L 106.5 145 L 117.5 145 L 118 143 L 120.5 143 Q 122 145.5 127.5 144 L 128.5 141 L 130 141.5 L 129 136.5 L 131 136.5 L 130 131.5 L 132 131.5 L 132 128 L 137 128 L 137.5 131 L 139 130.5 L 138 133.5 L 140 141.5 L 138 141.5 L 139.5 144 Q 146.2 145.8 148 142.5 L 147 140.5 L 149 140.5 L 152 134.5 L 151.5 133 L 153 133.5 L 155 130.5 L 154.5 129 L 156 129.5 L 158 126.5 L 157.5 125 L 159 125.5 L 161 122.5 L 160.5 121 L 162 121.5 L 164 117.5 Q 162.3 114.3 155.5 116 L 148 125.5 L 148.5 127 L 147 126.5 Q 147.8 128.8 145.5 128 L 146 126.5 L 144.5 121 L 143 121.5 L 143.5 120 L 141.5 121 L 141.5 119 L 126.5 119 L 125 120.5 L 124 126.5 L 124.5 128 L 121.5 122 Q 120.3 124.2 119 121.5 L 119.5 120 L 117.5 121 L 117.5 119 Q 105.7 117.2 102 123.5 L 102.5 125 L 100 119 L 94 119 L 94 117 L 108 116.5 L 106 115.5 L 108.5 115 L 111 116 L 111.5 114 L 113.5 115 L 118 113 L 119.5 110 Q 120.8 112.3 122 109.5 L 124.5 106 L 126 106.5 L 132 97.5 L 130.5 94 L 130 96 L 124 99.5 L 124.5 101 L 122.5 101 L 121 101.5 L 121.5 103 L 119 102 L 118.5 104 L 116.5 103 L 111.5 105 L 101.5 105 L 100.5 106 L 100.5 104 Q 95.3 105.3 94 102.5 L 94 91.5 L 95.5 90 L 96.5 92 L 98.5 91 L 98.5 93 L 100.5 92 L 101 94 L 116.5 94 L 120 92.5 L 119.5 91 L 121.5 92 L 124 90.5 L 123.5 89 L 125.5 89 L 127 88.5 Q 124.2 86.8 128.5 85 L 130 85.5 L 132 82.5 L 131.5 81 Q 133.8 81.8 133 79.5 L 133 77.5 L 132.5 76 L 130.5 79 Q 129.3 76.8 128 79.5 L 128.5 81 L 126.5 81 L 125 81.5 L 125.5 83 L 124 82.5 L 123.5 84 L 122 83.5 Q 122.8 85.8 120.5 85 L 117.5 84 Q 116.2 86.2 111.5 85 L 107.5 84 L 106 84.5 Q 106.8 82.3 104.5 83 L 103 83.5 L 103.5 82 L 101.5 83 L 99.5 80 L 94 76.5 L 94 4 Z M 103 43 Q 98 45 101 47 Q 100 49 99 47 L 98 49 L 99 50 L 97 51 L 97 61 L 99 60 L 98 62 Q 97 64 100 63 L 102 67 Q 104 66 103 69 L 107 71 L 109 71 L 110 73 L 112 72 L 111 74 L 122 74 L 122 72 L 125 73 L 124 72 L 126 72 L 129 70 L 128 69 L 130 68 L 132 64 L 130 63 Q 131 65 128 64 L 128 66 Q 127 68 126 66 L 123 67 Q 118 68 117 66 L 114 67 L 113 66 L 112 66 L 112 65 L 111 64 L 109 64 L 109 62 Q 106 63 107 61 L 106 61 L 106 60 L 105 58 L 103 58 L 104 56 L 102 55 L 103 53 L 102 48 L 104 47 L 104 45 L 103 43 Z " /><path fill="rgb(25,53,86)" stroke="rgb(25,53,86)" stroke-width="1" opacity="1" d="M 83.5 52 L 82.5 54 L 83.5 52 Z " /><path fill="rgb(25,53,86)" stroke="rgb(25,53,86)" stroke-width="1" opacity="1" d="M 64.5 58 L 63.5 60 L 64.5 58 Z " /><path fill="rgb(25,53,86)" stroke="rgb(25,53,86)" stroke-width="1" opacity="1" d="M 58.5 69 L 59 71.5 L 58 71.5 L 58.5 69 Z " /><path fill="rgb(25,53,86)" stroke="rgb(25,53,86)" stroke-width="1" opacity="1" d="M 58.5 82 L 59 84.5 L 58 84.5 L 58.5 82 Z " /><path fill="rgb(25,53,86)" stroke="rgb(25,53,86)" stroke-width="1" opacity="1" d="M 63.5 96 L 64.5 98 L 63.5 96 Z " /><path fill="rgb(25,53,86)" stroke="rgb(25,53,86)" stroke-width="1" opacity="1" d="M 70.5 104 L 71.5 106 L 70.5 104 Z " /><path fill="rgb(25,53,86)" stroke="rgb(25,53,86)" stroke-width="1" opacity="1" d="M 89.5 115 L 92 115.5 L 89.5 116 L 89.5 115 Z " /><path fill="rgb(25,53,86)" stroke="rgb(25,53,86)" stroke-width="1" opacity="1" d="M 113.5 126 L 114.5 128 L 112.5 128 L 111 127.5 L 113.5 126 Z " /><path fill="rgb(25,53,86)" stroke="rgb(25,53,86)" stroke-width="1" opacity="1" d="M 106 134 L 119.5 134 L 120.5 135 L 122 134.5 L 119.5 138 L 120 136.5 L 119.5 135 L 107.5 135 L 106 135.5 L 106 134 Z " /><path fill="rgb(120,132,146)" stroke="rgb(120,132,146)" stroke-width="1" opacity="1" d="M 102.5 44 L 104 44.5 L 102 45.5 L 102.5 47 Q 99.5 45.5 102.5 44 Z " /><path fill="rgb(120,132,146)" stroke="rgb(120,132,146)" stroke-width="1" opacity="1" d="M 86.5 48 L 88 48.5 L 86 49.5 L 87 51.5 L 86 51.5 L 85 49.5 L 86.5 48 Z " /><path fill="rgb(120,132,146)" stroke="rgb(120,132,146)" stroke-width="1" opacity="1" d="M 101.5 48 L 102 52.5 L 101 52.5 L 101.5 48 Z " /><path fill="rgb(120,132,146)" stroke="rgb(120,132,146)" stroke-width="1" opacity="1" d="M 85.5 53 L 86 56.5 L 85 56.5 L 85.5 53 Z " /><path fill="rgb(120,132,146)" stroke="rgb(120,132,146)" stroke-width="1" opacity="1" d="M 68.5 54 L 69 56 L 67 56.5 L 67.5 58 L 65 57.5 L 68.5 54 Z " /><path fill="rgb(120,132,146)" stroke="rgb(120,132,146)" stroke-width="1" opacity="1" d="M 82.5 54 L 81.5 56 L 82.5 54 Z " /><path fill="rgb(120,132,146)" stroke="rgb(120,132,146)" stroke-width="1" opacity="1" d="M 103.5 58 L 104.5 60 L 103.5 58 Z " /><path fill="rgb(120,132,146)" stroke="rgb(120,132,146)" stroke-width="1" opacity="1" d="M 66.5 59 L 67 61.5 L 66 61.5 L 66.5 59 Z " /><path fill="rgb(120,132,146)" stroke="rgb(120,132,146)" stroke-width="1" opacity="1" d="M 63.5 60 L 62.5 62 L 63.5 60 Z " /><path fill="rgb(120,132,146)" stroke="rgb(120,132,146)" stroke-width="1" opacity="1" d="M 85.5 60 L 86 63.5 L 85 63.5 L 85.5 60 Z " /><path fill="rgb(120,132,146)" stroke="rgb(120,132,146)" stroke-width="1" opacity="1" d="M 105.5 61 L 107.5 64 L 105.5 61 Z " /><path fill="rgb(120,132,146)" stroke="rgb(120,132,146)" stroke-width="1" opacity="1" d="M 79.5 62 L 80 67.5 L 79 67.5 L 79.5 62 Z " /><path fill="rgb(120,132,146)" stroke="rgb(120,132,146)" stroke-width="1" opacity="1" d="M 99.5 62 L 100.5 64 L 99.5 62 Z " /><path fill="rgb(120,132,146)" stroke="rgb(120,132,146)" stroke-width="1" opacity="1" d="M 61.5 63 L 61 64.5 L 60.5 66 L 60 64.5 L 61.5 63 Z " /><path fill="rgb(120,132,146)" stroke="rgb(120,132,146)" stroke-width="1" opacity="1" d="M 130.5 63 L 131 65 L 129 65.5 Q 131.3 66.8 128.5 68 L 128 65.5 L 130.5 63 Z " /><path fill="rgb(120,132,146)" stroke="rgb(120,132,146)" stroke-width="1" opacity="1" d="M 65.5 64 L 66 71.5 L 65 71.5 L 65.5 64 Z " /><path fill="rgb(120,132,146)" stroke="rgb(120,132,146)" stroke-width="1" opacity="1" d="M 109.5 64 L 110.5 66 L 109.5 64 Z " /><path fill="rgb(120,132,146)" stroke="rgb(120,132,146)" stroke-width="1" opacity="1" d="M 101.5 65 L 105.5 70 L 101.5 65 Z " /><path fill="rgb(120,132,146)" stroke="rgb(120,132,146)" stroke-width="1" opacity="1" d="M 123.5 67 L 126 67.5 L 123.5 68 L 123.5 67 Z " /><path fill="rgb(120,132,146)" stroke="rgb(120,132,146)" stroke-width="1" opacity="1" d="M 89.5 72 L 90.5 74 L 89.5 72 Z " /><path fill="rgb(120,132,146)" stroke="rgb(120,132,146)" stroke-width="1" opacity="1" d="M 91.5 75 L 94.5 79 L 91.5 75 Z " /><path fill="rgb(120,132,146)" stroke="rgb(120,132,146)" stroke-width="1" opacity="1" d="M 82.5 76 L 84 78.5 L 82 77.5 L 82.5 76 Z " /><path fill="rgb(120,132,146)" stroke="rgb(120,132,146)" stroke-width="1" opacity="1" d="M 96.5 79 L 97.5 81 L 96.5 79 Z " /><path fill="rgb(120,132,146)" stroke="rgb(120,132,146)" stroke-width="1" opacity="1" d="M 85.5 81 L 91.5 88 L 85.5 81 Z " /><path fill="rgb(120,132,146)" stroke="rgb(120,132,146)" stroke-width="1" opacity="1" d="M 99.5 81 L 100.5 83 L 99.5 81 Z " /><path fill="rgb(120,132,146)" stroke="rgb(120,132,146)" stroke-width="1" opacity="1" d="M 127.5 81 L 126.5 83 L 127.5 81 Z " /><path fill="rgb(120,132,146)" stroke="rgb(120,132,146)" stroke-width="1" opacity="1" d="M 130.5 82 L 129.5 84 L 130.5 82 Z " /><path fill="rgb(120,132,146)" stroke="rgb(120,132,146)" stroke-width="1" opacity="1" d="M 108.5 85 L 111 85.5 L 108.5 86 L 108.5 85 Z " /><path fill="rgb(120,132,146)" stroke="rgb(120,132,146)" stroke-width="1" opacity="1" d="M 117.5 85 L 120 85.5 L 117.5 86 L 117.5 85 Z " /><path fill="rgb(120,132,146)" stroke="rgb(120,132,146)" stroke-width="1" opacity="1" d="M 71.5 87 L 72.5 89 L 71.5 87 Z " /><path fill="rgb(120,132,146)" stroke="rgb(120,132,146)" stroke-width="1" opacity="1" d="M 125.5 87 L 124.5 89 L 125.5 87 Z " /><path fill="rgb(120,132,146)" stroke="rgb(120,132,146)" stroke-width="1" opacity="1" d="M 93.5 88 L 94.5 90 L 93.5 88 Z " /><path fill="rgb(120,132,146)" stroke="rgb(120,132,146)" stroke-width="1" opacity="1" d="M 73.5 90 L 80.5 98 L 73.5 90 Z " /><path fill="rgb(120,132,146)" stroke="rgb(120,132,146)" stroke-width="1" opacity="1" d="M 61.5 91 L 63 93.5 L 61 92.5 L 61.5 91 Z " /><path fill="rgb(120,132,146)" stroke="rgb(120,132,146)" stroke-width="1" opacity="1" d="M 114.5 92 L 117 92.5 L 114.5 93 L 114.5 92 Z " /><path fill="rgb(120,132,146)" stroke="rgb(120,132,146)" stroke-width="1" opacity="1" d="M 130.5 95 L 130.5 98 L 129.5 97 L 125 100.5 L 130.5 95 Z " /><path fill="rgb(120,132,146)" stroke="rgb(120,132,146)" stroke-width="1" opacity="1" d="M 129.5 99 L 128.5 101 L 129.5 99 Z " /><path fill="rgb(120,132,146)" stroke="rgb(120,132,146)" stroke-width="1" opacity="1" d="M 66.5 100 L 69.5 104 L 66.5 100 Z " /><path fill="rgb(120,132,146)" stroke="rgb(120,132,146)" stroke-width="1" opacity="1" d="M 123.5 101 L 122.5 103 L 123.5 101 Z " /><path fill="rgb(120,132,146)" stroke="rgb(120,132,146)" stroke-width="1" opacity="1" d="M 127.5 102 L 126.5 104 L 127.5 102 Z " /><path fill="rgb(120,132,146)" stroke="rgb(120,132,146)" stroke-width="1" opacity="1" d="M 97.5 105 L 100 105.5 L 97.5 106 L 97.5 105 Z " /><path fill="rgb(120,132,146)" stroke="rgb(120,132,146)" stroke-width="1" opacity="1" d="M 112.5 105 L 115 105.5 L 112.5 106 L 112.5 105 Z " /><path fill="rgb(120,132,146)" stroke="rgb(120,132,146)" stroke-width="1" opacity="1" d="M 74.5 107 L 75.5 109 L 74.5 107 Z " /><path fill="rgb(120,132,146)" stroke="rgb(120,132,146)" stroke-width="1" opacity="1" d="M 121.5 108 L 120.5 110 L 121.5 108 Z " /><path fill="rgb(120,132,146)" stroke="rgb(120,132,146)" stroke-width="1" opacity="1" d="M 118.5 110 L 117.5 112 L 118.5 110 Z " /><path fill="rgb(120,132,146)" stroke="rgb(120,132,146)" stroke-width="1" opacity="1" d="M 63.5 114 L 66 114.5 L 63.5 115 L 63.5 114 Z " /><path fill="rgb(120,132,146)" stroke="rgb(120,132,146)" stroke-width="1" opacity="1" d="M 55.5 117 L 52.5 121 L 55.5 117 Z " /><path fill="rgb(120,132,146)" stroke="rgb(120,132,146)" stroke-width="1" opacity="1" d="M 155.5 117 L 153.5 120 L 155.5 117 Z " /><path fill="rgb(120,132,146)" stroke="rgb(120,132,146)" stroke-width="1" opacity="1" d="M 42.5 120 Q 47.8 118.8 49 121.5 L 47.5 121 Q 41.4 119.8 42 122.5 L 41 122.5 L 42.5 120 Z " /><path fill="rgb(120,132,146)" stroke="rgb(120,132,146)" stroke-width="1" opacity="1" d="M 81.5 120 L 87 120.5 L 80.5 122 L 81.5 120 Z " /><path fill="rgb(120,132,146)" stroke="rgb(120,132,146)" stroke-width="1" opacity="1" d="M 94.5 120 L 100 120.5 L 94.5 121 L 94.5 120 Z " /><path fill="rgb(120,132,146)" stroke="rgb(120,132,146)" stroke-width="1" opacity="1" d="M 108.5 120 L 112 120.5 L 108.5 121 L 108.5 120 Z " /><path fill="rgb(120,132,146)" stroke="rgb(120,132,146)" stroke-width="1" opacity="1" d="M 126.5 120 L 141 120.5 L 126.5 121 L 126.5 120 Z " /><path fill="rgb(120,132,146)" stroke="rgb(120,132,146)" stroke-width="1" opacity="1" d="M 60.5 121 L 62 121.5 L 58.5 124 L 60.5 121 Z " /><path fill="rgb(120,132,146)" stroke="rgb(120,132,146)" stroke-width="1" opacity="1" d="M 152.5 121 L 151.5 123 L 152.5 121 Z " /><path fill="rgb(120,132,146)" stroke="rgb(120,132,146)" stroke-width="1" opacity="1" d="M 104.5 122 L 103.5 124 L 104.5 122 Z " /><path fill="rgb(120,132,146)" stroke="rgb(120,132,146)" stroke-width="1" opacity="1" d="M 125.5 122 L 126 124.5 L 125 124.5 L 125.5 122 Z " /><path fill="rgb(120,132,146)" stroke="rgb(120,132,146)" stroke-width="1" opacity="1" d="M 159.5 122 L 158.5 124 L 159.5 122 Z " /><path fill="rgb(120,132,146)" stroke="rgb(120,132,146)" stroke-width="1" opacity="1" d="M 121.5 124 L 122 130.5 L 121 130.5 L 121.5 124 Z " /><path fill="rgb(120,132,146)" stroke="rgb(120,132,146)" stroke-width="1" opacity="1" d="M 47.5 125 L 47 126.5 L 46.5 128 L 41.5 127 L 40 127.5 L 41.5 126 Q 46.3 127.3 47.5 125 Z " /><path fill="rgb(120,132,146)" stroke="rgb(120,132,146)" stroke-width="1" opacity="1" d="M 131.5 126 L 144.5 126 L 145 127.5 L 146 129.5 L 145 129.5 Q 145.5 126.5 138.5 128 Q 137 125.5 131.5 127 L 131.5 126 Z " /><path fill="rgb(120,132,146)" stroke="rgb(120,132,146)" stroke-width="1" opacity="1" d="M 156.5 126 L 155.5 128 L 156.5 126 Z " /><path fill="rgb(120,132,146)" stroke="rgb(120,132,146)" stroke-width="1" opacity="1" d="M 153.5 130 L 152.5 132 L 153.5 130 Z " /><path fill="rgb(120,132,146)" stroke="rgb(120,132,146)" stroke-width="1" opacity="1" d="M 99.5 132 L 100 138.5 L 99 138.5 L 99.5 132 Z " /><path fill="rgb(120,132,146)" stroke="rgb(120,132,146)" stroke-width="1" opacity="1" d="M 150.5 134 L 149.5 136 L 150.5 134 Z " /><path fill="rgb(120,132,146)" stroke="rgb(120,132,146)" stroke-width="1" opacity="1" d="M 90.5 136 L 89.5 138 L 90.5 136 Z " /><path fill="rgb(120,132,146)" stroke="rgb(120,132,146)" stroke-width="1" opacity="1" d="M 75.5 137 L 76 139.5 L 75 139.5 L 75.5 137 Z " /><path fill="rgb(120,132,146)" stroke="rgb(120,132,146)" stroke-width="1" opacity="1" d="M 78.5 140 L 79.5 142 L 78.5 140 Z " /><path fill="rgb(120,132,146)" stroke="rgb(120,132,146)" stroke-width="1" opacity="1" d="M 100.5 140 L 101.5 142 L 100.5 140 Z " /><path fill="rgb(120,132,146)" stroke="rgb(120,132,146)" stroke-width="1" opacity="1" d="M 118.5 141 L 119 142.5 L 117.5 144 L 107.5 144 L 107.5 143 L 117.5 143 L 118.5 141 Z " /><path fill="rgb(247,248,249)" stroke="rgb(247,248,249)" stroke-width="1" opacity="1" d="M 102.5 45 L 102 46.5 L 101 52.5 Q 102.5 60 107.5 64 Q 112.8 69.7 125.5 68 L 129.5 65 L 128 67.5 L 126.5 70 Q 122.4 73.9 113.5 73 Q 105.2 70.9 101 64.5 Q 97 61 98 52.5 L 102.5 45 Z " /><path fill="rgb(247,248,249)" stroke="rgb(247,248,249)" stroke-width="1" opacity="1" d="M 86.5 49 L 86 50.5 L 84 58.5 Q 86.2 71.8 94.5 79 L 104.5 85 L 119.5 86 Q 127.5 84 131.5 78 L 132 79.5 L 126.5 87 Q 119.2 94.2 103.5 93 Q 90.7 89.3 84 79.5 L 80 70.5 L 80 60.5 L 81 56.5 L 86.5 49 Z " /><path fill="rgb(247,248,249)" stroke="rgb(247,248,249)" stroke-width="1" opacity="1" d="M 67.5 56 L 67 57.5 L 65 64.5 L 65 71.5 Q 68.5 89 80.5 98 L 97.5 106 L 114.5 106 Q 125 103.5 130.5 96 L 130 97.5 L 122.5 108 Q 112.7 117.2 92.5 116 L 80.5 112 L 66 99.5 L 59 84.5 L 58 73.5 Q 60.2 62.2 67.5 56 Z " /><path fill="rgb(247,248,249)" stroke="rgb(247,248,249)" stroke-width="1" opacity="1" d="M 60.5 115 Q 70.6 113.4 74 118.5 Q 76.8 121.2 76 127.5 L 73 137 Q 76.7 135.7 75 141.5 L 73.5 143 L 55.5 143 L 51 141 Q 47.9 137.4 49 128.5 Q 51.2 120.2 57.5 116 L 60.5 115 Z M 61 121 Q 55 124 56 135 L 59 137 L 67 137 L 69 129 L 69 124 Q 68 120 61 121 Z " /><path fill="rgb(247,248,249)" stroke="rgb(247,248,249)" stroke-width="1" opacity="1" d="M 156.5 117 L 162 117 L 162 119.5 L 149 135.5 L 145.5 143 L 140 143 L 140 140.5 L 141 136.5 L 138 128.5 L 145 128 Q 143.9 130.7 146.5 130 L 156.5 117 Z " /><path fill="rgb(247,248,249)" stroke="rgb(247,248,249)" stroke-width="1" opacity="1" d="M 112.5 120 L 118.5 121 L 121 123.5 L 121 132.5 L 119.5 134 L 106.5 134 L 106 135.5 L 107.5 137 L 119 137 L 118 143 L 104.5 143 L 100 139.5 Q 98.2 126.2 105.5 122 L 112.5 120 Z M 110 126 L 108 129 L 115 129 L 115 128 Q 114 125 110 126 Z " /><path fill="rgb(247,248,249)" stroke="rgb(247,248,249)" stroke-width="1" opacity="1" d="M 42 121 L 48 121 L 48 124.5 Q 46.4 127.5 41 126 L 42 121 Z " /><path fill="rgb(247,248,249)" stroke="rgb(247,248,249)" stroke-width="1" opacity="1" d="M 81.5 121 L 87 121.5 L 84 137 L 89.5 138 L 91 136.5 L 94 121 L 99.5 121 L 100 122.5 L 96 141.5 L 94.5 143 L 82.5 143 L 78 139.5 L 78 131.5 L 80 122.5 L 81.5 121 Z " /><path fill="rgb(247,248,249)" stroke="rgb(247,248,249)" stroke-width="1" opacity="1" d="M 126 121 L 142.5 121 L 144 122.5 L 145 125.5 L 131 126 L 128 143 L 122 143 L 122 138.5 L 126 121 Z " /><path fill="rgb(247,248,249)" stroke="rgb(247,248,249)" stroke-width="1" opacity="1" d="M 41.5 127 Q 46 126 47 128.5 L 43 146.5 L 39.5 151 L 31 152 L 32 146 L 36 146 L 36 144.5 L 38 140.5 L 40 128.5 L 41.5 127 Z " /></svg>