<svg width="29" height="50" viewBox="0 0 29 50" fill="none" xmlns="http://www.w3.org/2000/svg">
<g clip-path="url(#clip0_73_1644)">
<path d="M15.6237 50.0001L14.2625 49.5555C14.2625 49.5555 14.4438 42.7697 11.9516 42.293C10.3203 40.4215 12.1927 -37.6017 18.1558 42.0269C17.023 42.5905 16.1567 43.5656 15.7397 44.7465C15.5138 46.4888 15.475 48.2498 15.6237 50.0001Z" fill="url(#paint0_linear_73_1644)"/>
<path d="M16.3596 43.4447C19.9844 40.7572 22.7603 37.1111 24.3646 32.9305C25.9688 28.7499 26.3356 24.2065 25.4221 19.8286C22.7577 8.24823 16.4484 4.44109 15.7688 2.98751C15.1841 2.08136 14.6837 1.12511 14.2734 0.130371L14.7755 32.3964C14.7755 32.3964 13.7351 42.2572 16.3596 43.4447Z" fill="url(#paint1_linear_73_1644)"/>
<path d="M13.5698 43.8732C13.5698 43.8732 2.4755 36.4286 3.11713 23.2589C3.17698 19.2887 4.10096 15.3773 5.82666 11.789C7.55235 8.20066 10.0396 5.01901 13.1203 2.45893C13.4798 2.15716 13.7655 1.77928 13.956 1.35349C14.1465 0.927713 14.2369 0.465033 14.2205 0C14.9111 1.46429 14.7987 21.8625 14.8712 24.2482C15.1521 33.5286 14.3474 42.1214 13.5698 43.8732Z" fill="url(#paint2_linear_73_1644)"/>
</g>
<defs>
<linearGradient id="paint0_linear_73_1644" x1="6.47357" y1="25.4507" x2="22.0698" y2="30.8225" gradientUnits="userSpaceOnUse">
<stop offset="0.231" stop-color="#999875"/>
<stop offset="0.563" stop-color="#9B9977"/>
<stop offset="0.683" stop-color="#A09F7E"/>
<stop offset="0.768" stop-color="#A9A889"/>
<stop offset="0.837" stop-color="#B7B69A"/>
<stop offset="0.896" stop-color="#C9C7B0"/>
<stop offset="0.948" stop-color="#DEDDCB"/>
<stop offset="0.994" stop-color="#F8F6EB"/>
<stop offset="1" stop-color="#FBF9EF"/>
</linearGradient>
<linearGradient id="paint1_linear_73_1644" x1="12.2107" y1="-0.10019" x2="18.9293" y2="42.4827" gradientUnits="userSpaceOnUse">
<stop stop-color="#48A547"/>
<stop offset="1" stop-color="#3F9143"/>
</linearGradient>
<linearGradient id="paint2_linear_73_1644" x1="2.1628" y1="24.5625" x2="20.6675" y2="18.2724" gradientUnits="userSpaceOnUse">
<stop stop-color="#41A247"/>
<stop offset="0.352" stop-color="#4BA74B"/>
<stop offset="0.956" stop-color="#67B554"/>
<stop offset="1" stop-color="#69B655"/>
</linearGradient>
<clipPath id="clip0_73_1644">
<rect width="29" height="50" fill="white"/>
</clipPath>
</defs>
</svg>
