<svg width="50" height="50" viewBox="0 0 50 50" fill="none" xmlns="http://www.w3.org/2000/svg">
<g clip-path="url(#clip0_64_1494)">
<path d="M25 50C24.3255 50.0004 23.6627 49.823 23.0786 49.4857L16.9643 45.8661C16.0518 45.3554 16.4964 45.175 16.7982 45.0697C17.7689 44.7703 18.6982 44.3504 19.5643 43.8197C19.6367 43.7856 19.7166 43.7708 19.7964 43.7768C19.8762 43.7827 19.9531 43.8092 20.0196 43.8536L24.7178 46.6447C24.8053 46.6909 24.9028 46.7151 25.0018 46.7151C25.1007 46.7151 25.1982 46.6909 25.2857 46.6447L43.6071 36.0697C43.6932 36.0187 43.7644 35.946 43.8136 35.8589C43.8628 35.7718 43.8883 35.6733 43.8875 35.5732V14.4197C43.8877 14.3181 43.8617 14.2182 43.812 14.1297C43.7622 14.0411 43.6904 13.9669 43.6036 13.9143L25.2821 3.34823C25.1959 3.29907 25.0984 3.27321 24.9991 3.27321C24.8998 3.27321 24.8023 3.29907 24.7161 3.34823L6.40534 13.9179C6.318 13.9695 6.24548 14.0429 6.19479 14.1308C6.14411 14.2187 6.11699 14.3182 6.11606 14.4197V35.5643C6.11721 35.6638 6.14435 35.7613 6.19477 35.8472C6.2452 35.933 6.31717 36.0041 6.40356 36.0536L11.4286 38.9536C14.1518 40.3143 15.8196 38.7107 15.8196 37.1V16.2232C15.8196 16.0812 15.8761 15.9449 15.9765 15.8444C16.077 15.744 16.2133 15.6875 16.3553 15.6875H18.6768C18.8188 15.6875 18.9551 15.744 19.0556 15.8444C19.156 15.9449 19.2125 16.0812 19.2125 16.2232V37.1018C19.2125 40.7357 17.2339 42.8161 13.7875 42.8161C12.3008 42.8409 10.8376 42.4434 9.56784 41.6697L4.75177 38.9072C4.16759 38.5661 3.68286 38.0781 3.34577 37.4917C3.00868 36.9052 2.83098 36.2407 2.83034 35.5643V14.4197C2.82824 13.742 3.00473 13.0757 3.34205 12.4879C3.67936 11.9001 4.16559 11.4115 4.75177 11.0714L23.075 0.492875C23.6654 0.170594 24.3273 0.00170898 25 0.00170898C25.6726 0.00170898 26.3345 0.170594 26.925 0.492875L45.2464 11.0714C45.8304 11.4119 46.3152 11.8993 46.6525 12.4851C46.9899 13.0709 47.1682 13.7347 47.1696 14.4107V35.5643C47.1688 36.2409 46.9908 36.9055 46.6534 37.492C46.316 38.0785 45.8309 38.5664 45.2464 38.9072L26.925 49.4857C26.3398 49.8236 25.6757 50.001 25 50Z" fill="#83CD29"/>
<path d="M21.5249 28.4877C21.5249 28.3456 21.5813 28.2094 21.6818 28.1089C21.7823 28.0085 21.9185 27.952 22.0606 27.952H24.4303C24.5569 27.9524 24.6792 27.9977 24.7757 28.0797C24.8721 28.1618 24.9364 28.2753 24.957 28.4002C25.3142 30.8127 26.3856 32.0288 31.2303 32.0288C35.0892 32.0288 36.7338 31.1556 36.7338 29.1074C36.7338 27.927 36.2678 27.0502 30.2695 26.4627C25.2553 25.9663 22.1553 24.8556 22.1553 20.8484C22.1553 17.152 25.2713 14.9467 30.4945 14.9467C36.3642 14.9467 39.2695 16.9842 39.6374 21.3556C39.643 21.4286 39.6336 21.5019 39.6098 21.5711C39.586 21.6403 39.5482 21.7039 39.4988 21.758C39.4495 21.812 39.3896 21.8554 39.3228 21.8854C39.256 21.9154 39.1838 21.9314 39.1106 21.9324H36.7249C36.6052 21.9307 36.4895 21.889 36.3963 21.8139C36.3031 21.7388 36.2377 21.6347 36.2106 21.5181C35.641 18.9806 34.2463 18.1699 30.4963 18.1699C26.282 18.1699 25.7928 19.6377 25.7928 20.7377C25.7928 22.0699 26.3713 22.4592 32.0606 23.2109C37.691 23.9556 40.366 25.0092 40.366 28.9663C40.366 32.9592 37.0374 35.2449 31.232 35.2449C23.2053 35.2556 21.5249 31.5752 21.5249 28.4877Z" fill="#83CD29"/>
</g>
<defs>
<clipPath id="clip0_64_1494">
<rect width="50" height="50" fill="white"/>
</clipPath>
</defs>
</svg>
