<svg width="50" height="47" viewBox="0 0 50 47" fill="none" xmlns="http://www.w3.org/2000/svg">
<path d="M25 17.6923C38.2929 17.6923 46.4286 22.2746 46.4286 24.7692C46.4286 27.2638 38.2929 31.8461 25 31.8461C11.7071 31.8461 3.57143 27.2638 3.57143 24.7692C3.57143 22.2746 11.7071 17.6923 25 17.6923ZM25 14.1538C11.1929 14.1538 0 18.906 0 24.7692C0 30.6324 11.1929 35.3846 25 35.3846C38.8071 35.3846 50 30.6324 50 24.7692C50 18.906 38.8071 14.1538 25 14.1538Z" fill="#00BCD4"/>
<path d="M25 21.2307C24.2937 21.2307 23.6032 21.4382 23.0158 21.8271C22.4285 22.2159 21.9708 22.7685 21.7004 23.4151C21.4301 24.0616 21.3594 24.7731 21.4972 25.4595C21.635 26.1459 21.9752 26.7764 22.4746 27.2712C22.9741 27.7661 23.6105 28.1031 24.3033 28.2396C24.9961 28.3762 25.7142 28.3061 26.3667 28.0383C27.0193 27.7705 27.5771 27.3169 27.9696 26.735C28.362 26.1531 28.5714 25.469 28.5714 24.7692C28.5714 23.8307 28.1952 22.9307 27.5254 22.2671C26.8556 21.6035 25.9472 21.2307 25 21.2307Z" fill="#00BCD4"/>
<path d="M15.1034 6.20484C18.7052 6.20484 25.7052 11.8257 31.1856 21.2309C37.832 32.6371 37.8945 41.9079 35.7141 43.1552C35.4626 43.2844 35.1811 43.3455 34.8981 43.3321C31.2963 43.3321 24.2945 37.7131 18.8141 28.3078C12.1677 16.9016 12.1052 7.63084 14.2856 6.38354C14.5376 6.25402 14.8198 6.1912 15.1034 6.20484ZM15.1016 2.66815C14.1916 2.65184 13.2935 2.87595 12.4998 3.31746C7.37484 6.24907 8.8177 18.2303 15.7213 30.0771C21.5856 40.144 29.507 46.8724 34.8998 46.8724C35.8096 46.8873 36.707 46.662 37.4998 46.2195C42.6248 43.2897 41.182 31.3085 34.2784 19.4617C28.4141 9.39477 20.4927 2.66638 15.0998 2.66638L15.1016 2.66815Z" fill="#00BCD4"/>
<path d="M34.898 6.20471C35.181 6.19139 35.4626 6.25242 35.7141 6.38164C37.8944 7.63071 37.8319 16.9015 31.1855 28.3077C25.7034 37.7129 18.7034 43.3338 15.1016 43.3338C14.8186 43.3471 14.537 43.2861 14.2855 43.1569C12.1052 41.906 12.1677 32.6353 18.8141 21.2308C24.2962 11.8256 31.2962 6.20471 34.898 6.20471ZM34.898 2.66625C29.5052 2.66625 21.5855 9.3964 15.7194 19.4616C8.81945 31.3083 7.3748 43.2896 12.4998 46.2194C13.2931 46.6621 14.1912 46.8875 15.1016 46.8723C20.4944 46.8723 28.4141 40.1421 34.2802 30.0769C41.1802 18.2302 42.6248 6.24894 37.4998 3.3191C36.7065 2.87636 35.8084 2.65102 34.898 2.66625Z" fill="#00BCD4"/>
</svg>
