<svg width="100" height="106" viewBox="0 0 100 106" fill="none" xmlns="http://www.w3.org/2000/svg">
<path d="M3.24532 0.210031C2.77768 0.202936 2.31439 0.316055 1.88798 0.541445C1.46157 0.766835 1.08238 1.09903 0.777051 1.5147C0.471717 1.93037 0.247639 2.41944 0.120555 2.94755C-0.00652873 3.47567 -0.0335374 4.03002 0.0414258 4.57169L13.6426 101.455C13.812 102.64 14.332 103.718 15.1113 104.498C15.8906 105.279 16.8794 105.712 17.9039 105.722H83.1537C83.9216 105.733 84.6674 105.421 85.2554 104.841C85.8434 104.261 86.2344 103.453 86.3572 102.564L99.9587 4.59048C100.034 4.04885 100.006 3.49455 99.8793 2.96651C99.7521 2.43848 99.528 1.94951 99.2226 1.53394C98.9172 1.11837 98.538 0.786267 98.1116 0.56096C97.6852 0.335653 97.222 0.2226 96.7544 0.22974L3.24532 0.210031ZM60.517 70.2313H39.6909L34.0519 35.6625H65.5635L60.517 70.2313Z" fill="#2684FF"/>
<path d="M95.5506 35.6138H65.5054L60.4629 70.155H39.6535L15.0825 104.377C15.8613 105.167 16.8542 105.606 17.8837 105.616H83.0975C83.8649 105.628 84.6103 105.316 85.1979 104.736C85.7855 104.157 86.1763 103.35 86.2991 102.461L95.5514 35.6138H95.5506Z" fill="url(#paint0_linear_8_180)"/>
<defs>
<linearGradient id="paint0_linear_8_180" x1="8756.66" y1="1002.91" x2="4508.84" y2="6143.16" gradientUnits="userSpaceOnUse">
<stop offset="0.18" stop-color="#0052CC"/>
<stop offset="1" stop-color="#2684FF"/>
</linearGradient>
</defs>
</svg>
