<svg width="100" height="101" viewBox="0 0 100 101" fill="none" xmlns="http://www.w3.org/2000/svg">
<path d="M50.0002 8.57031C44.5284 8.57031 39.1103 9.65065 34.055 11.7496C28.9998 13.8486 24.4065 16.9252 20.5374 20.8036C12.7234 28.6364 8.3335 39.2601 8.3335 50.3374C8.3335 68.7984 20.2918 84.4611 36.8335 90.0161C38.9168 90.3502 39.5835 89.0555 39.5835 87.9277V80.8691C28.0418 83.3751 25.5835 75.2723 25.5835 75.2723C23.6668 70.4273 20.9585 69.1326 20.9585 69.1326C17.1668 66.543 21.2502 66.6265 21.2502 66.6265C25.4168 66.9189 27.6252 70.9285 27.6252 70.9285C31.2502 77.2771 37.3752 75.3976 39.7502 74.3952C40.1252 71.6804 41.2085 69.8426 42.3752 68.7984C33.1252 67.7542 23.4168 64.1623 23.4168 48.249C23.4168 43.6129 25.0002 39.8956 27.7085 36.9302C27.2918 35.886 25.8335 31.5422 28.1252 25.9036C28.1252 25.9036 31.6252 24.7759 39.5835 30.1639C42.8752 29.245 46.4585 28.7856 50.0002 28.7856C53.5418 28.7856 57.1252 29.245 60.4168 30.1639C68.3752 24.7759 71.8752 25.9036 71.8752 25.9036C74.1668 31.5422 72.7085 35.886 72.2918 36.9302C75.0002 39.8956 76.5835 43.6129 76.5835 48.249C76.5835 64.204 66.8335 67.7125 57.5418 68.7567C59.0418 70.0514 60.4168 72.5992 60.4168 76.4836V87.9277C60.4168 89.0555 61.0835 90.392 63.2085 90.0161C79.7502 84.4193 91.6668 68.7984 91.6668 50.3374C91.6668 44.8525 90.5891 39.4212 88.4952 34.3538C86.4012 29.2864 83.3321 24.682 79.463 20.8036C75.5938 16.9252 71.0005 13.8486 65.9453 11.7496C60.8901 9.65065 55.4719 8.57031 50.0002 8.57031Z" fill="#111111"/>
</svg>
