<svg width="100" height="100" viewBox="0 0 100 100" fill="none" xmlns="http://www.w3.org/2000/svg">
<g clip-path="url(#clip0_45_5)">
<path d="M93.5754 49.1024C93.5754 43.9759 88.9809 39.8197 83.3137 39.8197C82.9489 39.8197 82.5895 39.8374 82.2348 39.8713L96.3293 2.26709H36.4325L50.5075 39.8385C50.2998 39.8266 50.0917 39.8205 49.8836 39.8201C44.2164 39.8201 39.6219 43.9756 39.6219 49.1028C39.6219 53.2466 42.6243 56.7551 46.7676 57.9487C44.5793 61.3777 41.8254 64.4664 38.6989 67.1349C34.4473 70.7629 29.5817 73.5141 24.3192 75.2091C18.0536 72.2975 15.095 65.8222 17.7645 60.1448C18.0661 59.5035 18.3739 58.8537 18.668 58.2067C23.2071 57.2484 26.5899 53.5674 26.5899 49.1692C26.5899 44.0424 21.9954 39.8865 16.3278 39.8865C10.6602 39.8865 6.06606 44.0424 6.06606 49.1692C6.06606 52.313 7.79497 55.0901 10.4383 56.7692C7.89848 62.0003 4.16489 67.4752 3.00161 73.8204C1.60747 81.4247 2.99692 89.4968 10.2676 94.0554C27.2004 104.672 45.5809 87.4742 64.9606 83.1508C71.984 81.5844 79.6938 81.8367 85.8817 78.595C90.5286 76.1604 93.5922 72.1254 94.4614 67.5957C95.3207 63.1208 94.0684 58.6653 91.1887 55.0526C92.7336 53.3851 93.5788 51.2781 93.5754 49.1024Z" fill="#99425B"/>
<path d="M91.9924 67.2078C91.2377 71.1406 88.5525 74.5756 84.626 76.6332C80.9654 78.5509 76.5791 79.1233 71.9346 79.729C69.4467 80.0534 66.874 80.3894 64.3607 80.9498C57.7154 82.4322 51.2787 85.3244 45.0545 88.1212C32.5975 93.7184 21.8397 98.5516 11.6959 92.1919C4.26543 87.5336 4.6084 78.9145 5.47403 74.1915C6.27637 69.8156 8.44551 65.7855 10.5428 61.8883C10.9001 61.226 11.2545 60.5624 11.6061 59.8975C12.6633 60.2798 13.7726 60.5316 14.9041 60.6459C12.7689 67.0201 16.1268 73.9509 23.174 77.2258L24.1389 77.6742L25.16 77.3452C30.7314 75.5502 35.8654 72.6703 40.4189 68.7838C43.3623 66.2717 45.8932 63.4926 47.9732 60.523C48.6056 60.6093 49.2443 60.6526 49.8838 60.6527C56.3522 60.6527 61.7084 56.2784 62.5373 50.629C65.185 50.5413 67.9971 50.5406 70.66 50.6283C71.4881 56.2784 76.8451 60.653 83.3135 60.653C86.0182 60.653 88.5268 59.8862 90.5936 58.5837C92.0283 61.2406 92.5639 64.23 91.9924 67.2078ZM16.3283 42.1537C20.6049 42.1537 24.0838 45.3011 24.0838 49.1696C24.085 50.5086 23.6598 51.8197 22.8592 52.9459C21.5701 54.7647 19.3787 56.0113 16.8611 56.1668C16.685 56.1774 16.5072 56.1852 16.3283 56.1852C15.3752 56.1852 14.4623 56.0279 13.6182 55.7424C11.9181 55.1641 10.4944 54.0672 9.59278 52.641C8.92324 51.5844 8.57146 50.3875 8.57246 49.1696C8.57246 45.3011 12.0518 42.1537 16.3283 42.1537ZM42.1287 49.1028C42.1287 45.588 45.001 42.6696 48.733 42.165C49.1088 42.1138 49.4932 42.0873 49.8842 42.0873C52.3705 42.0873 54.5842 43.1526 56.0037 44.8035C56.3593 45.2152 56.663 45.6614 56.9092 46.1339C57.3913 47.0629 57.6407 48.0766 57.6397 49.1028C57.6397 49.6636 57.5647 50.2088 57.4268 50.7318C56.6709 53.594 53.9729 55.782 50.6666 56.083C50.4096 56.1064 50.1486 56.1184 49.8842 56.1184C48.3924 56.1195 46.9324 55.729 45.6811 54.9943C43.5459 53.7431 42.1287 51.5703 42.1287 49.1028ZM74.4979 40.7601C72.8102 42.2173 71.5956 44.0646 70.9857 46.1018C68.0625 46.0043 65.1363 46.0043 62.2131 46.1018C61.5568 43.8996 60.1967 41.9569 58.3666 40.4813L66.392 25.8021L74.4979 40.7601ZM39.9283 4.53498H92.8334L80.3377 37.8724C79.8001 37.9889 79.2715 38.1371 78.7553 38.3159L66.4115 15.5375L54.0326 38.1799C53.493 38.0123 52.9415 37.8778 52.3818 37.7774L39.9283 4.53498ZM91.069 49.1032C91.069 49.8064 90.9529 50.4855 90.7393 51.1269C90.2323 52.6368 89.1796 53.9489 87.7498 54.853C86.4503 55.678 84.901 56.12 83.3135 56.1187C79.7326 56.1187 76.7119 53.9113 75.8236 50.9219C75.6473 50.3288 75.5579 49.7173 75.558 49.1032C75.558 48.1442 75.7721 47.2297 76.1588 46.3965C76.3584 45.9701 76.6041 45.5627 76.8924 45.1802C78.2881 43.3166 80.6432 42.0876 83.3135 42.0876C83.5584 42.0876 83.7998 42.0989 84.0393 42.1194C87.9768 42.4512 91.069 45.4558 91.069 49.1032ZM96.0818 49.1032C96.0818 43.4643 91.5904 38.7594 85.6748 37.7544L99.8256 0H32.9369L47.1096 37.8307C41.3994 38.9802 37.1162 43.5961 37.1162 49.1028C37.1162 53.2378 39.5318 56.8696 43.1522 58.9106C41.4107 61.2576 39.3459 63.4661 36.9795 65.4859C33.2264 68.6883 29.0455 71.1173 24.5381 72.7156C19.9979 70.1357 18.0787 65.2703 20.0717 61.0322L20.2279 60.7L20.5209 60.0767C25.5076 58.5032 29.0963 54.2099 29.0963 49.1696C29.0963 42.8007 23.3686 37.6194 16.3283 37.6194C9.2877 37.6194 3.55997 42.8007 3.55997 49.1696C3.55997 52.3841 5.0209 55.2951 7.37168 57.3912C6.93324 58.2315 6.48818 59.069 6.03653 59.9035C3.88692 63.8968 1.45098 68.423 0.529496 73.4495C-1.30019 83.4318 1.65137 91.4117 8.84082 95.9187C13.2033 98.6537 17.6338 99.7293 22.092 99.7293C30.4865 99.7293 38.9787 95.9141 47.2846 92.182C53.2662 89.4947 59.4518 86.7155 65.5615 85.3523C67.835 84.8452 70.174 84.5399 72.6506 84.217C77.5619 83.576 82.64 82.9134 87.1385 80.5569C92.3529 77.8247 95.9221 73.2417 96.9314 67.9837C97.7979 63.4696 96.7553 58.9484 94.2123 55.1138C95.4376 53.3049 96.0849 51.2243 96.0822 49.1028L96.0818 49.1032Z" fill="white"/>
</g>
<defs>
<clipPath id="clip0_45_5">
<rect width="100" height="100" fill="white"/>
</clipPath>
</defs>
</svg>
