<svg width="100" height="101" viewBox="0 0 100 101" fill="none" xmlns="http://www.w3.org/2000/svg">
<g clip-path="url(#clip0_8_193)">
<g filter="url(#filter0_f_8_193)">
<path d="M95.7519 84.9489C95.7519 90.8461 75.1983 95.6515 49.8378 95.6515C24.4772 95.6515 3.92334 90.8774 3.92334 84.9489C3.92334 79.0513 24.4772 74.2458 49.8374 74.2458C75.1983 74.2458 95.7163 79.0513 95.7519 84.9489Z" fill="black" fill-opacity="0.2"/>
</g>
<path d="M24.6923 73.4348C20.2442 67.8804 19.3833 49.7827 29.7497 38.6427C34.8794 33.3075 36.2067 29.5941 36.6013 24.5702C36.888 18.8599 31.9739 1.85424 50.4829 0.574892C69.2435 -0.735717 68.2032 15.365 68.0954 23.8838C68.0239 31.0604 74.1579 35.1482 78.3903 40.7651C86.1743 51.062 85.5286 68.7853 76.9196 78.3962C66.015 90.4095 56.6888 85.1983 50.4829 85.6353C38.861 86.2283 38.4665 91.5954 24.6923 73.4348Z" fill="black"/>
<path d="M69.9607 41.8256C73.1893 44.4156 81.5471 55.9919 68.3107 63.2313C63.6478 65.7588 72.4721 75.3693 76.7045 70.7202C84.2017 62.3577 79.431 49.0026 74.9111 44.2284C71.8978 40.8586 67.235 39.548 69.9611 41.826L69.9607 41.8256Z" fill="url(#paint0_linear_8_193)"/>
<path d="M69.0645 40.2656C74.3731 44.0102 84.0223 57.1153 69.9255 65.665C65.2981 68.3175 74.0145 76.7112 78.929 72.4362C95.9672 57.521 78.4985 40.3904 72.4719 34.4928C67.0915 29.3445 62.3208 35.6787 69.0645 40.2656Z" fill="black" stroke="black" stroke-width="0.977"/>
<path d="M61.4237 8.71849C61.2444 12.9935 55.828 16.7072 49.3354 17.0504C42.8429 17.3936 37.7495 14.1485 37.9284 9.87347C38.1081 5.59844 43.5245 1.88511 50.0171 1.54191C56.5093 1.22998 61.603 4.4438 61.4237 8.71849Z" fill="url(#paint1_linear_8_193)"/>
<path d="M45.8917 18.8911C46.0714 21.6683 44.5648 24.0085 42.4843 24.1019C40.4038 24.1957 38.5741 22.0427 38.3948 19.2655C38.2155 16.4884 39.7222 14.1482 41.8027 14.0547C43.8831 13.9609 45.7128 16.1139 45.8917 18.8911Z" fill="url(#paint2_linear_8_193)"/>
<path d="M49.6579 19.1096C49.7298 22.3234 52.1333 24.8821 55.0028 24.8199C57.8724 24.7574 60.1321 22.1049 60.0607 18.8598C59.9888 15.646 57.5857 13.0873 54.7157 13.1498C51.8462 13.212 49.5505 15.8954 49.6579 19.1096Z" fill="url(#paint3_linear_8_193)"/>
<path d="M52.0256 19.8272C51.9896 21.6057 52.9943 23.041 54.3213 23.041C55.6127 23.041 56.7248 21.6057 56.7607 19.8585C56.7963 18.0799 55.792 16.6443 54.4646 16.6443C53.1377 16.6443 52.0615 18.0799 52.0256 19.8272ZM43.7396 19.8585C43.9189 21.325 43.2732 22.5731 42.3404 22.6978C41.408 22.7916 40.5111 21.6995 40.3318 20.2329C40.1521 18.7663 40.7982 17.5179 41.7306 17.3932C42.6635 17.2998 43.5603 18.3919 43.7396 19.8585Z" fill="black"/>
<path d="M52.564 18.8287C52.4562 19.8274 52.9945 20.6385 53.7476 20.701C54.5008 20.7635 55.2183 19.9833 55.3258 19.0159C55.4336 18.0176 54.8953 17.2061 54.1422 17.1436C53.389 17.0814 52.6715 17.8613 52.564 18.8287Z" fill="url(#paint4_linear_8_193)"/>
<path d="M42.9502 19.0784C43.058 19.8898 42.6635 20.6075 42.0896 20.6696C41.5154 20.7322 40.9775 20.1079 40.8697 19.2656C40.7623 18.4541 41.1568 17.7365 41.7306 17.6743C42.3049 17.6118 42.8428 18.2669 42.9502 19.0784Z" fill="url(#paint5_linear_8_193)"/>
<path d="M31.6509 49.7201C34.1978 44.6962 39.6142 35.8658 39.722 29.0321C39.722 23.6028 58.4107 22.2922 59.9173 27.7218C61.4236 33.1511 65.2259 41.2639 67.665 45.1957C70.1044 49.0959 77.1708 61.5462 69.638 72.4048C62.8583 82.0157 42.3048 89.6293 31.3283 71.0946C27.5978 64.6666 28.279 56.7098 31.6509 49.7201Z" fill="url(#paint6_linear_8_193)"/>
<path d="M29.3552 45.9755C27.1673 49.5638 22.6474 58.9875 33.6958 64.1361C45.5689 69.628 45.5329 80.8924 31.2564 75.5252C18.1997 70.6888 23.9747 51.0929 27.6337 46.4125C30.0009 43.1362 33.588 39.1109 29.3552 45.9755Z" fill="url(#paint7_linear_8_193)"/>
<path d="M31.2207 41.9193C27.7414 46.8495 19.4196 58.457 30.5754 64.5106C45.5692 72.5298 41.3363 80.5179 27.634 73.3097C8.33556 63.2625 25.302 42.9802 33.0145 35.2419C41.8387 26.5671 34.7004 36.8335 31.2207 41.9193Z" fill="black" stroke="black" stroke-width="1.25"/>
<path d="M65.0109 51.6234C65.0109 57.1153 58.9488 64.23 48.5461 64.1675C37.8211 64.2297 33.2656 57.1153 33.2656 51.6234C33.2656 46.1319 40.368 41.6697 49.1203 41.6697C57.9086 41.7009 65.0109 46.1319 65.0109 51.6234Z" fill="url(#paint8_linear_8_193)"/>
<path d="M59.3437 34.368C59.2358 40.0471 54.9671 41.3889 49.5866 41.3889C44.2058 41.3889 40.296 40.5462 39.8296 34.368C39.8296 30.4987 44.2058 28.2523 49.5866 28.2523C54.9671 28.221 59.3437 30.4678 59.3437 34.368Z" fill="url(#paint9_linear_8_193)"/>
<path d="M26.8083 43.1048C30.3239 38.4557 37.7489 31.31 28.2075 44.1035C20.4595 54.6502 25.338 61.4214 27.8489 63.2933C35.0946 68.9102 34.8075 72.6854 29.1044 69.7213C16.8724 63.3871 19.4192 52.7154 26.8083 43.1048Z" fill="url(#paint10_linear_8_193)"/>
<path d="M77.709 45.0084C74.6598 39.5478 64.9747 25.6935 78.1751 41.7943C90.1919 56.3662 81.7622 66.5076 80.2555 67.5059C78.7493 68.5046 73.6915 70.5328 75.1618 67.0067C76.6688 63.4806 84.1297 56.8032 77.7087 45.0081L77.709 45.0084Z" fill="url(#paint11_linear_8_193)"/>
<path d="M24.1541 88.0693C16.1189 84.356 4.46113 88.787 8.69394 78.7395C9.55488 76.4614 7.43847 73.0291 8.80136 70.8136C10.4158 68.099 13.8951 68.6919 15.9756 66.8821C18.0201 65.0098 19.3115 61.7647 23.1498 62.2643C26.9521 62.7631 29.499 66.8196 32.1533 71.8123C34.126 75.3693 41.085 80.3933 40.6189 84.3873C40.0447 90.503 32.0455 91.6576 24.1541 88.0693Z" fill="url(#paint12_linear_8_193)" stroke="#E68C3F" stroke-width="6.25"/>
<path d="M82.6593 64.4793C81.4397 66.4763 76.346 69.6902 72.9382 68.8478C69.4948 68.0363 67.9163 63.4806 68.5979 60.0171C69.2437 56.1481 72.9382 55.9293 77.6019 57.8641C82.6233 60.0171 84.13 61.8268 82.6593 64.4793Z" fill="url(#paint13_linear_8_193)"/>
<path d="M79.861 86.3527C85.7438 80.1436 98.8368 81.4229 90.0126 72.9045C88.1473 71.0634 88.7212 67.1316 86.4255 65.4469C83.7352 63.3873 80.7579 65.0724 78.0317 64.0116C75.3055 62.8569 72.436 60.6414 69.1001 62.2014C65.7641 63.7931 65.4051 67.9118 65.0825 73.3411C64.7954 77.2417 60.7063 83.7631 62.8942 87.3514C66.0508 92.9058 74.2653 92.1565 79.861 86.3527Z" fill="url(#paint14_linear_8_193)" stroke="#E68C3F" stroke-width="6.251"/>
<path d="M77.3142 78.0527C86.4255 66.3517 79.6462 66.4451 77.3501 65.5402C75.0544 64.6041 72.6509 62.763 69.961 64.0424C67.2704 65.353 67.127 68.7231 67.0552 73.1538C66.9477 76.3367 63.8989 81.6726 65.7282 84.6366C67.952 88.1002 73.3325 83.0766 77.3142 78.0527Z" fill="url(#paint15_linear_8_193)"/>
<path d="M22.289 79.7377C8.65812 72.0616 15.0429 69.4407 17.0878 68.2236C19.5628 66.6635 19.5987 63.6679 22.6476 63.9489C25.6968 64.2296 27.4902 67.5059 29.5347 71.5624C31.0413 74.4643 36.2784 78.3336 35.8839 81.6725C35.382 85.604 28.1718 83.014 22.289 79.7377Z" fill="url(#paint16_linear_8_193)"/>
<path d="M81.8703 64.3856C80.7941 66.0085 76.4179 68.5672 73.5125 67.8804C70.5351 67.2253 69.1718 63.5745 69.782 60.8286C70.3199 57.7082 73.5125 57.5522 77.5297 59.1126C81.7984 60.7973 83.1258 62.2326 81.8703 64.3856Z" fill="black"/>
<path d="M78.929 63.4806C78.2473 64.604 75.3778 66.3825 73.3688 65.9146C71.3602 65.4467 70.3559 62.9192 70.6786 61.0157C70.9657 58.8627 73.1176 58.7377 75.8438 59.7989C78.7852 60.9848 79.718 61.9831 78.929 63.4806Z" fill="url(#paint17_linear_8_193)"/>
<path d="M41.8386 22.7605C43.2734 21.6059 46.7527 18.0801 53.3531 21.7618C54.5726 22.4482 55.5769 22.5108 57.9085 23.3844C62.6078 25.0698 60.3835 29.126 55.3617 30.4988C53.2093 31.0917 51.2726 33.3697 47.3984 33.1513C44.0624 32.9949 43.2015 31.0921 41.157 30.0621C37.5339 28.2836 36.996 25.8809 38.9687 24.6015C40.9417 23.3222 41.6953 22.854 41.8386 22.7605Z" fill="url(#paint18_linear_8_193)" stroke="#E68C3F" stroke-width="3.75"/>
<path d="M57.9803 26.0369C56.0076 26.1303 51.7385 29.8436 47.2549 29.8436C42.7709 29.8436 40.0807 26.2241 39.3994 26.2241" stroke="#E68C3F" stroke-width="2.5"/>
<path d="M44.0625 22.4484C44.7801 21.8867 47.0399 20.3576 50.0172 21.9177C50.6629 22.2299 51.3086 22.5731 52.241 23.041C54.1422 24.0084 53.2098 25.4128 50.9137 26.2861C49.8735 26.6606 48.152 27.472 46.8606 27.4095C45.4258 27.2848 44.4571 26.4733 43.5246 25.9429C41.7668 24.9446 41.8746 24.1019 42.6996 23.4468C43.309 22.9472 43.9903 22.4793 44.0625 22.4484Z" fill="url(#paint19_linear_8_193)"/>
</g>
<defs>
<filter id="filter0_f_8_193" x="-9.07666" y="61.2458" width="117.829" height="47.4058" filterUnits="userSpaceOnUse" color-interpolation-filters="sRGB">
<feFlood flood-opacity="0" result="BackgroundImageFix"/>
<feBlend mode="normal" in="SourceGraphic" in2="BackgroundImageFix" result="shape"/>
<feGaussianBlur stdDeviation="6.5" result="effect1_foregroundBlur_8_193"/>
</filter>
<linearGradient id="paint0_linear_8_193" x1="729.037" y1="3647.15" x2="907.531" y2="1345.98" gradientUnits="userSpaceOnUse">
<stop stop-color="#FFEED7"/>
<stop offset="1" stop-color="#BDBFC2"/>
</linearGradient>
<linearGradient id="paint1_linear_8_193" x1="1316.73" y1="38.9135" x2="1231.58" y2="1416.53" gradientUnits="userSpaceOnUse">
<stop stop-color="white" stop-opacity="0.8"/>
<stop offset="1" stop-color="white" stop-opacity="0"/>
</linearGradient>
<linearGradient id="paint2_linear_8_193" x1="428.673" y1="901.218" x2="376.227" y2="113.581" gradientUnits="userSpaceOnUse">
<stop stop-color="#FFEED7"/>
<stop offset="1" stop-color="#BDBFC2"/>
</linearGradient>
<linearGradient id="paint3_linear_8_193" x1="569.274" y1="1011.02" x2="569.261" y2="174.355" gradientUnits="userSpaceOnUse">
<stop stop-color="#FFEED7"/>
<stop offset="1" stop-color="#BDBFC2"/>
</linearGradient>
<linearGradient id="paint4_linear_8_193" x1="202.892" y1="28.1968" x2="166.877" y2="350.266" gradientUnits="userSpaceOnUse">
<stop stop-color="white" stop-opacity="0.65"/>
<stop offset="1" stop-color="white" stop-opacity="0"/>
</linearGradient>
<linearGradient id="paint5_linear_8_193" x1="137.323" y1="34.1159" x2="176.202" y2="295.716" gradientUnits="userSpaceOnUse">
<stop stop-color="white" stop-opacity="0.65"/>
<stop offset="1" stop-color="white" stop-opacity="0"/>
</linearGradient>
<linearGradient id="paint6_linear_8_193" x1="2238.3" y1="5252.02" x2="2238.3" y2="2388.48" gradientUnits="userSpaceOnUse">
<stop stop-color="#FFEED7"/>
<stop offset="1" stop-color="#BDBFC2"/>
</linearGradient>
<linearGradient id="paint7_linear_8_193" x1="1047.92" y1="3513.15" x2="399.626" y2="972.5" gradientUnits="userSpaceOnUse">
<stop stop-color="#FFEED7"/>
<stop offset="1" stop-color="#BDBFC2"/>
</linearGradient>
<linearGradient id="paint8_linear_8_193" x1="1615.48" y1="339.299" x2="1621.86" y2="2171.67" gradientUnits="userSpaceOnUse">
<stop stop-color="white" stop-opacity="0.8"/>
<stop offset="1" stop-color="white" stop-opacity="0"/>
</linearGradient>
<linearGradient id="paint9_linear_8_193" x1="1014.11" y1="518.616" x2="1021.18" y2="1247.21" gradientUnits="userSpaceOnUse">
<stop stop-color="white" stop-opacity="0.65"/>
<stop offset="1" stop-color="white" stop-opacity="0"/>
</linearGradient>
<linearGradient id="paint10_linear_8_193" x1="656.075" y1="114.776" x2="656.075" y2="2788.5" gradientUnits="userSpaceOnUse">
<stop stop-color="white" stop-opacity="0.65"/>
<stop offset="1" stop-color="white" stop-opacity="0"/>
</linearGradient>
<linearGradient id="paint11_linear_8_193" x1="724.844" y1="113.196" x2="724.015" y2="2529.03" gradientUnits="userSpaceOnUse">
<stop stop-color="white" stop-opacity="0.65"/>
<stop offset="1" stop-color="white" stop-opacity="0"/>
</linearGradient>
<linearGradient id="paint12_linear_8_193" x1="1763.97" y1="1426.18" x2="1412.5" y2="2828.77" gradientUnits="userSpaceOnUse">
<stop stop-color="#FFA63F"/>
<stop offset="1" stop-color="#FFFF00"/>
</linearGradient>
<linearGradient id="paint13_linear_8_193" x1="841.149" y1="1817.68" x2="791.871" y2="-739.494" gradientUnits="userSpaceOnUse">
<stop stop-color="#FFEED7"/>
<stop offset="1" stop-color="#BDBFC2"/>
</linearGradient>
<linearGradient id="paint14_linear_8_193" x1="1001.96" y1="1064.46" x2="2023.8" y2="2728.65" gradientUnits="userSpaceOnUse">
<stop stop-color="#FFA63F"/>
<stop offset="1" stop-color="#FFFF00"/>
</linearGradient>
<linearGradient id="paint15_linear_8_193" x1="1065.37" y1="-318.214" x2="741.239" y2="1505.83" gradientUnits="userSpaceOnUse">
<stop stop-color="white" stop-opacity="0.65"/>
<stop offset="1" stop-color="white" stop-opacity="0"/>
</linearGradient>
<linearGradient id="paint16_linear_8_193" x1="1069.65" y1="94.7997" x2="1133.11" y2="2121.99" gradientUnits="userSpaceOnUse">
<stop stop-color="white" stop-opacity="0.65"/>
<stop offset="1" stop-color="white" stop-opacity="0"/>
</linearGradient>
<linearGradient id="paint17_linear_8_193" x1="444.177" y1="90.1673" x2="518.848" y2="699.461" gradientUnits="userSpaceOnUse">
<stop stop-color="white" stop-opacity="0.65"/>
<stop offset="1" stop-color="white" stop-opacity="0"/>
</linearGradient>
<linearGradient id="paint18_linear_8_193" x1="1164.49" y1="249.727" x2="1170.69" y2="1316.06" gradientUnits="userSpaceOnUse">
<stop stop-color="#FFA63F"/>
<stop offset="1" stop-color="#FFFF00"/>
</linearGradient>
<linearGradient id="paint19_linear_8_193" x1="600.895" y1="39.0871" x2="599.217" y2="602.92" gradientUnits="userSpaceOnUse">
<stop stop-color="white" stop-opacity="0.65"/>
<stop offset="1" stop-color="white" stop-opacity="0"/>
</linearGradient>
<clipPath id="clip0_8_193">
<rect width="100" height="100.241" fill="white" transform="translate(0 0.216797)"/>
</clipPath>
</defs>
</svg>
