<svg width="100" height="102" viewBox="0 0 100 102" fill="none" xmlns="http://www.w3.org/2000/svg">
<g clip-path="url(#clip0_8_277)">
<path d="M82.2199 33.2738C81.1557 32.8628 80.0824 32.4821 79.0012 32.132C79.1828 31.2967 79.35 30.4714 79.4984 29.6607C81.9352 16.3476 80.3422 5.62223 74.9012 2.09093C69.6844 -1.2944 61.1527 2.23558 52.5363 10.6756C51.6871 11.5089 50.8568 12.3662 50.0461 13.2467C49.5034 12.6612 48.9511 12.0871 48.3895 11.5246C39.359 2.50025 30.3074 -1.30319 24.8723 2.23822C19.6602 5.6341 18.1168 15.7167 20.3105 28.3338C20.5288 29.5834 20.7752 30.8266 21.0496 32.0621C19.7684 32.4719 18.532 32.908 17.3488 33.3723C6.76133 37.527 0 44.0378 0 50.7913C0 57.7664 7.25859 64.7626 18.2859 69.0049C19.1799 69.3474 20.0814 69.6648 20.9895 69.9567C20.6945 71.2874 20.4327 72.6271 20.2043 73.9743C18.1129 86.3725 19.7461 96.2168 24.9441 99.5911C30.3129 103.076 39.3238 99.4944 48.0977 90.8618C48.8091 90.16 49.5049 89.4383 50.1844 88.6974C51.0623 89.6508 51.9637 90.5765 52.8875 91.4734C61.3867 99.7045 69.7805 103.028 74.9734 99.6447C80.3371 96.1499 82.0805 85.5745 79.8172 72.7081C79.6389 71.7001 79.439 70.6971 79.2176 69.7C79.8504 69.4889 80.4715 69.2717 81.077 69.0458C92.541 64.771 100 57.8596 100 50.7913C100 44.0132 93.0203 37.4584 82.2199 33.2738ZM79.7336 64.4822C79.1867 64.6857 78.6258 64.8822 78.0539 65.0735C76.7883 60.564 75.0805 55.7691 72.9902 50.8146C74.9848 45.9785 76.627 41.2447 77.857 36.7646C78.8801 37.0979 79.8727 37.4492 80.8297 37.8198C90.0836 41.4056 95.7281 46.7065 95.7281 50.7913C95.7281 55.1422 89.632 60.7904 79.7336 64.4822ZM75.6266 73.6419C76.6273 79.331 76.7699 84.4749 76.107 88.4965C75.5117 92.11 74.3141 94.5188 72.8328 95.4839C69.6816 97.5371 62.9422 94.8684 55.6738 87.8286C54.8146 86.9948 53.9761 86.1342 53.1594 85.2479C55.9773 81.7794 58.7934 77.7474 61.5418 73.2691C66.3762 72.7863 70.9434 71.9967 75.0852 70.9191C75.2847 71.8218 75.4652 72.7296 75.6266 73.6419ZM34.0922 95.1291C31.0133 96.3526 28.5609 96.3878 27.0785 95.4258C23.9242 93.3784 22.6129 85.4738 24.4016 74.8712C24.6142 73.6183 24.8576 72.3722 25.1316 71.1345C29.2277 72.1545 33.7617 72.8879 38.6074 73.3302C41.3746 77.7122 44.2719 81.7399 47.1918 85.2668C46.5713 85.9426 45.9361 86.6011 45.2867 87.2417C41.4066 91.0588 37.5187 93.767 34.0922 95.1291ZM19.668 64.4553C14.7918 62.5793 10.7648 60.1415 8.00469 57.4811C5.52422 55.0907 4.27227 52.717 4.27227 50.7913C4.27227 46.6929 9.70078 41.4654 18.7551 37.9126C19.8539 37.4817 21.0039 37.075 22.1973 36.6934C23.4488 41.2746 25.0902 46.0646 27.0711 50.9083C25.0645 55.8236 23.3996 60.6901 22.1359 65.3254C21.3071 65.0582 20.4842 64.7681 19.668 64.4553ZM24.5031 27.4101C22.6238 16.6004 23.8719 8.44612 27.0129 6.39954C30.3582 4.21973 37.7559 7.32764 45.5531 15.1201C46.0616 15.6293 46.5618 16.149 47.0535 16.6786C44.148 20.1901 41.2773 24.1879 38.5348 28.544C33.8316 29.0347 29.3297 29.8225 25.1906 30.8781C24.9356 29.729 24.7064 28.5723 24.5031 27.4101ZM67.6387 39.3986C66.661 37.4979 65.6471 35.6212 64.5977 33.7697C67.7883 34.2239 70.8453 34.8266 73.716 35.5635C72.8543 38.6727 71.7801 41.9231 70.5156 45.2557C69.5914 43.282 68.6322 41.3292 67.6387 39.3986ZM50.048 20.115C52.0184 22.5177 53.9918 25.2 55.9328 28.1105C51.9953 27.9012 48.0512 27.9003 44.1137 28.1079C46.0566 25.2242 48.0469 22.5454 50.048 20.115ZM32.3445 39.4316C31.3634 41.3466 30.4221 43.2872 29.5215 45.2517C28.2777 41.931 27.2133 38.6657 26.3441 35.5125C29.1973 34.7941 32.2398 34.2067 35.4102 33.7609C34.349 35.6237 33.3268 37.5148 32.3445 39.4316ZM35.5012 68.1638C32.2258 67.7523 29.1375 67.1953 26.2852 66.4962C27.168 63.2867 28.2559 59.952 29.5266 56.56C30.4308 58.526 31.376 60.4677 32.3613 62.3837C33.3746 64.3533 34.4238 66.2825 35.5012 68.1638ZM50.166 81.8063C48.141 79.3477 46.1215 76.6276 44.1492 73.7021C46.0641 73.7865 48.016 73.8296 50 73.8296C52.0383 73.8296 54.0531 73.7782 56.0363 73.6788C54.0891 76.657 52.123 79.3811 50.166 81.8063ZM70.5559 56.3868C71.8926 59.8161 73.0191 63.1333 73.9137 66.2878C71.0145 67.0326 67.884 67.6323 64.5855 68.0776C65.6425 66.1918 66.666 64.2824 67.6555 62.3507C68.6615 60.3872 69.6285 58.3988 70.5559 56.3868ZM63.9551 59.9484C62.4403 62.9101 60.8404 65.8156 59.1578 68.6602C56.11 68.9031 53.0555 69.0238 50 69.022C46.8879 69.022 43.8609 68.913 40.9461 68.7002C39.2196 65.8621 37.5892 62.9516 36.0582 59.9748C34.5345 57.0138 33.1115 53.9887 31.7918 50.9061C33.1082 47.8228 34.5272 44.7962 36.0457 41.833L36.0453 41.8334C37.5633 38.8694 39.1807 35.9713 40.8941 33.1454C43.868 32.8922 46.9176 32.7603 49.9996 32.7603C53.0957 32.7603 56.1496 32.8935 59.1227 33.1485C60.8188 35.9701 62.4259 38.8582 63.941 41.8075C65.4646 44.7642 66.9024 47.776 68.252 50.8379C66.9162 53.9312 65.483 56.97 63.9551 59.9484ZM72.7676 6.25621C76.116 8.42986 77.4184 17.1952 75.3145 28.69C75.1801 29.4233 75.0293 30.1703 74.8652 30.9278C70.716 29.8498 66.2109 29.0483 61.4941 28.5502C58.7465 24.1461 55.8992 20.1422 53.041 16.676C53.7901 15.8633 54.557 15.0717 55.341 14.3019C62.7238 7.07089 69.6238 4.21578 72.7676 6.25621ZM50 40.7409C54.9316 40.7409 58.9297 45.2407 58.9297 50.7913C58.9297 56.342 54.9316 60.8418 50 60.8418C45.0684 60.8418 41.0703 56.342 41.0703 50.7913C41.0703 45.2407 45.0684 40.7409 50 40.7409Z" fill="#00D8FF"/>
</g>
<defs>
<clipPath id="clip0_8_277">
<rect width="100" height="100.241" fill="white" transform="translate(0 0.816895)"/>
</clipPath>
</defs>
</svg>
