<svg width="100" height="100" viewBox="0 0 100 100" fill="none" xmlns="http://www.w3.org/2000/svg">
<g clip-path="url(#clip0_38_22)">
<path d="M25 33.3333C28.3333 11.1111 36.6667 0 50 0C70 0 72.5 25 82.5 29.1667C89.1667 31.9444 95 27.7778 100 16.6667C96.6667 38.8889 88.3333 50 75 50C55 50 52.5 25 42.5 20.8333C35.8333 18.0556 30 22.2222 25 33.3333ZM0 83.3333C3.33333 61.1111 11.6667 50 25 50C45 50 47.5 75 57.5 79.1667C64.1667 81.9444 70 77.7778 75 66.6667C71.6667 88.8889 63.3333 100 50 100C30 100 27.5 75 17.5 70.8333C10.8333 68.0556 5 72.2222 0 83.3333Z" fill="#44A8B3"/>
</g>
<defs>
<clipPath id="clip0_38_22">
<rect width="100" height="100" fill="white"/>
</clipPath>
</defs>
</svg>
