<svg width="100" height="102" viewBox="0 0 100 102" fill="none" xmlns="http://www.w3.org/2000/svg">
<path d="M18.4436 86.0249L11.4248 7.08203H88.5748L81.5467 86.0124L49.9529 94.7929L18.4436 86.0249Z" fill="#1572B6"/>
<path d="M50 88.0829L75.5312 80.9877L81.5375 13.5381H50V88.0829Z" fill="#33A9DC"/>
<path d="M50 42.1381H62.7812L63.6625 32.2237H50V22.541H74.2188L73.9875 25.1379L71.6156 51.8208H50V42.1381Z" fill="white"/>
<path d="M50.0594 67.2828L50.0156 67.2953L39.2594 64.3821L38.5719 56.6604H28.875L30.2281 71.8626L50.0125 77.3696L50.0594 77.357V67.2828Z" fill="#EBEBEB"/>
<path d="M61.9593 51.4104L60.7968 64.3759L50.0249 67.2892V77.3634L69.8249 71.8627L69.9718 70.2275L71.6499 51.4104H61.9593Z" fill="white"/>
<path d="M50.0343 22.541V32.2237H26.703L26.5093 30.0466L26.0687 25.1379L25.8374 22.541H50.0343ZM49.9999 42.1381V51.8208H39.378L39.1843 49.6437L38.7468 44.735L38.5155 42.1381H49.9999Z" fill="#EBEBEB"/>
</svg>
