<svg width="100" height="101" viewBox="0 0 100 101" fill="none" xmlns="http://www.w3.org/2000/svg">
<g clip-path="url(#clip0_8_229)">
<path d="M97.4505 45.9394L54.3912 2.77782C51.9131 0.292159 47.8912 0.292159 45.4091 2.77782L36.4685 11.7416L47.8107 23.1111C50.4474 22.2191 53.4693 22.8174 55.5701 24.9232C57.6818 27.0424 58.274 30.0974 57.3623 32.7491L68.2935 43.7075C70.938 42.7935 73.9904 43.384 76.1013 45.5048C79.0545 48.4626 79.0545 53.2578 76.1013 56.2172C75.3996 56.921 74.5663 57.4794 73.6492 57.8603C72.7321 58.2412 71.7491 58.4373 70.7564 58.4373C69.7637 58.4373 68.7807 58.2412 67.8636 57.8603C66.9465 57.4794 66.1133 56.921 65.4115 56.2172C64.3571 55.1596 63.6384 53.8131 63.3457 52.3469C63.0531 50.8808 63.1997 49.3607 63.767 47.9779L53.5732 37.7596L53.5716 64.6531C54.3112 65.0182 54.9865 65.5018 55.5709 66.0847C58.5224 69.0426 58.5224 73.8361 55.5709 76.8003C52.6185 79.7582 47.8334 79.7582 44.8841 76.8003C41.9326 73.8369 41.9326 69.0434 44.8841 66.0847C45.5913 65.3747 46.4324 64.813 47.3584 64.4323V37.2897C46.4316 36.91 45.5903 36.3479 44.8841 35.6365C42.6482 33.3967 42.1099 30.1076 43.2568 27.3541L32.0748 16.1451L2.54977 45.7397C1.35861 46.9341 0.689453 48.5538 0.689453 50.2427C0.689453 51.9316 1.35861 53.5513 2.54977 54.7457L45.6099 97.9073C48.0896 100.393 52.1099 100.393 54.5935 97.9073L97.4513 54.9462C98.6422 53.7515 99.3111 52.1316 99.311 50.4426C99.3108 48.7537 98.6417 47.1339 97.4505 45.9394Z" fill="#F34F29"/>
</g>
<defs>
<clipPath id="clip0_8_229">
<rect width="100" height="100.241" fill="white" transform="translate(0 0.22168)"/>
</clipPath>
</defs>
</svg>
