<svg width="100" height="102" viewBox="0 0 100 102" fill="none" xmlns="http://www.w3.org/2000/svg">
<path d="M18.4437 86.0249L11.4219 7.08203H88.5781L81.5469 86.0124L49.9531 94.7929L18.4437 86.0249Z" fill="#E44F26"/>
<path d="M50 88.0829L75.5312 80.9877L81.5375 13.5381H50V88.0829Z" fill="#F1662A"/>
<path d="M50 42.8146H37.2188L36.3375 32.9002H50V23.2175H25.7812L26.0125 25.8175L28.3844 52.4973H50V42.8146ZM50 67.9595L49.9562 67.972L39.2 65.0619L38.5125 57.3402H28.8156L30.1688 72.5392L49.9562 78.0462L50 78.0337V67.9595Z" fill="#EBEBEB"/>
<path d="M49.9658 42.8146V52.4973H61.8596L60.7408 65.0556L49.9658 67.9689V78.0431L69.7689 72.5392L69.9127 70.904L72.1814 45.4146L72.4189 42.8146H49.9658ZM49.9658 23.2175V32.9002H73.2971L73.4908 30.7262L73.9314 25.8175L74.1627 23.2175H49.9658Z" fill="white"/>
</svg>
