<svg width="100" height="102" viewBox="0 0 100 102" fill="none" xmlns="http://www.w3.org/2000/svg">
<g clip-path="url(#clip0_8_225)">
<path d="M0 0.816895H100V101.058H0V0.816895Z" fill="#F7DF1E"/>
<path d="M26.2938 84.5855L33.9462 79.9431C35.4228 82.567 36.7657 84.7872 39.9872 84.7872C43.0751 84.7872 45.0224 83.5765 45.0224 78.8667V46.8374H54.4196V78.9999C54.4196 88.7565 48.7142 93.1977 40.3899 93.1977C32.8724 93.1977 28.5087 89.2949 26.2935 84.5848M59.5239 83.5761L67.1755 79.1353C69.1899 82.4327 71.8079 84.8549 76.4392 84.8549C80.3333 84.8549 82.8161 82.9034 82.8161 80.2117C82.8161 76.9821 80.2653 75.838 75.9692 73.9545L73.6204 72.9443C66.8403 70.0518 62.3431 66.418 62.3431 58.7473C62.3431 51.6818 67.713 46.2986 76.104 46.2986C82.0782 46.2986 86.3743 48.3848 89.4618 53.8351L82.1446 58.5456C80.5333 55.6523 78.7888 54.5086 76.1036 54.5086C73.3513 54.5086 71.606 56.2581 71.606 58.5456C71.606 61.3715 73.3513 62.5161 77.3786 64.2656L79.7278 65.2747C87.7161 68.7067 92.2134 72.2054 92.2134 80.0774C92.2134 88.5564 85.5681 93.1988 76.6403 93.1988C67.9142 93.1988 62.2755 89.0271 59.5235 83.5765" fill="black"/>
</g>
<defs>
<clipPath id="clip0_8_225">
<rect width="100" height="100.241" fill="white" transform="translate(0 0.816895)"/>
</clipPath>
</defs>
</svg>
