<svg width="100" height="102" viewBox="0 0 100 102" fill="none" xmlns="http://www.w3.org/2000/svg">
<path fill-rule="evenodd" clip-rule="evenodd" d="M68.7795 34.3445C70.0334 37.9806 70.9365 41.6926 71.2334 45.5401C71.6022 50.3133 71.4334 55.0529 70.4295 59.7477C70.4022 59.877 70.3443 59.9983 70.3014 60.1236C69.9865 60.1244 69.6654 60.0853 69.3576 60.133C66.7568 60.5426 64.1584 60.9671 61.56 61.3892C58.874 61.8254 56.1842 62.2444 53.5029 62.7103C52.5529 62.8748 51.3772 62.6782 50.9936 63.9954C50.9826 64.0315 50.8732 64.0377 50.81 64.0581L50.9397 56.1868L50.8076 37.1943L52.0592 36.9789C54.1061 36.643 56.1529 36.3023 58.2014 35.9757C60.6459 35.5865 63.0928 35.2083 65.5389 34.8285C66.6178 34.6601 67.6982 34.5058 68.7795 34.3445Z" fill="#439934"/>
<path fill-rule="evenodd" clip-rule="evenodd" d="M48.2257 87.0038C46.9054 85.8659 45.5389 84.7781 44.2733 83.5815C37.4632 77.1426 32.4819 69.5642 30.0288 60.4274C29.353 57.9128 28.9022 55.3574 28.7577 52.759C28.6561 50.9405 28.5093 49.1057 28.6374 47.2966C28.9788 42.4851 29.6725 37.7197 31.0804 33.0851L31.1577 32.9771C31.2944 33.1595 31.4913 33.3208 31.5608 33.5268C32.935 37.5834 34.2991 41.6432 35.6561 45.7053C39.9202 58.4704 44.1788 71.2386 48.4499 84.0005C48.5335 84.2495 48.7499 84.4539 48.9053 84.6787L48.2257 87.0038Z" fill="#45A538"/>
<path fill-rule="evenodd" clip-rule="evenodd" d="M68.7799 34.3443C67.6987 34.5057 66.6174 34.6599 65.5385 34.8267C63.0924 35.2066 60.6455 35.5848 58.201 35.974C56.1526 36.3006 54.1057 36.6413 52.0588 36.9772L50.8072 37.1926L50.7979 36.3742C50.7565 35.7015 50.6854 35.0296 50.6776 34.3569C50.6237 30.0669 50.5901 25.7769 50.5369 21.4869C50.5041 18.8015 50.4549 16.1169 50.4002 13.4324C50.3666 11.7643 50.3307 10.0954 50.2557 8.4297C50.2151 7.53458 50.0713 6.64416 50.0127 5.74904C49.9799 5.23452 50.0252 4.71609 50.0354 4.19922C50.6737 5.43892 51.2979 6.68801 51.9541 7.91831C52.9908 9.86362 54.6424 11.2967 56.1291 12.8607C62.0065 19.0411 66.1791 26.2272 68.7799 34.3443Z" fill="#46A037"/>
<path fill-rule="evenodd" clip-rule="evenodd" d="M50.8094 64.0571C50.8727 64.0367 50.9828 64.0305 50.993 63.9944C51.3766 62.6772 52.5523 62.8738 53.5023 62.7093C56.1836 62.2441 58.8734 61.8244 61.5594 61.3882C64.1578 60.9661 66.7562 60.5416 69.357 60.132C69.6648 60.0835 69.9859 60.1234 70.3008 60.1226C69.8148 61.8612 69.432 63.6373 68.8156 65.3281C68.1156 67.246 67.2688 69.1177 66.3695 70.9526C65.0233 73.6894 63.3572 76.256 61.4062 78.5983C59.907 80.4058 58.2359 82.0762 56.5609 83.7262C55.6352 84.6386 54.5437 85.3818 53.5281 86.2017L53.2648 86.0216L52.3164 85.2087L51.3352 83.0527C50.6649 80.5377 50.2993 77.9509 50.2461 75.3483L50.2641 74.9089L50.3977 73.0091C50.4422 72.3606 50.5016 71.713 50.5289 71.063C50.6297 68.7277 50.7172 66.3924 50.8094 64.0571Z" fill="#409433"/>
<path fill-rule="evenodd" clip-rule="evenodd" d="M50.8092 64.0572C50.717 66.3925 50.6295 68.7278 50.5303 71.0639C50.5029 71.7139 50.4436 72.3616 50.399 73.01L49.8014 73.2363C48.474 69.3191 47.1459 65.4434 45.8467 61.5575C43.6982 55.1287 41.5756 48.6898 39.4303 42.2595C37.6975 37.0693 35.9527 31.8831 34.1959 26.701C34.1139 26.4582 33.8779 26.2687 33.7139 26.0542L37.5389 19.0044C37.6701 19.2331 37.8436 19.4469 37.9264 19.6928C39.6979 24.9414 41.4604 30.1931 43.2139 35.4478C45.492 42.2846 47.7561 49.1268 50.0326 55.9643C50.1232 56.2376 50.2732 56.4898 50.4162 56.796L50.9397 56.1852L50.8092 64.0572Z" fill="#4FAA41"/>
<path fill-rule="evenodd" clip-rule="evenodd" d="M33.7149 26.0549C33.879 26.2695 34.1142 26.459 34.197 26.7018C35.9538 31.8839 37.6986 37.0701 39.4313 42.2603C41.5767 48.6906 43.6993 55.1295 45.8478 61.5582C47.1462 65.4434 48.4743 69.3199 49.8024 73.2371L50.4001 73.0108L50.2665 74.9107L50.1454 75.3484C49.9376 77.4284 49.7626 79.5131 49.5095 81.5884C49.3821 82.6284 49.1118 83.6496 48.9063 84.6794C48.7517 84.4547 48.5345 84.2503 48.4509 84.0013C44.1798 71.2385 39.9212 58.4711 35.6571 45.7061C34.3006 41.6437 32.9355 37.5842 31.5618 33.5276C31.4923 33.3216 31.2962 33.1603 31.1587 32.9778L33.7149 26.0549Z" fill="#4AA73C"/>
<path fill-rule="evenodd" clip-rule="evenodd" d="M50.9389 56.186L50.4154 56.7969C50.2725 56.4907 50.1225 56.2377 50.0318 55.9652C47.7561 49.1276 45.4912 42.2854 43.2131 35.4487C41.4596 30.1939 39.6971 24.9422 37.9256 19.6936C37.8436 19.4477 37.6701 19.2331 37.5381 19.0052L42.2686 12.7676C42.4178 12.9673 42.6303 13.145 42.7076 13.3698C44.0209 17.2236 45.3225 21.0821 46.6162 24.9429C47.8248 28.5485 49.0154 32.1595 50.2381 35.7604C50.3201 36.0016 50.6053 36.1723 50.7959 36.3759L50.8053 37.1943C50.8506 43.5235 50.8951 49.8552 50.9389 56.186Z" fill="#57AE47"/>
<path fill-rule="evenodd" clip-rule="evenodd" d="M50.7979 36.3743C50.6072 36.1707 50.3221 36 50.24 35.7588C49.0174 32.1579 47.8268 28.5469 46.6182 24.9414C45.3244 21.0805 44.0229 17.2228 42.7096 13.3683C42.6322 13.1435 42.4197 12.9657 42.2705 12.766C43.8088 11.2561 45.2994 9.69223 46.8994 8.25205C48.3221 6.97241 49.4658 5.60036 49.5182 3.57831C49.5205 3.49452 49.5643 3.41072 49.6314 3.17578L50.0369 4.19855C50.0268 4.7162 49.9807 5.23385 50.0143 5.74837C50.0729 6.64349 50.2166 7.53391 50.2572 8.42903C50.3322 10.0948 50.3682 11.7636 50.4018 13.4317C50.4557 16.1163 50.5049 18.8008 50.5385 21.4862C50.5908 25.7762 50.6252 30.0662 50.6791 34.3562C50.6854 35.0305 50.7557 35.7016 50.7979 36.3743Z" fill="#60B24F"/>
<path fill-rule="evenodd" clip-rule="evenodd" d="M48.9048 84.6787C49.1103 83.6489 49.3806 82.6269 49.5079 81.5877C49.7618 79.5132 49.936 77.4277 50.1438 75.3477L50.1954 75.3398L50.247 75.3485C50.3001 77.9511 50.6658 80.5379 51.336 83.0529C51.1985 83.2346 51.004 83.3967 50.9313 83.6019C50.3634 85.2073 49.8282 86.8253 49.2571 88.4307C49.179 88.65 48.9618 88.8207 48.8087 89.0133L48.2251 87.0038L48.9048 84.6787Z" fill="#A9AA88"/>
<path fill-rule="evenodd" clip-rule="evenodd" d="M48.8096 89.0141C48.9627 88.8215 49.1807 88.6508 49.258 88.4315C49.8291 86.8261 50.365 85.2089 50.9322 83.6027C51.0049 83.3975 51.1986 83.2354 51.3369 83.0537L52.3174 85.2105C52.1236 85.4861 51.8564 85.7344 51.7486 86.0414L49.8705 91.5695C49.7932 91.7911 49.5291 91.9477 49.3525 92.1349L48.8096 89.0141Z" fill="#B6B598"/>
<path fill-rule="evenodd" clip-rule="evenodd" d="M49.3525 92.1342C49.5299 91.9478 49.7932 91.7904 49.8705 91.5688L51.7486 86.0406C51.8557 85.7344 52.1236 85.4854 52.3174 85.2097L53.2666 86.0218C52.808 86.476 52.5533 87.0007 52.7064 87.6641L52.4182 88.6101C52.2869 88.7722 52.0971 88.9131 52.0322 89.0987C51.3768 90.9806 50.751 92.8727 50.0908 94.7545C50.0072 94.9934 49.7752 95.1806 49.6111 95.3904C49.526 94.3042 49.4393 93.2204 49.3525 92.1342Z" fill="#C2C1A7"/>
<path fill-rule="evenodd" clip-rule="evenodd" d="M49.6119 95.3902C49.7752 95.1796 50.0072 94.9924 50.0916 94.7543C50.7518 92.8732 51.3775 90.9812 52.033 89.0985C52.0978 88.9137 52.2869 88.772 52.4189 88.6099L52.0213 92.9523C51.915 93.0753 51.7611 93.1826 51.7104 93.3259C51.2611 94.5899 50.8377 95.8632 50.3869 97.1272C50.2939 97.388 50.1158 97.6182 49.9768 97.8618C49.8533 97.6997 49.6322 97.5431 49.6221 97.3739C49.5822 96.7153 49.6096 96.052 49.6119 95.3902Z" fill="#CECDB7"/>
<path fill-rule="evenodd" clip-rule="evenodd" d="M49.9756 97.8618C50.1146 97.6175 50.2928 97.3873 50.3857 97.1273C50.8373 95.8641 51.26 94.5907 51.7092 93.3259C51.76 93.1826 51.9146 93.0761 52.0201 92.9524L52.0295 95.803L51.0779 98.2495L49.9756 97.8618Z" fill="#DBDAC7"/>
<path fill-rule="evenodd" clip-rule="evenodd" d="M51.0781 98.2502L52.0297 95.8037L52.2258 98.6982L51.0781 98.2502Z" fill="#EBE9DC"/>
<path fill-rule="evenodd" clip-rule="evenodd" d="M52.7063 87.6647C52.5531 87.0014 52.8071 86.4759 53.2664 86.0225L53.5297 86.2026L52.7063 87.6647Z" fill="#CECDB7"/>
<path fill-rule="evenodd" clip-rule="evenodd" d="M50.2467 75.3492L50.1951 75.3406L50.1436 75.3484L50.2646 74.9106L50.2467 75.3492Z" fill="#4FAA41"/>
</svg>
