<svg width="100" height="102" viewBox="0 0 100 102" fill="none" xmlns="http://www.w3.org/2000/svg">
<path d="M91.3656 77.4127C86.0038 77.2662 81.9093 77.7667 78.4085 79.246C77.414 79.6665 75.8265 79.6783 75.664 80.9274C76.2109 81.5014 76.296 82.3597 76.7304 83.0661C77.5663 84.4209 78.9773 86.2394 80.2366 87.1917C81.6132 88.2332 83.0312 89.3461 84.5062 90.2475C87.1296 91.8505 90.0585 92.7668 92.5843 94.373C94.0734 95.3206 95.5523 96.5133 97.0046 97.5815C97.7234 98.1101 98.2054 98.9316 99.139 99.2629V99.1109C98.6484 98.4844 98.5218 97.6246 98.0718 96.9706L96.0898 94.9838C94.1523 92.4058 91.6921 90.1409 89.0773 88.2606C86.9921 86.7602 82.3257 84.7334 81.4562 82.3018L81.3038 82.1491C82.782 81.9815 84.5124 81.4458 85.8773 81.0785C88.1695 80.463 90.2179 80.622 92.5843 80.0096L95.7851 79.0925V78.4817C94.589 77.2514 93.7359 75.6225 92.432 74.5088C89.0179 71.5956 85.2929 68.6847 81.457 66.257C79.3288 64.9115 76.6999 64.0368 74.4445 62.8958C73.6859 62.5112 72.3531 62.3115 71.8523 61.6725C70.6671 60.1595 70.0226 58.2408 69.1093 56.478C67.196 52.784 65.3171 48.75 63.6218 44.8633C62.4656 42.2132 61.7101 39.6007 60.2679 37.2231C53.346 25.8152 45.896 18.9307 34.3546 12.1629C31.8984 10.7235 28.9413 10.1557 25.8163 9.41172C24.1406 9.31069 22.4632 9.2081 20.7866 9.10551C19.7624 8.67792 18.6984 7.42256 17.7382 6.81328C13.9148 4.39184 4.10696 -0.874728 1.27571 6.04973C-0.51257 10.4204 3.94837 14.6838 5.5429 16.8992C6.66321 18.4514 8.0968 20.1939 8.8968 21.9411C9.42337 23.0899 9.51399 24.2419 9.96477 25.4565C11.0718 28.4497 12.0366 31.7059 13.4702 34.4712C14.1945 35.8714 14.9929 37.3453 15.9093 38.5967C16.4702 39.365 17.4335 39.7033 17.5851 40.889C16.6445 42.2093 16.5906 44.2596 16.0616 45.9323C13.6788 53.4621 14.5781 62.8221 18.0437 68.3949C19.1062 70.1068 21.6116 73.7758 25.0554 72.3678C28.0679 71.1382 27.3952 67.3259 28.257 63.9632C28.4515 63.2012 28.332 62.6405 28.714 62.1299V62.2826L31.4585 67.7833C33.4898 71.0623 37.0929 74.4885 40.1476 76.8003C41.7312 77.9993 42.9781 80.0714 45.0257 80.7731V80.6196H44.8734C44.4765 80.0002 43.8554 79.7433 43.3491 79.2452C42.1562 78.0729 40.8296 76.6155 39.8437 75.2724C37.0656 71.4922 34.6109 67.3549 32.3741 63.0485C31.3054 60.9912 30.3765 58.7232 29.4765 56.6299C29.1296 55.8233 29.1343 54.6024 28.4109 54.185C27.4241 55.7184 25.9718 56.9588 25.2093 58.7694C23.9898 61.6639 23.8327 65.1943 23.3804 68.8546C23.1132 68.9502 23.232 68.8844 23.0749 69.0065C20.9515 68.4936 20.2062 66.3032 19.4163 64.4229C17.421 59.6693 17.0499 52.0165 18.8062 46.5447C19.2609 45.128 21.314 40.6705 20.4827 39.3618C20.0859 38.0571 18.7765 37.3022 18.0445 36.3053C17.1374 35.0726 16.2327 33.45 15.6038 32.0262C13.971 28.3212 13.2085 24.1605 11.489 20.4139C10.6663 18.6229 9.27649 16.81 8.13509 15.2186C6.87181 13.4542 5.45618 12.155 4.47649 10.0226C4.12805 9.26449 3.6554 8.05063 4.17102 7.27142C4.33509 6.74593 4.5679 6.52666 5.08587 6.35515C5.97024 5.67148 8.43274 6.58226 9.35306 6.96521C11.7976 7.98328 13.8382 8.9528 15.9093 10.328C16.9023 10.9889 17.9085 12.2662 19.1101 12.6202H20.482C22.6281 13.1144 25.032 12.7729 27.0374 13.3838C30.5812 14.4629 33.757 16.1427 36.6406 17.9682C45.4265 23.53 52.6109 31.4459 57.5249 40.8897C58.3156 42.4106 58.6577 43.8609 59.3538 45.4742C60.7585 48.7265 62.5281 52.0729 63.9257 55.254C65.321 58.4272 66.6804 61.6294 68.6523 64.2702C69.689 65.6579 73.6921 66.4026 75.5124 67.174C76.7874 67.7136 78.8773 68.2775 80.0859 69.0065C82.3929 70.4021 84.6288 72.0631 86.7937 73.5918C87.8741 74.3553 91.1999 76.032 91.3656 77.4127ZM23.2257 19.1938C22.1077 19.1727 21.3171 19.316 20.4812 19.4985V19.6512H20.6335C21.1671 20.7491 22.1085 21.4571 22.7671 22.4023C23.2749 23.4729 23.7835 24.5418 24.2921 25.6108L24.4437 25.4597C25.3882 24.7917 25.8202 23.7258 25.8148 22.0969C25.4366 21.6983 25.3812 21.1986 25.0531 20.7225C24.6187 20.0874 23.7757 19.7264 23.2257 19.1938Z" fill="#00618A"/>
</svg>
