<svg width="100" height="102" viewBox="0 0 100 102" fill="none" xmlns="http://www.w3.org/2000/svg">
<path d="M50 94.7929C48.8196 94.7933 47.6599 94.4822 46.6375 93.8907L35.9375 87.5411C34.3406 86.6452 35.1188 86.3288 35.6469 86.144C37.3453 85.618 38.9714 84.8814 40.4875 83.9512C40.6144 83.8923 40.7542 83.8669 40.8937 83.8773C41.0331 83.8877 41.1676 83.9337 41.2844 84.0107L49.5063 88.9069C49.6594 88.988 49.8299 89.0305 50.0031 89.0305C50.1763 89.0305 50.3469 88.988 50.5 88.9069L82.5625 70.356C82.7126 70.2659 82.8367 70.1383 82.9227 69.9856C83.0087 69.8329 83.0536 69.6605 83.0531 69.4852V32.3772C83.0533 32.1991 83.0076 32.024 82.9206 31.8687C82.8335 31.7134 82.7081 31.5833 82.5563 31.4907L50.4938 12.9555C50.3426 12.8702 50.172 12.8253 49.9985 12.8253C49.8249 12.8253 49.6543 12.8702 49.5031 12.9555L17.4594 31.497C17.3065 31.5876 17.1796 31.7162 17.0909 31.8704C17.0022 32.0247 16.9548 32.1992 16.9531 32.3772V69.4695C16.9536 69.6444 17.0004 69.8161 17.0888 69.9669C17.1772 70.1177 17.304 70.2423 17.4563 70.3278L26.25 75.415C31.0156 77.802 33.9344 74.989 33.9344 72.1635V35.5411C33.9344 35.2918 34.0332 35.0528 34.209 34.8766C34.3848 34.7003 34.6233 34.6013 34.8719 34.6013H38.9344C39.183 34.6013 39.4215 34.7003 39.5973 34.8766C39.7731 35.0528 39.8719 35.2918 39.8719 35.5411V72.1666C39.8719 78.5413 36.4094 82.1907 30.3781 82.1907C27.7762 82.2361 25.2151 81.5386 22.9938 80.1796L14.5656 75.3336C13.5425 74.7363 12.6935 73.8805 12.1035 72.8515C11.5135 71.8225 11.203 70.6564 11.2031 69.4695V32.3772C11.2001 31.1885 11.5092 30.0199 12.0995 28.9889C12.6897 27.9579 13.5403 27.1008 14.5656 26.5037L46.6313 7.94661C47.6642 7.38015 48.8226 7.08325 50 7.08325C51.1774 7.08325 52.3359 7.38015 53.3688 7.94661L85.4313 26.5037C86.4543 27.0998 87.3035 27.9545 87.8941 28.9823C88.4846 30.0102 88.7959 31.1754 88.7969 32.3616V69.4695C88.7952 70.6564 88.4836 71.8221 87.8931 72.8508C87.3027 73.8796 86.454 74.7355 85.4313 75.3336L53.3688 93.8907C52.3445 94.4831 51.1825 94.7943 50 94.7929Z" fill="#83CD29"/>
<path d="M43.9189 57.0552C43.9189 56.806 44.0177 56.567 44.1935 56.3907C44.3693 56.2145 44.6078 56.1155 44.8564 56.1155H49.0033C49.2249 56.1162 49.4391 56.1956 49.6078 56.3395C49.7766 56.4834 49.889 56.6826 49.9252 56.9017C50.5502 61.1338 52.4252 63.2671 60.9033 63.2671C67.6564 63.2671 70.5346 61.7352 70.5346 58.1422C70.5346 56.0716 69.7189 54.5336 59.2221 53.503C50.4471 52.6321 45.0221 50.6837 45.0221 43.6543C45.0221 37.1699 50.4752 33.3013 59.6158 33.3013C69.8877 33.3013 74.9721 36.8755 75.6158 44.5439C75.6257 44.6719 75.6092 44.8006 75.5675 44.922C75.5258 45.0434 75.4597 45.155 75.3733 45.2498C75.2869 45.3446 75.1821 45.4207 75.0652 45.4733C74.9484 45.5259 74.822 45.554 74.6939 45.5557H70.5189C70.3095 45.5528 70.1071 45.4796 69.9439 45.3479C69.7808 45.2162 69.6664 45.0335 69.6189 44.829C68.6221 40.3777 66.1814 38.9555 59.6189 38.9555C52.2439 38.9555 51.3877 41.5304 51.3877 43.4601C51.3877 45.7969 52.4002 46.4798 62.3564 47.7986C72.2096 49.1049 76.8908 50.9531 76.8908 57.8948C76.8908 64.8991 71.0658 68.9087 60.9064 68.9087C46.8596 68.9275 43.9189 62.4714 43.9189 57.0552Z" fill="#83CD29"/>
</svg>
