<svg width="100" height="100" viewBox="0 0 100 100" fill="none" xmlns="http://www.w3.org/2000/svg">
<g clip-path="url(#clip0_38_13)">
<path d="M76.5625 0H23.4375C10.4933 0 0 10.4933 0 23.4375V76.5625C0 89.5067 10.4933 100 23.4375 100H76.5625C89.5067 100 100 89.5067 100 76.5625V23.4375C100 10.4933 89.5067 0 76.5625 0Z" fill="url(#paint0_linear_38_13)"/>
<path d="M4.48721 50.4216L24.1372 58.3841V63.9579L0.875488 53.1802V49.9099L4.48721 50.4216ZM24.1372 43.8813L4.51572 51.9571L0.875879 52.3556V49.0567L24.1368 38.3075L24.1372 43.8813ZM94.2856 51.5591L74.0669 43.6821V38.2505L98.3521 48.9997V52.3271L94.2856 51.5591ZM74.0669 58.4978L94.3427 50.4501L98.3521 49.8528V53.1517L74.0669 63.9294V58.4978Z" fill="white"/>
<path fill-rule="evenodd" clip-rule="evenodd" d="M68.78 23.8667C68.6675 25.6503 67.8639 27.5128 68.0878 29.2468C69.4913 31.7289 72.5804 32.1246 75.1288 32.2949C76.8944 32.6105 76.8721 31.4414 76.7538 30.1281L76.7753 23.8296C74.11 23.8394 71.444 23.8035 68.78 23.8667ZM47.7639 28.855C43.4249 29.5918 39.0264 31.6652 35.4167 34.1613C32.5112 36.4226 37.9108 38.614 39.8698 38.9804C43.8112 39.0285 47.3069 36.3699 49.896 33.6105C50.7413 32.4503 51.7972 30.6742 50.735 29.3293C49.9241 28.6261 48.7448 28.7964 47.7639 28.855ZM56.9971 35.1656C53.4296 35.8453 50.035 37.3156 47.0315 39.3628C44.8296 40.0542 43.0147 42.4718 45.7432 43.6832C48.6085 45.9664 51.9292 45.407 54.5679 43.8656C56.9843 42.4292 59.5944 40.657 60.7124 37.9531C61.7682 34.991 59.044 34.8812 56.9971 35.1656ZM67.1179 46.6433C66.4534 49.4183 63.6589 50.68 62.1721 52.8789C60.9565 54.4828 61.5194 56.3722 62.9034 57.6347C63.5772 59.032 64.7585 59.8128 66.0253 58.5992C69.2878 56.3812 70.1901 52.0609 70.0546 48.3175C70.2956 46.7714 68.5218 48.1691 67.1179 46.6433ZM54.7026 51.8554C50.3702 52.5968 46.037 54.7078 42.4257 57.2C39.6221 59.4582 44.9022 61.5667 46.8772 61.9011C50.8917 61.907 54.4725 59.3199 57.0108 56.3816C57.8936 55.2148 58.9636 52.9488 57.2155 52.021C56.4339 51.6898 55.5264 51.7871 54.7026 51.8554Z" fill="#B956A6"/>
<path fill-rule="evenodd" clip-rule="evenodd" d="M35.4168 34.1612C32.0848 35.4944 28.8707 37.1132 25.6965 38.8085C25.1067 41.0019 25.5797 43.7179 25.427 46.123C25.4153 56.012 25.4207 65.9015 25.4192 75.7905H32.7707C34.2551 74.3929 36.1145 73.3698 37.727 72.1007C43.9356 67.648 50.1422 63.178 56.3426 58.7378C56.7989 58.9429 56.5067 56.0538 55.5059 58.0605C53.1344 60.2921 49.9867 62.1276 46.6551 61.9484C44.7645 61.3265 41.7168 60.2714 41.6977 57.9546C43.0285 56.3878 39.2422 58.7749 38.2063 59.1167C34.8383 60.7339 31.55 62.5398 28.175 64.1269C28.986 63.2558 30.5032 62.4437 31.5789 61.5796C39.2637 56.0632 46.9465 50.5253 54.6496 45.0132C56.1313 43.973 57.5625 42.8382 59.0899 41.8659C59.2293 42.4046 59.491 39.2905 58.3551 41.2077C56.0395 43.503 52.916 45.2116 49.6219 45.2351C47.7692 44.6726 43.8231 43.3276 44.7016 40.9355C45.1301 40.096 40.7219 42.7249 42.6696 41.2425C44.7426 39.7276 46.8321 38.2398 48.9211 36.7405C49.9762 36.6612 49.7516 32.7421 48.318 35.2702C45.9098 37.3862 42.7457 39.3222 39.4289 38.8632C37.5657 38.3269 35.3301 37.2882 34.6528 35.3398C34.4285 34.8718 35.9075 34.1425 35.4168 34.1612ZM49.2211 36.5804C49.5559 36.3874 49.0364 37.1089 49.2211 36.5804Z" fill="#FCCC44"/>
<path fill-rule="evenodd" clip-rule="evenodd" d="M70.2732 31.5429C69.233 36.5101 68.0959 41.7089 67.1182 46.6433C69.9275 50.1839 70.1998 44.4066 70.6912 42.773C71.4853 39.3585 72.426 36.7804 72.5256 33.2452C72.7365 32.0386 71.3186 31.3081 70.2732 31.5429ZM73.4963 35.4382C73.6244 35.5339 73.4084 35.9472 73.4963 35.4382ZM70.2189 46.5765C70.3541 46.8675 70.3541 46.2851 70.2189 46.5765Z" fill="#62777F"/>
<path fill-rule="evenodd" clip-rule="evenodd" d="M72.1157 32.1055C72.9923 37.0281 70.0888 43.0086 69.1392 47.65C71.2954 46.0633 72.9614 38.864 73.3872 36.0461C73.497 35.7238 73.6321 34.9129 73.6614 34.8836C73.797 34.1996 75.0599 33.0406 75.129 32.2949C75.8642 31.7762 71.5157 31.693 72.1157 32.1055ZM70.3278 46.5765C70.1923 46.8676 70.1923 46.2851 70.3278 46.5765Z" fill="#4E5E67"/>
<path fill-rule="evenodd" clip-rule="evenodd" d="M35.4899 34.2433C34.2743 35.4605 34.7306 35.1632 35.6353 34.1511L35.4899 34.2433ZM48.6384 34.846C47.2302 36.9621 42.1521 38.7316 41.5126 38.8687C44.5673 38.2964 47.4146 36.396 49.4181 34.1703C49.0997 34.3121 48.9106 34.6453 48.6384 34.846ZM34.6548 35.5332C35.4138 37.3582 38.1735 38.5707 39.5145 38.8535C37.6837 38.2636 35.5286 37.2175 34.6548 35.5332ZM49.1118 36.5886C48.7286 37.041 47.3638 37.7175 46.6442 38.3816C45.1009 39.5199 43.5044 40.5777 41.9786 41.7445C42.9501 41.7027 45.797 39.5761 44.3376 41.7339C45.5743 43.8624 48.2669 45.3425 50.722 45.2074C53.9642 44.6984 56.954 42.9058 59.1032 40.4128C56.4942 42.9945 53.045 45.4242 49.2282 45.0894C47.381 44.6628 42.3333 42.0554 45.7099 40.2277C46.9005 39.2484 48.9532 38.7355 49.1856 37.0144C49.1368 36.7996 49.5372 36.5898 49.1118 36.5886ZM39.87 38.9804C41.0985 39.141 41.0985 38.8203 39.87 38.9804ZM59.0118 41.9199C54.1372 45.316 49.3333 48.8449 44.5009 52.3019C39.0243 56.2214 33.5712 60.1554 28.0962 64.0718C30.1548 63.3777 32.2173 62.0222 34.2622 61.0859C37.0786 59.596 40.0481 58.4191 42.6833 56.6093C47.8935 53.5421 53.4036 50.6199 57.411 45.9273C58.2856 44.9015 59.1626 43.2503 59.2017 42.1398C59.0755 42.1753 59.1712 41.6957 59.0118 41.9199ZM42.4259 57.2C41.5489 58.191 41.1927 58.8992 42.1028 57.639C42.0868 57.7851 42.8415 56.8566 42.4259 57.2ZM55.7681 57.6742C53.4579 60.1101 50.0411 61.8671 46.8353 61.9855C50.5415 62.0124 53.8853 59.8124 56.3962 57.2171C56.2313 57.0179 55.8974 57.6812 55.7681 57.6742ZM56.4739 58.4398C48.7126 64.0898 40.6833 69.9503 32.8958 75.58C34.1224 75.9648 36.7938 76.1453 38.013 74.5746C40.6067 72.7847 43.5228 71.4687 46.1251 69.6546C49.8935 67.2093 53.9282 64.5367 56.0685 60.4269C56.1704 59.8757 56.9278 58.8843 56.4739 58.4398ZM41.7032 58.7984C42.0634 60.3187 46.5657 62.0636 46.0774 61.7296C44.4173 61.1476 42.7704 60.2406 41.7032 58.7984Z" fill="#DC9624"/>
</g>
<defs>
<linearGradient id="paint0_linear_38_13" x1="0" y1="100" x2="100" y2="0" gradientUnits="userSpaceOnUse">
<stop stop-color="#DB7093"/>
<stop offset="1" stop-color="#F3B661"/>
</linearGradient>
<clipPath id="clip0_38_13">
<rect width="100" height="100" fill="white"/>
</clipPath>
</defs>
</svg>
