<svg width="100" height="102" viewBox="0 0 100 102" fill="none" xmlns="http://www.w3.org/2000/svg">
<g clip-path="url(#clip0_8_281)">
<path d="M7.8125 0.816895H92.1875C96.5023 0.816895 100 4.32298 100 8.64822V93.2265C100 97.5518 96.5023 101.058 92.1875 101.058H7.8125C3.49766 101.058 0 97.5518 0 93.2265V8.64822C0 4.32298 3.49766 0.816895 7.8125 0.816895Z" fill="#3178C6"/>
<path d="M58.7961 79.3163V90.1313C60.5508 91.0327 62.6262 91.7085 65.0219 92.1592C67.4176 92.6099 69.9426 92.8351 72.5973 92.8351C75.184 92.8351 77.6418 92.5872 79.9699 92.0915C82.298 91.5958 84.3398 90.779 86.0941 89.6415C87.8488 88.5036 89.2379 87.0164 90.2617 85.18C91.2852 83.3439 91.7969 81.074 91.7969 78.3702C91.7969 76.4101 91.5043 74.6919 90.9195 73.216C90.3412 71.7502 89.4813 70.4125 88.3887 69.2788C87.2867 68.1296 85.9648 67.099 84.4242 66.1863C82.8832 65.2739 81.1453 64.4121 79.2105 63.6011C77.7934 63.015 76.5227 62.4464 75.3977 61.8943C74.273 61.3422 73.3168 60.7791 72.5297 60.2043C71.7422 59.6299 71.1348 59.0214 70.7074 58.3792C70.2801 57.737 70.0664 57.0107 70.0664 56.1994C70.0664 55.4558 70.2574 54.7858 70.6398 54.1887C71.0223 53.5915 71.5625 53.079 72.2598 52.651C72.957 52.2226 73.8117 51.8906 74.8242 51.6537C75.8363 51.4172 76.9613 51.2989 78.1984 51.2989C79.0984 51.2989 80.0488 51.3666 81.0496 51.5017C82.0508 51.6368 83.0574 51.8451 84.0699 52.1271C85.0792 52.4075 86.0661 52.7634 87.0223 53.1917C87.9495 53.6036 88.8363 54.1013 89.6711 54.6785V44.5734C88.0289 43.9426 86.2348 43.475 84.2891 43.1708C82.3434 42.8665 80.1105 42.7146 77.591 42.7146C75.0266 42.7146 72.5973 42.9907 70.3027 43.5428C68.0082 44.0945 65.9891 44.9563 64.2457 46.1279C62.5023 47.2998 61.1246 48.7925 60.1121 50.6062C59.1 52.42 58.5938 54.5885 58.5938 57.1121C58.5938 60.3339 59.5215 63.0827 61.3777 65.3585C63.2336 67.6339 66.0508 69.5604 69.8301 71.1376C71.2252 71.7072 72.609 72.3044 73.9805 72.929C75.2629 73.5148 76.3707 74.1229 77.3043 74.7537C78.2379 75.3845 78.9746 76.0717 79.5145 76.8153C80.0543 77.5589 80.3242 78.4039 80.3242 79.3503C80.3287 80.0314 80.1541 80.7017 79.818 81.2937C79.4809 81.8904 78.9688 82.4088 78.2828 82.8482C77.5969 83.2875 76.7418 83.6309 75.7184 83.8788C74.6949 84.1266 73.4969 84.2508 72.1246 84.2508C69.7852 84.2508 67.4684 83.8396 65.1738 83.0169C62.8789 82.1947 60.7531 80.9612 58.7961 79.3163ZM40.8133 52.4027H54.6875V43.4977H16.0156V52.4027H29.8223V92.0519H40.8133V52.4027Z" fill="white"/>
</g>
<defs>
<clipPath id="clip0_8_281">
<rect width="100" height="100.241" fill="white" transform="translate(0 0.816895)"/>
</clipPath>
</defs>
</svg>
