<svg width="100" height="100" viewBox="0 0 100 100" fill="none" xmlns="http://www.w3.org/2000/svg">
<g clip-path="url(#clip0_38_2)">
<mask id="mask0_38_2" style="mask-type:alpha" maskUnits="userSpaceOnUse" x="-1" y="0" width="101" height="100">
<path fill-rule="evenodd" clip-rule="evenodd" d="M70.9115 99.3172C71.7073 99.6274 72.5583 99.7706 73.4118 99.7378C74.2653 99.705 75.1029 99.497 75.8724 99.1266L96.4607 89.2195C97.521 88.7091 98.4156 87.9098 99.0417 86.9134C99.6678 85.9171 99.9999 84.7642 99.9998 83.5875V16.4133C100 15.2364 99.668 14.0834 99.0419 13.0869C98.4158 12.0904 97.5211 11.2909 96.4607 10.7805L75.8724 0.874989C74.7091 0.315228 73.4005 0.130928 72.1278 0.347597C70.855 0.564265 69.6812 1.17119 68.7685 2.08436L29.3545 38.0422L12.1873 25.0101C11.4129 24.4222 10.4571 24.1238 9.48566 24.1669C8.51427 24.21 7.58862 24.5918 6.86932 25.2461L1.36307 30.2547C0.93397 30.645 0.591052 31.1205 0.356256 31.6509C0.121459 32.1813 -4.58684e-05 32.7549 -0.000487075 33.3349C-0.000928282 33.9149 0.119704 34.4887 0.353694 35.0194C0.587683 35.5502 0.929877 36.0262 1.35839 36.4172L16.2467 50L1.35917 63.5836C0.930892 63.9746 0.588902 64.4506 0.355058 64.9813C0.121215 65.512 0.000660363 66.0856 0.00110152 66.6655C0.00154269 67.2454 0.122969 67.8188 0.357621 68.3491C0.592272 68.8794 0.934985 69.355 1.36385 69.7453L6.8701 74.7539C7.58924 75.4084 8.51486 75.7905 9.48629 75.8337C10.4577 75.8769 11.4136 75.5787 12.1881 74.9906L29.3553 61.9594L68.7693 97.9164C69.3788 98.5269 70.1078 99.0039 70.9115 99.3172ZM75.0146 27.2992L45.1092 50L75.0154 72.7016L75.0146 27.2992Z" fill="white"/>
</mask>
<g mask="url(#mask0_38_2)">
<path d="M96.4615 10.7969L75.8568 0.875027C74.693 0.314895 73.3838 0.130395 72.1105 0.347066C70.8372 0.563736 69.6628 1.17086 68.7497 2.0844L1.29817 63.5836C0.869572 63.9744 0.527294 64.4504 0.293243 64.9811C0.0591918 65.5118 -0.0614752 66.0855 -0.061034 66.6655C-0.0605927 67.2455 0.060947 67.8191 0.295805 68.3494C0.530663 68.8797 0.873665 69.3552 1.30286 69.7453L6.81223 74.7539C7.53201 75.4084 8.45813 75.7904 9.43001 75.8336C10.4019 75.8769 11.3583 75.5786 12.1333 74.9907L93.3607 13.3696C96.0857 11.3024 99.9997 13.2461 99.9997 16.6664V16.4274C99.9997 15.2509 99.6676 14.0983 99.0417 13.1021C98.4157 12.106 97.5214 11.3074 96.4615 10.7969Z" fill="#0065A9"/>
<g filter="url(#filter0_d_38_2)">
<path d="M96.4615 89.204L75.8568 99.1243C74.6931 99.6846 73.384 99.8694 72.1108 99.653C70.8375 99.4366 69.663 98.8298 68.7497 97.9165L1.29817 36.4165C0.869572 36.0257 0.527294 35.5497 0.293243 35.019C0.0591918 34.4883 -0.0614752 33.9146 -0.061034 33.3346C-0.0605927 32.7546 0.060947 32.181 0.295805 31.6507C0.530663 31.1204 0.873665 30.6449 1.30286 30.2548L6.81223 25.2462C7.53201 24.5917 8.45813 24.2097 9.43001 24.1665C10.4019 24.1232 11.3583 24.4215 12.1333 25.0094L93.3607 86.6298C96.0857 88.6977 99.9997 86.754 99.9997 83.3337V83.5727C99.9997 84.7492 99.6676 85.9018 99.0417 86.898C98.4157 87.8941 97.5214 88.6934 96.4615 89.204Z" fill="#007ACC"/>
</g>
<g filter="url(#filter1_d_38_2)">
<path d="M75.8578 99.1265C74.6937 99.6863 73.3845 99.8705 72.1111 99.6537C70.8378 99.4369 69.6633 98.8298 68.75 97.9164C71.0562 100.223 75 98.589 75 95.3273V4.67184C75 1.41012 71.0562 -0.223477 68.75 2.08355C69.6633 1.17012 70.8378 0.563023 72.1111 0.346226C73.3845 0.12943 74.6937 0.313646 75.8578 0.873398L96.4586 10.7812C97.5194 11.2913 98.4146 12.0907 99.0411 13.0872C99.6677 14.0837 100 15.2369 100 16.414V83.5875C100 84.7646 99.6677 85.9178 99.0411 86.9143C98.4146 87.9108 97.5194 88.7101 96.4586 89.2203L75.8578 99.1265Z" fill="#1F9CF0"/>
</g>
<path opacity="0.25" fill-rule="evenodd" clip-rule="evenodd" d="M70.8514 99.3172C71.647 99.6273 72.4979 99.7704 73.3513 99.7377C74.2046 99.7049 75.042 99.4969 75.8115 99.1266L96.3998 89.2195C97.4602 88.7091 98.3549 87.9096 98.981 86.9131C99.6071 85.9166 99.9391 84.7636 99.9389 83.5867V16.4133C99.9391 15.2364 99.6071 14.0834 98.981 13.0869C98.3549 12.0904 97.4602 11.2909 96.3998 10.7805L75.8115 0.874989C74.6482 0.315228 73.3396 0.130928 72.0668 0.347597C70.7941 0.564265 69.6202 1.17119 68.7076 2.08436L29.2936 38.0422L12.1264 25.0109C11.352 24.4229 10.3961 24.1246 9.42474 24.1677C8.45335 24.2108 7.5277 24.5926 6.8084 25.2469L1.30215 30.2555C0.873151 30.6458 0.53033 31.1214 0.295602 31.6518C0.0608748 32.1821 -0.0605928 32.7557 -0.061034 33.3357C-0.0614751 33.9157 0.0591198 34.4894 0.29304 35.0201C0.52696 35.5509 0.869058 36.027 1.29746 36.418L16.1857 50L1.29824 63.5828C0.869732 63.9737 0.527538 64.4498 0.293549 64.9806C0.0595598 65.5113 -0.0610727 66.085 -0.0606315 66.6651C-0.0601903 67.2451 0.0613149 67.8187 0.296111 68.3491C0.530908 68.8795 0.873826 69.355 1.30293 69.7453L6.80918 74.7539C7.52839 75.4083 8.45399 75.7902 9.42538 75.8335C10.3968 75.8767 11.3526 75.5785 12.1271 74.9906L29.2951 61.9586L68.7092 97.9164C69.3184 98.5268 70.0479 99.0039 70.8514 99.3172ZM74.9545 27.2984L45.0482 50L74.9545 72.7008V27.2984Z" fill="url(#paint0_linear_38_2)"/>
</g>
</g>
<defs>
<filter id="filter0_d_38_2" x="-8.39503" y="15.8284" width="116.729" height="92.2466" filterUnits="userSpaceOnUse" color-interpolation-filters="sRGB">
<feFlood flood-opacity="0" result="BackgroundImageFix"/>
<feColorMatrix in="SourceAlpha" type="matrix" values="0 0 0 0 0 0 0 0 0 0 0 0 0 0 0 0 0 0 127 0" result="hardAlpha"/>
<feOffset/>
<feGaussianBlur stdDeviation="4.167"/>
<feColorMatrix type="matrix" values="0 0 0 0 0 0 0 0 0 0 0 0 0 0 0 0 0 0 0.25 0"/>
<feBlend mode="overlay" in2="BackgroundImageFix" result="effect1_dropShadow_38_2"/>
<feBlend mode="normal" in="SourceGraphic" in2="effect1_dropShadow_38_2" result="shape"/>
</filter>
<filter id="filter1_d_38_2" x="60.416" y="-8.07619" width="47.918" height="116.152" filterUnits="userSpaceOnUse" color-interpolation-filters="sRGB">
<feFlood flood-opacity="0" result="BackgroundImageFix"/>
<feColorMatrix in="SourceAlpha" type="matrix" values="0 0 0 0 0 0 0 0 0 0 0 0 0 0 0 0 0 0 127 0" result="hardAlpha"/>
<feOffset/>
<feGaussianBlur stdDeviation="4.167"/>
<feColorMatrix type="matrix" values="0 0 0 0 0 0 0 0 0 0 0 0 0 0 0 0 0 0 0.25 0"/>
<feBlend mode="overlay" in2="BackgroundImageFix" result="effect1_dropShadow_38_2"/>
<feBlend mode="normal" in="SourceGraphic" in2="effect1_dropShadow_38_2" result="shape"/>
</filter>
<linearGradient id="paint0_linear_38_2" x1="49.9389" y1="0.257802" x2="49.9389" y2="99.7422" gradientUnits="userSpaceOnUse">
<stop stop-color="white"/>
<stop offset="1" stop-color="white" stop-opacity="0"/>
</linearGradient>
<clipPath id="clip0_38_2">
<rect width="100" height="100" fill="white"/>
</clipPath>
</defs>
</svg>
